<?xml version="1.0" encoding="utf-8" standalone="no"?>
<!DOCTYPE svg PUBLIC "-//W3C//DTD SVG 1.1//EN"
  "http://www.w3.org/Graphics/SVG/1.1/DTD/svg11.dtd">
<svg xmlns:xlink="http://www.w3.org/1999/xlink" width="410.27625pt" height="301.06575pt" viewBox="0 0 410.27625 301.06575" xmlns="http://www.w3.org/2000/svg" version="1.1">
 <metadata>
  <rdf:RDF xmlns:dc="http://purl.org/dc/elements/1.1/" xmlns:cc="http://creativecommons.org/ns#" xmlns:rdf="http://www.w3.org/1999/02/22-rdf-syntax-ns#">
   <cc:Work>
    <dc:type rdf:resource="http://purl.org/dc/dcmitype/StillImage"/>
    <dc:date>2026-07-17T08:14:37.947520</dc:date>
    <dc:format>image/svg+xml</dc:format>
    <dc:creator>
     <cc:Agent>
      <dc:title>Matplotlib v3.10.8, https://matplotlib.org/</dc:title>
     </cc:Agent>
    </dc:creator>
   </cc:Work>
  </rdf:RDF>
 </metadata>
 <defs>
  <style type="text/css">*{stroke-linejoin: round; stroke-linecap: butt}</style>
 </defs>
 <g id="figure_1">
  <g id="patch_1">
   <path d="M 0 301.06575 
L 410.27625 301.06575 
L 410.27625 0 
L 0 0 
L 0 301.06575 
z
" style="fill: none"/>
  </g>
  <g id="axes_1">
   <g id="patch_2">
    <path d="M 49.30625 263.492 
L 410.27625 263.492 
L 410.27625 0 
L 49.30625 0 
L 49.30625 263.492 
z
" style="fill: none"/>
   </g>
   <g id="FillBetweenPolyCollection_1">
    <defs>
     <path id="m97a4437b49" d="M 75.642777 -51.775288 
L 74.536865 -51.775288 
L 74.526619 -53.852023 
L 74.520279 -55.928757 
L 74.514457 -58.005492 
L 74.504674 -60.082226 
L 74.485512 -62.158961 
L 74.450838 -64.235695 
L 74.394097 -66.31243 
L 74.308631 -68.389164 
L 74.188031 -70.465898 
L 74.026482 -72.542633 
L 73.819087 -74.619367 
L 73.562143 -76.696102 
L 73.253343 -78.772836 
L 72.891883 -80.849571 
L 72.478445 -82.926305 
L 72.015044 -85.00304 
L 71.504737 -87.079774 
L 70.951215 -89.156509 
L 70.358298 -91.233243 
L 69.729405 -93.309978 
L 69.067061 -95.386712 
L 68.372521 -97.463447 
L 67.645585 -99.540181 
L 66.884677 -101.616916 
L 66.087198 -103.69365 
L 65.250167 -105.770385 
L 64.371084 -107.847119 
L 63.448932 -109.923854 
L 62.485178 -112.000588 
L 61.484629 -114.077323 
L 60.455998 -116.154057 
L 59.412055 -118.230792 
L 58.369287 -120.307526 
L 57.347079 -122.38426 
L 56.366457 -124.460995 
L 55.448557 -126.537729 
L 54.612989 -128.614464 
L 53.87632 -130.691198 
L 53.250877 -132.767933 
L 52.744038 -134.844667 
L 52.358089 -136.921402 
L 52.090668 -138.998136 
L 51.935691 -141.074871 
L 51.884607 -143.151605 
L 51.927777 -145.22834 
L 52.055741 -147.305074 
L 52.260196 -149.381809 
L 52.53453 -151.458543 
L 52.873876 -153.535278 
L 53.274698 -155.612012 
L 53.734041 -157.688747 
L 54.248595 -159.765481 
L 54.813785 -161.842216 
L 55.423066 -163.91895 
L 56.067573 -165.995685 
L 56.736217 -168.072419 
L 57.41623 -170.149154 
L 58.094093 -172.225888 
L 58.756712 -174.302623 
L 59.392681 -176.379357 
L 59.99341 -178.456091 
L 60.553989 -180.532826 
L 61.073607 -182.60956 
L 61.555506 -184.686295 
L 62.006441 -186.763029 
L 62.435743 -188.839764 
L 62.85411 -190.916498 
L 63.272293 -192.993233 
L 63.699865 -195.069967 
L 64.144198 -197.146702 
L 64.609782 -199.223436 
L 65.097923 -201.300171 
L 65.606812 -203.376905 
L 66.13192 -205.45364 
L 66.666623 -207.530374 
L 67.202958 -209.607109 
L 67.732413 -211.683843 
L 68.246669 -213.760578 
L 68.738235 -215.837312 
L 69.200949 -217.914047 
L 69.630321 -219.990781 
L 70.023719 -222.067516 
L 70.380403 -224.14425 
L 70.70143 -226.220985 
L 70.989422 -228.297719 
L 71.248243 -230.374454 
L 71.482601 -232.451188 
L 71.697602 -234.527922 
L 71.898324 -236.604657 
L 72.089421 -238.681391 
L 72.274805 -240.758126 
L 72.457446 -242.83486 
L 72.639274 -244.911595 
L 72.821198 -246.988329 
L 73.003218 -249.065064 
L 73.1846 -251.141798 
L 73.364079 -253.218533 
L 73.540069 -255.295267 
L 73.710851 -257.372002 
L 76.468792 -257.372002 
L 76.468792 -257.372002 
L 76.639574 -255.295267 
L 76.815564 -253.218533 
L 76.995043 -251.141798 
L 77.176425 -249.065064 
L 77.358445 -246.988329 
L 77.540369 -244.911595 
L 77.722197 -242.83486 
L 77.904838 -240.758126 
L 78.090222 -238.681391 
L 78.281318 -236.604657 
L 78.482041 -234.527922 
L 78.697042 -232.451188 
L 78.931399 -230.374454 
L 79.190221 -228.297719 
L 79.478213 -226.220985 
L 79.79924 -224.14425 
L 80.155924 -222.067516 
L 80.549321 -219.990781 
L 80.978694 -217.914047 
L 81.441408 -215.837312 
L 81.932974 -213.760578 
L 82.447229 -211.683843 
L 82.976684 -209.607109 
L 83.51302 -207.530374 
L 84.047723 -205.45364 
L 84.57283 -203.376905 
L 85.081719 -201.300171 
L 85.569861 -199.223436 
L 86.035445 -197.146702 
L 86.479778 -195.069967 
L 86.90735 -192.993233 
L 87.325533 -190.916498 
L 87.743899 -188.839764 
L 88.173202 -186.763029 
L 88.624137 -184.686295 
L 89.106036 -182.60956 
L 89.625654 -180.532826 
L 90.186232 -178.456091 
L 90.786962 -176.379357 
L 91.422931 -174.302623 
L 92.08555 -172.225888 
L 92.763412 -170.149154 
L 93.443426 -168.072419 
L 94.11207 -165.995685 
L 94.756577 -163.91895 
L 95.365858 -161.842216 
L 95.931048 -159.765481 
L 96.445602 -157.688747 
L 96.904945 -155.612012 
L 97.305767 -153.535278 
L 97.645113 -151.458543 
L 97.919447 -149.381809 
L 98.123901 -147.305074 
L 98.251866 -145.22834 
L 98.295036 -143.151605 
L 98.243952 -141.074871 
L 98.088975 -138.998136 
L 97.821554 -136.921402 
L 97.435605 -134.844667 
L 96.928765 -132.767933 
L 96.303323 -130.691198 
L 95.566653 -128.614464 
L 94.731086 -126.537729 
L 93.813186 -124.460995 
L 92.832564 -122.38426 
L 91.810356 -120.307526 
L 90.767588 -118.230792 
L 89.723644 -116.154057 
L 88.695014 -114.077323 
L 87.694465 -112.000588 
L 86.730711 -109.923854 
L 85.808559 -107.847119 
L 84.929476 -105.770385 
L 84.092444 -103.69365 
L 83.294966 -101.616916 
L 82.534058 -99.540181 
L 81.807122 -97.463447 
L 81.112581 -95.386712 
L 80.450237 -93.309978 
L 79.821345 -91.233243 
L 79.228427 -89.156509 
L 78.674906 -87.079774 
L 78.164599 -85.00304 
L 77.701198 -82.926305 
L 77.28776 -80.849571 
L 76.9263 -78.772836 
L 76.6175 -76.696102 
L 76.360555 -74.619367 
L 76.15316 -72.542633 
L 75.991612 -70.465898 
L 75.871012 -68.389164 
L 75.785546 -66.31243 
L 75.728804 -64.235695 
L 75.694131 -62.158961 
L 75.674968 -60.082226 
L 75.665186 -58.005492 
L 75.659364 -55.928757 
L 75.653024 -53.852023 
L 75.642777 -51.775288 
z
" style="stroke: #2f2f2f; stroke-width: 0.75"/>
    </defs>
    <g clip-path="url(#p8bc2794d86)">
     <use xlink:href="#m97a4437b49" x="0" y="301.06575" style="fill: #166c9c; stroke: #2f2f2f; stroke-width: 0.75"/>
    </g>
   </g>
   <g id="FillBetweenPolyCollection_2">
    <defs>
     <path id="mb684345716" d="M 127.210381 -49.550659 
L 126.103547 -49.550659 
L 126.095825 -51.591419 
L 126.09307 -53.632179 
L 126.092159 -55.672938 
L 126.088927 -57.713698 
L 126.078327 -59.754458 
L 126.054665 -61.795218 
L 126.011895 -63.835977 
L 125.943944 -65.876737 
L 125.845072 -67.917497 
L 125.710207 -69.958257 
L 125.535263 -71.999017 
L 125.317398 -74.039776 
L 125.055186 -76.080536 
L 124.748684 -78.121296 
L 124.399358 -80.162056 
L 124.009872 -82.202815 
L 123.583725 -84.243575 
L 123.124767 -86.284335 
L 122.636622 -88.325095 
L 122.122091 -90.365855 
L 121.582595 -92.406614 
L 121.017744 -94.447374 
L 120.425122 -96.488134 
L 119.800334 -98.528894 
L 119.137369 -100.569653 
L 118.429265 -102.610413 
L 117.669056 -104.651173 
L 116.850894 -106.691933 
L 115.971249 -108.732692 
L 115.030021 -110.773452 
L 114.031427 -112.814212 
L 112.984526 -114.854972 
L 111.903259 -116.895732 
L 110.805992 -118.936491 
L 109.714539 -120.977251 
L 108.652789 -123.018011 
L 107.645052 -125.058771 
L 106.714335 -127.09953 
L 105.880734 -129.14029 
L 105.160138 -131.18105 
L 104.563386 -133.22181 
L 104.095956 -135.26257 
L 103.75819 -137.303329 
L 103.545975 -139.344089 
L 103.45175 -141.384849 
L 103.46566 -143.425609 
L 103.576682 -145.466368 
L 103.773557 -147.507128 
L 104.045441 -149.547888 
L 104.38222 -151.588648 
L 104.774518 -153.629407 
L 105.213501 -155.670167 
L 105.690569 -157.710927 
L 106.197076 -159.751687 
L 106.724187 -161.792447 
L 107.262924 -163.833206 
L 107.804432 -165.873966 
L 108.34043 -167.914726 
L 108.863773 -169.955486 
L 109.369049 -171.996245 
L 109.853094 -174.037005 
L 110.315358 -176.077765 
L 110.758038 -178.118525 
L 111.185961 -180.159285 
L 111.606195 -182.200044 
L 112.027419 -184.240804 
L 112.45911 -186.281564 
L 112.910624 -188.322324 
L 113.390241 -190.363083 
L 113.904294 -192.403843 
L 114.45645 -194.444603 
L 115.047222 -196.485363 
L 115.673764 -198.526122 
L 116.32996 -200.566882 
L 117.006807 -202.607642 
L 117.693049 -204.648402 
L 118.375996 -206.689162 
L 119.042466 -208.729921 
L 119.679752 -210.770681 
L 120.276532 -212.811441 
L 120.823658 -214.852201 
L 121.31475 -216.89296 
L 121.746556 -218.93372 
L 122.119047 -220.97448 
L 122.435261 -223.01524 
L 122.700899 -225.056 
L 122.923735 -227.096759 
L 123.112888 -229.137519 
L 123.278029 -231.178279 
L 123.428603 -233.219039 
L 123.573144 -235.259798 
L 123.71872 -237.300558 
L 123.87057 -239.341318 
L 124.031945 -241.382078 
L 124.204126 -243.422837 
L 124.38663 -245.463597 
L 124.577522 -247.504357 
L 124.773808 -249.545117 
L 124.971856 -251.585877 
L 128.342072 -251.585877 
L 128.342072 -251.585877 
L 128.54012 -249.545117 
L 128.736407 -247.504357 
L 128.927298 -245.463597 
L 129.109802 -243.422837 
L 129.281984 -241.382078 
L 129.443358 -239.341318 
L 129.595209 -237.300558 
L 129.740785 -235.259798 
L 129.885325 -233.219039 
L 130.0359 -231.178279 
L 130.20104 -229.137519 
L 130.390193 -227.096759 
L 130.61303 -225.056 
L 130.878668 -223.01524 
L 131.194881 -220.97448 
L 131.567372 -218.93372 
L 131.999178 -216.89296 
L 132.490271 -214.852201 
L 133.037397 -212.811441 
L 133.634177 -210.770681 
L 134.271462 -208.729921 
L 134.937933 -206.689162 
L 135.62088 -204.648402 
L 136.307121 -202.607642 
L 136.983969 -200.566882 
L 137.640164 -198.526122 
L 138.266706 -196.485363 
L 138.857479 -194.444603 
L 139.409635 -192.403843 
L 139.923688 -190.363083 
L 140.403305 -188.322324 
L 140.854818 -186.281564 
L 141.28651 -184.240804 
L 141.707733 -182.200044 
L 142.127967 -180.159285 
L 142.555891 -178.118525 
L 142.998571 -176.077765 
L 143.460834 -174.037005 
L 143.944879 -171.996245 
L 144.450155 -169.955486 
L 144.973499 -167.914726 
L 145.509497 -165.873966 
L 146.051005 -163.833206 
L 146.589742 -161.792447 
L 147.116853 -159.751687 
L 147.62336 -157.710927 
L 148.100427 -155.670167 
L 148.53941 -153.629407 
L 148.931709 -151.588648 
L 149.268487 -149.547888 
L 149.540372 -147.507128 
L 149.737247 -145.466368 
L 149.848268 -143.425609 
L 149.862179 -141.384849 
L 149.767954 -139.344089 
L 149.555739 -137.303329 
L 149.217972 -135.26257 
L 148.750543 -133.22181 
L 148.15379 -131.18105 
L 147.433194 -129.14029 
L 146.599593 -127.09953 
L 145.668877 -125.058771 
L 144.66114 -123.018011 
L 143.59939 -120.977251 
L 142.507937 -118.936491 
L 141.41067 -116.895732 
L 140.329403 -114.854972 
L 139.282501 -112.814212 
L 138.283908 -110.773452 
L 137.342679 -108.732692 
L 136.463034 -106.691933 
L 135.644873 -104.651173 
L 134.884664 -102.610413 
L 134.17656 -100.569653 
L 133.513594 -98.528894 
L 132.888807 -96.488134 
L 132.296185 -94.447374 
L 131.731334 -92.406614 
L 131.191837 -90.365855 
L 130.677307 -88.325095 
L 130.189162 -86.284335 
L 129.730203 -84.243575 
L 129.304056 -82.202815 
L 128.91457 -80.162056 
L 128.565244 -78.121296 
L 128.258742 -76.080536 
L 127.996531 -74.039776 
L 127.778666 -71.999017 
L 127.603721 -69.958257 
L 127.468856 -67.917497 
L 127.369984 -65.876737 
L 127.302034 -63.835977 
L 127.259263 -61.795218 
L 127.235602 -59.754458 
L 127.225002 -57.713698 
L 127.22177 -55.672938 
L 127.220859 -53.632179 
L 127.218104 -51.591419 
L 127.210381 -49.550659 
z
" style="stroke: #2f2f2f; stroke-width: 0.75"/>
    </defs>
    <g clip-path="url(#p8bc2794d86)">
     <use xlink:href="#mb684345716" x="0" y="301.06575" style="fill: #96bdd2; stroke: #2f2f2f; stroke-width: 0.75"/>
    </g>
   </g>
   <g id="FillBetweenPolyCollection_3">
    <defs>
     <path id="me32490bb3e" d="M 178.817282 -56.246018 
L 177.630932 -56.246018 
L 177.607129 -58.268394 
L 177.582631 -60.290771 
L 177.553145 -62.313148 
L 177.513312 -64.335525 
L 177.456932 -66.357901 
L 177.377277 -68.380278 
L 177.267478 -70.402655 
L 177.120951 -72.425031 
L 176.931825 -74.447408 
L 176.695348 -76.469785 
L 176.408214 -78.492161 
L 176.068788 -80.514538 
L 175.677195 -82.536915 
L 175.235241 -84.559291 
L 174.746179 -86.581668 
L 174.2143 -88.604045 
L 173.644413 -90.626421 
L 173.041233 -92.648798 
L 172.408773 -94.671175 
L 171.749805 -96.693551 
L 171.065484 -98.715928 
L 170.355213 -100.738305 
L 169.616792 -102.760681 
L 168.846881 -104.783058 
L 168.041751 -106.805435 
L 167.198248 -108.827812 
L 166.314858 -110.850188 
L 165.392726 -112.872565 
L 164.43647 -114.894942 
L 163.454644 -116.917318 
L 162.459738 -118.939695 
L 161.467673 -120.962072 
L 160.496807 -122.984448 
L 159.566565 -125.006825 
L 158.695858 -127.029202 
L 157.901512 -129.051578 
L 157.196923 -131.073955 
L 156.591143 -133.096332 
L 156.08853 -135.118708 
L 155.688992 -137.141085 
L 155.388798 -139.163462 
L 155.181786 -141.185838 
L 155.060769 -143.208215 
L 155.018893 -145.230592 
L 155.050726 -147.252968 
L 155.152887 -149.275345 
L 155.324142 -151.297722 
L 155.56495 -153.320099 
L 155.876583 -155.342475 
L 156.259977 -157.364852 
L 156.714534 -159.387229 
L 157.237094 -161.409605 
L 157.821265 -163.431982 
L 158.457219 -165.454359 
L 159.132017 -167.476735 
L 159.830406 -169.499112 
L 160.535988 -171.521489 
L 161.232609 -173.543865 
L 161.905763 -175.566242 
L 162.543857 -177.588619 
L 163.139163 -179.610995 
L 163.688363 -181.633372 
L 164.192614 -183.655749 
L 164.657168 -185.678125 
L 165.090573 -187.700502 
L 165.503598 -189.722879 
L 165.907977 -191.745255 
L 166.315138 -193.767632 
L 166.735052 -195.790009 
L 167.175292 -197.812386 
L 167.640409 -199.834762 
L 168.131633 -201.857139 
L 168.64692 -203.879516 
L 169.181306 -205.901892 
L 169.727498 -207.924269 
L 170.27664 -209.946646 
L 170.819167 -211.969022 
L 171.345666 -213.991399 
L 171.847664 -216.013776 
L 172.318287 -218.036152 
L 172.752729 -220.058529 
L 173.148511 -222.080906 
L 173.505497 -224.103282 
L 173.825699 -226.125659 
L 174.112886 -228.148036 
L 174.37206 -230.170412 
L 174.608852 -232.192789 
L 174.828932 -234.215166 
L 175.037476 -236.237542 
L 175.238765 -238.259919 
L 175.435941 -240.282296 
L 175.630926 -242.304673 
L 175.8245 -244.327049 
L 176.016484 -246.349426 
L 176.206 -248.371803 
L 176.391746 -250.394179 
L 176.572249 -252.416556 
L 176.746058 -254.438933 
L 176.911883 -256.461309 
L 179.536331 -256.461309 
L 179.536331 -256.461309 
L 179.702156 -254.438933 
L 179.875966 -252.416556 
L 180.056468 -250.394179 
L 180.242214 -248.371803 
L 180.43173 -246.349426 
L 180.623714 -244.327049 
L 180.817288 -242.304673 
L 181.012273 -240.282296 
L 181.209449 -238.259919 
L 181.410738 -236.237542 
L 181.619282 -234.215166 
L 181.839362 -232.192789 
L 182.076154 -230.170412 
L 182.335328 -228.148036 
L 182.622516 -226.125659 
L 182.942718 -224.103282 
L 183.299704 -222.080906 
L 183.695485 -220.058529 
L 184.129928 -218.036152 
L 184.60055 -216.013776 
L 185.102548 -213.991399 
L 185.629047 -211.969022 
L 186.171575 -209.946646 
L 186.720717 -207.924269 
L 187.266908 -205.901892 
L 187.801294 -203.879516 
L 188.316582 -201.857139 
L 188.807805 -199.834762 
L 189.272922 -197.812386 
L 189.713163 -195.790009 
L 190.133076 -193.767632 
L 190.540238 -191.745255 
L 190.944616 -189.722879 
L 191.357641 -187.700502 
L 191.791047 -185.678125 
L 192.2556 -183.655749 
L 192.759851 -181.633372 
L 193.309051 -179.610995 
L 193.904358 -177.588619 
L 194.542451 -175.566242 
L 195.215605 -173.543865 
L 195.912226 -171.521489 
L 196.617809 -169.499112 
L 197.316197 -167.476735 
L 197.990995 -165.454359 
L 198.626949 -163.431982 
L 199.21112 -161.409605 
L 199.733681 -159.387229 
L 200.188238 -157.364852 
L 200.571632 -155.342475 
L 200.883265 -153.320099 
L 201.124072 -151.297722 
L 201.295327 -149.275345 
L 201.397489 -147.252968 
L 201.429321 -145.230592 
L 201.387446 -143.208215 
L 201.266428 -141.185838 
L 201.059416 -139.163462 
L 200.759223 -137.141085 
L 200.359685 -135.118708 
L 199.857071 -133.096332 
L 199.251292 -131.073955 
L 198.546702 -129.051578 
L 197.752356 -127.029202 
L 196.881649 -125.006825 
L 195.951407 -122.984448 
L 194.980542 -120.962072 
L 193.988477 -118.939695 
L 192.993571 -116.917318 
L 192.011744 -114.894942 
L 191.055489 -112.872565 
L 190.133357 -110.850188 
L 189.249967 -108.827812 
L 188.406464 -106.805435 
L 187.601333 -104.783058 
L 186.831422 -102.760681 
L 186.093001 -100.738305 
L 185.38273 -98.715928 
L 184.69841 -96.693551 
L 184.039441 -94.671175 
L 183.406981 -92.648798 
L 182.803801 -90.626421 
L 182.233914 -88.604045 
L 181.702036 -86.581668 
L 181.212973 -84.559291 
L 180.77102 -82.536915 
L 180.379426 -80.514538 
L 180.04 -78.492161 
L 179.752866 -76.469785 
L 179.516389 -74.447408 
L 179.327264 -72.425031 
L 179.180736 -70.402655 
L 179.070937 -68.380278 
L 178.991282 -66.357901 
L 178.934902 -64.335525 
L 178.89507 -62.313148 
L 178.865584 -60.290771 
L 178.841085 -58.268394 
L 178.817282 -56.246018 
z
" style="stroke: #2f2f2f; stroke-width: 0.75"/>
    </defs>
    <g clip-path="url(#p8bc2794d86)">
     <use xlink:href="#me32490bb3e" x="0" y="301.06575" style="fill: #ba611b; stroke: #2f2f2f; stroke-width: 0.75"/>
    </g>
   </g>
   <g id="FillBetweenPolyCollection_4">
    <defs>
     <path id="mecfa8b3e07" d="M 230.353903 -49.951117 
L 229.228597 -49.951117 
L 229.214687 -51.975122 
L 229.203259 -53.999127 
L 229.190727 -56.023131 
L 229.172446 -58.047136 
L 229.142894 -60.071141 
L 229.095914 -62.095145 
L 229.025043 -64.11915 
L 228.923869 -66.143155 
L 228.786422 -68.167159 
L 228.607544 -70.191164 
L 228.383236 -72.215169 
L 228.110915 -74.239173 
L 227.789592 -76.263178 
L 227.419892 -78.287183 
L 227.003948 -80.311187 
L 226.545121 -82.335192 
L 226.047577 -84.359197 
L 225.515753 -86.383201 
L 224.953759 -88.407206 
L 224.364793 -90.43121 
L 223.750643 -92.455215 
L 223.111368 -94.47922 
L 222.445223 -96.503224 
L 221.748858 -98.527229 
L 221.01783 -100.551234 
L 220.247357 -102.575238 
L 219.433277 -104.599243 
L 218.573063 -106.623248 
L 217.666803 -108.647252 
L 216.717974 -110.671257 
L 215.733906 -112.695262 
L 214.725855 -114.719266 
L 213.70863 -116.743271 
L 212.699822 -118.767276 
L 211.718688 -120.79128 
L 210.784846 -122.815285 
L 209.916923 -124.83929 
L 209.131326 -126.863294 
L 208.441289 -128.887299 
L 207.856287 -130.911304 
L 207.381878 -132.935308 
L 207.01995 -134.959313 
L 206.769285 -136.983317 
L 206.626333 -139.007322 
L 206.586036 -141.031327 
L 206.642555 -143.055331 
L 206.789807 -145.079336 
L 207.021715 -147.103341 
L 207.332188 -149.127345 
L 207.714865 -151.15135 
L 208.162735 -153.175355 
L 208.667731 -155.199359 
L 209.22045 -157.223364 
L 209.810074 -159.247369 
L 210.424576 -161.271373 
L 211.0512 -163.295378 
L 211.677199 -165.319383 
L 212.290714 -167.343387 
L 212.881709 -169.367392 
L 213.442811 -171.391397 
L 213.969945 -173.415401 
L 214.462667 -175.439406 
L 214.92414 -177.46341 
L 215.360742 -179.487415 
L 215.781337 -181.51142 
L 216.196302 -183.535424 
L 216.616411 -185.559429 
L 217.051701 -187.583434 
L 217.510453 -189.607438 
L 217.998389 -191.631443 
L 218.518148 -193.655448 
L 219.069095 -195.679452 
L 219.647443 -197.703457 
L 220.246641 -199.727462 
L 220.857989 -201.751466 
L 221.471367 -203.775471 
L 222.076037 -205.799476 
L 222.66142 -207.82348 
L 223.217813 -209.847485 
L 223.736999 -211.87149 
L 224.212714 -213.895494 
L 224.640973 -215.919499 
L 225.020216 -217.943504 
L 225.351304 -219.967508 
L 225.637334 -221.991513 
L 225.883313 -224.015517 
L 226.095703 -226.039522 
L 226.281875 -228.063527 
L 226.449521 -230.087531 
L 226.606071 -232.111536 
L 226.758178 -234.135541 
L 226.9113 -236.159545 
L 227.06943 -238.18355 
L 227.234965 -240.207555 
L 227.40874 -242.231559 
L 227.59018 -244.255564 
L 227.777554 -246.279569 
L 227.968288 -248.303573 
L 228.159296 -250.327578 
L 231.423204 -250.327578 
L 231.423204 -250.327578 
L 231.614212 -248.303573 
L 231.804946 -246.279569 
L 231.99232 -244.255564 
L 232.17376 -242.231559 
L 232.347535 -240.207555 
L 232.51307 -238.18355 
L 232.6712 -236.159545 
L 232.824322 -234.135541 
L 232.976429 -232.111536 
L 233.132979 -230.087531 
L 233.300625 -228.063527 
L 233.486797 -226.039522 
L 233.699187 -224.015517 
L 233.945166 -221.991513 
L 234.231196 -219.967508 
L 234.562284 -217.943504 
L 234.941527 -215.919499 
L 235.369786 -213.895494 
L 235.845501 -211.87149 
L 236.364687 -209.847485 
L 236.92108 -207.82348 
L 237.506463 -205.799476 
L 238.111133 -203.775471 
L 238.724511 -201.751466 
L 239.335859 -199.727462 
L 239.935057 -197.703457 
L 240.513405 -195.679452 
L 241.064352 -193.655448 
L 241.584111 -191.631443 
L 242.072047 -189.607438 
L 242.530799 -187.583434 
L 242.966089 -185.559429 
L 243.386198 -183.535424 
L 243.801163 -181.51142 
L 244.221758 -179.487415 
L 244.65836 -177.46341 
L 245.119833 -175.439406 
L 245.612555 -173.415401 
L 246.139689 -171.391397 
L 246.700791 -169.367392 
L 247.291786 -167.343387 
L 247.905301 -165.319383 
L 248.5313 -163.295378 
L 249.157924 -161.271373 
L 249.772426 -159.247369 
L 250.36205 -157.223364 
L 250.914769 -155.199359 
L 251.419765 -153.175355 
L 251.867635 -151.15135 
L 252.250312 -149.127345 
L 252.560785 -147.103341 
L 252.792693 -145.079336 
L 252.939945 -143.055331 
L 252.996464 -141.031327 
L 252.956167 -139.007322 
L 252.813215 -136.983317 
L 252.56255 -134.959313 
L 252.200622 -132.935308 
L 251.726213 -130.911304 
L 251.141211 -128.887299 
L 250.451174 -126.863294 
L 249.665577 -124.83929 
L 248.797654 -122.815285 
L 247.863812 -120.79128 
L 246.882678 -118.767276 
L 245.87387 -116.743271 
L 244.856645 -114.719266 
L 243.848594 -112.695262 
L 242.864526 -110.671257 
L 241.915697 -108.647252 
L 241.009437 -106.623248 
L 240.149223 -104.599243 
L 239.335143 -102.575238 
L 238.56467 -100.551234 
L 237.833642 -98.527229 
L 237.137277 -96.503224 
L 236.471132 -94.47922 
L 235.831857 -92.455215 
L 235.217707 -90.43121 
L 234.628741 -88.407206 
L 234.066747 -86.383201 
L 233.534923 -84.359197 
L 233.037379 -82.335192 
L 232.578552 -80.311187 
L 232.162608 -78.287183 
L 231.792908 -76.263178 
L 231.471585 -74.239173 
L 231.199264 -72.215169 
L 230.974956 -70.191164 
L 230.796078 -68.167159 
L 230.658631 -66.143155 
L 230.557457 -64.11915 
L 230.486586 -62.095145 
L 230.439606 -60.071141 
L 230.410054 -58.047136 
L 230.391773 -56.023131 
L 230.379241 -53.999127 
L 230.367813 -51.975122 
L 230.353903 -49.951117 
z
" style="stroke: #2f2f2f; stroke-width: 0.75"/>
    </defs>
    <g clip-path="url(#p8bc2794d86)">
     <use xlink:href="#mecfa8b3e07" x="0" y="301.06575" style="fill: #e0b898; stroke: #2f2f2f; stroke-width: 0.75"/>
    </g>
   </g>
   <g id="FillBetweenPolyCollection_5">
    <defs>
     <path id="me4d882335f" d="M 281.938789 -75.840901 
L 280.777996 -75.840901 
L 280.763617 -77.7864 
L 280.752108 -79.731898 
L 280.739724 -81.677397 
L 280.721588 -83.622895 
L 280.691863 -85.568393 
L 280.643998 -87.513892 
L 280.571035 -89.45939 
L 280.465953 -91.404889 
L 280.322032 -93.350387 
L 280.133218 -95.295886 
L 279.89447 -97.241384 
L 279.602071 -99.186883 
L 279.25388 -101.132381 
L 278.849506 -103.077879 
L 278.390361 -105.023378 
L 277.879587 -106.968876 
L 277.321813 -108.914375 
L 276.722757 -110.859873 
L 276.088664 -112.805372 
L 275.425637 -114.75087 
L 274.738918 -116.696369 
L 274.032218 -118.641867 
L 273.307207 -120.587366 
L 272.563263 -122.532864 
L 271.797572 -124.478362 
L 271.00564 -126.423861 
L 270.182177 -128.369359 
L 269.322315 -130.314858 
L 268.422992 -132.260356 
L 267.484321 -134.205855 
L 266.510739 -136.151353 
L 265.511713 -138.096852 
L 264.501857 -140.04235 
L 263.500366 -141.987848 
L 262.529777 -143.933347 
L 261.614184 -145.878845 
L 260.777113 -147.824344 
L 260.039339 -149.769842 
L 259.416936 -151.715341 
L 258.91986 -153.660839 
L 258.551243 -155.606338 
L 258.307521 -157.551836 
L 258.179353 -159.497335 
L 258.153179 -161.442833 
L 258.213173 -163.388331 
L 258.343284 -165.33383 
L 258.529052 -167.279328 
L 258.758957 -169.224827 
L 259.02513 -171.170325 
L 259.323387 -173.115824 
L 259.652665 -175.061322 
L 260.014006 -177.006821 
L 260.409348 -178.952319 
L 260.840329 -180.897817 
L 261.307331 -182.843316 
L 261.80889 -184.788814 
L 262.341551 -186.734313 
L 262.900111 -188.679811 
L 263.478199 -190.62531 
L 264.06902 -192.570808 
L 264.666145 -194.516307 
L 265.264195 -196.461805 
L 265.859331 -198.407304 
L 266.449497 -200.352802 
L 267.034389 -202.2983 
L 267.615203 -204.243799 
L 268.194204 -206.189297 
L 268.774172 -208.134796 
L 269.357823 -210.080294 
L 269.947242 -212.025793 
L 270.543396 -213.971291 
L 271.145769 -215.91679 
L 271.752154 -217.862288 
L 272.358626 -219.807786 
L 272.959707 -221.753285 
L 273.548717 -223.698783 
L 274.118297 -225.644282 
L 274.661047 -227.58978 
L 275.170218 -229.535279 
L 275.640379 -231.480777 
L 276.067967 -233.426276 
L 276.45165 -235.371774 
L 276.79244 -237.317273 
L 277.093554 -239.262771 
L 277.360012 -241.208269 
L 277.598066 -243.153768 
L 277.81451 -245.099266 
L 278.015991 -247.044765 
L 278.2084 -248.990263 
L 278.396429 -250.935762 
L 278.583326 -252.88126 
L 278.770854 -254.826759 
L 278.959439 -256.772257 
L 279.148442 -258.717755 
L 279.336495 -260.663254 
L 279.521844 -262.608752 
L 279.702644 -264.554251 
L 279.877171 -266.499749 
L 280.043949 -268.445248 
L 282.672836 -268.445248 
L 282.672836 -268.445248 
L 282.839614 -266.499749 
L 283.014141 -264.554251 
L 283.194942 -262.608752 
L 283.380291 -260.663254 
L 283.568344 -258.717755 
L 283.757347 -256.772257 
L 283.945932 -254.826759 
L 284.13346 -252.88126 
L 284.320357 -250.935762 
L 284.508386 -248.990263 
L 284.700795 -247.044765 
L 284.902275 -245.099266 
L 285.11872 -243.153768 
L 285.356774 -241.208269 
L 285.623232 -239.262771 
L 285.924345 -237.317273 
L 286.265136 -235.371774 
L 286.648818 -233.426276 
L 287.076407 -231.480777 
L 287.546568 -229.535279 
L 288.055739 -227.58978 
L 288.598489 -225.644282 
L 289.168069 -223.698783 
L 289.757079 -221.753285 
L 290.358159 -219.807786 
L 290.964632 -217.862288 
L 291.571017 -215.91679 
L 292.17339 -213.971291 
L 292.769544 -212.025793 
L 293.358963 -210.080294 
L 293.942614 -208.134796 
L 294.522582 -206.189297 
L 295.101582 -204.243799 
L 295.682397 -202.2983 
L 296.267289 -200.352802 
L 296.857454 -198.407304 
L 297.452591 -196.461805 
L 298.050641 -194.516307 
L 298.647765 -192.570808 
L 299.238587 -190.62531 
L 299.816675 -188.679811 
L 300.375235 -186.734313 
L 300.907895 -184.788814 
L 301.409455 -182.843316 
L 301.876457 -180.897817 
L 302.307438 -178.952319 
L 302.70278 -177.006821 
L 303.064121 -175.061322 
L 303.393398 -173.115824 
L 303.691656 -171.170325 
L 303.957829 -169.224827 
L 304.187734 -167.279328 
L 304.373502 -165.33383 
L 304.503613 -163.388331 
L 304.563607 -161.442833 
L 304.537433 -159.497335 
L 304.409264 -157.551836 
L 304.165543 -155.606338 
L 303.796926 -153.660839 
L 303.299849 -151.715341 
L 302.677447 -149.769842 
L 301.939672 -147.824344 
L 301.102602 -145.878845 
L 300.187009 -143.933347 
L 299.216419 -141.987848 
L 298.214928 -140.04235 
L 297.205073 -138.096852 
L 296.206047 -136.151353 
L 295.232464 -134.205855 
L 294.293794 -132.260356 
L 293.39447 -130.314858 
L 292.534609 -128.369359 
L 291.711146 -126.423861 
L 290.919213 -124.478362 
L 290.153523 -122.532864 
L 289.409578 -120.587366 
L 288.684568 -118.641867 
L 287.977868 -116.696369 
L 287.291148 -114.75087 
L 286.628121 -112.805372 
L 285.994029 -110.859873 
L 285.394973 -108.914375 
L 284.837199 -106.968876 
L 284.326424 -105.023378 
L 283.867279 -103.077879 
L 283.462905 -101.132381 
L 283.114715 -99.186883 
L 282.822316 -97.241384 
L 282.583567 -95.295886 
L 282.394753 -93.350387 
L 282.250832 -91.404889 
L 282.14575 -89.45939 
L 282.072787 -87.513892 
L 282.024922 -85.568393 
L 281.995197 -83.622895 
L 281.977062 -81.677397 
L 281.964678 -79.731898 
L 281.953168 -77.7864 
L 281.938789 -75.840901 
z
" style="stroke: #2f2f2f; stroke-width: 0.75"/>
    </defs>
    <g clip-path="url(#p8bc2794d86)">
     <use xlink:href="#me4d882335f" x="0" y="301.06575" style="fill: #148a6a; stroke: #2f2f2f; stroke-width: 0.75"/>
    </g>
   </g>
   <g id="FillBetweenPolyCollection_6">
    <defs>
     <path id="m6dacf0f674" d="M 333.493825 -69.013765 
L 332.357246 -69.013765 
L 332.340325 -70.953053 
L 332.325249 -72.892342 
L 332.308261 -74.831631 
L 332.28453 -76.770919 
L 332.248328 -78.710208 
L 332.193285 -80.649497 
L 332.112714 -82.588785 
L 331.999961 -84.528074 
L 331.848789 -86.467363 
L 331.653739 -88.406651 
L 331.410478 -90.34594 
L 331.116066 -92.285229 
L 330.769154 -94.224517 
L 330.370048 -96.163806 
L 329.920631 -98.103095 
L 329.424134 -100.042383 
L 328.884732 -101.981672 
L 328.307027 -103.920961 
L 327.695439 -105.860249 
L 327.053598 -107.799538 
L 326.383834 -109.738827 
L 325.686847 -111.678115 
L 324.961661 -113.617404 
L 324.205888 -115.556693 
L 323.416319 -117.495981 
L 322.589793 -119.43527 
L 321.724215 -121.374559 
L 320.819599 -123.313847 
L 319.878954 -125.253136 
L 318.908866 -127.192425 
L 317.919657 -129.131713 
L 316.925051 -131.071002 
L 315.941394 -133.010291 
L 314.986486 -134.949579 
L 314.078214 -136.888868 
L 313.23316 -138.828157 
L 312.465398 -140.767445 
L 311.785654 -142.706734 
L 311.200926 -144.646023 
L 310.714625 -146.585311 
L 310.327154 -148.5246 
L 310.0368 -150.463889 
L 309.84076 -152.403177 
L 309.73608 -154.342466 
L 309.720321 -156.281755 
L 309.791844 -158.221043 
L 309.949649 -160.160332 
L 310.192837 -162.099621 
L 310.519811 -164.038909 
L 310.927418 -165.978198 
L 311.410212 -167.917487 
L 311.960024 -169.856775 
L 312.565949 -171.796064 
L 313.21479 -173.735353 
L 313.891891 -175.674641 
L 314.582257 -177.61393 
L 315.271791 -179.553219 
L 315.948447 -181.492507 
L 316.603162 -183.431796 
L 317.230415 -185.371085 
L 317.828369 -187.310373 
L 318.398588 -189.249662 
L 318.945392 -191.188951 
L 319.47496 -193.128239 
L 319.994319 -195.067528 
L 320.510357 -197.006817 
L 321.028979 -198.946105 
L 321.554501 -200.885394 
L 322.089309 -202.824683 
L 322.633776 -204.763971 
L 323.186392 -206.70326 
L 323.744041 -208.642549 
L 324.302341 -210.581837 
L 324.855993 -212.521126 
L 325.399118 -214.460415 
L 325.925559 -216.399703 
L 326.429175 -218.338992 
L 326.904149 -220.278281 
L 327.345333 -222.217569 
L 327.748615 -224.156858 
L 328.111294 -226.096147 
L 328.432398 -228.035435 
L 328.712903 -229.974724 
L 328.955771 -231.914013 
L 329.165794 -233.853301 
L 329.349216 -235.79259 
L 329.513188 -237.731879 
L 329.665106 -239.671167 
L 329.811935 -241.610456 
L 329.959598 -243.549745 
L 330.112524 -245.489033 
L 330.2734 -247.428322 
L 330.443148 -249.367611 
L 330.621099 -251.306899 
L 330.805326 -253.246188 
L 330.993055 -255.185477 
L 331.181096 -257.124765 
L 331.366221 -259.064054 
L 331.545465 -261.003343 
L 334.305607 -261.003343 
L 334.305607 -261.003343 
L 334.48485 -259.064054 
L 334.669975 -257.124765 
L 334.858016 -255.185477 
L 335.045746 -253.246188 
L 335.229973 -251.306899 
L 335.407924 -249.367611 
L 335.577671 -247.428322 
L 335.738548 -245.489033 
L 335.891473 -243.549745 
L 336.039136 -241.610456 
L 336.185965 -239.671167 
L 336.337884 -237.731879 
L 336.501855 -235.79259 
L 336.685277 -233.853301 
L 336.8953 -231.914013 
L 337.138169 -229.974724 
L 337.418673 -228.035435 
L 337.739778 -226.096147 
L 338.102456 -224.156858 
L 338.505739 -222.217569 
L 338.946923 -220.278281 
L 339.421897 -218.338992 
L 339.925512 -216.399703 
L 340.451953 -214.460415 
L 340.995078 -212.521126 
L 341.548731 -210.581837 
L 342.10703 -208.642549 
L 342.66468 -206.70326 
L 343.217296 -204.763971 
L 343.761762 -202.824683 
L 344.29657 -200.885394 
L 344.822093 -198.946105 
L 345.340715 -197.006817 
L 345.856752 -195.067528 
L 346.376111 -193.128239 
L 346.90568 -191.188951 
L 347.452484 -189.249662 
L 348.022703 -187.310373 
L 348.620657 -185.371085 
L 349.24791 -183.431796 
L 349.902624 -181.492507 
L 350.579281 -179.553219 
L 351.268814 -177.61393 
L 351.959181 -175.674641 
L 352.636281 -173.735353 
L 353.285122 -171.796064 
L 353.891048 -169.856775 
L 354.440859 -167.917487 
L 354.923653 -165.978198 
L 355.33126 -164.038909 
L 355.658235 -162.099621 
L 355.901422 -160.160332 
L 356.059227 -158.221043 
L 356.13075 -156.281755 
L 356.114991 -154.342466 
L 356.010311 -152.403177 
L 355.814272 -150.463889 
L 355.523918 -148.5246 
L 355.136446 -146.585311 
L 354.650146 -144.646023 
L 354.065418 -142.706734 
L 353.385673 -140.767445 
L 352.617912 -138.828157 
L 351.772857 -136.888868 
L 350.864585 -134.949579 
L 349.909677 -133.010291 
L 348.92602 -131.071002 
L 347.931415 -129.131713 
L 346.942205 -127.192425 
L 345.972118 -125.253136 
L 345.031473 -123.313847 
L 344.126856 -121.374559 
L 343.261279 -119.43527 
L 342.434753 -117.495981 
L 341.645184 -115.556693 
L 340.88941 -113.617404 
L 340.164224 -111.678115 
L 339.467238 -109.738827 
L 338.797473 -107.799538 
L 338.155632 -105.860249 
L 337.544044 -103.920961 
L 336.966339 -101.981672 
L 336.426938 -100.042383 
L 335.93044 -98.103095 
L 335.481024 -96.163806 
L 335.081917 -94.224517 
L 334.735005 -92.285229 
L 334.440594 -90.34594 
L 334.197332 -88.406651 
L 334.002283 -86.467363 
L 333.85111 -84.528074 
L 333.738358 -82.588785 
L 333.657786 -80.649497 
L 333.602744 -78.710208 
L 333.566541 -76.770919 
L 333.54281 -74.831631 
L 333.525822 -72.892342 
L 333.510746 -70.953053 
L 333.493825 -69.013765 
z
" style="stroke: #2f2f2f; stroke-width: 0.75"/>
    </defs>
    <g clip-path="url(#p8bc2794d86)">
     <use xlink:href="#m6dacf0f674" x="0" y="301.06575" style="fill: #95cabc; stroke: #2f2f2f; stroke-width: 0.75"/>
    </g>
   </g>
   <g id="FillBetweenPolyCollection_7">
    <defs>
     <path id="m3b6d85c9f3" d="M 385.11285 -115.995594 
L 383.872507 -115.995594 
L 383.840192 -117.74401 
L 383.804803 -119.492427 
L 383.761125 -121.240843 
L 383.702814 -122.98926 
L 383.622734 -124.737677 
L 383.513381 -126.486093 
L 383.367341 -128.23451 
L 383.177741 -129.982927 
L 382.938616 -131.731343 
L 382.645143 -133.47976 
L 382.293716 -135.228177 
L 381.881849 -136.976593 
L 381.407927 -138.72501 
L 380.870876 -140.473426 
L 380.269818 -142.221843 
L 379.603823 -143.97026 
L 378.87183 -145.718676 
L 378.072822 -147.467093 
L 377.206256 -149.21551 
L 376.272722 -150.963926 
L 375.274748 -152.712343 
L 374.217595 -154.46076 
L 373.109904 -156.209176 
L 371.964042 -157.957593 
L 370.796031 -159.70601 
L 369.62501 -161.454426 
L 368.472266 -163.202843 
L 367.359914 -164.951259 
L 366.30939 -166.699676 
L 365.339935 -168.448093 
L 364.467248 -170.196509 
L 363.702483 -171.944926 
L 363.051678 -173.693343 
L 362.515685 -175.441759 
L 362.090592 -177.190176 
L 361.768574 -178.938593 
L 361.539064 -180.687009 
L 361.390116 -182.435426 
L 361.3098 -184.183843 
L 361.287464 -185.932259 
L 361.314746 -187.680676 
L 361.386202 -189.429092 
L 361.499516 -191.177509 
L 361.655274 -192.925926 
L 361.856377 -194.674342 
L 362.10719 -196.422759 
L 362.412563 -198.171176 
L 362.776885 -199.919592 
L 363.203268 -201.668009 
L 363.692961 -203.416426 
L 364.245029 -205.164842 
L 364.856267 -206.913259 
L 365.521322 -208.661675 
L 366.232956 -210.410092 
L 366.982388 -212.158509 
L 367.759676 -213.906925 
L 368.554123 -215.655342 
L 369.354696 -217.403759 
L 370.150455 -219.152175 
L 370.931007 -220.900592 
L 371.686939 -222.649009 
L 372.410232 -224.397425 
L 373.094587 -226.145842 
L 373.73565 -227.894259 
L 374.33109 -229.642675 
L 374.880524 -231.391092 
L 375.385321 -233.139508 
L 375.848293 -234.887925 
L 376.273342 -236.636342 
L 376.665095 -238.384758 
L 377.028571 -240.133175 
L 377.3689 -241.881592 
L 377.691105 -243.630008 
L 377.999932 -245.378425 
L 378.299727 -247.126842 
L 378.594329 -248.875258 
L 378.886984 -250.623675 
L 379.180266 -252.372091 
L 379.476007 -254.120508 
L 379.775241 -255.868925 
L 380.078165 -257.617341 
L 380.384132 -259.365758 
L 380.691669 -261.114175 
L 380.998531 -262.862591 
L 381.301805 -264.611008 
L 381.598057 -266.359425 
L 381.883538 -268.107841 
L 382.154435 -269.856258 
L 382.407166 -271.604675 
L 382.638684 -273.353091 
L 382.846764 -275.101508 
L 383.030234 -276.849924 
L 383.189114 -278.598341 
L 383.324625 -280.346758 
L 383.439079 -282.095174 
L 383.535631 -283.843591 
L 383.617953 -285.592008 
L 383.68985 -287.340424 
L 383.754885 -289.088841 
L 385.230473 -289.088841 
L 385.230473 -289.088841 
L 385.295507 -287.340424 
L 385.367404 -285.592008 
L 385.449726 -283.843591 
L 385.546278 -282.095174 
L 385.660732 -280.346758 
L 385.796243 -278.598341 
L 385.955123 -276.849924 
L 386.138593 -275.101508 
L 386.346673 -273.353091 
L 386.578191 -271.604675 
L 386.830922 -269.856258 
L 387.10182 -268.107841 
L 387.3873 -266.359425 
L 387.683552 -264.611008 
L 387.986826 -262.862591 
L 388.293688 -261.114175 
L 388.601225 -259.365758 
L 388.907192 -257.617341 
L 389.210116 -255.868925 
L 389.50935 -254.120508 
L 389.805091 -252.372091 
L 390.098373 -250.623675 
L 390.391028 -248.875258 
L 390.68563 -247.126842 
L 390.985425 -245.378425 
L 391.294253 -243.630008 
L 391.616457 -241.881592 
L 391.956786 -240.133175 
L 392.320262 -238.384758 
L 392.712015 -236.636342 
L 393.137064 -234.887925 
L 393.600036 -233.139508 
L 394.104833 -231.391092 
L 394.654267 -229.642675 
L 395.249707 -227.894259 
L 395.89077 -226.145842 
L 396.575125 -224.397425 
L 397.298418 -222.649009 
L 398.05435 -220.900592 
L 398.834902 -219.152175 
L 399.630661 -217.403759 
L 400.431234 -215.655342 
L 401.225681 -213.906925 
L 402.002969 -212.158509 
L 402.752401 -210.410092 
L 403.464035 -208.661675 
L 404.12909 -206.913259 
L 404.740328 -205.164842 
L 405.292396 -203.416426 
L 405.782089 -201.668009 
L 406.208472 -199.919592 
L 406.572794 -198.171176 
L 406.878168 -196.422759 
L 407.12898 -194.674342 
L 407.330083 -192.925926 
L 407.485841 -191.177509 
L 407.599155 -189.429092 
L 407.670611 -187.680676 
L 407.697893 -185.932259 
L 407.675557 -184.183843 
L 407.595241 -182.435426 
L 407.446293 -180.687009 
L 407.216783 -178.938593 
L 406.894765 -177.190176 
L 406.469672 -175.441759 
L 405.933679 -173.693343 
L 405.282874 -171.944926 
L 404.518109 -170.196509 
L 403.645423 -168.448093 
L 402.675967 -166.699676 
L 401.625443 -164.951259 
L 400.513091 -163.202843 
L 399.360347 -161.454426 
L 398.189326 -159.70601 
L 397.021315 -157.957593 
L 395.875453 -156.209176 
L 394.767762 -154.46076 
L 393.710609 -152.712343 
L 392.712635 -150.963926 
L 391.779102 -149.21551 
L 390.912535 -147.467093 
L 390.113527 -145.718676 
L 389.381534 -143.97026 
L 388.715539 -142.221843 
L 388.114481 -140.473426 
L 387.57743 -138.72501 
L 387.103509 -136.976593 
L 386.691641 -135.228177 
L 386.340215 -133.47976 
L 386.046741 -131.731343 
L 385.807616 -129.982927 
L 385.618016 -128.23451 
L 385.471976 -126.486093 
L 385.362623 -124.737677 
L 385.282543 -122.98926 
L 385.224232 -121.240843 
L 385.180554 -119.492427 
L 385.145165 -117.74401 
L 385.11285 -115.995594 
z
" style="stroke: #2f2f2f; stroke-width: 0.75"/>
    </defs>
    <g clip-path="url(#p8bc2794d86)">
     <use xlink:href="#m3b6d85c9f3" x="0" y="301.06575" style="fill: #c9941d; stroke: #2f2f2f; stroke-width: 0.75"/>
    </g>
   </g>
   <g id="matplotlib.axis_1">
    <g id="xtick_1">
     <g id="text_1">
      <!-- MVT -->
      <g transform="translate(64.30154 276.590438) scale(0.1 -0.1)">
       <defs>
        <path id="DejaVuSans-4d" d="M 628 4666 
L 1569 4666 
L 2759 1491 
L 3956 4666 
L 4897 4666 
L 4897 0 
L 4281 0 
L 4281 4097 
L 3078 897 
L 2444 897 
L 1241 4097 
L 1241 0 
L 628 0 
L 628 4666 
z
" transform="scale(0.015625)"/>
        <path id="DejaVuSans-56" d="M 1831 0 
L 50 4666 
L 709 4666 
L 2188 738 
L 3669 4666 
L 4325 4666 
L 2547 0 
L 1831 0 
z
" transform="scale(0.015625)"/>
        <path id="DejaVuSans-54" d="M -19 4666 
L 3928 4666 
L 3928 4134 
L 2272 4134 
L 2272 0 
L 1638 0 
L 1638 4134 
L -19 4134 
L -19 4666 
z
" transform="scale(0.015625)"/>
       </defs>
       <use xlink:href="#DejaVuSans-4d"/>
       <use xlink:href="#DejaVuSans-56" transform="translate(86.279297 0)"/>
       <use xlink:href="#DejaVuSans-54" transform="translate(154.6875 0)"/>
      </g>
     </g>
    </g>
    <g id="xtick_2">
     <g id="text_2">
      <!-- MVT -->
      <g transform="translate(115.868683 276.590438) scale(0.1 -0.1)">
       <use xlink:href="#DejaVuSans-4d"/>
       <use xlink:href="#DejaVuSans-56" transform="translate(86.279297 0)"/>
       <use xlink:href="#DejaVuSans-54" transform="translate(154.6875 0)"/>
      </g>
      <!-- (SIMD) -->
      <g transform="translate(109.942121 287.78825) scale(0.1 -0.1)">
       <defs>
        <path id="DejaVuSans-28" d="M 1984 4856 
Q 1566 4138 1362 3434 
Q 1159 2731 1159 2009 
Q 1159 1288 1364 580 
Q 1569 -128 1984 -844 
L 1484 -844 
Q 1016 -109 783 600 
Q 550 1309 550 2009 
Q 550 2706 781 3412 
Q 1013 4119 1484 4856 
L 1984 4856 
z
" transform="scale(0.015625)"/>
        <path id="DejaVuSans-53" d="M 3425 4513 
L 3425 3897 
Q 3066 4069 2747 4153 
Q 2428 4238 2131 4238 
Q 1616 4238 1336 4038 
Q 1056 3838 1056 3469 
Q 1056 3159 1242 3001 
Q 1428 2844 1947 2747 
L 2328 2669 
Q 3034 2534 3370 2195 
Q 3706 1856 3706 1288 
Q 3706 609 3251 259 
Q 2797 -91 1919 -91 
Q 1588 -91 1214 -16 
Q 841 59 441 206 
L 441 856 
Q 825 641 1194 531 
Q 1563 422 1919 422 
Q 2459 422 2753 634 
Q 3047 847 3047 1241 
Q 3047 1584 2836 1778 
Q 2625 1972 2144 2069 
L 1759 2144 
Q 1053 2284 737 2584 
Q 422 2884 422 3419 
Q 422 4038 858 4394 
Q 1294 4750 2059 4750 
Q 2388 4750 2728 4690 
Q 3069 4631 3425 4513 
z
" transform="scale(0.015625)"/>
        <path id="DejaVuSans-49" d="M 628 4666 
L 1259 4666 
L 1259 0 
L 628 0 
L 628 4666 
z
" transform="scale(0.015625)"/>
        <path id="DejaVuSans-44" d="M 1259 4147 
L 1259 519 
L 2022 519 
Q 2988 519 3436 956 
Q 3884 1394 3884 2338 
Q 3884 3275 3436 3711 
Q 2988 4147 2022 4147 
L 1259 4147 
z
M 628 4666 
L 1925 4666 
Q 3281 4666 3915 4102 
Q 4550 3538 4550 2338 
Q 4550 1131 3912 565 
Q 3275 0 1925 0 
L 628 0 
L 628 4666 
z
" transform="scale(0.015625)"/>
        <path id="DejaVuSans-29" d="M 513 4856 
L 1013 4856 
Q 1481 4119 1714 3412 
Q 1947 2706 1947 2009 
Q 1947 1309 1714 600 
Q 1481 -109 1013 -844 
L 513 -844 
Q 928 -128 1133 580 
Q 1338 1288 1338 2009 
Q 1338 2731 1133 3434 
Q 928 4138 513 4856 
z
" transform="scale(0.015625)"/>
       </defs>
       <use xlink:href="#DejaVuSans-28"/>
       <use xlink:href="#DejaVuSans-53" transform="translate(39.013672 0)"/>
       <use xlink:href="#DejaVuSans-49" transform="translate(102.490234 0)"/>
       <use xlink:href="#DejaVuSans-4d" transform="translate(131.982422 0)"/>
       <use xlink:href="#DejaVuSans-44" transform="translate(218.261719 0)"/>
       <use xlink:href="#DejaVuSans-29" transform="translate(295.263672 0)"/>
      </g>
     </g>
    </g>
    <g id="xtick_3">
     <g id="text_3">
      <!-- Mutable -->
      <g transform="translate(158.077232 276.590438) scale(0.1 -0.1)">
       <defs>
        <path id="DejaVuSans-75" d="M 544 1381 
L 544 3500 
L 1119 3500 
L 1119 1403 
Q 1119 906 1312 657 
Q 1506 409 1894 409 
Q 2359 409 2629 706 
Q 2900 1003 2900 1516 
L 2900 3500 
L 3475 3500 
L 3475 0 
L 2900 0 
L 2900 538 
Q 2691 219 2414 64 
Q 2138 -91 1772 -91 
Q 1169 -91 856 284 
Q 544 659 544 1381 
z
M 1991 3584 
L 1991 3584 
z
" transform="scale(0.015625)"/>
        <path id="DejaVuSans-74" d="M 1172 4494 
L 1172 3500 
L 2356 3500 
L 2356 3053 
L 1172 3053 
L 1172 1153 
Q 1172 725 1289 603 
Q 1406 481 1766 481 
L 2356 481 
L 2356 0 
L 1766 0 
Q 1100 0 847 248 
Q 594 497 594 1153 
L 594 3053 
L 172 3053 
L 172 3500 
L 594 3500 
L 594 4494 
L 1172 4494 
z
" transform="scale(0.015625)"/>
        <path id="DejaVuSans-61" d="M 2194 1759 
Q 1497 1759 1228 1600 
Q 959 1441 959 1056 
Q 959 750 1161 570 
Q 1363 391 1709 391 
Q 2188 391 2477 730 
Q 2766 1069 2766 1631 
L 2766 1759 
L 2194 1759 
z
M 3341 1997 
L 3341 0 
L 2766 0 
L 2766 531 
Q 2569 213 2275 61 
Q 1981 -91 1556 -91 
Q 1019 -91 701 211 
Q 384 513 384 1019 
Q 384 1609 779 1909 
Q 1175 2209 1959 2209 
L 2766 2209 
L 2766 2266 
Q 2766 2663 2505 2880 
Q 2244 3097 1772 3097 
Q 1472 3097 1187 3025 
Q 903 2953 641 2809 
L 641 3341 
Q 956 3463 1253 3523 
Q 1550 3584 1831 3584 
Q 2591 3584 2966 3190 
Q 3341 2797 3341 1997 
z
" transform="scale(0.015625)"/>
        <path id="DejaVuSans-62" d="M 3116 1747 
Q 3116 2381 2855 2742 
Q 2594 3103 2138 3103 
Q 1681 3103 1420 2742 
Q 1159 2381 1159 1747 
Q 1159 1113 1420 752 
Q 1681 391 2138 391 
Q 2594 391 2855 752 
Q 3116 1113 3116 1747 
z
M 1159 2969 
Q 1341 3281 1617 3432 
Q 1894 3584 2278 3584 
Q 2916 3584 3314 3078 
Q 3713 2572 3713 1747 
Q 3713 922 3314 415 
Q 2916 -91 2278 -91 
Q 1894 -91 1617 61 
Q 1341 213 1159 525 
L 1159 0 
L 581 0 
L 581 4863 
L 1159 4863 
L 1159 2969 
z
" transform="scale(0.015625)"/>
        <path id="DejaVuSans-6c" d="M 603 4863 
L 1178 4863 
L 1178 0 
L 603 0 
L 603 4863 
z
" transform="scale(0.015625)"/>
        <path id="DejaVuSans-65" d="M 3597 1894 
L 3597 1613 
L 953 1613 
Q 991 1019 1311 708 
Q 1631 397 2203 397 
Q 2534 397 2845 478 
Q 3156 559 3463 722 
L 3463 178 
Q 3153 47 2828 -22 
Q 2503 -91 2169 -91 
Q 1331 -91 842 396 
Q 353 884 353 1716 
Q 353 2575 817 3079 
Q 1281 3584 2069 3584 
Q 2775 3584 3186 3129 
Q 3597 2675 3597 1894 
z
M 3022 2063 
Q 3016 2534 2758 2815 
Q 2500 3097 2075 3097 
Q 1594 3097 1305 2825 
Q 1016 2553 972 2059 
L 3022 2063 
z
" transform="scale(0.015625)"/>
       </defs>
       <use xlink:href="#DejaVuSans-4d"/>
       <use xlink:href="#DejaVuSans-75" transform="translate(86.279297 0)"/>
       <use xlink:href="#DejaVuSans-74" transform="translate(149.658203 0)"/>
       <use xlink:href="#DejaVuSans-61" transform="translate(188.867188 0)"/>
       <use xlink:href="#DejaVuSans-62" transform="translate(250.146484 0)"/>
       <use xlink:href="#DejaVuSans-6c" transform="translate(313.623047 0)"/>
       <use xlink:href="#DejaVuSans-65" transform="translate(341.40625 0)"/>
      </g>
      <!-- MVT -->
      <g transform="translate(167.435826 287.78825) scale(0.1 -0.1)">
       <use xlink:href="#DejaVuSans-4d"/>
       <use xlink:href="#DejaVuSans-56" transform="translate(86.279297 0)"/>
       <use xlink:href="#DejaVuSans-54" transform="translate(154.6875 0)"/>
      </g>
     </g>
    </g>
    <g id="xtick_4">
     <g id="text_4">
      <!-- Mutable -->
      <g transform="translate(209.644375 276.590438) scale(0.1 -0.1)">
       <use xlink:href="#DejaVuSans-4d"/>
       <use xlink:href="#DejaVuSans-75" transform="translate(86.279297 0)"/>
       <use xlink:href="#DejaVuSans-74" transform="translate(149.658203 0)"/>
       <use xlink:href="#DejaVuSans-61" transform="translate(188.867188 0)"/>
       <use xlink:href="#DejaVuSans-62" transform="translate(250.146484 0)"/>
       <use xlink:href="#DejaVuSans-6c" transform="translate(313.623047 0)"/>
       <use xlink:href="#DejaVuSans-65" transform="translate(341.40625 0)"/>
      </g>
      <!-- MVT -->
      <g transform="translate(219.002969 287.78825) scale(0.1 -0.1)">
       <use xlink:href="#DejaVuSans-4d"/>
       <use xlink:href="#DejaVuSans-56" transform="translate(86.279297 0)"/>
       <use xlink:href="#DejaVuSans-54" transform="translate(154.6875 0)"/>
      </g>
      <!-- (SIMD) -->
      <g transform="translate(213.076406 298.986063) scale(0.1 -0.1)">
       <use xlink:href="#DejaVuSans-28"/>
       <use xlink:href="#DejaVuSans-53" transform="translate(39.013672 0)"/>
       <use xlink:href="#DejaVuSans-49" transform="translate(102.490234 0)"/>
       <use xlink:href="#DejaVuSans-4d" transform="translate(131.982422 0)"/>
       <use xlink:href="#DejaVuSans-44" transform="translate(218.261719 0)"/>
       <use xlink:href="#DejaVuSans-29" transform="translate(295.263672 0)"/>
      </g>
     </g>
    </g>
    <g id="xtick_5">
     <g id="text_5">
      <!-- CAPT -->
      <g transform="translate(268.377924 276.590438) scale(0.1 -0.1)">
       <defs>
        <path id="DejaVuSans-43" d="M 4122 4306 
L 4122 3641 
Q 3803 3938 3442 4084 
Q 3081 4231 2675 4231 
Q 1875 4231 1450 3742 
Q 1025 3253 1025 2328 
Q 1025 1406 1450 917 
Q 1875 428 2675 428 
Q 3081 428 3442 575 
Q 3803 722 4122 1019 
L 4122 359 
Q 3791 134 3420 21 
Q 3050 -91 2638 -91 
Q 1578 -91 968 557 
Q 359 1206 359 2328 
Q 359 3453 968 4101 
Q 1578 4750 2638 4750 
Q 3056 4750 3426 4639 
Q 3797 4528 4122 4306 
z
" transform="scale(0.015625)"/>
        <path id="DejaVuSans-41" d="M 2188 4044 
L 1331 1722 
L 3047 1722 
L 2188 4044 
z
M 1831 4666 
L 2547 4666 
L 4325 0 
L 3669 0 
L 3244 1197 
L 1141 1197 
L 716 0 
L 50 0 
L 1831 4666 
z
" transform="scale(0.015625)"/>
        <path id="DejaVuSans-50" d="M 1259 4147 
L 1259 2394 
L 2053 2394 
Q 2494 2394 2734 2622 
Q 2975 2850 2975 3272 
Q 2975 3691 2734 3919 
Q 2494 4147 2053 4147 
L 1259 4147 
z
M 628 4666 
L 2053 4666 
Q 2838 4666 3239 4311 
Q 3641 3956 3641 3272 
Q 3641 2581 3239 2228 
Q 2838 1875 2053 1875 
L 1259 1875 
L 1259 0 
L 628 0 
L 628 4666 
z
" transform="scale(0.015625)"/>
       </defs>
       <use xlink:href="#DejaVuSans-43"/>
       <use xlink:href="#DejaVuSans-41" transform="translate(69.824219 0)"/>
       <use xlink:href="#DejaVuSans-50" transform="translate(138.232422 0)"/>
       <use xlink:href="#DejaVuSans-54" transform="translate(198.535156 0)"/>
      </g>
     </g>
    </g>
    <g id="xtick_6">
     <g id="text_6">
      <!-- CAPT -->
      <g transform="translate(319.945067 276.590438) scale(0.1 -0.1)">
       <use xlink:href="#DejaVuSans-43"/>
       <use xlink:href="#DejaVuSans-41" transform="translate(69.824219 0)"/>
       <use xlink:href="#DejaVuSans-50" transform="translate(138.232422 0)"/>
       <use xlink:href="#DejaVuSans-54" transform="translate(198.535156 0)"/>
      </g>
      <!-- (SIMD) -->
      <g transform="translate(316.210692 287.78825) scale(0.1 -0.1)">
       <use xlink:href="#DejaVuSans-28"/>
       <use xlink:href="#DejaVuSans-53" transform="translate(39.013672 0)"/>
       <use xlink:href="#DejaVuSans-49" transform="translate(102.490234 0)"/>
       <use xlink:href="#DejaVuSans-4d" transform="translate(131.982422 0)"/>
       <use xlink:href="#DejaVuSans-44" transform="translate(218.261719 0)"/>
       <use xlink:href="#DejaVuSans-29" transform="translate(295.263672 0)"/>
      </g>
     </g>
    </g>
    <g id="xtick_7">
     <g id="text_7">
      <!-- kiddo -->
      <g transform="translate(370.800491 276.590438) scale(0.1 -0.1)">
       <defs>
        <path id="DejaVuSans-6b" d="M 581 4863 
L 1159 4863 
L 1159 1991 
L 2875 3500 
L 3609 3500 
L 1753 1863 
L 3688 0 
L 2938 0 
L 1159 1709 
L 1159 0 
L 581 0 
L 581 4863 
z
" transform="scale(0.015625)"/>
        <path id="DejaVuSans-69" d="M 603 3500 
L 1178 3500 
L 1178 0 
L 603 0 
L 603 3500 
z
M 603 4863 
L 1178 4863 
L 1178 4134 
L 603 4134 
L 603 4863 
z
" transform="scale(0.015625)"/>
        <path id="DejaVuSans-64" d="M 2906 2969 
L 2906 4863 
L 3481 4863 
L 3481 0 
L 2906 0 
L 2906 525 
Q 2725 213 2448 61 
Q 2172 -91 1784 -91 
Q 1150 -91 751 415 
Q 353 922 353 1747 
Q 353 2572 751 3078 
Q 1150 3584 1784 3584 
Q 2172 3584 2448 3432 
Q 2725 3281 2906 2969 
z
M 947 1747 
Q 947 1113 1208 752 
Q 1469 391 1925 391 
Q 2381 391 2643 752 
Q 2906 1113 2906 1747 
Q 2906 2381 2643 2742 
Q 2381 3103 1925 3103 
Q 1469 3103 1208 2742 
Q 947 2381 947 1747 
z
" transform="scale(0.015625)"/>
        <path id="DejaVuSans-6f" d="M 1959 3097 
Q 1497 3097 1228 2736 
Q 959 2375 959 1747 
Q 959 1119 1226 758 
Q 1494 397 1959 397 
Q 2419 397 2687 759 
Q 2956 1122 2956 1747 
Q 2956 2369 2687 2733 
Q 2419 3097 1959 3097 
z
M 1959 3584 
Q 2709 3584 3137 3096 
Q 3566 2609 3566 1747 
Q 3566 888 3137 398 
Q 2709 -91 1959 -91 
Q 1206 -91 779 398 
Q 353 888 353 1747 
Q 353 2609 779 3096 
Q 1206 3584 1959 3584 
z
" transform="scale(0.015625)"/>
       </defs>
       <use xlink:href="#DejaVuSans-6b"/>
       <use xlink:href="#DejaVuSans-69" transform="translate(57.910156 0)"/>
       <use xlink:href="#DejaVuSans-64" transform="translate(85.693359 0)"/>
       <use xlink:href="#DejaVuSans-64" transform="translate(149.169922 0)"/>
       <use xlink:href="#DejaVuSans-6f" transform="translate(212.646484 0)"/>
      </g>
     </g>
    </g>
   </g>
   <g id="matplotlib.axis_2">
    <g id="ytick_1">
     <g id="line2d_1">
      <defs>
       <path id="m995766d286" d="M 0 0 
L -3.5 0 
" style="stroke: #000000; stroke-width: 0.8"/>
      </defs>
      <g>
       <use xlink:href="#m995766d286" x="49.30625" y="251.515091" style="stroke: #000000; stroke-width: 0.8"/>
      </g>
     </g>
     <g id="text_8">
      <!-- 0.223 -->
      <g transform="translate(13.678125 255.31431) scale(0.1 -0.1)">
       <defs>
        <path id="DejaVuSans-30" d="M 2034 4250 
Q 1547 4250 1301 3770 
Q 1056 3291 1056 2328 
Q 1056 1369 1301 889 
Q 1547 409 2034 409 
Q 2525 409 2770 889 
Q 3016 1369 3016 2328 
Q 3016 3291 2770 3770 
Q 2525 4250 2034 4250 
z
M 2034 4750 
Q 2819 4750 3233 4129 
Q 3647 3509 3647 2328 
Q 3647 1150 3233 529 
Q 2819 -91 2034 -91 
Q 1250 -91 836 529 
Q 422 1150 422 2328 
Q 422 3509 836 4129 
Q 1250 4750 2034 4750 
z
" transform="scale(0.015625)"/>
        <path id="DejaVuSans-2e" d="M 684 794 
L 1344 794 
L 1344 0 
L 684 0 
L 684 794 
z
" transform="scale(0.015625)"/>
        <path id="DejaVuSans-32" d="M 1228 531 
L 3431 531 
L 3431 0 
L 469 0 
L 469 531 
Q 828 903 1448 1529 
Q 2069 2156 2228 2338 
Q 2531 2678 2651 2914 
Q 2772 3150 2772 3378 
Q 2772 3750 2511 3984 
Q 2250 4219 1831 4219 
Q 1534 4219 1204 4116 
Q 875 4013 500 3803 
L 500 4441 
Q 881 4594 1212 4672 
Q 1544 4750 1819 4750 
Q 2544 4750 2975 4387 
Q 3406 4025 3406 3419 
Q 3406 3131 3298 2873 
Q 3191 2616 2906 2266 
Q 2828 2175 2409 1742 
Q 1991 1309 1228 531 
z
" transform="scale(0.015625)"/>
        <path id="DejaVuSans-33" d="M 2597 2516 
Q 3050 2419 3304 2112 
Q 3559 1806 3559 1356 
Q 3559 666 3084 287 
Q 2609 -91 1734 -91 
Q 1441 -91 1130 -33 
Q 819 25 488 141 
L 488 750 
Q 750 597 1062 519 
Q 1375 441 1716 441 
Q 2309 441 2620 675 
Q 2931 909 2931 1356 
Q 2931 1769 2642 2001 
Q 2353 2234 1838 2234 
L 1294 2234 
L 1294 2753 
L 1863 2753 
Q 2328 2753 2575 2939 
Q 2822 3125 2822 3475 
Q 2822 3834 2567 4026 
Q 2313 4219 1838 4219 
Q 1578 4219 1281 4162 
Q 984 4106 628 3988 
L 628 4550 
Q 988 4650 1302 4700 
Q 1616 4750 1894 4750 
Q 2613 4750 3031 4423 
Q 3450 4097 3450 3541 
Q 3450 3153 3228 2886 
Q 3006 2619 2597 2516 
z
" transform="scale(0.015625)"/>
       </defs>
       <use xlink:href="#DejaVuSans-30"/>
       <use xlink:href="#DejaVuSans-2e" transform="translate(63.623047 0)"/>
       <use xlink:href="#DejaVuSans-32" transform="translate(95.410156 0)"/>
       <use xlink:href="#DejaVuSans-32" transform="translate(159.033203 0)"/>
       <use xlink:href="#DejaVuSans-33" transform="translate(222.65625 0)"/>
      </g>
     </g>
    </g>
    <g id="ytick_2">
     <g id="line2d_2">
      <g>
       <use xlink:href="#m995766d286" x="49.30625" y="200.018293" style="stroke: #000000; stroke-width: 0.8"/>
      </g>
     </g>
     <g id="text_9">
      <!-- $\mathdefault{10^{0}}$ -->
      <g transform="translate(24.70625 203.817512) scale(0.1 -0.1)">
       <defs>
        <path id="DejaVuSans-31" d="M 794 531 
L 1825 531 
L 1825 4091 
L 703 3866 
L 703 4441 
L 1819 4666 
L 2450 4666 
L 2450 531 
L 3481 531 
L 3481 0 
L 794 0 
L 794 531 
z
" transform="scale(0.015625)"/>
       </defs>
       <use xlink:href="#DejaVuSans-31" transform="translate(0 0.765625)"/>
       <use xlink:href="#DejaVuSans-30" transform="translate(63.623047 0.765625)"/>
       <use xlink:href="#DejaVuSans-30" transform="translate(128.203125 39.046875) scale(0.7)"/>
      </g>
     </g>
    </g>
    <g id="ytick_3">
     <g id="line2d_3">
      <g>
       <use xlink:href="#m995766d286" x="49.30625" y="120.903805" style="stroke: #000000; stroke-width: 0.8"/>
      </g>
     </g>
     <g id="text_10">
      <!-- $\mathdefault{10^{1}}$ -->
      <g transform="translate(24.70625 124.703024) scale(0.1 -0.1)">
       <use xlink:href="#DejaVuSans-31" transform="translate(0 0.684375)"/>
       <use xlink:href="#DejaVuSans-30" transform="translate(63.623047 0.684375)"/>
       <use xlink:href="#DejaVuSans-31" transform="translate(128.203125 38.965625) scale(0.7)"/>
      </g>
     </g>
    </g>
    <g id="ytick_4">
     <g id="line2d_4">
      <g>
       <use xlink:href="#m995766d286" x="49.30625" y="41.789318" style="stroke: #000000; stroke-width: 0.8"/>
      </g>
     </g>
     <g id="text_11">
      <!-- $\mathdefault{10^{2}}$ -->
      <g transform="translate(24.70625 45.588536) scale(0.1 -0.1)">
       <use xlink:href="#DejaVuSans-31" transform="translate(0 0.765625)"/>
       <use xlink:href="#DejaVuSans-30" transform="translate(63.623047 0.765625)"/>
       <use xlink:href="#DejaVuSans-32" transform="translate(128.203125 39.046875) scale(0.7)"/>
      </g>
     </g>
    </g>
    <g id="ytick_5">
     <g id="line2d_5">
      <g>
       <use xlink:href="#m995766d286" x="49.30625" y="11.976909" style="stroke: #000000; stroke-width: 0.8"/>
      </g>
     </g>
     <g id="text_12">
      <!-- 238 -->
      <g transform="translate(23.21875 15.776128) scale(0.1 -0.1)">
       <defs>
        <path id="DejaVuSans-38" d="M 2034 2216 
Q 1584 2216 1326 1975 
Q 1069 1734 1069 1313 
Q 1069 891 1326 650 
Q 1584 409 2034 409 
Q 2484 409 2743 651 
Q 3003 894 3003 1313 
Q 3003 1734 2745 1975 
Q 2488 2216 2034 2216 
z
M 1403 2484 
Q 997 2584 770 2862 
Q 544 3141 544 3541 
Q 544 4100 942 4425 
Q 1341 4750 2034 4750 
Q 2731 4750 3128 4425 
Q 3525 4100 3525 3541 
Q 3525 3141 3298 2862 
Q 3072 2584 2669 2484 
Q 3125 2378 3379 2068 
Q 3634 1759 3634 1313 
Q 3634 634 3220 271 
Q 2806 -91 2034 -91 
Q 1263 -91 848 271 
Q 434 634 434 1313 
Q 434 1759 690 2068 
Q 947 2378 1403 2484 
z
M 1172 3481 
Q 1172 3119 1398 2916 
Q 1625 2713 2034 2713 
Q 2441 2713 2670 2916 
Q 2900 3119 2900 3481 
Q 2900 3844 2670 4047 
Q 2441 4250 2034 4250 
Q 1625 4250 1398 4047 
Q 1172 3844 1172 3481 
z
" transform="scale(0.015625)"/>
       </defs>
       <use xlink:href="#DejaVuSans-32"/>
       <use xlink:href="#DejaVuSans-33" transform="translate(63.623047 0)"/>
       <use xlink:href="#DejaVuSans-38" transform="translate(127.246094 0)"/>
      </g>
     </g>
    </g>
    <g id="ytick_6">
     <g id="line2d_6">
      <defs>
       <path id="m0e5d07442a" d="M 0 0 
L -2 0 
" style="stroke: #000000; stroke-width: 0.6"/>
      </defs>
      <g>
       <use xlink:href="#m0e5d07442a" x="49.30625" y="241.385577" style="stroke: #000000; stroke-width: 0.6"/>
      </g>
     </g>
    </g>
    <g id="ytick_7">
     <g id="line2d_7">
      <g>
       <use xlink:href="#m0e5d07442a" x="49.30625" y="231.501113" style="stroke: #000000; stroke-width: 0.6"/>
      </g>
     </g>
    </g>
    <g id="ytick_8">
     <g id="line2d_8">
      <g>
       <use xlink:href="#m0e5d07442a" x="49.30625" y="223.834127" style="stroke: #000000; stroke-width: 0.6"/>
      </g>
     </g>
    </g>
    <g id="ytick_9">
     <g id="line2d_9">
      <g>
       <use xlink:href="#m0e5d07442a" x="49.30625" y="217.569743" style="stroke: #000000; stroke-width: 0.6"/>
      </g>
     </g>
    </g>
    <g id="ytick_10">
     <g id="line2d_10">
      <g>
       <use xlink:href="#m0e5d07442a" x="49.30625" y="212.273282" style="stroke: #000000; stroke-width: 0.6"/>
      </g>
     </g>
    </g>
    <g id="ytick_11">
     <g id="line2d_11">
      <g>
       <use xlink:href="#m0e5d07442a" x="49.30625" y="207.685279" style="stroke: #000000; stroke-width: 0.6"/>
      </g>
     </g>
    </g>
    <g id="ytick_12">
     <g id="line2d_12">
      <g>
       <use xlink:href="#m0e5d07442a" x="49.30625" y="203.638373" style="stroke: #000000; stroke-width: 0.6"/>
      </g>
     </g>
    </g>
    <g id="ytick_13">
     <g id="line2d_13">
      <g>
       <use xlink:href="#m0e5d07442a" x="49.30625" y="176.202459" style="stroke: #000000; stroke-width: 0.6"/>
      </g>
     </g>
    </g>
    <g id="ytick_14">
     <g id="line2d_14">
      <g>
       <use xlink:href="#m0e5d07442a" x="49.30625" y="162.271089" style="stroke: #000000; stroke-width: 0.6"/>
      </g>
     </g>
    </g>
    <g id="ytick_15">
     <g id="line2d_15">
      <g>
       <use xlink:href="#m0e5d07442a" x="49.30625" y="152.386625" style="stroke: #000000; stroke-width: 0.6"/>
      </g>
     </g>
    </g>
    <g id="ytick_16">
     <g id="line2d_16">
      <g>
       <use xlink:href="#m0e5d07442a" x="49.30625" y="144.719639" style="stroke: #000000; stroke-width: 0.6"/>
      </g>
     </g>
    </g>
    <g id="ytick_17">
     <g id="line2d_17">
      <g>
       <use xlink:href="#m0e5d07442a" x="49.30625" y="138.455256" style="stroke: #000000; stroke-width: 0.6"/>
      </g>
     </g>
    </g>
    <g id="ytick_18">
     <g id="line2d_18">
      <g>
       <use xlink:href="#m0e5d07442a" x="49.30625" y="133.158795" style="stroke: #000000; stroke-width: 0.6"/>
      </g>
     </g>
    </g>
    <g id="ytick_19">
     <g id="line2d_19">
      <g>
       <use xlink:href="#m0e5d07442a" x="49.30625" y="128.570791" style="stroke: #000000; stroke-width: 0.6"/>
      </g>
     </g>
    </g>
    <g id="ytick_20">
     <g id="line2d_20">
      <g>
       <use xlink:href="#m0e5d07442a" x="49.30625" y="124.523886" style="stroke: #000000; stroke-width: 0.6"/>
      </g>
     </g>
    </g>
    <g id="ytick_21">
     <g id="line2d_21">
      <g>
       <use xlink:href="#m0e5d07442a" x="49.30625" y="97.087971" style="stroke: #000000; stroke-width: 0.6"/>
      </g>
     </g>
    </g>
    <g id="ytick_22">
     <g id="line2d_22">
      <g>
       <use xlink:href="#m0e5d07442a" x="49.30625" y="83.156602" style="stroke: #000000; stroke-width: 0.6"/>
      </g>
     </g>
    </g>
    <g id="ytick_23">
     <g id="line2d_23">
      <g>
       <use xlink:href="#m0e5d07442a" x="49.30625" y="73.272138" style="stroke: #000000; stroke-width: 0.6"/>
      </g>
     </g>
    </g>
    <g id="ytick_24">
     <g id="line2d_24">
      <g>
       <use xlink:href="#m0e5d07442a" x="49.30625" y="65.605152" style="stroke: #000000; stroke-width: 0.6"/>
      </g>
     </g>
    </g>
    <g id="ytick_25">
     <g id="line2d_25">
      <g>
       <use xlink:href="#m0e5d07442a" x="49.30625" y="59.340768" style="stroke: #000000; stroke-width: 0.6"/>
      </g>
     </g>
    </g>
    <g id="ytick_26">
     <g id="line2d_26">
      <g>
       <use xlink:href="#m0e5d07442a" x="49.30625" y="54.044307" style="stroke: #000000; stroke-width: 0.6"/>
      </g>
     </g>
    </g>
    <g id="ytick_27">
     <g id="line2d_27">
      <g>
       <use xlink:href="#m0e5d07442a" x="49.30625" y="49.456304" style="stroke: #000000; stroke-width: 0.6"/>
      </g>
     </g>
    </g>
    <g id="ytick_28">
     <g id="line2d_28">
      <g>
       <use xlink:href="#m0e5d07442a" x="49.30625" y="45.409398" style="stroke: #000000; stroke-width: 0.6"/>
      </g>
     </g>
    </g>
    <g id="ytick_29">
     <g id="line2d_29">
      <g>
       <use xlink:href="#m0e5d07442a" x="49.30625" y="17.973484" style="stroke: #000000; stroke-width: 0.6"/>
      </g>
     </g>
    </g>
    <g id="text_13">
     <!-- Solve Time (Milliseconds) -->
     <g transform="translate(7.598438 195.025688) rotate(-90) scale(0.1 -0.1)">
      <defs>
       <path id="DejaVuSans-76" d="M 191 3500 
L 800 3500 
L 1894 563 
L 2988 3500 
L 3597 3500 
L 2284 0 
L 1503 0 
L 191 3500 
z
" transform="scale(0.015625)"/>
       <path id="DejaVuSans-20" transform="scale(0.015625)"/>
       <path id="DejaVuSans-6d" d="M 3328 2828 
Q 3544 3216 3844 3400 
Q 4144 3584 4550 3584 
Q 5097 3584 5394 3201 
Q 5691 2819 5691 2113 
L 5691 0 
L 5113 0 
L 5113 2094 
Q 5113 2597 4934 2840 
Q 4756 3084 4391 3084 
Q 3944 3084 3684 2787 
Q 3425 2491 3425 1978 
L 3425 0 
L 2847 0 
L 2847 2094 
Q 2847 2600 2669 2842 
Q 2491 3084 2119 3084 
Q 1678 3084 1418 2786 
Q 1159 2488 1159 1978 
L 1159 0 
L 581 0 
L 581 3500 
L 1159 3500 
L 1159 2956 
Q 1356 3278 1631 3431 
Q 1906 3584 2284 3584 
Q 2666 3584 2933 3390 
Q 3200 3197 3328 2828 
z
" transform="scale(0.015625)"/>
       <path id="DejaVuSans-73" d="M 2834 3397 
L 2834 2853 
Q 2591 2978 2328 3040 
Q 2066 3103 1784 3103 
Q 1356 3103 1142 2972 
Q 928 2841 928 2578 
Q 928 2378 1081 2264 
Q 1234 2150 1697 2047 
L 1894 2003 
Q 2506 1872 2764 1633 
Q 3022 1394 3022 966 
Q 3022 478 2636 193 
Q 2250 -91 1575 -91 
Q 1294 -91 989 -36 
Q 684 19 347 128 
L 347 722 
Q 666 556 975 473 
Q 1284 391 1588 391 
Q 1994 391 2212 530 
Q 2431 669 2431 922 
Q 2431 1156 2273 1281 
Q 2116 1406 1581 1522 
L 1381 1569 
Q 847 1681 609 1914 
Q 372 2147 372 2553 
Q 372 3047 722 3315 
Q 1072 3584 1716 3584 
Q 2034 3584 2315 3537 
Q 2597 3491 2834 3397 
z
" transform="scale(0.015625)"/>
       <path id="DejaVuSans-63" d="M 3122 3366 
L 3122 2828 
Q 2878 2963 2633 3030 
Q 2388 3097 2138 3097 
Q 1578 3097 1268 2742 
Q 959 2388 959 1747 
Q 959 1106 1268 751 
Q 1578 397 2138 397 
Q 2388 397 2633 464 
Q 2878 531 3122 666 
L 3122 134 
Q 2881 22 2623 -34 
Q 2366 -91 2075 -91 
Q 1284 -91 818 406 
Q 353 903 353 1747 
Q 353 2603 823 3093 
Q 1294 3584 2113 3584 
Q 2378 3584 2631 3529 
Q 2884 3475 3122 3366 
z
" transform="scale(0.015625)"/>
       <path id="DejaVuSans-6e" d="M 3513 2113 
L 3513 0 
L 2938 0 
L 2938 2094 
Q 2938 2591 2744 2837 
Q 2550 3084 2163 3084 
Q 1697 3084 1428 2787 
Q 1159 2491 1159 1978 
L 1159 0 
L 581 0 
L 581 3500 
L 1159 3500 
L 1159 2956 
Q 1366 3272 1645 3428 
Q 1925 3584 2291 3584 
Q 2894 3584 3203 3211 
Q 3513 2838 3513 2113 
z
" transform="scale(0.015625)"/>
      </defs>
      <use xlink:href="#DejaVuSans-53"/>
      <use xlink:href="#DejaVuSans-6f" transform="translate(63.476562 0)"/>
      <use xlink:href="#DejaVuSans-6c" transform="translate(124.658203 0)"/>
      <use xlink:href="#DejaVuSans-76" transform="translate(152.441406 0)"/>
      <use xlink:href="#DejaVuSans-65" transform="translate(211.621094 0)"/>
      <use xlink:href="#DejaVuSans-20" transform="translate(273.144531 0)"/>
      <use xlink:href="#DejaVuSans-54" transform="translate(304.931641 0)"/>
      <use xlink:href="#DejaVuSans-69" transform="translate(362.890625 0)"/>
      <use xlink:href="#DejaVuSans-6d" transform="translate(390.673828 0)"/>
      <use xlink:href="#DejaVuSans-65" transform="translate(488.085938 0)"/>
      <use xlink:href="#DejaVuSans-20" transform="translate(549.609375 0)"/>
      <use xlink:href="#DejaVuSans-28" transform="translate(581.396484 0)"/>
      <use xlink:href="#DejaVuSans-4d" transform="translate(620.410156 0)"/>
      <use xlink:href="#DejaVuSans-69" transform="translate(706.689453 0)"/>
      <use xlink:href="#DejaVuSans-6c" transform="translate(734.472656 0)"/>
      <use xlink:href="#DejaVuSans-6c" transform="translate(762.255859 0)"/>
      <use xlink:href="#DejaVuSans-69" transform="translate(790.039062 0)"/>
      <use xlink:href="#DejaVuSans-73" transform="translate(817.822266 0)"/>
      <use xlink:href="#DejaVuSans-65" transform="translate(869.921875 0)"/>
      <use xlink:href="#DejaVuSans-63" transform="translate(931.445312 0)"/>
      <use xlink:href="#DejaVuSans-6f" transform="translate(986.425781 0)"/>
      <use xlink:href="#DejaVuSans-6e" transform="translate(1047.607422 0)"/>
      <use xlink:href="#DejaVuSans-64" transform="translate(1110.986328 0)"/>
      <use xlink:href="#DejaVuSans-73" transform="translate(1174.462891 0)"/>
      <use xlink:href="#DejaVuSans-29" transform="translate(1226.5625 0)"/>
     </g>
    </g>
   </g>
   <g id="line2d_30">
    <path d="M 75.089821 212.220949 
L 75.089821 58.70238 
" clip-path="url(#p8bc2794d86)" style="fill: none; stroke: #2f2f2f; stroke-width: 1.125; stroke-linecap: square"/>
   </g>
   <g id="line2d_31">
    <path d="M 75.089821 170.873992 
L 75.089821 123.336701 
" clip-path="url(#p8bc2794d86)" style="fill: none; stroke: #2f2f2f; stroke-width: 3.375; stroke-linecap: square"/>
   </g>
   <g id="line2d_32">
    <path d="M 75.089821 146.918597 
" clip-path="url(#p8bc2794d86)" style="fill: none; stroke: #2f2f2f; stroke-width: 1.5; stroke-linecap: square"/>
    <defs>
     <path id="m9409dbccff" d="M 1.40625 0 
L -1.40625 -0 
" style="stroke: #ffffff; stroke-width: 0.675"/>
    </defs>
    <g clip-path="url(#p8bc2794d86)">
     <use xlink:href="#m9409dbccff" x="75.089821" y="146.918597" style="fill: #ffffff; stroke: #ffffff; stroke-width: 0.675"/>
    </g>
   </g>
   <g id="line2d_33">
    <path d="M 126.656964 213.862193 
L 126.656964 61.321673 
" clip-path="url(#p8bc2794d86)" style="fill: none; stroke: #2f2f2f; stroke-width: 1.125; stroke-linecap: square"/>
   </g>
   <g id="line2d_34">
    <path d="M 126.656964 170.072973 
L 126.656964 124.598725 
" clip-path="url(#p8bc2794d86)" style="fill: none; stroke: #2f2f2f; stroke-width: 3.375; stroke-linecap: square"/>
   </g>
   <g id="line2d_35">
    <path d="M 126.656964 148.018984 
" clip-path="url(#p8bc2794d86)" style="fill: none; stroke: #2f2f2f; stroke-width: 1.5; stroke-linecap: square"/>
    <g clip-path="url(#p8bc2794d86)">
     <use xlink:href="#m9409dbccff" x="126.656964" y="148.018984" style="fill: #ffffff; stroke: #ffffff; stroke-width: 0.675"/>
    </g>
   </g>
   <g id="line2d_36">
    <path d="M 178.224107 211.037784 
L 178.224107 59.162565 
" clip-path="url(#p8bc2794d86)" style="fill: none; stroke: #2f2f2f; stroke-width: 1.125; stroke-linecap: square"/>
   </g>
   <g id="line2d_37">
    <path d="M 178.224107 170.284683 
L 178.224107 122.697555 
" clip-path="url(#p8bc2794d86)" style="fill: none; stroke: #2f2f2f; stroke-width: 3.375; stroke-linecap: square"/>
   </g>
   <g id="line2d_38">
    <path d="M 178.224107 145.586839 
" clip-path="url(#p8bc2794d86)" style="fill: none; stroke: #2f2f2f; stroke-width: 1.5; stroke-linecap: square"/>
    <g clip-path="url(#p8bc2794d86)">
     <use xlink:href="#m9409dbccff" x="178.224107" y="145.586839" style="fill: #ffffff; stroke: #ffffff; stroke-width: 0.675"/>
    </g>
   </g>
   <g id="line2d_39">
    <path d="M 229.79125 215.239281 
L 229.79125 62.688019 
" clip-path="url(#p8bc2794d86)" style="fill: none; stroke: #2f2f2f; stroke-width: 1.125; stroke-linecap: square"/>
   </g>
   <g id="line2d_40">
    <path d="M 229.79125 174.163694 
L 229.79125 126.215308 
" clip-path="url(#p8bc2794d86)" style="fill: none; stroke: #2f2f2f; stroke-width: 3.375; stroke-linecap: square"/>
   </g>
   <g id="line2d_41">
    <path d="M 229.79125 151.100121 
" clip-path="url(#p8bc2794d86)" style="fill: none; stroke: #2f2f2f; stroke-width: 1.5; stroke-linecap: square"/>
    <g clip-path="url(#p8bc2794d86)">
     <use xlink:href="#m9409dbccff" x="229.79125" y="151.100121" style="fill: #ffffff; stroke: #ffffff; stroke-width: 0.675"/>
    </g>
   </g>
   <g id="line2d_42">
    <path d="M 281.358393 191.802209 
L 281.358393 46.077114 
" clip-path="url(#p8bc2794d86)" style="fill: none; stroke: #2f2f2f; stroke-width: 1.125; stroke-linecap: square"/>
   </g>
   <g id="line2d_43">
    <path d="M 281.358393 150.601745 
L 281.358393 107.327884 
" clip-path="url(#p8bc2794d86)" style="fill: none; stroke: #2f2f2f; stroke-width: 3.375; stroke-linecap: square"/>
   </g>
   <g id="line2d_44">
    <path d="M 281.358393 129.452014 
" clip-path="url(#p8bc2794d86)" style="fill: none; stroke: #2f2f2f; stroke-width: 1.5; stroke-linecap: square"/>
    <g clip-path="url(#p8bc2794d86)">
     <use xlink:href="#m9409dbccff" x="281.358393" y="129.452014" style="fill: #ffffff; stroke: #ffffff; stroke-width: 0.675"/>
    </g>
   </g>
   <g id="line2d_45">
    <path d="M 332.925536 200.24782 
L 332.925536 54.623337 
" clip-path="url(#p8bc2794d86)" style="fill: none; stroke: #2f2f2f; stroke-width: 1.125; stroke-linecap: square"/>
   </g>
   <g id="line2d_46">
    <path d="M 332.925536 160.16892 
L 332.925536 116.869014 
" clip-path="url(#p8bc2794d86)" style="fill: none; stroke: #2f2f2f; stroke-width: 3.375; stroke-linecap: square"/>
   </g>
   <g id="line2d_47">
    <path d="M 332.925536 136.902229 
" clip-path="url(#p8bc2794d86)" style="fill: none; stroke: #2f2f2f; stroke-width: 1.5; stroke-linecap: square"/>
    <g clip-path="url(#p8bc2794d86)">
     <use xlink:href="#m9409dbccff" x="332.925536" y="136.902229" style="fill: #ffffff; stroke: #ffffff; stroke-width: 0.675"/>
    </g>
   </g>
   <g id="line2d_48">
    <path d="M 384.492679 185.070156 
L 384.492679 34.529371 
" clip-path="url(#p8bc2794d86)" style="fill: none; stroke: #2f2f2f; stroke-width: 1.125; stroke-linecap: square"/>
   </g>
   <g id="line2d_49">
    <path d="M 384.492679 126.089132 
L 384.492679 86.738241 
" clip-path="url(#p8bc2794d86)" style="fill: none; stroke: #2f2f2f; stroke-width: 3.375; stroke-linecap: square"/>
   </g>
   <g id="line2d_50">
    <path d="M 384.492679 106.642556 
" clip-path="url(#p8bc2794d86)" style="fill: none; stroke: #2f2f2f; stroke-width: 1.5; stroke-linecap: square"/>
    <g clip-path="url(#p8bc2794d86)">
     <use xlink:href="#m9409dbccff" x="384.492679" y="106.642556" style="fill: #ffffff; stroke: #ffffff; stroke-width: 0.675"/>
    </g>
   </g>
   <g id="patch_3">
    <path d="M 49.30625 251.515091 
L 49.30625 11.976909 
" style="fill: none; stroke: #000000; stroke-width: 0.8; stroke-linejoin: miter; stroke-linecap: square"/>
   </g>
  </g>
 </g>
 <defs>
  <clipPath id="p8bc2794d86">
   <rect x="49.30625" y="0" width="360.97" height="263.492"/>
  </clipPath>
 </defs>
</svg>
