<?xml version="1.0" encoding="utf-8" standalone="no"?>
<!DOCTYPE svg PUBLIC "-//W3C//DTD SVG 1.1//EN"
  "http://www.w3.org/Graphics/SVG/1.1/DTD/svg11.dtd">
<svg xmlns:xlink="http://www.w3.org/1999/xlink" width="561.38625pt" height="301.06575pt" viewBox="0 0 561.38625 301.06575" xmlns="http://www.w3.org/2000/svg" version="1.1">
 <metadata>
  <rdf:RDF xmlns:dc="http://purl.org/dc/elements/1.1/" xmlns:cc="http://creativecommons.org/ns#" xmlns:rdf="http://www.w3.org/1999/02/22-rdf-syntax-ns#">
   <cc:Work>
    <dc:type rdf:resource="http://purl.org/dc/dcmitype/StillImage"/>
    <dc:date>2026-07-20T12:59:38.539724</dc:date>
    <dc:format>image/svg+xml</dc:format>
    <dc:creator>
     <cc:Agent>
      <dc:title>Matplotlib v3.10.8, https://matplotlib.org/</dc:title>
     </cc:Agent>
    </dc:creator>
   </cc:Work>
  </rdf:RDF>
 </metadata>
 <defs>
  <style type="text/css">*{stroke-linejoin: round; stroke-linecap: butt}</style>
 </defs>
 <g id="figure_1">
  <g id="patch_1">
   <path d="M 0 301.06575 
L 561.38625 301.06575 
L 561.38625 0 
L 0 0 
L 0 301.06575 
z
" style="fill: none"/>
  </g>
  <g id="axes_1">
   <g id="patch_2">
    <path d="M 37.30625 263.492 
L 561.38625 263.492 
L 561.38625 0 
L 37.30625 0 
L 37.30625 263.492 
z
" style="fill: none"/>
   </g>
   <g id="FillBetweenPolyCollection_1">
    <defs>
     <path id="m4c8856f178" d="M 67.048533 -49.550659 
L 65.795078 -49.550659 
L 65.784913 -51.609708 
L 65.780213 -53.668756 
L 65.777616 -55.727805 
L 65.772621 -57.786854 
L 65.759735 -59.845902 
L 65.732671 -61.904951 
L 65.684577 -63.963999 
L 65.608294 -66.023048 
L 65.49661 -68.082097 
L 65.342508 -70.141145 
L 65.139421 -72.200194 
L 64.88148 -74.259243 
L 64.563768 -76.318291 
L 64.18257 -78.37734 
L 63.735615 -80.436388 
L 63.222269 -82.495437 
L 62.643663 -84.554486 
L 62.002699 -86.613534 
L 61.303913 -88.672583 
L 60.553162 -90.731632 
L 59.757156 -92.79068 
L 58.922858 -94.849729 
L 58.056822 -96.908777 
L 57.16458 -98.967826 
L 56.250161 -101.026875 
L 55.315879 -103.085923 
L 54.362426 -105.144972 
L 53.389336 -107.20402 
L 52.39576 -109.263069 
L 51.381465 -111.322118 
L 50.347913 -113.381166 
L 49.299236 -115.440215 
L 48.242924 -117.499264 
L 47.19008 -119.558312 
L 46.155167 -121.617361 
L 45.15524 -123.676409 
L 44.208757 -125.735458 
L 43.334139 -127.794507 
L 42.548291 -129.853555 
L 41.865312 -131.912604 
L 41.295585 -133.971653 
L 40.845362 -136.030701 
L 40.516884 -138.08975 
L 40.308952 -140.148798 
L 40.217806 -142.207847 
L 40.23811 -144.266896 
L 40.363836 -146.325944 
L 40.58887 -148.384993 
L 40.907256 -150.444042 
L 41.313046 -152.50309 
L 41.799856 -154.562139 
L 42.360252 -156.621187 
L 42.985166 -158.680236 
L 43.663508 -160.739285 
L 44.382109 -162.798333 
L 45.12609 -164.857382 
L 45.879623 -166.916431 
L 46.627017 -168.975479 
L 47.353978 -171.034528 
L 48.048863 -173.093576 
L 48.703735 -175.152625 
L 49.315065 -177.211674 
L 49.883964 -179.270722 
L 50.415903 -181.329771 
L 50.919961 -183.388819 
L 51.407688 -185.447868 
L 51.891735 -187.506917 
L 52.384431 -189.565965 
L 52.896464 -191.625014 
L 53.435818 -193.684063 
L 54.007057 -195.743111 
L 54.610993 -197.80216 
L 55.244735 -199.861208 
L 55.902061 -201.920257 
L 56.574039 -203.979306 
L 57.249819 -206.038354 
L 57.917507 -208.097403 
L 58.565068 -210.156452 
L 59.181187 -212.2155 
L 59.756057 -214.274549 
L 60.282043 -216.333597 
L 60.75418 -218.392646 
L 61.170474 -220.451695 
L 61.531962 -222.510743 
L 61.842534 -224.569792 
L 62.108504 -226.628841 
L 62.337987 -228.687889 
L 62.540125 -230.746938 
L 62.724259 -232.805986 
L 62.899137 -234.865035 
L 63.072236 -236.924084 
L 63.249282 -238.983132 
L 63.433992 -241.042181 
L 63.628043 -243.10123 
L 63.831261 -245.160278 
L 64.041942 -247.219327 
L 64.257282 -249.278375 
L 64.473817 -251.337424 
L 64.687843 -253.396473 
L 68.155769 -253.396473 
L 68.155769 -253.396473 
L 68.369794 -251.337424 
L 68.586329 -249.278375 
L 68.801669 -247.219327 
L 69.01235 -245.160278 
L 69.215568 -243.10123 
L 69.40962 -241.042181 
L 69.594329 -238.983132 
L 69.771375 -236.924084 
L 69.944474 -234.865035 
L 70.119352 -232.805986 
L 70.303486 -230.746938 
L 70.505624 -228.687889 
L 70.735107 -226.628841 
L 71.001078 -224.569792 
L 71.311649 -222.510743 
L 71.673137 -220.451695 
L 72.089431 -218.392646 
L 72.561568 -216.333597 
L 73.087555 -214.274549 
L 73.662425 -212.2155 
L 74.278543 -210.156452 
L 74.926104 -208.097403 
L 75.593792 -206.038354 
L 76.269572 -203.979306 
L 76.94155 -201.920257 
L 77.598876 -199.861208 
L 78.232618 -197.80216 
L 78.836554 -195.743111 
L 79.407793 -193.684063 
L 79.947148 -191.625014 
L 80.459181 -189.565965 
L 80.951876 -187.506917 
L 81.435924 -185.447868 
L 81.92365 -183.388819 
L 82.427708 -181.329771 
L 82.959647 -179.270722 
L 83.528546 -177.211674 
L 84.139876 -175.152625 
L 84.794748 -173.093576 
L 85.489633 -171.034528 
L 86.216595 -168.975479 
L 86.963988 -166.916431 
L 87.717521 -164.857382 
L 88.461502 -162.798333 
L 89.180104 -160.739285 
L 89.858445 -158.680236 
L 90.483359 -156.621187 
L 91.043756 -154.562139 
L 91.530565 -152.50309 
L 91.936355 -150.444042 
L 92.254741 -148.384993 
L 92.479776 -146.325944 
L 92.605501 -144.266896 
L 92.625806 -142.207847 
L 92.534659 -140.148798 
L 92.326727 -138.08975 
L 91.998249 -136.030701 
L 91.548026 -133.971653 
L 90.978299 -131.912604 
L 90.29532 -129.853555 
L 89.509472 -127.794507 
L 88.634854 -125.735458 
L 87.688371 -123.676409 
L 86.688444 -121.617361 
L 85.653531 -119.558312 
L 84.600687 -117.499264 
L 83.544375 -115.440215 
L 82.495698 -113.381166 
L 81.462147 -111.322118 
L 80.447851 -109.263069 
L 79.454275 -107.20402 
L 78.481185 -105.144972 
L 77.527733 -103.085923 
L 76.59345 -101.026875 
L 75.679031 -98.967826 
L 74.786789 -96.908777 
L 73.920753 -94.849729 
L 73.086455 -92.79068 
L 72.290449 -90.731632 
L 71.539698 -88.672583 
L 70.840912 -86.613534 
L 70.199948 -84.554486 
L 69.621342 -82.495437 
L 69.107997 -80.436388 
L 68.661041 -78.37734 
L 68.279844 -76.318291 
L 67.962131 -74.259243 
L 67.70419 -72.200194 
L 67.501104 -70.141145 
L 67.347001 -68.082097 
L 67.235317 -66.023048 
L 67.159034 -63.963999 
L 67.110941 -61.904951 
L 67.083876 -59.845902 
L 67.07099 -57.786854 
L 67.065996 -55.727805 
L 67.063398 -53.668756 
L 67.058698 -51.609708 
L 67.048533 -49.550659 
z
" style="stroke: #2f2f2f; stroke-width: 0.75"/>
    </defs>
    <g clip-path="url(#p096d66866e)">
     <use xlink:href="#m4c8856f178" x="0" y="301.06575" style="fill: #4e5ba6; stroke: #2f2f2f; stroke-width: 0.75"/>
    </g>
   </g>
   <g id="FillBetweenPolyCollection_2">
    <defs>
     <path id="m83abafdd7b" d="M 125.328526 -53.85626 
L 123.977307 -53.85626 
L 123.948331 -55.852933 
L 123.91893 -57.849605 
L 123.884896 -59.846278 
L 123.840999 -61.84295 
L 123.781225 -63.839623 
L 123.699062 -65.836295 
L 123.587852 -67.832967 
L 123.441151 -69.82964 
L 123.253094 -71.826312 
L 123.018713 -73.822985 
L 122.734215 -75.819657 
L 122.397181 -77.81633 
L 122.006683 -79.813002 
L 121.563298 -81.809675 
L 121.069026 -83.806347 
L 120.527088 -85.80302 
L 119.941625 -87.799692 
L 119.31729 -89.796365 
L 118.658777 -91.793037 
L 117.970313 -93.789709 
L 117.255161 -95.786382 
L 116.515223 -97.783054 
L 115.75078 -99.779727 
L 114.960456 -101.776399 
L 114.141447 -103.773072 
L 113.29002 -105.769744 
L 112.402272 -107.766417 
L 111.475071 -109.763089 
L 110.507074 -111.759762 
L 109.499696 -113.756434 
L 108.457868 -115.753106 
L 107.390468 -117.749779 
L 106.310329 -119.746451 
L 105.233781 -121.743124 
L 104.179764 -123.739796 
L 103.168596 -125.736469 
L 102.220561 -127.733141 
L 101.354472 -129.729814 
L 100.586417 -131.726486 
L 99.928821 -133.723159 
L 99.389939 -135.719831 
L 98.973807 -137.716503 
L 98.680613 -139.713176 
L 98.507397 -141.709848 
L 98.448917 -143.706521 
L 98.498535 -145.703193 
L 98.64897 -147.699866 
L 98.892806 -149.696538 
L 99.222708 -151.693211 
L 99.631351 -153.689883 
L 100.111134 -155.686556 
L 100.653791 -157.683228 
L 101.250025 -159.6799 
L 101.889293 -161.676573 
L 102.559838 -163.673245 
L 103.249014 -165.669918 
L 103.943904 -167.66659 
L 104.632159 -169.663263 
L 105.302959 -171.659935 
L 105.947955 -173.656608 
L 106.562037 -175.65328 
L 107.143822 -177.649953 
L 107.69574 -179.646625 
L 108.223719 -181.643297 
L 108.736453 -183.63997 
L 109.244371 -185.636642 
L 109.758417 -187.633315 
L 110.288783 -189.629987 
L 110.843783 -191.62666 
L 111.428946 -193.623332 
L 112.046464 -195.620005 
L 112.694995 -197.616677 
L 113.369825 -199.61335 
L 114.063327 -201.610022 
L 114.765643 -203.606694 
L 115.465492 -205.603367 
L 116.151029 -207.600039 
L 116.810676 -209.596712 
L 117.433884 -211.593384 
L 118.01178 -213.590057 
L 118.537685 -215.586729 
L 119.007472 -217.583402 
L 119.419756 -219.580074 
L 119.775906 -221.576747 
L 120.079859 -223.573419 
L 120.337767 -225.570092 
L 120.557478 -227.566764 
L 120.747896 -229.563436 
L 120.918286 -231.560109 
L 121.077572 -233.556781 
L 121.233716 -235.553454 
L 121.393211 -237.550126 
L 121.560753 -239.546799 
L 121.739099 -241.543471 
L 121.929107 -243.540144 
L 122.129936 -245.536816 
L 122.339365 -247.533489 
L 122.554177 -249.530161 
L 122.770565 -251.526833 
L 126.535268 -251.526833 
L 126.535268 -251.526833 
L 126.751657 -249.530161 
L 126.966468 -247.533489 
L 127.175897 -245.536816 
L 127.376726 -243.540144 
L 127.566734 -241.543471 
L 127.74508 -239.546799 
L 127.912622 -237.550126 
L 128.072117 -235.553454 
L 128.228261 -233.556781 
L 128.387547 -231.560109 
L 128.557937 -229.563436 
L 128.748355 -227.566764 
L 128.968066 -225.570092 
L 129.225975 -223.573419 
L 129.529928 -221.576747 
L 129.886077 -219.580074 
L 130.298362 -217.583402 
L 130.768149 -215.586729 
L 131.294054 -213.590057 
L 131.87195 -211.593384 
L 132.495157 -209.596712 
L 133.154804 -207.600039 
L 133.840341 -205.603367 
L 134.54019 -203.606694 
L 135.242506 -201.610022 
L 135.936008 -199.61335 
L 136.610838 -197.616677 
L 137.259369 -195.620005 
L 137.876888 -193.623332 
L 138.462051 -191.62666 
L 139.01705 -189.629987 
L 139.547417 -187.633315 
L 140.061462 -185.636642 
L 140.569381 -183.63997 
L 141.082114 -181.643297 
L 141.610093 -179.646625 
L 142.162012 -177.649953 
L 142.743796 -175.65328 
L 143.357879 -173.656608 
L 144.002874 -171.659935 
L 144.673675 -169.663263 
L 145.361929 -167.66659 
L 146.056819 -165.669918 
L 146.745995 -163.673245 
L 147.41654 -161.676573 
L 148.055809 -159.6799 
L 148.652043 -157.683228 
L 149.1947 -155.686556 
L 149.674482 -153.689883 
L 150.083125 -151.693211 
L 150.413027 -149.696538 
L 150.656864 -147.699866 
L 150.807299 -145.703193 
L 150.856917 -143.706521 
L 150.798436 -141.709848 
L 150.62522 -139.713176 
L 150.332027 -137.716503 
L 149.915894 -135.719831 
L 149.377012 -133.723159 
L 148.719417 -131.726486 
L 147.951362 -129.729814 
L 147.085272 -127.733141 
L 146.137237 -125.736469 
L 145.12607 -123.739796 
L 144.072052 -121.743124 
L 142.995505 -119.746451 
L 141.915365 -117.749779 
L 140.847965 -115.753106 
L 139.806137 -113.756434 
L 138.798759 -111.759762 
L 137.830763 -109.763089 
L 136.903561 -107.766417 
L 136.015813 -105.769744 
L 135.164386 -103.773072 
L 134.345377 -101.776399 
L 133.555053 -99.779727 
L 132.79061 -97.783054 
L 132.050672 -95.786382 
L 131.335521 -93.789709 
L 130.647056 -91.793037 
L 129.988543 -89.796365 
L 129.364208 -87.799692 
L 128.778745 -85.80302 
L 128.236808 -83.806347 
L 127.742536 -81.809675 
L 127.299151 -79.813002 
L 126.908652 -77.81633 
L 126.571618 -75.819657 
L 126.28712 -73.822985 
L 126.052739 -71.826312 
L 125.864682 -69.82964 
L 125.717982 -67.832967 
L 125.606771 -65.836295 
L 125.524608 -63.839623 
L 125.464834 -61.84295 
L 125.420938 -59.846278 
L 125.386903 -57.849605 
L 125.357503 -55.852933 
L 125.328526 -53.85626 
z
" style="stroke: #2f2f2f; stroke-width: 0.75"/>
    </defs>
    <g clip-path="url(#p096d66866e)">
     <use xlink:href="#m83abafdd7b" x="0" y="301.06575" style="fill: #afb5d7; stroke: #2f2f2f; stroke-width: 0.75"/>
    </g>
   </g>
   <g id="FillBetweenPolyCollection_3">
    <defs>
     <path id="mb2a6abddf3" d="M 183.526043 -53.846795 
L 182.242013 -53.846795 
L 182.224911 -55.87088 
L 182.21058 -57.894964 
L 182.195031 -59.919049 
L 182.173096 -61.943134 
L 182.138606 -63.967218 
L 182.084647 -65.991303 
L 182.003874 -68.015388 
L 181.888862 -70.039473 
L 181.732471 -72.063557 
L 181.528212 -74.087642 
L 181.270581 -76.111727 
L 180.955362 -78.135812 
L 180.579864 -80.159896 
L 180.14308 -82.183981 
L 179.645751 -84.208066 
L 179.090314 -86.23215 
L 178.480718 -88.256235 
L 177.822124 -90.28032 
L 177.120476 -92.304405 
L 176.381998 -94.328489 
L 175.612646 -96.352574 
L 174.817582 -98.376659 
L 174.000735 -100.400744 
L 173.164519 -102.424828 
L 172.309761 -104.448913 
L 171.435869 -106.472998 
L 170.541251 -108.497082 
L 169.623953 -110.521167 
L 168.682447 -112.545252 
L 167.716482 -114.569337 
L 166.727883 -116.593421 
L 165.72119 -118.617506 
L 164.704028 -120.641591 
L 163.687141 -122.665676 
L 162.684072 -124.68976 
L 161.710496 -126.713845 
L 160.783287 -128.73793 
L 159.919436 -130.762014 
L 159.134956 -132.786099 
L 158.443908 -134.810184 
L 157.857669 -136.834269 
L 157.384517 -138.858353 
L 157.029545 -140.882438 
L 156.794869 -142.906523 
L 156.680028 -144.930608 
L 156.682476 -146.954692 
L 156.798032 -148.978777 
L 157.021196 -151.002862 
L 157.345284 -153.026946 
L 157.762394 -155.051031 
L 158.263244 -157.075116 
L 158.836998 -159.099201 
L 159.471186 -161.123285 
L 160.151811 -163.14737 
L 160.863727 -165.171455 
L 161.591283 -167.195539 
L 162.31921 -169.219624 
L 163.033641 -171.243709 
L 163.723153 -173.267794 
L 164.379664 -175.291878 
L 164.99907 -177.315963 
L 165.5815 -179.340048 
L 166.131152 -181.364133 
L 166.655696 -183.388217 
L 167.165319 -185.412302 
L 167.671522 -187.436387 
L 168.185806 -189.460471 
L 168.718409 -191.484556 
L 169.277238 -193.508641 
L 169.867086 -195.532726 
L 170.489215 -197.55681 
L 171.141308 -199.580895 
L 171.817751 -201.60498 
L 172.510191 -203.629065 
L 173.208274 -205.653149 
L 173.900484 -207.677234 
L 174.57501 -209.701319 
L 175.220572 -211.725403 
L 175.827162 -213.749488 
L 176.386675 -215.773573 
L 176.89339 -217.797658 
L 177.344287 -219.821742 
L 177.739166 -221.845827 
L 178.080577 -223.869912 
L 178.373527 -225.893997 
L 178.625012 -227.918081 
L 178.843386 -229.942166 
L 179.037645 -231.966251 
L 179.216678 -233.990335 
L 179.388588 -236.01442 
L 179.560126 -238.038505 
L 179.736316 -240.06259 
L 179.920279 -242.086674 
L 180.113259 -244.110759 
L 180.314826 -246.134844 
L 180.523197 -248.158929 
L 180.735633 -250.183013 
L 180.948839 -252.207098 
L 181.159332 -254.231183 
L 184.608723 -254.231183 
L 184.608723 -254.231183 
L 184.819216 -252.207098 
L 185.032422 -250.183013 
L 185.244859 -248.158929 
L 185.45323 -246.134844 
L 185.654797 -244.110759 
L 185.847777 -242.086674 
L 186.03174 -240.06259 
L 186.20793 -238.038505 
L 186.379468 -236.01442 
L 186.551377 -233.990335 
L 186.730411 -231.966251 
L 186.924669 -229.942166 
L 187.143044 -227.918081 
L 187.394529 -225.893997 
L 187.687479 -223.869912 
L 188.028889 -221.845827 
L 188.423769 -219.821742 
L 188.874665 -217.797658 
L 189.381381 -215.773573 
L 189.940894 -213.749488 
L 190.547484 -211.725403 
L 191.193045 -209.701319 
L 191.867571 -207.677234 
L 192.559782 -205.653149 
L 193.257864 -203.629065 
L 193.950304 -201.60498 
L 194.626748 -199.580895 
L 195.278841 -197.55681 
L 195.90097 -195.532726 
L 196.490817 -193.508641 
L 197.049646 -191.484556 
L 197.58225 -189.460471 
L 198.096533 -187.436387 
L 198.602736 -185.412302 
L 199.11236 -183.388217 
L 199.636904 -181.364133 
L 200.186556 -179.340048 
L 200.768986 -177.315963 
L 201.388391 -175.291878 
L 202.044902 -173.267794 
L 202.734414 -171.243709 
L 203.448846 -169.219624 
L 204.176772 -167.195539 
L 204.904329 -165.171455 
L 205.616245 -163.14737 
L 206.29687 -161.123285 
L 206.931058 -159.099201 
L 207.504812 -157.075116 
L 208.005661 -155.051031 
L 208.422771 -153.026946 
L 208.74686 -151.002862 
L 208.970023 -148.978777 
L 209.085579 -146.954692 
L 209.088028 -144.930608 
L 208.973187 -142.906523 
L 208.73851 -140.882438 
L 208.383539 -138.858353 
L 207.910387 -136.834269 
L 207.324148 -134.810184 
L 206.633099 -132.786099 
L 205.84862 -130.762014 
L 204.984769 -128.73793 
L 204.057559 -126.713845 
L 203.083983 -124.68976 
L 202.080915 -122.665676 
L 201.064028 -120.641591 
L 200.046865 -118.617506 
L 199.040172 -116.593421 
L 198.051574 -114.569337 
L 197.085609 -112.545252 
L 196.144103 -110.521167 
L 195.226805 -108.497082 
L 194.332187 -106.472998 
L 193.458294 -104.448913 
L 192.603536 -102.424828 
L 191.767321 -100.400744 
L 190.950474 -98.376659 
L 190.155409 -96.352574 
L 189.386058 -94.328489 
L 188.64758 -92.304405 
L 187.945931 -90.28032 
L 187.287337 -88.256235 
L 186.677742 -86.23215 
L 186.122304 -84.208066 
L 185.624976 -82.183981 
L 185.188191 -80.159896 
L 184.812693 -78.135812 
L 184.497474 -76.111727 
L 184.239844 -74.087642 
L 184.035584 -72.063557 
L 183.879194 -70.039473 
L 183.764182 -68.015388 
L 183.683408 -65.991303 
L 183.629449 -63.967218 
L 183.594959 -61.943134 
L 183.573024 -59.919049 
L 183.557476 -57.894964 
L 183.543145 -55.87088 
L 183.526043 -53.846795 
z
" style="stroke: #2f2f2f; stroke-width: 0.75"/>
    </defs>
    <g clip-path="url(#p096d66866e)">
     <use xlink:href="#mb2a6abddf3" x="0" y="301.06575" style="fill: #ca4f47; stroke: #2f2f2f; stroke-width: 0.75"/>
    </g>
   </g>
   <g id="FillBetweenPolyCollection_4">
    <defs>
     <path id="m61d8157714" d="M 241.755646 -54.016063 
L 240.474631 -54.016063 
L 240.45637 -56.015907 
L 240.439741 -58.015752 
L 240.42031 -60.015597 
L 240.392366 -62.015441 
L 240.349103 -64.015286 
L 240.282912 -66.01513 
L 240.185743 -68.014975 
L 240.049535 -70.014819 
L 239.866679 -72.014664 
L 239.630487 -74.014508 
L 239.335637 -76.014353 
L 238.978551 -78.014198 
L 238.557676 -80.014042 
L 238.073623 -82.013887 
L 237.529137 -84.013731 
L 236.928882 -86.013576 
L 236.279024 -88.01342 
L 235.586648 -90.013265 
L 234.859042 -92.01311 
L 234.102924 -94.012954 
L 233.323707 -96.012799 
L 232.524892 -98.012643 
L 231.70771 -100.012488 
L 230.871081 -102.012332 
L 230.011937 -104.012177 
L 229.125918 -106.012021 
L 228.208373 -108.011866 
L 227.255563 -110.011711 
L 226.265906 -112.011555 
L 225.241086 -114.0114 
L 224.186864 -116.011244 
L 223.113429 -118.011089 
L 222.035238 -120.010933 
L 220.9703 -122.010778 
L 219.939014 -124.010622 
L 218.962678 -126.010467 
L 218.061873 -128.010312 
L 217.254934 -130.010156 
L 216.556708 -132.010001 
L 215.977738 -134.009845 
L 215.523962 -136.00969 
L 215.196911 -138.009534 
L 214.994341 -140.009379 
L 214.911139 -142.009223 
L 214.940328 -144.009068 
L 215.074008 -146.008913 
L 215.304065 -148.008757 
L 215.622576 -150.008602 
L 216.021879 -152.008446 
L 216.494357 -154.008291 
L 217.032041 -156.008135 
L 217.62617 -158.00798 
L 218.266849 -160.007824 
L 218.942921 -162.007669 
L 219.642146 -164.007514 
L 220.351675 -166.007358 
L 221.058809 -168.007203 
L 221.751913 -170.007047 
L 222.421383 -172.006892 
L 223.060489 -174.006736 
L 223.665979 -176.006581 
L 224.238332 -178.006425 
L 224.781607 -180.00627 
L 225.302902 -182.006115 
L 225.811479 -184.005959 
L 226.317672 -186.005804 
L 226.83171 -188.005648 
L 227.362601 -190.005493 
L 227.917193 -192.005337 
L 228.499518 -194.005182 
L 229.110443 -196.005026 
L 229.747647 -198.004871 
L 230.405878 -200.004716 
L 231.077433 -202.00456 
L 231.752795 -204.004405 
L 232.421351 -206.004249 
L 233.072142 -208.004094 
L 233.694597 -210.003938 
L 234.279216 -212.003783 
L 234.818171 -214.003627 
L 235.305798 -216.003472 
L 235.738947 -218.003317 
L 236.117162 -220.003161 
L 236.442667 -222.003006 
L 236.720143 -224.00285 
L 236.956317 -226.002695 
L 237.159373 -228.002539 
L 237.338266 -230.002384 
L 237.501983 -232.002229 
L 237.658851 -234.002073 
L 237.815946 -236.001918 
L 237.978669 -238.001762 
L 238.150528 -240.001607 
L 238.333106 -242.001451 
L 238.526225 -244.001296 
L 238.728237 -246.00114 
L 238.936402 -248.000985 
L 239.1473 -250.00083 
L 239.357214 -252.000674 
L 242.873064 -252.000674 
L 242.873064 -252.000674 
L 243.082978 -250.00083 
L 243.293875 -248.000985 
L 243.502041 -246.00114 
L 243.704053 -244.001296 
L 243.897172 -242.001451 
L 244.07975 -240.001607 
L 244.251608 -238.001762 
L 244.414332 -236.001918 
L 244.571426 -234.002073 
L 244.728294 -232.002229 
L 244.892012 -230.002384 
L 245.070905 -228.002539 
L 245.273961 -226.002695 
L 245.510135 -224.00285 
L 245.787611 -222.003006 
L 246.113116 -220.003161 
L 246.491331 -218.003317 
L 246.92448 -216.003472 
L 247.412107 -214.003627 
L 247.951062 -212.003783 
L 248.53568 -210.003938 
L 249.158136 -208.004094 
L 249.808926 -206.004249 
L 250.477482 -204.004405 
L 251.152845 -202.00456 
L 251.8244 -200.004716 
L 252.482631 -198.004871 
L 253.119834 -196.005026 
L 253.730759 -194.005182 
L 254.313084 -192.005337 
L 254.867677 -190.005493 
L 255.398567 -188.005648 
L 255.912606 -186.005804 
L 256.418799 -184.005959 
L 256.927376 -182.006115 
L 257.448671 -180.00627 
L 257.991946 -178.006425 
L 258.564298 -176.006581 
L 259.169789 -174.006736 
L 259.808895 -172.006892 
L 260.478365 -170.007047 
L 261.171469 -168.007203 
L 261.878602 -166.007358 
L 262.588132 -164.007514 
L 263.287356 -162.007669 
L 263.963429 -160.007824 
L 264.604108 -158.00798 
L 265.198237 -156.008135 
L 265.735921 -154.008291 
L 266.208399 -152.008446 
L 266.607702 -150.008602 
L 266.926213 -148.008757 
L 267.156269 -146.008913 
L 267.289949 -144.009068 
L 267.319139 -142.009223 
L 267.235937 -140.009379 
L 267.033367 -138.009534 
L 266.706316 -136.00969 
L 266.252539 -134.009845 
L 265.67357 -132.010001 
L 264.975344 -130.010156 
L 264.168405 -128.010312 
L 263.2676 -126.010467 
L 262.291263 -124.010622 
L 261.259978 -122.010778 
L 260.19504 -120.010933 
L 259.116849 -118.011089 
L 258.043414 -116.011244 
L 256.989191 -114.0114 
L 255.964372 -112.011555 
L 254.974715 -110.011711 
L 254.021905 -108.011866 
L 253.10436 -106.012021 
L 252.218341 -104.012177 
L 251.359197 -102.012332 
L 250.522568 -100.012488 
L 249.705386 -98.012643 
L 248.906571 -96.012799 
L 248.127354 -94.012954 
L 247.371236 -92.01311 
L 246.64363 -90.013265 
L 245.951254 -88.01342 
L 245.301396 -86.013576 
L 244.701141 -84.013731 
L 244.156655 -82.013887 
L 243.672602 -80.014042 
L 243.251727 -78.014198 
L 242.894641 -76.014353 
L 242.599791 -74.014508 
L 242.363599 -72.014664 
L 242.180743 -70.014819 
L 242.044535 -68.014975 
L 241.947366 -66.01513 
L 241.881175 -64.015286 
L 241.837912 -62.015441 
L 241.809967 -60.015597 
L 241.790537 -58.015752 
L 241.773908 -56.015907 
L 241.755646 -54.016063 
z
" style="stroke: #2f2f2f; stroke-width: 0.75"/>
    </defs>
    <g clip-path="url(#p096d66866e)">
     <use xlink:href="#m61d8157714" x="0" y="301.06575" style="fill: #e7b0ac; stroke: #2f2f2f; stroke-width: 0.75"/>
    </g>
   </g>
   <g id="FillBetweenPolyCollection_5">
    <defs>
     <path id="madefaac380" d="M 299.951004 -55.716385 
L 298.741496 -55.716385 
L 298.732311 -57.776362 
L 298.728308 -59.836338 
L 298.725983 -61.896315 
L 298.720717 -63.956292 
L 298.706991 -66.016269 
L 298.678695 -68.076246 
L 298.62949 -70.136223 
L 298.553214 -72.196199 
L 298.444283 -74.256176 
L 298.298041 -76.316153 
L 298.111046 -78.37613 
L 297.881227 -80.436107 
L 297.607909 -82.496083 
L 297.291691 -84.55606 
L 296.934177 -86.616037 
L 296.537605 -88.676014 
L 296.104415 -90.735991 
L 295.63683 -92.795968 
L 295.136516 -94.855944 
L 294.604381 -96.915921 
L 294.040546 -98.975898 
L 293.444494 -101.035875 
L 292.815361 -103.095852 
L 292.152296 -105.155828 
L 291.454804 -107.215805 
L 290.722995 -109.275782 
L 289.957666 -111.335759 
L 289.1602 -113.395736 
L 288.332319 -115.455712 
L 287.475746 -117.515689 
L 286.591913 -119.575666 
L 285.681812 -121.635643 
L 284.746101 -123.69562 
L 283.785506 -125.755597 
L 282.801514 -127.815573 
L 281.797263 -129.87555 
L 280.778472 -131.935527 
L 279.754246 -133.995504 
L 278.73754 -136.055481 
L 277.745156 -138.115457 
L 276.797184 -140.175434 
L 275.915894 -142.235411 
L 275.124211 -144.295388 
L 274.443936 -146.355365 
L 273.893974 -148.415342 
L 273.488785 -150.475318 
L 273.237277 -152.535295 
L 273.14225 -154.595272 
L 273.200438 -156.655249 
L 273.403074 -158.715226 
L 273.736866 -160.775202 
L 274.185195 -162.835179 
L 274.729375 -164.895156 
L 275.349823 -166.955133 
L 276.02706 -169.01511 
L 276.742487 -171.075087 
L 277.478983 -173.135063 
L 278.221355 -175.19504 
L 278.956705 -177.255017 
L 279.674761 -179.314994 
L 280.368168 -181.374971 
L 281.032735 -183.434947 
L 281.66757 -185.494924 
L 282.275022 -187.554901 
L 282.860406 -189.614878 
L 283.431431 -191.674855 
L 283.997378 -193.734831 
L 284.568075 -195.794808 
L 285.152763 -197.854785 
L 285.758998 -199.914762 
L 286.391716 -201.974739 
L 287.052575 -204.034716 
L 287.739654 -206.094692 
L 288.447536 -208.154669 
L 289.167745 -210.214646 
L 289.889475 -212.274623 
L 290.600513 -214.3346 
L 291.288252 -216.394576 
L 291.940694 -218.454553 
L 292.547357 -220.51453 
L 293.100017 -222.574507 
L 293.593259 -224.634484 
L 294.02478 -226.694461 
L 294.395465 -228.754437 
L 294.709212 -230.814414 
L 294.972544 -232.874391 
L 295.194017 -234.934368 
L 295.383493 -236.994345 
L 295.551332 -239.054321 
L 295.707577 -241.114298 
L 295.861218 -243.174275 
L 296.019596 -245.234252 
L 296.187999 -247.294229 
L 296.369486 -249.354206 
L 296.564926 -251.414182 
L 296.773228 -253.474159 
L 296.991718 -255.534136 
L 297.216598 -257.594113 
L 297.443427 -259.65409 
L 301.249073 -259.65409 
L 301.249073 -259.65409 
L 301.475902 -257.594113 
L 301.700782 -255.534136 
L 301.919272 -253.474159 
L 302.127574 -251.414182 
L 302.323014 -249.354206 
L 302.504501 -247.294229 
L 302.672904 -245.234252 
L 302.831282 -243.174275 
L 302.984923 -241.114298 
L 303.141168 -239.054321 
L 303.309007 -236.994345 
L 303.498483 -234.934368 
L 303.719956 -232.874391 
L 303.983288 -230.814414 
L 304.297035 -228.754437 
L 304.66772 -226.694461 
L 305.099241 -224.634484 
L 305.592483 -222.574507 
L 306.145143 -220.51453 
L 306.751806 -218.454553 
L 307.404248 -216.394576 
L 308.091987 -214.3346 
L 308.803025 -212.274623 
L 309.524755 -210.214646 
L 310.244964 -208.154669 
L 310.952846 -206.094692 
L 311.639925 -204.034716 
L 312.300784 -201.974739 
L 312.933502 -199.914762 
L 313.539737 -197.854785 
L 314.124425 -195.794808 
L 314.695122 -193.734831 
L 315.261069 -191.674855 
L 315.832094 -189.614878 
L 316.417478 -187.554901 
L 317.02493 -185.494924 
L 317.659765 -183.434947 
L 318.324332 -181.374971 
L 319.017739 -179.314994 
L 319.735795 -177.255017 
L 320.471145 -175.19504 
L 321.213517 -173.135063 
L 321.950013 -171.075087 
L 322.66544 -169.01511 
L 323.342677 -166.955133 
L 323.963125 -164.895156 
L 324.507305 -162.835179 
L 324.955634 -160.775202 
L 325.289426 -158.715226 
L 325.492062 -156.655249 
L 325.55025 -154.595272 
L 325.455223 -152.535295 
L 325.203715 -150.475318 
L 324.798526 -148.415342 
L 324.248564 -146.355365 
L 323.568289 -144.295388 
L 322.776606 -142.235411 
L 321.895316 -140.175434 
L 320.947344 -138.115457 
L 319.95496 -136.055481 
L 318.938254 -133.995504 
L 317.914028 -131.935527 
L 316.895237 -129.87555 
L 315.890986 -127.815573 
L 314.906994 -125.755597 
L 313.946399 -123.69562 
L 313.010688 -121.635643 
L 312.100587 -119.575666 
L 311.216754 -117.515689 
L 310.360181 -115.455712 
L 309.5323 -113.395736 
L 308.734834 -111.335759 
L 307.969505 -109.275782 
L 307.237696 -107.215805 
L 306.540204 -105.155828 
L 305.877139 -103.095852 
L 305.248006 -101.035875 
L 304.651954 -98.975898 
L 304.088119 -96.915921 
L 303.555984 -94.855944 
L 303.05567 -92.795968 
L 302.588085 -90.735991 
L 302.154895 -88.676014 
L 301.758323 -86.616037 
L 301.400809 -84.55606 
L 301.084591 -82.496083 
L 300.811273 -80.436107 
L 300.581454 -78.37613 
L 300.394459 -76.316153 
L 300.248217 -74.256176 
L 300.139286 -72.196199 
L 300.06301 -70.136223 
L 300.013805 -68.076246 
L 299.985509 -66.016269 
L 299.971783 -63.956292 
L 299.966517 -61.896315 
L 299.964192 -59.836338 
L 299.960189 -57.776362 
L 299.951004 -55.716385 
z
" style="stroke: #2f2f2f; stroke-width: 0.75"/>
    </defs>
    <g clip-path="url(#p096d66866e)">
     <use xlink:href="#madefaac380" x="0" y="301.06575" style="fill: #c283a6; stroke: #2f2f2f; stroke-width: 0.75"/>
    </g>
   </g>
   <g id="FillBetweenPolyCollection_6">
    <defs>
     <path id="me92a934fb5" d="M 358.210547 -55.978026 
L 356.944175 -55.978026 
L 356.925818 -58.005843 
L 356.909453 -60.033661 
L 356.891164 -62.061478 
L 356.866003 -64.089295 
L 356.828231 -66.117112 
L 356.771635 -68.14493 
L 356.689912 -70.172747 
L 356.57707 -72.200564 
L 356.427813 -74.228381 
L 356.237868 -76.256198 
L 356.004223 -78.284016 
L 355.725241 -80.311833 
L 355.400643 -82.33965 
L 355.031353 -84.367467 
L 354.61924 -86.395284 
L 354.166773 -88.423102 
L 353.676658 -90.450919 
L 353.151495 -92.478736 
L 352.593511 -94.506553 
L 352.004399 -96.534371 
L 351.385277 -98.562188 
L 350.736753 -100.590005 
L 350.059063 -102.617822 
L 349.352234 -104.645639 
L 348.616228 -106.673457 
L 347.851019 -108.701274 
L 347.056611 -110.729091 
L 346.232996 -112.756908 
L 345.380111 -114.784725 
L 344.497855 -116.812543 
L 343.586232 -118.84036 
L 342.64566 -120.868177 
L 341.677475 -122.895994 
L 340.684572 -124.923812 
L 339.672117 -126.951629 
L 338.648198 -128.979446 
L 337.62428 -131.007263 
L 336.615321 -133.03508 
L 335.639469 -135.062898 
L 334.717297 -137.090715 
L 333.870618 -139.118532 
L 333.120993 -141.146349 
L 332.488109 -143.174166 
L 331.988215 -145.201984 
L 331.632833 -147.229801 
L 331.427889 -149.257618 
L 331.373361 -151.285435 
L 331.463473 -153.313252 
L 331.687365 -155.34107 
L 332.030122 -157.368887 
L 332.474014 -159.396704 
L 332.999785 -161.424521 
L 333.587848 -163.452339 
L 334.219311 -165.480156 
L 334.876767 -167.507973 
L 335.544874 -169.53579 
L 336.210741 -171.563607 
L 336.864166 -173.591425 
L 337.497789 -175.619242 
L 338.107162 -177.647059 
L 338.690754 -179.674876 
L 339.24986 -181.702693 
L 339.788393 -183.730511 
L 340.312519 -185.758328 
L 340.830132 -187.786145 
L 341.350152 -189.813962 
L 341.881715 -191.84178 
L 342.433297 -193.869597 
L 343.011865 -195.897414 
L 343.622139 -197.925231 
L 344.266053 -199.953048 
L 344.942458 -201.980866 
L 345.647109 -204.008683 
L 346.372916 -206.0365 
L 347.110431 -208.064317 
L 347.84851 -210.092134 
L 348.575083 -212.119952 
L 349.277963 -214.147769 
L 349.945632 -216.175586 
L 350.567963 -218.203403 
L 351.136823 -220.231221 
L 351.646547 -222.259038 
L 352.094245 -224.286855 
L 352.479938 -226.314672 
L 352.806504 -228.342489 
L 353.07943 -230.370307 
L 353.306391 -232.398124 
L 353.496667 -234.425941 
L 353.660451 -236.453758 
L 353.8081 -238.481575 
L 353.949391 -240.509393 
L 354.092861 -242.53721 
L 354.245284 -244.565027 
L 354.411327 -246.592844 
L 354.593407 -248.620662 
L 354.791761 -250.648479 
L 355.004686 -252.676296 
L 355.228915 -254.704113 
L 355.460078 -256.73193 
L 359.694644 -256.73193 
L 359.694644 -256.73193 
L 359.925808 -254.704113 
L 360.150036 -252.676296 
L 360.362961 -250.648479 
L 360.561316 -248.620662 
L 360.743396 -246.592844 
L 360.909438 -244.565027 
L 361.061861 -242.53721 
L 361.205332 -240.509393 
L 361.346622 -238.481575 
L 361.494271 -236.453758 
L 361.658055 -234.425941 
L 361.848332 -232.398124 
L 362.075292 -230.370307 
L 362.348218 -228.342489 
L 362.674784 -226.314672 
L 363.060477 -224.286855 
L 363.508175 -222.259038 
L 364.017899 -220.231221 
L 364.586759 -218.203403 
L 365.20909 -216.175586 
L 365.876759 -214.147769 
L 366.579639 -212.119952 
L 367.306212 -210.092134 
L 368.044291 -208.064317 
L 368.781806 -206.0365 
L 369.507613 -204.008683 
L 370.212265 -201.980866 
L 370.88867 -199.953048 
L 371.532583 -197.925231 
L 372.142858 -195.897414 
L 372.721425 -193.869597 
L 373.273007 -191.84178 
L 373.80457 -189.813962 
L 374.32459 -187.786145 
L 374.842203 -185.758328 
L 375.36633 -183.730511 
L 375.904862 -181.702693 
L 376.463968 -179.674876 
L 377.04756 -177.647059 
L 377.656934 -175.619242 
L 378.290557 -173.591425 
L 378.943982 -171.563607 
L 379.609848 -169.53579 
L 380.277956 -167.507973 
L 380.935412 -165.480156 
L 381.566874 -163.452339 
L 382.154937 -161.424521 
L 382.680708 -159.396704 
L 383.124601 -157.368887 
L 383.467357 -155.34107 
L 383.691249 -153.313252 
L 383.781361 -151.285435 
L 383.726833 -149.257618 
L 383.521889 -147.229801 
L 383.166508 -145.201984 
L 382.666614 -143.174166 
L 382.033729 -141.146349 
L 381.284104 -139.118532 
L 380.437425 -137.090715 
L 379.515253 -135.062898 
L 378.539401 -133.03508 
L 377.530442 -131.007263 
L 376.506524 -128.979446 
L 375.482606 -126.951629 
L 374.47015 -124.923812 
L 373.477247 -122.895994 
L 372.509062 -120.868177 
L 371.56849 -118.84036 
L 370.656867 -116.812543 
L 369.774611 -114.784725 
L 368.921726 -112.756908 
L 368.098111 -110.729091 
L 367.303703 -108.701274 
L 366.538495 -106.673457 
L 365.802488 -104.645639 
L 365.09566 -102.617822 
L 364.417969 -100.590005 
L 363.769445 -98.562188 
L 363.150323 -96.534371 
L 362.561211 -94.506553 
L 362.003227 -92.478736 
L 361.478065 -90.450919 
L 360.98795 -88.423102 
L 360.535482 -86.395284 
L 360.123369 -84.367467 
L 359.754079 -82.33965 
L 359.429481 -80.311833 
L 359.150499 -78.284016 
L 358.916854 -76.256198 
L 358.726909 -74.228381 
L 358.577652 -72.200564 
L 358.46481 -70.172747 
L 358.383088 -68.14493 
L 358.326492 -66.117112 
L 358.288719 -64.089295 
L 358.263558 -62.061478 
L 358.245269 -60.033661 
L 358.228904 -58.005843 
L 358.210547 -55.978026 
z
" style="stroke: #2f2f2f; stroke-width: 0.75"/>
    </defs>
    <g clip-path="url(#p096d66866e)">
     <use xlink:href="#me92a934fb5" x="0" y="301.06575" style="fill: #e3c7d7; stroke: #2f2f2f; stroke-width: 0.75"/>
    </g>
   </g>
   <g id="FillBetweenPolyCollection_7">
    <defs>
     <path id="m234333d999" d="M 416.5812 -81.356297 
L 415.035744 -81.356297 
L 414.978295 -83.26573 
L 414.912421 -85.175162 
L 414.832368 -87.084595 
L 414.731412 -88.994028 
L 414.602228 -90.903461 
L 414.437332 -92.812893 
L 414.229591 -94.722326 
L 413.972729 -96.631759 
L 413.661795 -98.541191 
L 413.293526 -100.450624 
L 412.866582 -102.360057 
L 412.381603 -104.269489 
L 411.841078 -106.178922 
L 411.249025 -108.088355 
L 410.610502 -109.997788 
L 409.930999 -111.90722 
L 409.215765 -113.816653 
L 408.469168 -115.726086 
L 407.694161 -117.635518 
L 406.891958 -119.544951 
L 406.061984 -121.454384 
L 405.202152 -123.363816 
L 404.309459 -125.273249 
L 403.380872 -127.182682 
L 402.414389 -129.092114 
L 401.410154 -131.001547 
L 400.371445 -132.91098 
L 399.305386 -134.820413 
L 398.223219 -136.729845 
L 397.140061 -138.639278 
L 396.074116 -140.548711 
L 395.045414 -142.458143 
L 394.074205 -144.367576 
L 393.179233 -146.277009 
L 392.376106 -148.186441 
L 391.67601 -150.095874 
L 391.084949 -152.005307 
L 390.603623 -153.914739 
L 390.227963 -155.824172 
L 389.95023 -157.733605 
L 389.760514 -159.643038 
L 389.648388 -161.55247 
L 389.604472 -163.461903 
L 389.621663 -165.371336 
L 389.695863 -167.280768 
L 389.82612 -169.190201 
L 390.014182 -171.099634 
L 390.263572 -173.009066 
L 390.578365 -174.918499 
L 390.961863 -176.827932 
L 391.415406 -178.737364 
L 391.937495 -180.646797 
L 392.523352 -182.55623 
L 393.164975 -184.465663 
L 393.851664 -186.375095 
L 394.570912 -188.284528 
L 395.309524 -190.193961 
L 396.054805 -192.103393 
L 396.795633 -194.012826 
L 397.52331 -195.922259 
L 398.232065 -197.831691 
L 398.919213 -199.741124 
L 399.584943 -201.650557 
L 400.231829 -203.55999 
L 400.864132 -205.469422 
L 401.487001 -207.378855 
L 402.105667 -209.288288 
L 402.724721 -211.19772 
L 403.347523 -213.107153 
L 403.975781 -215.016586 
L 404.609326 -216.926018 
L 405.246061 -218.835451 
L 405.882091 -220.744884 
L 406.512013 -222.654316 
L 407.129337 -224.563749 
L 407.727021 -226.473182 
L 408.298072 -228.382615 
L 408.836166 -230.292047 
L 409.336232 -232.20148 
L 409.794932 -234.110913 
L 410.210977 -236.020345 
L 410.585236 -237.929778 
L 410.920617 -239.839211 
L 411.221732 -241.748643 
L 411.494377 -243.658076 
L 411.744911 -245.567509 
L 411.979608 -247.476941 
L 412.20407 -249.386374 
L 412.422778 -251.295807 
L 412.638825 -253.20524 
L 412.853855 -255.114672 
L 413.068186 -257.024105 
L 413.281074 -258.933538 
L 413.491064 -260.84297 
L 413.696357 -262.752403 
L 413.895129 -264.661836 
L 414.085778 -266.571268 
L 414.267063 -268.480701 
L 414.438142 -270.390134 
L 417.178802 -270.390134 
L 417.178802 -270.390134 
L 417.349881 -268.480701 
L 417.531166 -266.571268 
L 417.721816 -264.661836 
L 417.920588 -262.752403 
L 418.12588 -260.84297 
L 418.33587 -258.933538 
L 418.548758 -257.024105 
L 418.763089 -255.114672 
L 418.978119 -253.20524 
L 419.194166 -251.295807 
L 419.412874 -249.386374 
L 419.637336 -247.476941 
L 419.872034 -245.567509 
L 420.122568 -243.658076 
L 420.395212 -241.748643 
L 420.696327 -239.839211 
L 421.031709 -237.929778 
L 421.405968 -236.020345 
L 421.822012 -234.110913 
L 422.280712 -232.20148 
L 422.780779 -230.292047 
L 423.318873 -228.382615 
L 423.889924 -226.473182 
L 424.487608 -224.563749 
L 425.104932 -222.654316 
L 425.734853 -220.744884 
L 426.370883 -218.835451 
L 427.007618 -216.926018 
L 427.641163 -215.016586 
L 428.269422 -213.107153 
L 428.892223 -211.19772 
L 429.511278 -209.288288 
L 430.129944 -207.378855 
L 430.752812 -205.469422 
L 431.385116 -203.55999 
L 432.032002 -201.650557 
L 432.697732 -199.741124 
L 433.384879 -197.831691 
L 434.093635 -195.922259 
L 434.821311 -194.012826 
L 435.56214 -192.103393 
L 436.30742 -190.193961 
L 437.046033 -188.284528 
L 437.76528 -186.375095 
L 438.45197 -184.465663 
L 439.093593 -182.55623 
L 439.679449 -180.646797 
L 440.201538 -178.737364 
L 440.655082 -176.827932 
L 441.038579 -174.918499 
L 441.353372 -173.009066 
L 441.602763 -171.099634 
L 441.790824 -169.190201 
L 441.921081 -167.280768 
L 441.995282 -165.371336 
L 442.012472 -163.461903 
L 441.968556 -161.55247 
L 441.856431 -159.643038 
L 441.666715 -157.733605 
L 441.388981 -155.824172 
L 441.013321 -153.914739 
L 440.531995 -152.005307 
L 439.940934 -150.095874 
L 439.240839 -148.186441 
L 438.437711 -146.277009 
L 437.542739 -144.367576 
L 436.571531 -142.458143 
L 435.542828 -140.548711 
L 434.476883 -138.639278 
L 433.393725 -136.729845 
L 432.311558 -134.820413 
L 431.245499 -132.91098 
L 430.206791 -131.001547 
L 429.202556 -129.092114 
L 428.236073 -127.182682 
L 427.307486 -125.273249 
L 426.414793 -123.363816 
L 425.55496 -121.454384 
L 424.724986 -119.544951 
L 423.922783 -117.635518 
L 423.147776 -115.726086 
L 422.40118 -113.816653 
L 421.685946 -111.90722 
L 421.006442 -109.997788 
L 420.36792 -108.088355 
L 419.775866 -106.178922 
L 419.235341 -104.269489 
L 418.750362 -102.360057 
L 418.323419 -100.450624 
L 417.955149 -98.541191 
L 417.644215 -96.631759 
L 417.387354 -94.722326 
L 417.179613 -92.812893 
L 417.014717 -90.903461 
L 416.885532 -88.994028 
L 416.784577 -87.084595 
L 416.704523 -85.175162 
L 416.638649 -83.26573 
L 416.5812 -81.356297 
z
" style="stroke: #2f2f2f; stroke-width: 0.75"/>
    </defs>
    <g clip-path="url(#p096d66866e)">
     <use xlink:href="#m234333d999" x="0" y="301.06575" style="fill: #148a6a; stroke: #2f2f2f; stroke-width: 0.75"/>
    </g>
   </g>
   <g id="FillBetweenPolyCollection_8">
    <defs>
     <path id="m193093ba46" d="M 474.680309 -67.326228 
L 473.398858 -67.326228 
L 473.38387 -69.301878 
L 473.372617 -71.277527 
L 473.361083 -73.253177 
L 473.344005 -75.228827 
L 473.315043 -77.204477 
L 473.267031 -79.180127 
L 473.192286 -81.155776 
L 473.082935 -83.131426 
L 472.931272 -85.107076 
L 472.730101 -87.082726 
L 472.473074 -89.058376 
L 472.155004 -91.034025 
L 471.772143 -93.009675 
L 471.322405 -94.985325 
L 470.805504 -96.960975 
L 470.222994 -98.936625 
L 469.578158 -100.912274 
L 468.875754 -102.887924 
L 468.121591 -104.863574 
L 467.32198 -106.839224 
L 466.483113 -108.814874 
L 465.610441 -110.790523 
L 464.708173 -112.766173 
L 463.778992 -114.741823 
L 462.824069 -116.717473 
L 461.843429 -118.693123 
L 460.83664 -120.668772 
L 459.803767 -122.644422 
L 458.746427 -124.620072 
L 457.668788 -126.595722 
L 456.578314 -128.571372 
L 455.48611 -130.547021 
L 454.406747 -132.522671 
L 453.357564 -134.498321 
L 452.357529 -136.473971 
L 451.425787 -138.449621 
L 450.580135 -140.42527 
L 449.835639 -142.40092 
L 449.203594 -144.37657 
L 448.690977 -146.35222 
L 448.30044 -148.32787 
L 448.030796 -150.303519 
L 447.87788 -152.279169 
L 447.835583 -154.254819 
L 447.896868 -156.230469 
L 448.054569 -158.206118 
L 448.301862 -160.181768 
L 448.632356 -162.157418 
L 449.039834 -164.133068 
L 449.517781 -166.108718 
L 450.058826 -168.084367 
L 450.654293 -170.060017 
L 451.293993 -172.035667 
L 451.966354 -174.011317 
L 452.658901 -175.986967 
L 453.359057 -177.962616 
L 454.055126 -179.938266 
L 454.73732 -181.913916 
L 455.398649 -183.889566 
L 456.03553 -185.865216 
L 456.648011 -187.840865 
L 457.239552 -189.816515 
L 457.816386 -191.792165 
L 458.38657 -193.767815 
L 458.958829 -195.743465 
L 459.541372 -197.719114 
L 460.140838 -199.694764 
L 460.761482 -201.670414 
L 461.404686 -203.646064 
L 462.068825 -205.621714 
L 462.749453 -207.597363 
L 463.439737 -209.573013 
L 464.131081 -211.548663 
L 464.813829 -213.524313 
L 465.477996 -215.499963 
L 466.113972 -217.475612 
L 466.713162 -219.451262 
L 467.268547 -221.426912 
L 467.77513 -223.402562 
L 468.230259 -225.378212 
L 468.633786 -227.353861 
L 468.988043 -229.329511 
L 469.29761 -231.305161 
L 469.568889 -233.280811 
L 469.809512 -235.256461 
L 470.027632 -237.23211 
L 470.2312 -239.20776 
L 470.427287 -241.18341 
L 470.621562 -243.15906 
L 470.817959 -245.13471 
L 471.018588 -247.110359 
L 471.223849 -249.086009 
L 471.432742 -251.061659 
L 471.64327 -253.037309 
L 471.852891 -255.012959 
L 472.058928 -256.988608 
L 472.258896 -258.964258 
L 472.450705 -260.939908 
L 472.632756 -262.915558 
L 475.446411 -262.915558 
L 475.446411 -262.915558 
L 475.628461 -260.939908 
L 475.820271 -258.964258 
L 476.020238 -256.988608 
L 476.226276 -255.012959 
L 476.435897 -253.037309 
L 476.646425 -251.061659 
L 476.855317 -249.086009 
L 477.060579 -247.110359 
L 477.261207 -245.13471 
L 477.457605 -243.15906 
L 477.651879 -241.18341 
L 477.847967 -239.20776 
L 478.051534 -237.23211 
L 478.269655 -235.256461 
L 478.510277 -233.280811 
L 478.781557 -231.305161 
L 479.091124 -229.329511 
L 479.445381 -227.353861 
L 479.848908 -225.378212 
L 480.304037 -223.402562 
L 480.81062 -221.426912 
L 481.366004 -219.451262 
L 481.965195 -217.475612 
L 482.601171 -215.499963 
L 483.265338 -213.524313 
L 483.948085 -211.548663 
L 484.63943 -209.573013 
L 485.329714 -207.597363 
L 486.010341 -205.621714 
L 486.674481 -203.646064 
L 487.317685 -201.670414 
L 487.938328 -199.694764 
L 488.537795 -197.719114 
L 489.120338 -195.743465 
L 489.692596 -193.767815 
L 490.26278 -191.792165 
L 490.839615 -189.816515 
L 491.431155 -187.840865 
L 492.043637 -185.865216 
L 492.680518 -183.889566 
L 493.341846 -181.913916 
L 494.02404 -179.938266 
L 494.72011 -177.962616 
L 495.420266 -175.986967 
L 496.112813 -174.011317 
L 496.785173 -172.035667 
L 497.424874 -170.060017 
L 498.020341 -168.084367 
L 498.561386 -166.108718 
L 499.039332 -164.133068 
L 499.446811 -162.157418 
L 499.777304 -160.181768 
L 500.024598 -158.206118 
L 500.182299 -156.230469 
L 500.243583 -154.254819 
L 500.201287 -152.279169 
L 500.04837 -150.303519 
L 499.778727 -148.32787 
L 499.388189 -146.35222 
L 498.875573 -144.37657 
L 498.243528 -142.40092 
L 497.499032 -140.42527 
L 496.65338 -138.449621 
L 495.721637 -136.473971 
L 494.721602 -134.498321 
L 493.67242 -132.522671 
L 492.593056 -130.547021 
L 491.500853 -128.571372 
L 490.410379 -126.595722 
L 489.332739 -124.620072 
L 488.275399 -122.644422 
L 487.242526 -120.668772 
L 486.235738 -118.693123 
L 485.255097 -116.717473 
L 484.300175 -114.741823 
L 483.370994 -112.766173 
L 482.468726 -110.790523 
L 481.596054 -108.814874 
L 480.757186 -106.839224 
L 479.957576 -104.863574 
L 479.203413 -102.887924 
L 478.501009 -100.912274 
L 477.856173 -98.936625 
L 477.273663 -96.960975 
L 476.756762 -94.985325 
L 476.307023 -93.009675 
L 475.924163 -91.034025 
L 475.606093 -89.058376 
L 475.349066 -87.082726 
L 475.147894 -85.107076 
L 474.996231 -83.131426 
L 474.886881 -81.155776 
L 474.812135 -79.180127 
L 474.764124 -77.204477 
L 474.735161 -75.228827 
L 474.718083 -73.253177 
L 474.70655 -71.277527 
L 474.695297 -69.301878 
L 474.680309 -67.326228 
z
" style="stroke: #2f2f2f; stroke-width: 0.75"/>
    </defs>
    <g clip-path="url(#p096d66866e)">
     <use xlink:href="#m193093ba46" x="0" y="301.06575" style="fill: #95cabc; stroke: #2f2f2f; stroke-width: 0.75"/>
    </g>
   </g>
   <g id="FillBetweenPolyCollection_9">
    <defs>
     <path id="m3c74324609" d="M 533.045673 -117.370303 
L 531.495716 -117.370303 
L 531.428185 -119.104834 
L 531.348071 -120.839364 
L 531.248395 -122.573895 
L 531.121187 -124.308426 
L 530.957966 -126.042956 
L 530.750315 -127.777487 
L 530.490485 -129.512018 
L 530.171944 -131.246549 
L 529.789809 -132.981079 
L 529.341095 -134.71561 
L 528.824753 -136.450141 
L 528.241506 -138.184671 
L 527.593508 -139.919202 
L 526.883913 -141.653733 
L 526.116424 -143.388263 
L 525.294929 -145.122794 
L 524.42329 -146.857325 
L 523.505332 -148.591855 
L 522.545015 -150.326386 
L 521.546766 -152.060917 
L 520.515869 -153.795447 
L 519.458825 -155.529978 
L 518.383588 -157.264509 
L 517.299603 -158.999039 
L 516.217627 -160.73357 
L 515.149339 -162.468101 
L 514.1068 -164.202632 
L 513.10183 -165.937162 
L 512.145396 -167.671693 
L 511.24707 -169.406224 
L 510.414622 -171.140754 
L 509.653767 -172.875285 
L 508.968082 -174.609816 
L 508.359093 -176.344346 
L 507.826525 -178.078877 
L 507.368702 -179.813408 
L 506.983077 -181.547938 
L 506.666859 -183.282469 
L 506.417675 -185.017 
L 506.234183 -186.75153 
L 506.116552 -188.486061 
L 506.066694 -190.220592 
L 506.088212 -191.955123 
L 506.186001 -193.689653 
L 506.365577 -195.424184 
L 506.632185 -197.158715 
L 506.989851 -198.893245 
L 507.440507 -200.627776 
L 507.98333 -202.362307 
L 508.614388 -204.096837 
L 509.326638 -205.831368 
L 510.110242 -207.565899 
L 510.95314 -209.300429 
L 511.841773 -211.03496 
L 512.761849 -212.769491 
L 513.699084 -214.504021 
L 514.639822 -216.238552 
L 515.571538 -217.973083 
L 516.4832 -219.707613 
L 517.365505 -221.442144 
L 518.211009 -223.176675 
L 519.014159 -224.911206 
L 519.771247 -226.645736 
L 520.480285 -228.380267 
L 521.14083 -230.114798 
L 521.753752 -231.849328 
L 522.320997 -233.583859 
L 522.845343 -235.31839 
L 523.330185 -237.05292 
L 523.779362 -238.787451 
L 524.19702 -240.521982 
L 524.587494 -242.256512 
L 524.955215 -243.991043 
L 525.304597 -245.725574 
L 525.639908 -247.460104 
L 525.965116 -249.194635 
L 526.283729 -250.929166 
L 526.598639 -252.663697 
L 526.911996 -254.398227 
L 527.225122 -256.132758 
L 527.538493 -257.867289 
L 527.851759 -259.601819 
L 528.163819 -261.33635 
L 528.472926 -263.070881 
L 528.776817 -264.805411 
L 529.072852 -266.539942 
L 529.358176 -268.274473 
L 529.629897 -270.009003 
L 529.885283 -271.743534 
L 530.12197 -273.478065 
L 530.338172 -275.212595 
L 530.532862 -276.947126 
L 530.705905 -278.681657 
L 530.858103 -280.416187 
L 530.991147 -282.150718 
L 531.107462 -283.885249 
L 531.209967 -285.61978 
L 531.301777 -287.35431 
L 531.385889 -289.088841 
L 533.1555 -289.088841 
L 533.1555 -289.088841 
L 533.239612 -287.35431 
L 533.331422 -285.61978 
L 533.433927 -283.885249 
L 533.550242 -282.150718 
L 533.683286 -280.416187 
L 533.835484 -278.681657 
L 534.008527 -276.947126 
L 534.203217 -275.212595 
L 534.419419 -273.478065 
L 534.656106 -271.743534 
L 534.911492 -270.009003 
L 535.183213 -268.274473 
L 535.468537 -266.539942 
L 535.764572 -264.805411 
L 536.068463 -263.070881 
L 536.37757 -261.33635 
L 536.68963 -259.601819 
L 537.002896 -257.867289 
L 537.316267 -256.132758 
L 537.629393 -254.398227 
L 537.94275 -252.663697 
L 538.25766 -250.929166 
L 538.576273 -249.194635 
L 538.901481 -247.460104 
L 539.236792 -245.725574 
L 539.586174 -243.991043 
L 539.953895 -242.256512 
L 540.344369 -240.521982 
L 540.762026 -238.787451 
L 541.211204 -237.05292 
L 541.696046 -235.31839 
L 542.220392 -233.583859 
L 542.787637 -231.849328 
L 543.400559 -230.114798 
L 544.061104 -228.380267 
L 544.770142 -226.645736 
L 545.52723 -224.911206 
L 546.33038 -223.176675 
L 547.175884 -221.442144 
L 548.058189 -219.707613 
L 548.969851 -217.973083 
L 549.901567 -216.238552 
L 550.842305 -214.504021 
L 551.77954 -212.769491 
L 552.699616 -211.03496 
L 553.588248 -209.300429 
L 554.431147 -207.565899 
L 555.214751 -205.831368 
L 555.927001 -204.096837 
L 556.558059 -202.362307 
L 557.100881 -200.627776 
L 557.551538 -198.893245 
L 557.909204 -197.158715 
L 558.175812 -195.424184 
L 558.355387 -193.689653 
L 558.453177 -191.955123 
L 558.474694 -190.220592 
L 558.424837 -188.486061 
L 558.307206 -186.75153 
L 558.123714 -185.017 
L 557.87453 -183.282469 
L 557.558312 -181.547938 
L 557.172687 -179.813408 
L 556.714864 -178.078877 
L 556.182296 -176.344346 
L 555.573307 -174.609816 
L 554.887622 -172.875285 
L 554.126767 -171.140754 
L 553.294319 -169.406224 
L 552.395993 -167.671693 
L 551.439559 -165.937162 
L 550.434589 -164.202632 
L 549.39205 -162.468101 
L 548.323762 -160.73357 
L 547.241786 -158.999039 
L 546.157801 -157.264509 
L 545.082564 -155.529978 
L 544.02552 -153.795447 
L 542.994623 -152.060917 
L 541.996374 -150.326386 
L 541.036057 -148.591855 
L 540.118099 -146.857325 
L 539.24646 -145.122794 
L 538.424965 -143.388263 
L 537.657475 -141.653733 
L 536.94788 -139.919202 
L 536.299883 -138.184671 
L 535.716636 -136.450141 
L 535.200294 -134.71561 
L 534.751579 -132.981079 
L 534.369445 -131.246549 
L 534.050904 -129.512018 
L 533.791074 -127.777487 
L 533.583423 -126.042956 
L 533.420202 -124.308426 
L 533.292994 -122.573895 
L 533.193318 -120.839364 
L 533.113204 -119.104834 
L 533.045673 -117.370303 
z
" style="stroke: #2f2f2f; stroke-width: 0.75"/>
    </defs>
    <g clip-path="url(#p096d66866e)">
     <use xlink:href="#m3c74324609" x="0" y="301.06575" style="fill: #c9941d; stroke: #2f2f2f; stroke-width: 0.75"/>
    </g>
   </g>
   <g id="matplotlib.axis_1">
    <g id="xtick_1">
     <g id="text_1">
      <!-- MVT -->
      <g transform="translate(55.633524 276.590438) scale(0.1 -0.1)">
       <defs>
        <path id="DejaVuSans-4d" d="M 628 4666 
L 1569 4666 
L 2759 1491 
L 3956 4666 
L 4897 4666 
L 4897 0 
L 4281 0 
L 4281 4097 
L 3078 897 
L 2444 897 
L 1241 4097 
L 1241 0 
L 628 0 
L 628 4666 
z
" transform="scale(0.015625)"/>
        <path id="DejaVuSans-56" d="M 1831 0 
L 50 4666 
L 709 4666 
L 2188 738 
L 3669 4666 
L 4325 4666 
L 2547 0 
L 1831 0 
z
" transform="scale(0.015625)"/>
        <path id="DejaVuSans-54" d="M -19 4666 
L 3928 4666 
L 3928 4134 
L 2272 4134 
L 2272 0 
L 1638 0 
L 1638 4134 
L -19 4134 
L -19 4666 
z
" transform="scale(0.015625)"/>
       </defs>
       <use xlink:href="#DejaVuSans-4d"/>
       <use xlink:href="#DejaVuSans-56" transform="translate(86.279297 0)"/>
       <use xlink:href="#DejaVuSans-54" transform="translate(154.6875 0)"/>
      </g>
     </g>
    </g>
    <g id="xtick_2">
     <g id="text_2">
      <!-- MVT -->
      <g transform="translate(113.864635 276.590438) scale(0.1 -0.1)">
       <use xlink:href="#DejaVuSans-4d"/>
       <use xlink:href="#DejaVuSans-56" transform="translate(86.279297 0)"/>
       <use xlink:href="#DejaVuSans-54" transform="translate(154.6875 0)"/>
      </g>
      <!-- (SIMD) -->
      <g transform="translate(107.938073 287.78825) scale(0.1 -0.1)">
       <defs>
        <path id="DejaVuSans-28" d="M 1984 4856 
Q 1566 4138 1362 3434 
Q 1159 2731 1159 2009 
Q 1159 1288 1364 580 
Q 1569 -128 1984 -844 
L 1484 -844 
Q 1016 -109 783 600 
Q 550 1309 550 2009 
Q 550 2706 781 3412 
Q 1013 4119 1484 4856 
L 1984 4856 
z
" transform="scale(0.015625)"/>
        <path id="DejaVuSans-53" d="M 3425 4513 
L 3425 3897 
Q 3066 4069 2747 4153 
Q 2428 4238 2131 4238 
Q 1616 4238 1336 4038 
Q 1056 3838 1056 3469 
Q 1056 3159 1242 3001 
Q 1428 2844 1947 2747 
L 2328 2669 
Q 3034 2534 3370 2195 
Q 3706 1856 3706 1288 
Q 3706 609 3251 259 
Q 2797 -91 1919 -91 
Q 1588 -91 1214 -16 
Q 841 59 441 206 
L 441 856 
Q 825 641 1194 531 
Q 1563 422 1919 422 
Q 2459 422 2753 634 
Q 3047 847 3047 1241 
Q 3047 1584 2836 1778 
Q 2625 1972 2144 2069 
L 1759 2144 
Q 1053 2284 737 2584 
Q 422 2884 422 3419 
Q 422 4038 858 4394 
Q 1294 4750 2059 4750 
Q 2388 4750 2728 4690 
Q 3069 4631 3425 4513 
z
" transform="scale(0.015625)"/>
        <path id="DejaVuSans-49" d="M 628 4666 
L 1259 4666 
L 1259 0 
L 628 0 
L 628 4666 
z
" transform="scale(0.015625)"/>
        <path id="DejaVuSans-44" d="M 1259 4147 
L 1259 519 
L 2022 519 
Q 2988 519 3436 956 
Q 3884 1394 3884 2338 
Q 3884 3275 3436 3711 
Q 2988 4147 2022 4147 
L 1259 4147 
z
M 628 4666 
L 1925 4666 
Q 3281 4666 3915 4102 
Q 4550 3538 4550 2338 
Q 4550 1131 3912 565 
Q 3275 0 1925 0 
L 628 0 
L 628 4666 
z
" transform="scale(0.015625)"/>
        <path id="DejaVuSans-29" d="M 513 4856 
L 1013 4856 
Q 1481 4119 1714 3412 
Q 1947 2706 1947 2009 
Q 1947 1309 1714 600 
Q 1481 -109 1013 -844 
L 513 -844 
Q 928 -128 1133 580 
Q 1338 1288 1338 2009 
Q 1338 2731 1133 3434 
Q 928 4138 513 4856 
z
" transform="scale(0.015625)"/>
       </defs>
       <use xlink:href="#DejaVuSans-28"/>
       <use xlink:href="#DejaVuSans-53" transform="translate(39.013672 0)"/>
       <use xlink:href="#DejaVuSans-49" transform="translate(102.490234 0)"/>
       <use xlink:href="#DejaVuSans-4d" transform="translate(131.982422 0)"/>
       <use xlink:href="#DejaVuSans-44" transform="translate(218.261719 0)"/>
       <use xlink:href="#DejaVuSans-29" transform="translate(295.263672 0)"/>
      </g>
     </g>
    </g>
    <g id="xtick_3">
     <g id="text_3">
      <!-- Mutable -->
      <g transform="translate(162.737153 276.590438) scale(0.1 -0.1)">
       <defs>
        <path id="DejaVuSans-75" d="M 544 1381 
L 544 3500 
L 1119 3500 
L 1119 1403 
Q 1119 906 1312 657 
Q 1506 409 1894 409 
Q 2359 409 2629 706 
Q 2900 1003 2900 1516 
L 2900 3500 
L 3475 3500 
L 3475 0 
L 2900 0 
L 2900 538 
Q 2691 219 2414 64 
Q 2138 -91 1772 -91 
Q 1169 -91 856 284 
Q 544 659 544 1381 
z
M 1991 3584 
L 1991 3584 
z
" transform="scale(0.015625)"/>
        <path id="DejaVuSans-74" d="M 1172 4494 
L 1172 3500 
L 2356 3500 
L 2356 3053 
L 1172 3053 
L 1172 1153 
Q 1172 725 1289 603 
Q 1406 481 1766 481 
L 2356 481 
L 2356 0 
L 1766 0 
Q 1100 0 847 248 
Q 594 497 594 1153 
L 594 3053 
L 172 3053 
L 172 3500 
L 594 3500 
L 594 4494 
L 1172 4494 
z
" transform="scale(0.015625)"/>
        <path id="DejaVuSans-61" d="M 2194 1759 
Q 1497 1759 1228 1600 
Q 959 1441 959 1056 
Q 959 750 1161 570 
Q 1363 391 1709 391 
Q 2188 391 2477 730 
Q 2766 1069 2766 1631 
L 2766 1759 
L 2194 1759 
z
M 3341 1997 
L 3341 0 
L 2766 0 
L 2766 531 
Q 2569 213 2275 61 
Q 1981 -91 1556 -91 
Q 1019 -91 701 211 
Q 384 513 384 1019 
Q 384 1609 779 1909 
Q 1175 2209 1959 2209 
L 2766 2209 
L 2766 2266 
Q 2766 2663 2505 2880 
Q 2244 3097 1772 3097 
Q 1472 3097 1187 3025 
Q 903 2953 641 2809 
L 641 3341 
Q 956 3463 1253 3523 
Q 1550 3584 1831 3584 
Q 2591 3584 2966 3190 
Q 3341 2797 3341 1997 
z
" transform="scale(0.015625)"/>
        <path id="DejaVuSans-62" d="M 3116 1747 
Q 3116 2381 2855 2742 
Q 2594 3103 2138 3103 
Q 1681 3103 1420 2742 
Q 1159 2381 1159 1747 
Q 1159 1113 1420 752 
Q 1681 391 2138 391 
Q 2594 391 2855 752 
Q 3116 1113 3116 1747 
z
M 1159 2969 
Q 1341 3281 1617 3432 
Q 1894 3584 2278 3584 
Q 2916 3584 3314 3078 
Q 3713 2572 3713 1747 
Q 3713 922 3314 415 
Q 2916 -91 2278 -91 
Q 1894 -91 1617 61 
Q 1341 213 1159 525 
L 1159 0 
L 581 0 
L 581 4863 
L 1159 4863 
L 1159 2969 
z
" transform="scale(0.015625)"/>
        <path id="DejaVuSans-6c" d="M 603 4863 
L 1178 4863 
L 1178 0 
L 603 0 
L 603 4863 
z
" transform="scale(0.015625)"/>
        <path id="DejaVuSans-65" d="M 3597 1894 
L 3597 1613 
L 953 1613 
Q 991 1019 1311 708 
Q 1631 397 2203 397 
Q 2534 397 2845 478 
Q 3156 559 3463 722 
L 3463 178 
Q 3153 47 2828 -22 
Q 2503 -91 2169 -91 
Q 1331 -91 842 396 
Q 353 884 353 1716 
Q 353 2575 817 3079 
Q 1281 3584 2069 3584 
Q 2775 3584 3186 3129 
Q 3597 2675 3597 1894 
z
M 3022 2063 
Q 3016 2534 2758 2815 
Q 2500 3097 2075 3097 
Q 1594 3097 1305 2825 
Q 1016 2553 972 2059 
L 3022 2063 
z
" transform="scale(0.015625)"/>
       </defs>
       <use xlink:href="#DejaVuSans-4d"/>
       <use xlink:href="#DejaVuSans-75" transform="translate(86.279297 0)"/>
       <use xlink:href="#DejaVuSans-74" transform="translate(149.658203 0)"/>
       <use xlink:href="#DejaVuSans-61" transform="translate(188.867188 0)"/>
       <use xlink:href="#DejaVuSans-62" transform="translate(250.146484 0)"/>
       <use xlink:href="#DejaVuSans-6c" transform="translate(313.623047 0)"/>
       <use xlink:href="#DejaVuSans-65" transform="translate(341.40625 0)"/>
      </g>
      <!-- MVT -->
      <g transform="translate(172.095747 287.78825) scale(0.1 -0.1)">
       <use xlink:href="#DejaVuSans-4d"/>
       <use xlink:href="#DejaVuSans-56" transform="translate(86.279297 0)"/>
       <use xlink:href="#DejaVuSans-54" transform="translate(154.6875 0)"/>
      </g>
     </g>
    </g>
    <g id="xtick_4">
     <g id="text_4">
      <!-- Mutable -->
      <g transform="translate(220.968264 276.590438) scale(0.1 -0.1)">
       <use xlink:href="#DejaVuSans-4d"/>
       <use xlink:href="#DejaVuSans-75" transform="translate(86.279297 0)"/>
       <use xlink:href="#DejaVuSans-74" transform="translate(149.658203 0)"/>
       <use xlink:href="#DejaVuSans-61" transform="translate(188.867188 0)"/>
       <use xlink:href="#DejaVuSans-62" transform="translate(250.146484 0)"/>
       <use xlink:href="#DejaVuSans-6c" transform="translate(313.623047 0)"/>
       <use xlink:href="#DejaVuSans-65" transform="translate(341.40625 0)"/>
      </g>
      <!-- MVT -->
      <g transform="translate(230.326858 287.78825) scale(0.1 -0.1)">
       <use xlink:href="#DejaVuSans-4d"/>
       <use xlink:href="#DejaVuSans-56" transform="translate(86.279297 0)"/>
       <use xlink:href="#DejaVuSans-54" transform="translate(154.6875 0)"/>
      </g>
      <!-- (SIMD) -->
      <g transform="translate(224.400295 298.986063) scale(0.1 -0.1)">
       <use xlink:href="#DejaVuSans-28"/>
       <use xlink:href="#DejaVuSans-53" transform="translate(39.013672 0)"/>
       <use xlink:href="#DejaVuSans-49" transform="translate(102.490234 0)"/>
       <use xlink:href="#DejaVuSans-4d" transform="translate(131.982422 0)"/>
       <use xlink:href="#DejaVuSans-44" transform="translate(218.261719 0)"/>
       <use xlink:href="#DejaVuSans-29" transform="translate(295.263672 0)"/>
      </g>
     </g>
    </g>
    <g id="xtick_5">
     <g id="text_5">
      <!-- MVT -->
      <g transform="translate(288.557969 276.590438) scale(0.1 -0.1)">
       <use xlink:href="#DejaVuSans-4d"/>
       <use xlink:href="#DejaVuSans-56" transform="translate(86.279297 0)"/>
       <use xlink:href="#DejaVuSans-54" transform="translate(154.6875 0)"/>
      </g>
      <!-- (C++) -->
      <g transform="translate(283.573594 287.78825) scale(0.1 -0.1)">
       <defs>
        <path id="DejaVuSans-43" d="M 4122 4306 
L 4122 3641 
Q 3803 3938 3442 4084 
Q 3081 4231 2675 4231 
Q 1875 4231 1450 3742 
Q 1025 3253 1025 2328 
Q 1025 1406 1450 917 
Q 1875 428 2675 428 
Q 3081 428 3442 575 
Q 3803 722 4122 1019 
L 4122 359 
Q 3791 134 3420 21 
Q 3050 -91 2638 -91 
Q 1578 -91 968 557 
Q 359 1206 359 2328 
Q 359 3453 968 4101 
Q 1578 4750 2638 4750 
Q 3056 4750 3426 4639 
Q 3797 4528 4122 4306 
z
" transform="scale(0.015625)"/>
        <path id="DejaVuSans-2b" d="M 2944 4013 
L 2944 2272 
L 4684 2272 
L 4684 1741 
L 2944 1741 
L 2944 0 
L 2419 0 
L 2419 1741 
L 678 1741 
L 678 2272 
L 2419 2272 
L 2419 4013 
L 2944 4013 
z
" transform="scale(0.015625)"/>
       </defs>
       <use xlink:href="#DejaVuSans-28"/>
       <use xlink:href="#DejaVuSans-43" transform="translate(39.013672 0)"/>
       <use xlink:href="#DejaVuSans-2b" transform="translate(108.837891 0)"/>
       <use xlink:href="#DejaVuSans-2b" transform="translate(192.626953 0)"/>
       <use xlink:href="#DejaVuSans-29" transform="translate(276.416016 0)"/>
      </g>
     </g>
    </g>
    <g id="xtick_6">
     <g id="text_6">
      <!-- MVT -->
      <g transform="translate(346.78908 276.590438) scale(0.1 -0.1)">
       <use xlink:href="#DejaVuSans-4d"/>
       <use xlink:href="#DejaVuSans-56" transform="translate(86.279297 0)"/>
       <use xlink:href="#DejaVuSans-54" transform="translate(154.6875 0)"/>
      </g>
      <!-- (C++, SIMD) -->
      <g transform="translate(325.813299 287.78825) scale(0.1 -0.1)">
       <defs>
        <path id="DejaVuSans-2c" d="M 750 794 
L 1409 794 
L 1409 256 
L 897 -744 
L 494 -744 
L 750 256 
L 750 794 
z
" transform="scale(0.015625)"/>
        <path id="DejaVuSans-20" transform="scale(0.015625)"/>
       </defs>
       <use xlink:href="#DejaVuSans-28"/>
       <use xlink:href="#DejaVuSans-43" transform="translate(39.013672 0)"/>
       <use xlink:href="#DejaVuSans-2b" transform="translate(108.837891 0)"/>
       <use xlink:href="#DejaVuSans-2b" transform="translate(192.626953 0)"/>
       <use xlink:href="#DejaVuSans-2c" transform="translate(276.416016 0)"/>
       <use xlink:href="#DejaVuSans-20" transform="translate(308.203125 0)"/>
       <use xlink:href="#DejaVuSans-53" transform="translate(339.990234 0)"/>
       <use xlink:href="#DejaVuSans-49" transform="translate(403.466797 0)"/>
       <use xlink:href="#DejaVuSans-4d" transform="translate(432.958984 0)"/>
       <use xlink:href="#DejaVuSans-44" transform="translate(519.238281 0)"/>
       <use xlink:href="#DejaVuSans-29" transform="translate(596.240234 0)"/>
      </g>
     </g>
    </g>
    <g id="xtick_7">
     <g id="text_7">
      <!-- CAPT -->
      <g transform="translate(402.828003 276.590438) scale(0.1 -0.1)">
       <defs>
        <path id="DejaVuSans-41" d="M 2188 4044 
L 1331 1722 
L 3047 1722 
L 2188 4044 
z
M 1831 4666 
L 2547 4666 
L 4325 0 
L 3669 0 
L 3244 1197 
L 1141 1197 
L 716 0 
L 50 0 
L 1831 4666 
z
" transform="scale(0.015625)"/>
        <path id="DejaVuSans-50" d="M 1259 4147 
L 1259 2394 
L 2053 2394 
Q 2494 2394 2734 2622 
Q 2975 2850 2975 3272 
Q 2975 3691 2734 3919 
Q 2494 4147 2053 4147 
L 1259 4147 
z
M 628 4666 
L 2053 4666 
Q 2838 4666 3239 4311 
Q 3641 3956 3641 3272 
Q 3641 2581 3239 2228 
Q 2838 1875 2053 1875 
L 1259 1875 
L 1259 0 
L 628 0 
L 628 4666 
z
" transform="scale(0.015625)"/>
       </defs>
       <use xlink:href="#DejaVuSans-43"/>
       <use xlink:href="#DejaVuSans-41" transform="translate(69.824219 0)"/>
       <use xlink:href="#DejaVuSans-50" transform="translate(138.232422 0)"/>
       <use xlink:href="#DejaVuSans-54" transform="translate(198.535156 0)"/>
      </g>
     </g>
    </g>
    <g id="xtick_8">
     <g id="text_8">
      <!-- CAPT -->
      <g transform="translate(461.059115 276.590438) scale(0.1 -0.1)">
       <use xlink:href="#DejaVuSans-43"/>
       <use xlink:href="#DejaVuSans-41" transform="translate(69.824219 0)"/>
       <use xlink:href="#DejaVuSans-50" transform="translate(138.232422 0)"/>
       <use xlink:href="#DejaVuSans-54" transform="translate(198.535156 0)"/>
      </g>
      <!-- (SIMD) -->
      <g transform="translate(457.32474 287.78825) scale(0.1 -0.1)">
       <use xlink:href="#DejaVuSans-28"/>
       <use xlink:href="#DejaVuSans-53" transform="translate(39.013672 0)"/>
       <use xlink:href="#DejaVuSans-49" transform="translate(102.490234 0)"/>
       <use xlink:href="#DejaVuSans-4d" transform="translate(131.982422 0)"/>
       <use xlink:href="#DejaVuSans-44" transform="translate(218.261719 0)"/>
       <use xlink:href="#DejaVuSans-29" transform="translate(295.263672 0)"/>
      </g>
     </g>
    </g>
    <g id="xtick_9">
     <g id="text_9">
      <!-- kiddo -->
      <g transform="translate(518.578507 276.590438) scale(0.1 -0.1)">
       <defs>
        <path id="DejaVuSans-6b" d="M 581 4863 
L 1159 4863 
L 1159 1991 
L 2875 3500 
L 3609 3500 
L 1753 1863 
L 3688 0 
L 2938 0 
L 1159 1709 
L 1159 0 
L 581 0 
L 581 4863 
z
" transform="scale(0.015625)"/>
        <path id="DejaVuSans-69" d="M 603 3500 
L 1178 3500 
L 1178 0 
L 603 0 
L 603 3500 
z
M 603 4863 
L 1178 4863 
L 1178 4134 
L 603 4134 
L 603 4863 
z
" transform="scale(0.015625)"/>
        <path id="DejaVuSans-64" d="M 2906 2969 
L 2906 4863 
L 3481 4863 
L 3481 0 
L 2906 0 
L 2906 525 
Q 2725 213 2448 61 
Q 2172 -91 1784 -91 
Q 1150 -91 751 415 
Q 353 922 353 1747 
Q 353 2572 751 3078 
Q 1150 3584 1784 3584 
Q 2172 3584 2448 3432 
Q 2725 3281 2906 2969 
z
M 947 1747 
Q 947 1113 1208 752 
Q 1469 391 1925 391 
Q 2381 391 2643 752 
Q 2906 1113 2906 1747 
Q 2906 2381 2643 2742 
Q 2381 3103 1925 3103 
Q 1469 3103 1208 2742 
Q 947 2381 947 1747 
z
" transform="scale(0.015625)"/>
        <path id="DejaVuSans-6f" d="M 1959 3097 
Q 1497 3097 1228 2736 
Q 959 2375 959 1747 
Q 959 1119 1226 758 
Q 1494 397 1959 397 
Q 2419 397 2687 759 
Q 2956 1122 2956 1747 
Q 2956 2369 2687 2733 
Q 2419 3097 1959 3097 
z
M 1959 3584 
Q 2709 3584 3137 3096 
Q 3566 2609 3566 1747 
Q 3566 888 3137 398 
Q 2709 -91 1959 -91 
Q 1206 -91 779 398 
Q 353 888 353 1747 
Q 353 2609 779 3096 
Q 1206 3584 1959 3584 
z
" transform="scale(0.015625)"/>
       </defs>
       <use xlink:href="#DejaVuSans-6b"/>
       <use xlink:href="#DejaVuSans-69" transform="translate(57.910156 0)"/>
       <use xlink:href="#DejaVuSans-64" transform="translate(85.693359 0)"/>
       <use xlink:href="#DejaVuSans-64" transform="translate(149.169922 0)"/>
       <use xlink:href="#DejaVuSans-6f" transform="translate(212.646484 0)"/>
      </g>
     </g>
    </g>
   </g>
   <g id="matplotlib.axis_2">
    <g id="ytick_1">
     <g id="line2d_1">
      <defs>
       <path id="m28fd7715b6" d="M 0 0 
L -3.5 0 
" style="stroke: #000000; stroke-width: 0.8"/>
      </defs>
      <g>
       <use xlink:href="#m28fd7715b6" x="37.30625" y="251.515091" style="stroke: #000000; stroke-width: 0.8"/>
      </g>
     </g>
     <g id="text_10">
      <!-- 0.212 -->
      <g transform="translate(1.678125 255.31431) scale(0.1 -0.1)">
       <defs>
        <path id="DejaVuSans-30" d="M 2034 4250 
Q 1547 4250 1301 3770 
Q 1056 3291 1056 2328 
Q 1056 1369 1301 889 
Q 1547 409 2034 409 
Q 2525 409 2770 889 
Q 3016 1369 3016 2328 
Q 3016 3291 2770 3770 
Q 2525 4250 2034 4250 
z
M 2034 4750 
Q 2819 4750 3233 4129 
Q 3647 3509 3647 2328 
Q 3647 1150 3233 529 
Q 2819 -91 2034 -91 
Q 1250 -91 836 529 
Q 422 1150 422 2328 
Q 422 3509 836 4129 
Q 1250 4750 2034 4750 
z
" transform="scale(0.015625)"/>
        <path id="DejaVuSans-2e" d="M 684 794 
L 1344 794 
L 1344 0 
L 684 0 
L 684 794 
z
" transform="scale(0.015625)"/>
        <path id="DejaVuSans-32" d="M 1228 531 
L 3431 531 
L 3431 0 
L 469 0 
L 469 531 
Q 828 903 1448 1529 
Q 2069 2156 2228 2338 
Q 2531 2678 2651 2914 
Q 2772 3150 2772 3378 
Q 2772 3750 2511 3984 
Q 2250 4219 1831 4219 
Q 1534 4219 1204 4116 
Q 875 4013 500 3803 
L 500 4441 
Q 881 4594 1212 4672 
Q 1544 4750 1819 4750 
Q 2544 4750 2975 4387 
Q 3406 4025 3406 3419 
Q 3406 3131 3298 2873 
Q 3191 2616 2906 2266 
Q 2828 2175 2409 1742 
Q 1991 1309 1228 531 
z
" transform="scale(0.015625)"/>
        <path id="DejaVuSans-31" d="M 794 531 
L 1825 531 
L 1825 4091 
L 703 3866 
L 703 4441 
L 1819 4666 
L 2450 4666 
L 2450 531 
L 3481 531 
L 3481 0 
L 794 0 
L 794 531 
z
" transform="scale(0.015625)"/>
       </defs>
       <use xlink:href="#DejaVuSans-30"/>
       <use xlink:href="#DejaVuSans-2e" transform="translate(63.623047 0)"/>
       <use xlink:href="#DejaVuSans-32" transform="translate(95.410156 0)"/>
       <use xlink:href="#DejaVuSans-31" transform="translate(159.033203 0)"/>
       <use xlink:href="#DejaVuSans-32" transform="translate(222.65625 0)"/>
      </g>
     </g>
    </g>
    <g id="ytick_2">
     <g id="line2d_2">
      <g>
       <use xlink:href="#m28fd7715b6" x="37.30625" y="198.058295" style="stroke: #000000; stroke-width: 0.8"/>
      </g>
     </g>
     <g id="text_11">
      <!-- $\mathdefault{10^{0}}$ -->
      <g transform="translate(12.70625 201.857514) scale(0.1 -0.1)">
       <use xlink:href="#DejaVuSans-31" transform="translate(0 0.765625)"/>
       <use xlink:href="#DejaVuSans-30" transform="translate(63.623047 0.765625)"/>
       <use xlink:href="#DejaVuSans-30" transform="translate(128.203125 39.046875) scale(0.7)"/>
      </g>
     </g>
    </g>
    <g id="ytick_3">
     <g id="line2d_3">
      <g>
       <use xlink:href="#m28fd7715b6" x="37.30625" y="118.615005" style="stroke: #000000; stroke-width: 0.8"/>
      </g>
     </g>
     <g id="text_12">
      <!-- $\mathdefault{10^{1}}$ -->
      <g transform="translate(12.70625 122.414224) scale(0.1 -0.1)">
       <use xlink:href="#DejaVuSans-31" transform="translate(0 0.684375)"/>
       <use xlink:href="#DejaVuSans-30" transform="translate(63.623047 0.684375)"/>
       <use xlink:href="#DejaVuSans-31" transform="translate(128.203125 38.965625) scale(0.7)"/>
      </g>
     </g>
    </g>
    <g id="ytick_4">
     <g id="line2d_4">
      <g>
       <use xlink:href="#m28fd7715b6" x="37.30625" y="39.171716" style="stroke: #000000; stroke-width: 0.8"/>
      </g>
     </g>
     <g id="text_13">
      <!-- $\mathdefault{10^{2}}$ -->
      <g transform="translate(12.70625 42.970934) scale(0.1 -0.1)">
       <use xlink:href="#DejaVuSans-31" transform="translate(0 0.765625)"/>
       <use xlink:href="#DejaVuSans-30" transform="translate(63.623047 0.765625)"/>
       <use xlink:href="#DejaVuSans-32" transform="translate(128.203125 39.046875) scale(0.7)"/>
      </g>
     </g>
    </g>
    <g id="ytick_5">
     <g id="line2d_5">
      <g>
       <use xlink:href="#m28fd7715b6" x="37.30625" y="11.976909" style="stroke: #000000; stroke-width: 0.8"/>
      </g>
     </g>
     <g id="text_14">
      <!-- 220 -->
      <g transform="translate(11.21875 15.776128) scale(0.1 -0.1)">
       <use xlink:href="#DejaVuSans-32"/>
       <use xlink:href="#DejaVuSans-32" transform="translate(63.623047 0)"/>
       <use xlink:href="#DejaVuSans-30" transform="translate(127.246094 0)"/>
      </g>
     </g>
    </g>
    <g id="ytick_6">
     <g id="line2d_6">
      <defs>
       <path id="mcd9bb745a5" d="M 0 0 
L -2 0 
" style="stroke: #000000; stroke-width: 0.6"/>
      </defs>
      <g>
       <use xlink:href="#mcd9bb745a5" x="37.30625" y="239.597503" style="stroke: #000000; stroke-width: 0.6"/>
      </g>
     </g>
    </g>
    <g id="ytick_7">
     <g id="line2d_7">
      <g>
       <use xlink:href="#mcd9bb745a5" x="37.30625" y="229.671959" style="stroke: #000000; stroke-width: 0.6"/>
      </g>
     </g>
    </g>
    <g id="ytick_8">
     <g id="line2d_8">
      <g>
       <use xlink:href="#mcd9bb745a5" x="37.30625" y="221.973109" style="stroke: #000000; stroke-width: 0.6"/>
      </g>
     </g>
    </g>
    <g id="ytick_9">
     <g id="line2d_9">
      <g>
       <use xlink:href="#mcd9bb745a5" x="37.30625" y="215.68269" style="stroke: #000000; stroke-width: 0.6"/>
      </g>
     </g>
    </g>
    <g id="ytick_10">
     <g id="line2d_10">
      <g>
       <use xlink:href="#mcd9bb745a5" x="37.30625" y="210.364217" style="stroke: #000000; stroke-width: 0.6"/>
      </g>
     </g>
    </g>
    <g id="ytick_11">
     <g id="line2d_11">
      <g>
       <use xlink:href="#mcd9bb745a5" x="37.30625" y="205.757146" style="stroke: #000000; stroke-width: 0.6"/>
      </g>
     </g>
    </g>
    <g id="ytick_12">
     <g id="line2d_12">
      <g>
       <use xlink:href="#mcd9bb745a5" x="37.30625" y="201.693421" style="stroke: #000000; stroke-width: 0.6"/>
      </g>
     </g>
    </g>
    <g id="ytick_13">
     <g id="line2d_13">
      <g>
       <use xlink:href="#mcd9bb745a5" x="37.30625" y="174.143482" style="stroke: #000000; stroke-width: 0.6"/>
      </g>
     </g>
    </g>
    <g id="ytick_14">
     <g id="line2d_14">
      <g>
       <use xlink:href="#mcd9bb745a5" x="37.30625" y="160.154213" style="stroke: #000000; stroke-width: 0.6"/>
      </g>
     </g>
    </g>
    <g id="ytick_15">
     <g id="line2d_15">
      <g>
       <use xlink:href="#mcd9bb745a5" x="37.30625" y="150.228669" style="stroke: #000000; stroke-width: 0.6"/>
      </g>
     </g>
    </g>
    <g id="ytick_16">
     <g id="line2d_16">
      <g>
       <use xlink:href="#mcd9bb745a5" x="37.30625" y="142.529819" style="stroke: #000000; stroke-width: 0.6"/>
      </g>
     </g>
    </g>
    <g id="ytick_17">
     <g id="line2d_17">
      <g>
       <use xlink:href="#mcd9bb745a5" x="37.30625" y="136.2394" style="stroke: #000000; stroke-width: 0.6"/>
      </g>
     </g>
    </g>
    <g id="ytick_18">
     <g id="line2d_18">
      <g>
       <use xlink:href="#mcd9bb745a5" x="37.30625" y="130.920927" style="stroke: #000000; stroke-width: 0.6"/>
      </g>
     </g>
    </g>
    <g id="ytick_19">
     <g id="line2d_19">
      <g>
       <use xlink:href="#mcd9bb745a5" x="37.30625" y="126.313856" style="stroke: #000000; stroke-width: 0.6"/>
      </g>
     </g>
    </g>
    <g id="ytick_20">
     <g id="line2d_20">
      <g>
       <use xlink:href="#mcd9bb745a5" x="37.30625" y="122.250131" style="stroke: #000000; stroke-width: 0.6"/>
      </g>
     </g>
    </g>
    <g id="ytick_21">
     <g id="line2d_21">
      <g>
       <use xlink:href="#mcd9bb745a5" x="37.30625" y="94.700192" style="stroke: #000000; stroke-width: 0.6"/>
      </g>
     </g>
    </g>
    <g id="ytick_22">
     <g id="line2d_22">
      <g>
       <use xlink:href="#mcd9bb745a5" x="37.30625" y="80.710923" style="stroke: #000000; stroke-width: 0.6"/>
      </g>
     </g>
    </g>
    <g id="ytick_23">
     <g id="line2d_23">
      <g>
       <use xlink:href="#mcd9bb745a5" x="37.30625" y="70.785379" style="stroke: #000000; stroke-width: 0.6"/>
      </g>
     </g>
    </g>
    <g id="ytick_24">
     <g id="line2d_24">
      <g>
       <use xlink:href="#mcd9bb745a5" x="37.30625" y="63.086529" style="stroke: #000000; stroke-width: 0.6"/>
      </g>
     </g>
    </g>
    <g id="ytick_25">
     <g id="line2d_25">
      <g>
       <use xlink:href="#mcd9bb745a5" x="37.30625" y="56.79611" style="stroke: #000000; stroke-width: 0.6"/>
      </g>
     </g>
    </g>
    <g id="ytick_26">
     <g id="line2d_26">
      <g>
       <use xlink:href="#mcd9bb745a5" x="37.30625" y="51.477637" style="stroke: #000000; stroke-width: 0.6"/>
      </g>
     </g>
    </g>
    <g id="ytick_27">
     <g id="line2d_27">
      <g>
       <use xlink:href="#mcd9bb745a5" x="37.30625" y="46.870566" style="stroke: #000000; stroke-width: 0.6"/>
      </g>
     </g>
    </g>
    <g id="ytick_28">
     <g id="line2d_28">
      <g>
       <use xlink:href="#mcd9bb745a5" x="37.30625" y="42.806841" style="stroke: #000000; stroke-width: 0.6"/>
      </g>
     </g>
    </g>
    <g id="ytick_29">
     <g id="line2d_29">
      <g>
       <use xlink:href="#mcd9bb745a5" x="37.30625" y="15.256902" style="stroke: #000000; stroke-width: 0.6"/>
      </g>
     </g>
    </g>
    <g id="text_15">
     <!-- Solve Time (Milliseconds) -->
     <g transform="translate(7.598438 195.025688) rotate(-90) scale(0.1 -0.1)">
      <defs>
       <path id="DejaVuSans-76" d="M 191 3500 
L 800 3500 
L 1894 563 
L 2988 3500 
L 3597 3500 
L 2284 0 
L 1503 0 
L 191 3500 
z
" transform="scale(0.015625)"/>
       <path id="DejaVuSans-6d" d="M 3328 2828 
Q 3544 3216 3844 3400 
Q 4144 3584 4550 3584 
Q 5097 3584 5394 3201 
Q 5691 2819 5691 2113 
L 5691 0 
L 5113 0 
L 5113 2094 
Q 5113 2597 4934 2840 
Q 4756 3084 4391 3084 
Q 3944 3084 3684 2787 
Q 3425 2491 3425 1978 
L 3425 0 
L 2847 0 
L 2847 2094 
Q 2847 2600 2669 2842 
Q 2491 3084 2119 3084 
Q 1678 3084 1418 2786 
Q 1159 2488 1159 1978 
L 1159 0 
L 581 0 
L 581 3500 
L 1159 3500 
L 1159 2956 
Q 1356 3278 1631 3431 
Q 1906 3584 2284 3584 
Q 2666 3584 2933 3390 
Q 3200 3197 3328 2828 
z
" transform="scale(0.015625)"/>
       <path id="DejaVuSans-73" d="M 2834 3397 
L 2834 2853 
Q 2591 2978 2328 3040 
Q 2066 3103 1784 3103 
Q 1356 3103 1142 2972 
Q 928 2841 928 2578 
Q 928 2378 1081 2264 
Q 1234 2150 1697 2047 
L 1894 2003 
Q 2506 1872 2764 1633 
Q 3022 1394 3022 966 
Q 3022 478 2636 193 
Q 2250 -91 1575 -91 
Q 1294 -91 989 -36 
Q 684 19 347 128 
L 347 722 
Q 666 556 975 473 
Q 1284 391 1588 391 
Q 1994 391 2212 530 
Q 2431 669 2431 922 
Q 2431 1156 2273 1281 
Q 2116 1406 1581 1522 
L 1381 1569 
Q 847 1681 609 1914 
Q 372 2147 372 2553 
Q 372 3047 722 3315 
Q 1072 3584 1716 3584 
Q 2034 3584 2315 3537 
Q 2597 3491 2834 3397 
z
" transform="scale(0.015625)"/>
       <path id="DejaVuSans-63" d="M 3122 3366 
L 3122 2828 
Q 2878 2963 2633 3030 
Q 2388 3097 2138 3097 
Q 1578 3097 1268 2742 
Q 959 2388 959 1747 
Q 959 1106 1268 751 
Q 1578 397 2138 397 
Q 2388 397 2633 464 
Q 2878 531 3122 666 
L 3122 134 
Q 2881 22 2623 -34 
Q 2366 -91 2075 -91 
Q 1284 -91 818 406 
Q 353 903 353 1747 
Q 353 2603 823 3093 
Q 1294 3584 2113 3584 
Q 2378 3584 2631 3529 
Q 2884 3475 3122 3366 
z
" transform="scale(0.015625)"/>
       <path id="DejaVuSans-6e" d="M 3513 2113 
L 3513 0 
L 2938 0 
L 2938 2094 
Q 2938 2591 2744 2837 
Q 2550 3084 2163 3084 
Q 1697 3084 1428 2787 
Q 1159 2491 1159 1978 
L 1159 0 
L 581 0 
L 581 3500 
L 1159 3500 
L 1159 2956 
Q 1366 3272 1645 3428 
Q 1925 3584 2291 3584 
Q 2894 3584 3203 3211 
Q 3513 2838 3513 2113 
z
" transform="scale(0.015625)"/>
      </defs>
      <use xlink:href="#DejaVuSans-53"/>
      <use xlink:href="#DejaVuSans-6f" transform="translate(63.476562 0)"/>
      <use xlink:href="#DejaVuSans-6c" transform="translate(124.658203 0)"/>
      <use xlink:href="#DejaVuSans-76" transform="translate(152.441406 0)"/>
      <use xlink:href="#DejaVuSans-65" transform="translate(211.621094 0)"/>
      <use xlink:href="#DejaVuSans-20" transform="translate(273.144531 0)"/>
      <use xlink:href="#DejaVuSans-54" transform="translate(304.931641 0)"/>
      <use xlink:href="#DejaVuSans-69" transform="translate(362.890625 0)"/>
      <use xlink:href="#DejaVuSans-6d" transform="translate(390.673828 0)"/>
      <use xlink:href="#DejaVuSans-65" transform="translate(488.085938 0)"/>
      <use xlink:href="#DejaVuSans-20" transform="translate(549.609375 0)"/>
      <use xlink:href="#DejaVuSans-28" transform="translate(581.396484 0)"/>
      <use xlink:href="#DejaVuSans-4d" transform="translate(620.410156 0)"/>
      <use xlink:href="#DejaVuSans-69" transform="translate(706.689453 0)"/>
      <use xlink:href="#DejaVuSans-6c" transform="translate(734.472656 0)"/>
      <use xlink:href="#DejaVuSans-6c" transform="translate(762.255859 0)"/>
      <use xlink:href="#DejaVuSans-69" transform="translate(790.039062 0)"/>
      <use xlink:href="#DejaVuSans-73" transform="translate(817.822266 0)"/>
      <use xlink:href="#DejaVuSans-65" transform="translate(869.921875 0)"/>
      <use xlink:href="#DejaVuSans-63" transform="translate(931.445312 0)"/>
      <use xlink:href="#DejaVuSans-6f" transform="translate(986.425781 0)"/>
      <use xlink:href="#DejaVuSans-6e" transform="translate(1047.607422 0)"/>
      <use xlink:href="#DejaVuSans-64" transform="translate(1110.986328 0)"/>
      <use xlink:href="#DejaVuSans-73" transform="translate(1174.462891 0)"/>
      <use xlink:href="#DejaVuSans-29" transform="translate(1226.5625 0)"/>
     </g>
    </g>
   </g>
   <g id="line2d_30">
    <path d="M 66.421806 216.076641 
L 66.421806 60.455038 
" clip-path="url(#p096d66866e)" style="fill: none; stroke: #2f2f2f; stroke-width: 1.125; stroke-linecap: square"/>
   </g>
   <g id="line2d_31">
    <path d="M 66.421806 171.967676 
L 66.421806 125.363858 
" clip-path="url(#p096d66866e)" style="fill: none; stroke: #2f2f2f; stroke-width: 3.375; stroke-linecap: square"/>
   </g>
   <g id="line2d_32">
    <path d="M 66.421806 149.244972 
" clip-path="url(#p096d66866e)" style="fill: none; stroke: #2f2f2f; stroke-width: 1.5; stroke-linecap: square"/>
    <defs>
     <path id="m57af81c975" d="M 1.40625 0 
L -1.40625 -0 
" style="stroke: #ffffff; stroke-width: 0.675"/>
    </defs>
    <g clip-path="url(#p096d66866e)">
     <use xlink:href="#m57af81c975" x="66.421806" y="149.244972" style="fill: #ffffff; stroke: #ffffff; stroke-width: 0.675"/>
    </g>
   </g>
   <g id="line2d_33">
    <path d="M 124.652917 216.32367 
L 124.652917 60.366945 
" clip-path="url(#p096d66866e)" style="fill: none; stroke: #2f2f2f; stroke-width: 1.125; stroke-linecap: square"/>
   </g>
   <g id="line2d_34">
    <path d="M 124.652917 171.418271 
L 124.652917 125.416784 
" clip-path="url(#p096d66866e)" style="fill: none; stroke: #2f2f2f; stroke-width: 3.375; stroke-linecap: square"/>
   </g>
   <g id="line2d_35">
    <path d="M 124.652917 149.335294 
" clip-path="url(#p096d66866e)" style="fill: none; stroke: #2f2f2f; stroke-width: 1.5; stroke-linecap: square"/>
    <g clip-path="url(#p096d66866e)">
     <use xlink:href="#m57af81c975" x="124.652917" y="149.335294" style="fill: #ffffff; stroke: #ffffff; stroke-width: 0.675"/>
    </g>
   </g>
   <g id="line2d_36">
    <path d="M 182.884028 213.262521 
L 182.884028 58.964179 
" clip-path="url(#p096d66866e)" style="fill: none; stroke: #2f2f2f; stroke-width: 1.125; stroke-linecap: square"/>
   </g>
   <g id="line2d_37">
    <path d="M 182.884028 169.411675 
L 182.884028 122.657677 
" clip-path="url(#p096d66866e)" style="fill: none; stroke: #2f2f2f; stroke-width: 3.375; stroke-linecap: square"/>
   </g>
   <g id="line2d_38">
    <path d="M 182.884028 148.944529 
" clip-path="url(#p096d66866e)" style="fill: none; stroke: #2f2f2f; stroke-width: 1.5; stroke-linecap: square"/>
    <g clip-path="url(#p096d66866e)">
     <use xlink:href="#m57af81c975" x="182.884028" y="148.944529" style="fill: #ffffff; stroke: #ffffff; stroke-width: 0.675"/>
    </g>
   </g>
   <g id="line2d_39">
    <path d="M 241.115139 210.857704 
L 241.115139 61.126281 
" clip-path="url(#p096d66866e)" style="fill: none; stroke: #2f2f2f; stroke-width: 1.125; stroke-linecap: square"/>
   </g>
   <g id="line2d_40">
    <path d="M 241.115139 172.327554 
L 241.115139 126.731727 
" clip-path="url(#p096d66866e)" style="fill: none; stroke: #2f2f2f; stroke-width: 3.375; stroke-linecap: square"/>
   </g>
   <g id="line2d_41">
    <path d="M 241.115139 150.17342 
" clip-path="url(#p096d66866e)" style="fill: none; stroke: #2f2f2f; stroke-width: 1.5; stroke-linecap: square"/>
    <g clip-path="url(#p096d66866e)">
     <use xlink:href="#m57af81c975" x="241.115139" y="150.17342" style="fill: #ffffff; stroke: #ffffff; stroke-width: 0.675"/>
    </g>
   </g>
   <g id="line2d_42">
    <path d="M 299.34625 205.720033 
L 299.34625 51.789826 
" clip-path="url(#p096d66866e)" style="fill: none; stroke: #2f2f2f; stroke-width: 1.125; stroke-linecap: square"/>
   </g>
   <g id="line2d_43">
    <path d="M 299.34625 159.120838 
L 299.34625 115.600223 
" clip-path="url(#p096d66866e)" style="fill: none; stroke: #2f2f2f; stroke-width: 3.375; stroke-linecap: square"/>
   </g>
   <g id="line2d_44">
    <path d="M 299.34625 141.832189 
" clip-path="url(#p096d66866e)" style="fill: none; stroke: #2f2f2f; stroke-width: 1.5; stroke-linecap: square"/>
    <g clip-path="url(#p096d66866e)">
     <use xlink:href="#m57af81c975" x="299.34625" y="141.832189" style="fill: #ffffff; stroke: #ffffff; stroke-width: 0.675"/>
    </g>
   </g>
   <g id="line2d_45">
    <path d="M 357.577361 208.275482 
L 357.577361 53.349991 
" clip-path="url(#p096d66866e)" style="fill: none; stroke: #2f2f2f; stroke-width: 1.125; stroke-linecap: square"/>
   </g>
   <g id="line2d_46">
    <path d="M 357.577361 162.480158 
L 357.577361 116.947236 
" clip-path="url(#p096d66866e)" style="fill: none; stroke: #2f2f2f; stroke-width: 3.375; stroke-linecap: square"/>
   </g>
   <g id="line2d_47">
    <path d="M 357.577361 143.981077 
" clip-path="url(#p096d66866e)" style="fill: none; stroke: #2f2f2f; stroke-width: 1.5; stroke-linecap: square"/>
    <g clip-path="url(#p096d66866e)">
     <use xlink:href="#m57af81c975" x="357.577361" y="143.981077" style="fill: #ffffff; stroke: #ffffff; stroke-width: 0.675"/>
    </g>
   </g>
   <g id="line2d_48">
    <path d="M 415.808472 192.289529 
L 415.808472 46.356044 
" clip-path="url(#p096d66866e)" style="fill: none; stroke: #2f2f2f; stroke-width: 1.125; stroke-linecap: square"/>
   </g>
   <g id="line2d_49">
    <path d="M 415.808472 151.631037 
L 415.808472 106.587117 
" clip-path="url(#p096d66866e)" style="fill: none; stroke: #2f2f2f; stroke-width: 3.375; stroke-linecap: square"/>
   </g>
   <g id="line2d_50">
    <path d="M 415.808472 129.342583 
" clip-path="url(#p096d66866e)" style="fill: none; stroke: #2f2f2f; stroke-width: 1.5; stroke-linecap: square"/>
    <g clip-path="url(#p096d66866e)">
     <use xlink:href="#m57af81c975" x="415.808472" y="129.342583" style="fill: #ffffff; stroke: #ffffff; stroke-width: 0.675"/>
    </g>
   </g>
   <g id="line2d_51">
    <path d="M 474.039583 200.658668 
L 474.039583 52.857139 
" clip-path="url(#p096d66866e)" style="fill: none; stroke: #2f2f2f; stroke-width: 1.125; stroke-linecap: square"/>
   </g>
   <g id="line2d_52">
    <path d="M 474.039583 160.494719 
L 474.039583 116.265747 
" clip-path="url(#p096d66866e)" style="fill: none; stroke: #2f2f2f; stroke-width: 3.375; stroke-linecap: square"/>
   </g>
   <g id="line2d_53">
    <path d="M 474.039583 138.591409 
" clip-path="url(#p096d66866e)" style="fill: none; stroke: #2f2f2f; stroke-width: 1.5; stroke-linecap: square"/>
    <g clip-path="url(#p096d66866e)">
     <use xlink:href="#m57af81c975" x="474.039583" y="138.591409" style="fill: #ffffff; stroke: #ffffff; stroke-width: 0.675"/>
    </g>
   </g>
   <g id="line2d_54">
    <path d="M 532.270694 183.695447 
L 532.270694 32.664418 
" clip-path="url(#p096d66866e)" style="fill: none; stroke: #2f2f2f; stroke-width: 1.125; stroke-linecap: square"/>
   </g>
   <g id="line2d_55">
    <path d="M 532.270694 126.2432 
L 532.270694 87.79711 
" clip-path="url(#p096d66866e)" style="fill: none; stroke: #2f2f2f; stroke-width: 3.375; stroke-linecap: square"/>
   </g>
   <g id="line2d_56">
    <path d="M 532.270694 106.528121 
" clip-path="url(#p096d66866e)" style="fill: none; stroke: #2f2f2f; stroke-width: 1.5; stroke-linecap: square"/>
    <g clip-path="url(#p096d66866e)">
     <use xlink:href="#m57af81c975" x="532.270694" y="106.528121" style="fill: #ffffff; stroke: #ffffff; stroke-width: 0.675"/>
    </g>
   </g>
   <g id="patch_3">
    <path d="M 37.30625 251.515091 
L 37.30625 11.976909 
" style="fill: none; stroke: #000000; stroke-width: 0.8; stroke-linejoin: miter; stroke-linecap: square"/>
   </g>
  </g>
 </g>
 <defs>
  <clipPath id="p096d66866e">
   <rect x="37.30625" y="0" width="524.08" height="263.492"/>
  </clipPath>
 </defs>
</svg>
