<?xml version="1.0" encoding="utf-8" standalone="no"?>
<!DOCTYPE svg PUBLIC "-//W3C//DTD SVG 1.1//EN"
  "http://www.w3.org/Graphics/SVG/1.1/DTD/svg11.dtd">
<svg xmlns:xlink="http://www.w3.org/1999/xlink" width="410.09625pt" height="301.06575pt" viewBox="0 0 410.09625 301.06575" xmlns="http://www.w3.org/2000/svg" version="1.1">
 <metadata>
  <rdf:RDF xmlns:dc="http://purl.org/dc/elements/1.1/" xmlns:cc="http://creativecommons.org/ns#" xmlns:rdf="http://www.w3.org/1999/02/22-rdf-syntax-ns#">
   <cc:Work>
    <dc:type rdf:resource="http://purl.org/dc/dcmitype/StillImage"/>
    <dc:date>2026-07-17T10:07:57.746220</dc:date>
    <dc:format>image/svg+xml</dc:format>
    <dc:creator>
     <cc:Agent>
      <dc:title>Matplotlib v3.10.9, https://matplotlib.org/</dc:title>
     </cc:Agent>
    </dc:creator>
   </cc:Work>
  </rdf:RDF>
 </metadata>
 <defs>
  <style type="text/css">*{stroke-linejoin: round; stroke-linecap: butt}</style>
 </defs>
 <g id="figure_1">
  <g id="patch_1">
   <path d="M 0 301.06575 
L 410.09625 301.06575 
L 410.09625 0 
L 0 0 
L 0 301.06575 
z
" style="fill: none"/>
  </g>
  <g id="axes_1">
   <g id="patch_2">
    <path d="M 49.30625 263.492 
L 410.09625 263.492 
L 410.09625 0 
L 49.30625 0 
L 49.30625 263.492 
z
" style="fill: none"/>
   </g>
   <g id="FillBetweenPolyCollection_1">
    <defs>
     <path id="m48b3698e1e" d="M 75.78622 -61.85041 
L 74.367709 -61.85041 
L 74.305464 -63.785862 
L 74.23315 -65.721314 
L 74.145728 -67.656767 
L 74.037396 -69.592219 
L 73.901882 -71.527671 
L 73.732804 -73.463123 
L 73.524075 -75.398575 
L 73.270328 -77.334027 
L 72.967301 -79.269479 
L 72.612174 -81.204931 
L 72.203795 -83.140383 
L 71.74279 -85.075835 
L 71.231504 -87.011287 
L 70.673804 -88.94674 
L 70.074713 -90.882192 
L 69.439918 -92.817644 
L 68.775203 -94.753096 
L 68.085849 -96.688548 
L 67.376091 -98.624 
L 66.648708 -100.559452 
L 65.904811 -102.494904 
L 65.143901 -104.430356 
L 64.364194 -106.365808 
L 63.563226 -108.301261 
L 62.738655 -110.236713 
L 61.88918 -112.172165 
L 61.015444 -114.107617 
L 60.120786 -116.043069 
L 59.21173 -117.978521 
L 58.298093 -119.913973 
L 57.392699 -121.849425 
L 56.510697 -123.784877 
L 55.668552 -125.720329 
L 54.882858 -127.655782 
L 54.169099 -129.591234 
L 53.540538 -131.526686 
L 53.007362 -133.462138 
L 52.57619 -135.39759 
L 52.249973 -137.333042 
L 52.028273 -139.268494 
L 51.907831 -141.203946 
L 51.883321 -143.139398 
L 51.948145 -145.07485 
L 52.095141 -147.010303 
L 52.317121 -148.945755 
L 52.607167 -150.881207 
L 52.958691 -152.816659 
L 53.3653 -154.752111 
L 53.820529 -156.687563 
L 54.31755 -158.623015 
L 54.848937 -160.558467 
L 55.406569 -162.493919 
L 55.981712 -164.429371 
L 56.565304 -166.364824 
L 57.148407 -168.300276 
L 57.722783 -170.235728 
L 58.281513 -172.17118 
L 58.819571 -174.106632 
L 59.334267 -176.042084 
L 59.82549 -177.977536 
L 60.295693 -179.912988 
L 60.749618 -181.84844 
L 61.193772 -183.783892 
L 61.635711 -185.719344 
L 62.083224 -187.654797 
L 62.543493 -189.590249 
L 63.022342 -191.525701 
L 63.523642 -193.461153 
L 64.048938 -195.396605 
L 64.597304 -197.332057 
L 65.165435 -199.267509 
L 65.747929 -201.202961 
L 66.337721 -203.138413 
L 66.926605 -205.073865 
L 67.5058 -207.009318 
L 68.066517 -208.94477 
L 68.600496 -210.880222 
L 69.100496 -212.815674 
L 69.560708 -214.751126 
L 69.977091 -216.686578 
L 70.347594 -218.62203 
L 70.672258 -220.557482 
L 70.953178 -222.492934 
L 71.194317 -224.428386 
L 71.401174 -226.363839 
L 71.580338 -228.299291 
L 71.738962 -230.234743 
L 71.8842 -232.170195 
L 72.022682 -234.105647 
L 72.160066 -236.041099 
L 72.300717 -237.976551 
L 72.447535 -239.912003 
L 72.60194 -241.847455 
L 72.763997 -243.782907 
L 72.932636 -245.71836 
L 73.10595 -247.653812 
L 73.281504 -249.589264 
L 73.456626 -251.524716 
L 73.628655 -253.460168 
L 76.525274 -253.460168 
L 76.525274 -253.460168 
L 76.697303 -251.524716 
L 76.872425 -249.589264 
L 77.047978 -247.653812 
L 77.221293 -245.71836 
L 77.389932 -243.782907 
L 77.551988 -241.847455 
L 77.706394 -239.912003 
L 77.853212 -237.976551 
L 77.993862 -236.041099 
L 78.131246 -234.105647 
L 78.269729 -232.170195 
L 78.414967 -230.234743 
L 78.57359 -228.299291 
L 78.752755 -226.363839 
L 78.959612 -224.428386 
L 79.200751 -222.492934 
L 79.481671 -220.557482 
L 79.806335 -218.62203 
L 80.176838 -216.686578 
L 80.59322 -214.751126 
L 81.053433 -212.815674 
L 81.553432 -210.880222 
L 82.087411 -208.94477 
L 82.648128 -207.009318 
L 83.227323 -205.073865 
L 83.816208 -203.138413 
L 84.406 -201.202961 
L 84.988494 -199.267509 
L 85.556624 -197.332057 
L 86.10499 -195.396605 
L 86.630286 -193.461153 
L 87.131587 -191.525701 
L 87.610436 -189.590249 
L 88.070705 -187.654797 
L 88.518218 -185.719344 
L 88.960157 -183.783892 
L 89.40431 -181.84844 
L 89.858235 -179.912988 
L 90.328439 -177.977536 
L 90.819661 -176.042084 
L 91.334358 -174.106632 
L 91.872416 -172.17118 
L 92.431146 -170.235728 
L 93.005522 -168.300276 
L 93.588625 -166.364824 
L 94.172217 -164.429371 
L 94.74736 -162.493919 
L 95.304991 -160.558467 
L 95.836378 -158.623015 
L 96.333399 -156.687563 
L 96.788628 -154.752111 
L 97.195237 -152.816659 
L 97.546762 -150.881207 
L 97.836808 -148.945755 
L 98.058788 -147.010303 
L 98.205784 -145.07485 
L 98.270607 -143.139398 
L 98.246098 -141.203946 
L 98.125656 -139.268494 
L 97.903956 -137.333042 
L 97.577739 -135.39759 
L 97.146567 -133.462138 
L 96.613391 -131.526686 
L 95.984829 -129.591234 
L 95.27107 -127.655782 
L 94.485377 -125.720329 
L 93.643232 -123.784877 
L 92.761229 -121.849425 
L 91.855836 -119.913973 
L 90.942199 -117.978521 
L 90.033142 -116.043069 
L 89.138485 -114.107617 
L 88.264748 -112.172165 
L 87.415273 -110.236713 
L 86.590702 -108.301261 
L 85.789734 -106.365808 
L 85.010028 -104.430356 
L 84.249117 -102.494904 
L 83.505221 -100.559452 
L 82.777837 -98.624 
L 82.06808 -96.688548 
L 81.378725 -94.753096 
L 80.714011 -92.817644 
L 80.079216 -90.882192 
L 79.480124 -88.94674 
L 78.922425 -87.011287 
L 78.411139 -85.075835 
L 77.950133 -83.140383 
L 77.541755 -81.204931 
L 77.186627 -79.269479 
L 76.883601 -77.334027 
L 76.629853 -75.398575 
L 76.421125 -73.463123 
L 76.252047 -71.527671 
L 76.116532 -69.592219 
L 76.008201 -67.656767 
L 75.920778 -65.721314 
L 75.848465 -63.785862 
L 75.78622 -61.85041 
z
" style="stroke: #2f2f2f; stroke-width: 0.75"/>
    </defs>
    <g clip-path="url(#p846c097b80)">
     <use xlink:href="#m48b3698e1e" x="0" y="301.06575" style="fill: #166c9c; stroke: #2f2f2f; stroke-width: 0.75"/>
    </g>
   </g>
   <g id="FillBetweenPolyCollection_2">
    <defs>
     <path id="mf65dce113f" d="M 127.179512 -49.550659 
L 126.057274 -49.550659 
L 126.041693 -51.578296 
L 126.028478 -53.605933 
L 126.014236 -55.63357 
L 125.99459 -57.661207 
L 125.96435 -59.688844 
L 125.917742 -61.716481 
L 125.848679 -63.744118 
L 125.751067 -65.771755 
L 125.619106 -67.799392 
L 125.447585 -69.827029 
L 125.232146 -71.854666 
L 124.969505 -73.882303 
L 124.657623 -75.90994 
L 124.295806 -77.937577 
L 123.88474 -79.965214 
L 123.426433 -81.992851 
L 122.924068 -84.020488 
L 122.381764 -86.048125 
L 121.804252 -88.075762 
L 121.196473 -90.103399 
L 120.563148 -92.131036 
L 119.908327 -94.158673 
L 119.235002 -96.18631 
L 118.544805 -98.213947 
L 117.837874 -100.241584 
L 117.112902 -102.269221 
L 116.367423 -104.296858 
L 115.598305 -106.324495 
L 114.802444 -108.352132 
L 113.977574 -110.379769 
L 113.123115 -112.407406 
L 112.240941 -114.435043 
L 111.335954 -116.46268 
L 110.416381 -118.490317 
L 109.493712 -120.517954 
L 108.582273 -122.545592 
L 107.698463 -124.573229 
L 106.85975 -126.600866 
L 106.083525 -128.628503 
L 105.385991 -130.65614 
L 104.781187 -132.683777 
L 104.280275 -134.711414 
L 103.891153 -136.739051 
L 103.618374 -138.766688 
L 103.463353 -140.794325 
L 103.42475 -142.821962 
L 103.498923 -144.849599 
L 103.680357 -146.877236 
L 103.961985 -148.904873 
L 104.335365 -150.93251 
L 104.790738 -152.960147 
L 105.317007 -154.987784 
L 105.901751 -157.015421 
L 106.531322 -159.043058 
L 107.191139 -161.070695 
L 107.866193 -163.098332 
L 108.541757 -165.125969 
L 109.204254 -167.153606 
L 109.842176 -169.181243 
L 110.446937 -171.20888 
L 111.013532 -173.236517 
L 111.54089 -175.264154 
L 112.03186 -177.291791 
L 112.492801 -179.319428 
L 112.932813 -181.347065 
L 113.362695 -183.374702 
L 113.793755 -185.402339 
L 114.236608 -187.429976 
L 114.700099 -189.457613 
L 115.190465 -191.48525 
L 115.710799 -193.512887 
L 116.260856 -195.540524 
L 116.837169 -197.568161 
L 117.43345 -199.595798 
L 118.041177 -201.623435 
L 118.650313 -203.651072 
L 119.250086 -205.678709 
L 119.829752 -207.706346 
L 120.379321 -209.733983 
L 120.890196 -211.76162 
L 121.355695 -213.789257 
L 121.771445 -215.816894 
L 122.135614 -217.844531 
L 122.448965 -219.872168 
L 122.714727 -221.899805 
L 122.938281 -223.927442 
L 123.126686 -225.955079 
L 123.288076 -227.982716 
L 123.430996 -230.010353 
L 123.563729 -232.03799 
L 123.693689 -234.065627 
L 123.82694 -236.093264 
L 123.967866 -238.120901 
L 124.119037 -240.148538 
L 124.281247 -242.176175 
L 124.453702 -244.203812 
L 124.634328 -246.231449 
L 124.820138 -248.259086 
L 125.007616 -250.286723 
L 128.22917 -250.286723 
L 128.22917 -250.286723 
L 128.416648 -248.259086 
L 128.602457 -246.231449 
L 128.783084 -244.203812 
L 128.955539 -242.176175 
L 129.117748 -240.148538 
L 129.26892 -238.120901 
L 129.409846 -236.093264 
L 129.543096 -234.065627 
L 129.673057 -232.03799 
L 129.80579 -230.010353 
L 129.94871 -227.982716 
L 130.1101 -225.955079 
L 130.298504 -223.927442 
L 130.522059 -221.899805 
L 130.78782 -219.872168 
L 131.101171 -217.844531 
L 131.46534 -215.816894 
L 131.881091 -213.789257 
L 132.34659 -211.76162 
L 132.857465 -209.733983 
L 133.407034 -207.706346 
L 133.9867 -205.678709 
L 134.586472 -203.651072 
L 135.195609 -201.623435 
L 135.803336 -199.595798 
L 136.399617 -197.568161 
L 136.97593 -195.540524 
L 137.525986 -193.512887 
L 138.046321 -191.48525 
L 138.536687 -189.457613 
L 139.000178 -187.429976 
L 139.443031 -185.402339 
L 139.87409 -183.374702 
L 140.303972 -181.347065 
L 140.743984 -179.319428 
L 141.204926 -177.291791 
L 141.695896 -175.264154 
L 142.223254 -173.236517 
L 142.789848 -171.20888 
L 143.39461 -169.181243 
L 144.032532 -167.153606 
L 144.695029 -165.125969 
L 145.370593 -163.098332 
L 146.045647 -161.070695 
L 146.705464 -159.043058 
L 147.335035 -157.015421 
L 147.919778 -154.987784 
L 148.446048 -152.960147 
L 148.90142 -150.93251 
L 149.274801 -148.904873 
L 149.556429 -146.877236 
L 149.737863 -144.849599 
L 149.812036 -142.821962 
L 149.773432 -140.794325 
L 149.618412 -138.766688 
L 149.345633 -136.739051 
L 148.956511 -134.711414 
L 148.455599 -132.683777 
L 147.850794 -130.65614 
L 147.15326 -128.628503 
L 146.377036 -126.600866 
L 145.538322 -124.573229 
L 144.654513 -122.545592 
L 143.743074 -120.517954 
L 142.820405 -118.490317 
L 141.900832 -116.46268 
L 140.995845 -114.435043 
L 140.11367 -112.407406 
L 139.259212 -110.379769 
L 138.434342 -108.352132 
L 137.638481 -106.324495 
L 136.869363 -104.296858 
L 136.123883 -102.269221 
L 135.398912 -100.241584 
L 134.69198 -98.213947 
L 134.001784 -96.18631 
L 133.328458 -94.158673 
L 132.673638 -92.131036 
L 132.040312 -90.103399 
L 131.432534 -88.075762 
L 130.855021 -86.048125 
L 130.312718 -84.020488 
L 129.810353 -81.992851 
L 129.352046 -79.965214 
L 128.94098 -77.937577 
L 128.579163 -75.90994 
L 128.26728 -73.882303 
L 128.004639 -71.854666 
L 127.789201 -69.827029 
L 127.61768 -67.799392 
L 127.485719 -65.771755 
L 127.388106 -63.744118 
L 127.319044 -61.716481 
L 127.272435 -59.688844 
L 127.242196 -57.661207 
L 127.22255 -55.63357 
L 127.208307 -53.605933 
L 127.195093 -51.578296 
L 127.179512 -49.550659 
z
" style="stroke: #2f2f2f; stroke-width: 0.75"/>
    </defs>
    <g clip-path="url(#p846c097b80)">
     <use xlink:href="#mf65dce113f" x="0" y="301.06575" style="fill: #96bdd2; stroke: #2f2f2f; stroke-width: 0.75"/>
    </g>
   </g>
   <g id="FillBetweenPolyCollection_3">
    <defs>
     <path id="m0b3294b130" d="M 178.775143 -55.304284 
L 177.5445 -55.304284 
L 177.510333 -57.29503 
L 177.472897 -59.285776 
L 177.427813 -61.276522 
L 177.369745 -63.267268 
L 177.292621 -65.258014 
L 177.189938 -67.248759 
L 177.055108 -69.239505 
L 176.881846 -71.230251 
L 176.664546 -73.220997 
L 176.398629 -75.211743 
L 176.08084 -77.202489 
L 175.709452 -79.193235 
L 175.284368 -81.183981 
L 174.807099 -83.174727 
L 174.280613 -85.165472 
L 173.709059 -87.156218 
L 173.097369 -89.146964 
L 172.450789 -91.13771 
L 171.774373 -93.128456 
L 171.072496 -95.119202 
L 170.348462 -97.109948 
L 169.604264 -99.100694 
L 168.84055 -101.091439 
L 168.056826 -103.082185 
L 167.251889 -105.072931 
L 166.424454 -107.063677 
L 165.573903 -109.054423 
L 164.701053 -111.045169 
L 163.808822 -113.035915 
L 162.902698 -115.026661 
L 161.990903 -117.017407 
L 161.084226 -119.008152 
L 160.195525 -120.998898 
L 159.338949 -122.989644 
L 158.528999 -124.98039 
L 157.779553 -126.971136 
L 157.102992 -128.961882 
L 156.509548 -130.952628 
L 156.006949 -132.943374 
L 155.600373 -134.934119 
L 155.292687 -136.924865 
L 155.084866 -138.915611 
L 154.976489 -140.906357 
L 154.966179 -142.897103 
L 155.051894 -144.887849 
L 155.230998 -146.878595 
L 155.500113 -148.869341 
L 155.854794 -150.860086 
L 156.289118 -152.850832 
L 156.795308 -154.841578 
L 157.363495 -156.832324 
L 157.981724 -158.82307 
L 158.636253 -160.813816 
L 159.312154 -162.804562 
L 159.994157 -164.795308 
L 160.667665 -166.786054 
L 161.319812 -168.776799 
L 161.940424 -170.767545 
L 162.522782 -172.758291 
L 163.064062 -174.749037 
L 163.565414 -176.739783 
L 164.031654 -178.730529 
L 164.470602 -180.721275 
L 164.892153 -182.712021 
L 165.307174 -184.702766 
L 165.726364 -186.693512 
L 166.159195 -188.684258 
L 166.613043 -190.675004 
L 167.092581 -192.66575 
L 167.599475 -194.656496 
L 168.132372 -196.647242 
L 168.687156 -198.637988 
L 169.257405 -200.628734 
L 169.834984 -202.619479 
L 170.410709 -204.610225 
L 170.975021 -206.600971 
L 171.51863 -208.591717 
L 172.033104 -210.582463 
L 172.511371 -212.573209 
L 172.94812 -214.563955 
L 173.340089 -216.554701 
L 173.686221 -218.545446 
L 173.987661 -220.536192 
L 174.247608 -222.526938 
L 174.471004 -224.517684 
L 174.664096 -226.50843 
L 174.8339 -228.499176 
L 174.987626 -230.489922 
L 175.132109 -232.480668 
L 175.273326 -234.471413 
L 175.416026 -236.462159 
L 175.563518 -238.452905 
L 175.717615 -240.443651 
L 175.87873 -242.434397 
L 176.046084 -244.425143 
L 176.217989 -246.415889 
L 176.39216 -248.406635 
L 176.566015 -250.397381 
L 176.736929 -252.388126 
L 179.582714 -252.388126 
L 179.582714 -252.388126 
L 179.753628 -250.397381 
L 179.927483 -248.406635 
L 180.101654 -246.415889 
L 180.273559 -244.425143 
L 180.440913 -242.434397 
L 180.602028 -240.443651 
L 180.756125 -238.452905 
L 180.903617 -236.462159 
L 181.046317 -234.471413 
L 181.187534 -232.480668 
L 181.332017 -230.489922 
L 181.485743 -228.499176 
L 181.655547 -226.50843 
L 181.848639 -224.517684 
L 182.072034 -222.526938 
L 182.331981 -220.536192 
L 182.633422 -218.545446 
L 182.979554 -216.554701 
L 183.371523 -214.563955 
L 183.808272 -212.573209 
L 184.286538 -210.582463 
L 184.801013 -208.591717 
L 185.344622 -206.600971 
L 185.908933 -204.610225 
L 186.484659 -202.619479 
L 187.062238 -200.628734 
L 187.632487 -198.637988 
L 188.187271 -196.647242 
L 188.720168 -194.656496 
L 189.227062 -192.66575 
L 189.7066 -190.675004 
L 190.160448 -188.684258 
L 190.593279 -186.693512 
L 191.012469 -184.702766 
L 191.42749 -182.712021 
L 191.849041 -180.721275 
L 192.287989 -178.730529 
L 192.754228 -176.739783 
L 193.25558 -174.749037 
L 193.79686 -172.758291 
L 194.379218 -170.767545 
L 194.999831 -168.776799 
L 195.651978 -166.786054 
L 196.325486 -164.795308 
L 197.007489 -162.804562 
L 197.683389 -160.813816 
L 198.337919 -158.82307 
L 198.956148 -156.832324 
L 199.524335 -154.841578 
L 200.030525 -152.850832 
L 200.464849 -150.860086 
L 200.81953 -148.869341 
L 201.088645 -146.878595 
L 201.267749 -144.887849 
L 201.353464 -142.897103 
L 201.343154 -140.906357 
L 201.234777 -138.915611 
L 201.026956 -136.924865 
L 200.71927 -134.934119 
L 200.312694 -132.943374 
L 199.810095 -130.952628 
L 199.216651 -128.961882 
L 198.54009 -126.971136 
L 197.790643 -124.98039 
L 196.980694 -122.989644 
L 196.124118 -120.998898 
L 195.235417 -119.008152 
L 194.32874 -117.017407 
L 193.416945 -115.026661 
L 192.510821 -113.035915 
L 191.61859 -111.045169 
L 190.74574 -109.054423 
L 189.895189 -107.063677 
L 189.067754 -105.072931 
L 188.262817 -103.082185 
L 187.479093 -101.091439 
L 186.715379 -99.100694 
L 185.971181 -97.109948 
L 185.247147 -95.119202 
L 184.545269 -93.128456 
L 183.868854 -91.13771 
L 183.222274 -89.146964 
L 182.610584 -87.156218 
L 182.039029 -85.165472 
L 181.512544 -83.174727 
L 181.035275 -81.183981 
L 180.61019 -79.193235 
L 180.238803 -77.202489 
L 179.921014 -75.211743 
L 179.655097 -73.220997 
L 179.437796 -71.230251 
L 179.264535 -69.239505 
L 179.129705 -67.248759 
L 179.027022 -65.258014 
L 178.949898 -63.267268 
L 178.89183 -61.276522 
L 178.846746 -59.285776 
L 178.80931 -57.29503 
L 178.775143 -55.304284 
z
" style="stroke: #2f2f2f; stroke-width: 0.75"/>
    </defs>
    <g clip-path="url(#p846c097b80)">
     <use xlink:href="#m0b3294b130" x="0" y="301.06575" style="fill: #ba611b; stroke: #2f2f2f; stroke-width: 0.75"/>
    </g>
   </g>
   <g id="FillBetweenPolyCollection_4">
    <defs>
     <path id="m43cc3bacbc" d="M 230.298472 -50.786179 
L 229.104028 -50.786179 
L 229.076861 -52.788896 
L 229.048482 -54.791613 
L 229.014911 -56.79433 
L 228.971224 -58.797047 
L 228.911758 -60.799763 
L 228.830379 -62.80248 
L 228.720809 -64.805197 
L 228.576973 -66.807914 
L 228.393339 -68.810631 
L 228.165238 -70.813348 
L 227.889122 -72.816065 
L 227.562756 -74.818782 
L 227.18531 -76.821499 
L 226.757364 -78.824216 
L 226.2808 -80.826933 
L 225.758595 -82.82965 
L 225.194532 -84.832367 
L 224.592839 -86.835084 
L 223.957793 -88.837801 
L 223.293323 -90.840518 
L 222.602664 -92.843235 
L 221.888084 -94.845951 
L 221.150754 -96.848668 
L 220.39077 -98.851385 
L 219.607362 -100.854102 
L 218.799281 -102.856819 
L 217.965341 -104.859536 
L 217.105077 -106.862253 
L 216.219434 -108.86497 
L 215.311412 -110.867687 
L 214.386571 -112.870404 
L 213.45331 -114.873121 
L 212.522855 -116.875838 
L 211.608927 -118.878555 
L 210.727103 -120.881272 
L 209.89392 -122.883989 
L 209.125822 -124.886706 
L 208.438078 -126.889422 
L 207.84378 -128.892139 
L 207.353067 -130.894856 
L 206.97264 -132.897573 
L 206.705611 -134.90029 
L 206.551687 -136.903007 
L 206.507607 -138.905724 
L 206.567757 -140.908441 
L 206.724839 -142.911158 
L 206.970485 -144.913875 
L 207.29574 -146.916592 
L 207.691363 -148.919309 
L 208.147952 -150.922026 
L 208.655923 -152.924743 
L 209.205431 -154.92746 
L 209.786297 -156.930177 
L 210.388036 -158.932894 
L 211.000033 -160.93561 
L 211.611897 -162.938327 
L 212.213962 -164.941044 
L 212.7979 -166.943761 
L 213.357338 -168.946478 
L 213.888406 -170.949195 
L 214.390096 -172.951912 
L 214.86437 -174.954629 
L 215.315976 -176.957346 
L 215.751963 -178.960063 
L 216.180941 -180.96278 
L 216.612179 -182.965497 
L 217.054629 -184.968214 
L 217.515999 -186.970931 
L 218.001983 -188.973648 
L 218.515702 -190.976365 
L 219.057437 -192.979082 
L 219.624618 -194.981798 
L 220.212081 -196.984515 
L 220.812506 -198.987232 
L 221.417011 -200.989949 
L 222.015807 -202.992666 
L 222.598879 -204.995383 
L 223.156643 -206.9981 
L 223.68053 -209.000817 
L 224.163504 -211.003534 
L 224.600453 -213.006251 
L 224.988468 -215.008968 
L 225.32697 -217.011685 
L 225.61769 -219.014402 
L 225.864488 -221.017119 
L 226.073013 -223.019836 
L 226.25025 -225.022553 
L 226.403958 -227.025269 
L 226.54208 -229.027986 
L 226.67216 -231.030703 
L 226.80083 -233.03342 
L 226.933415 -235.036137 
L 227.073683 -237.038854 
L 227.22375 -239.041571 
L 227.384144 -241.044288 
L 227.553989 -243.047005 
L 227.731281 -245.049722 
L 227.913219 -247.052439 
L 228.096543 -249.055156 
L 231.305957 -249.055156 
L 231.305957 -249.055156 
L 231.489281 -247.052439 
L 231.671219 -245.049722 
L 231.848511 -243.047005 
L 232.018356 -241.044288 
L 232.17875 -239.041571 
L 232.328817 -237.038854 
L 232.469085 -235.036137 
L 232.60167 -233.03342 
L 232.73034 -231.030703 
L 232.86042 -229.027986 
L 232.998542 -227.025269 
L 233.15225 -225.022553 
L 233.329487 -223.019836 
L 233.538012 -221.017119 
L 233.78481 -219.014402 
L 234.07553 -217.011685 
L 234.414032 -215.008968 
L 234.802047 -213.006251 
L 235.238996 -211.003534 
L 235.72197 -209.000817 
L 236.245857 -206.9981 
L 236.803621 -204.995383 
L 237.386693 -202.992666 
L 237.985489 -200.989949 
L 238.589994 -198.987232 
L 239.190419 -196.984515 
L 239.777882 -194.981798 
L 240.345063 -192.979082 
L 240.886798 -190.976365 
L 241.400517 -188.973648 
L 241.886501 -186.970931 
L 242.347871 -184.968214 
L 242.790321 -182.965497 
L 243.221559 -180.96278 
L 243.650537 -178.960063 
L 244.086524 -176.957346 
L 244.53813 -174.954629 
L 245.012404 -172.951912 
L 245.514094 -170.949195 
L 246.045162 -168.946478 
L 246.6046 -166.943761 
L 247.188538 -164.941044 
L 247.790603 -162.938327 
L 248.402467 -160.93561 
L 249.014464 -158.932894 
L 249.616203 -156.930177 
L 250.197069 -154.92746 
L 250.746577 -152.924743 
L 251.254548 -150.922026 
L 251.711137 -148.919309 
L 252.10676 -146.916592 
L 252.432015 -144.913875 
L 252.677661 -142.911158 
L 252.834743 -140.908441 
L 252.894893 -138.905724 
L 252.850813 -136.903007 
L 252.696889 -134.90029 
L 252.42986 -132.897573 
L 252.049433 -130.894856 
L 251.55872 -128.892139 
L 250.964422 -126.889422 
L 250.276678 -124.886706 
L 249.50858 -122.883989 
L 248.675397 -120.881272 
L 247.793573 -118.878555 
L 246.879645 -116.875838 
L 245.94919 -114.873121 
L 245.015929 -112.870404 
L 244.091088 -110.867687 
L 243.183066 -108.86497 
L 242.297423 -106.862253 
L 241.437159 -104.859536 
L 240.603219 -102.856819 
L 239.795138 -100.854102 
L 239.01173 -98.851385 
L 238.251746 -96.848668 
L 237.514416 -94.845951 
L 236.799836 -92.843235 
L 236.109177 -90.840518 
L 235.444707 -88.837801 
L 234.809661 -86.835084 
L 234.207968 -84.832367 
L 233.643905 -82.82965 
L 233.1217 -80.826933 
L 232.645136 -78.824216 
L 232.21719 -76.821499 
L 231.839744 -74.818782 
L 231.513378 -72.816065 
L 231.237262 -70.813348 
L 231.009161 -68.810631 
L 230.825527 -66.807914 
L 230.681691 -64.805197 
L 230.572121 -62.80248 
L 230.490742 -60.799763 
L 230.431276 -58.797047 
L 230.387589 -56.79433 
L 230.354018 -54.791613 
L 230.325639 -52.788896 
L 230.298472 -50.786179 
z
" style="stroke: #2f2f2f; stroke-width: 0.75"/>
    </defs>
    <g clip-path="url(#p846c097b80)">
     <use xlink:href="#m43cc3bacbc" x="0" y="301.06575" style="fill: #e0b898; stroke: #2f2f2f; stroke-width: 0.75"/>
    </g>
   </g>
   <g id="FillBetweenPolyCollection_5">
    <defs>
     <path id="m7e9120cbde" d="M 281.799633 -75.91493 
L 280.685724 -75.91493 
L 280.682629 -77.901103 
L 280.686817 -79.887275 
L 280.695208 -81.873448 
L 280.703529 -83.85962 
L 280.706452 -85.845793 
L 280.697799 -87.831965 
L 280.670799 -89.818138 
L 280.618378 -91.80431 
L 280.533468 -93.790483 
L 280.409334 -95.776655 
L 280.239902 -97.762828 
L 280.020092 -99.749 
L 279.746125 -101.735172 
L 279.415796 -103.721345 
L 279.028666 -105.707517 
L 278.586144 -107.69369 
L 278.091414 -109.679862 
L 277.549177 -111.666035 
L 276.965208 -113.652207 
L 276.345729 -115.63838 
L 275.696671 -117.624552 
L 275.022899 -119.610725 
L 274.327517 -121.596897 
L 273.611381 -123.583069 
L 272.872925 -125.569242 
L 272.108395 -127.555414 
L 271.312517 -129.541587 
L 270.479565 -131.527759 
L 269.604706 -133.513932 
L 268.685478 -135.500104 
L 267.723151 -137.486277 
L 266.723768 -139.472449 
L 265.69865 -141.458622 
L 264.664241 -143.444794 
L 263.641222 -145.430966 
L 262.652991 -147.417139 
L 261.723644 -149.403311 
L 260.875747 -151.389484 
L 260.128188 -153.375656 
L 259.494427 -155.361829 
L 258.981409 -157.348001 
L 258.5893 -159.334174 
L 258.312084 -161.320346 
L 258.138929 -163.306519 
L 258.056087 -165.292691 
L 258.049036 -167.278863 
L 258.104514 -169.265036 
L 258.21215 -171.251208 
L 258.365449 -173.237381 
L 258.562022 -175.223553 
L 258.803091 -177.209726 
L 259.092393 -179.195898 
L 259.434718 -181.182071 
L 259.83436 -183.168243 
L 260.293738 -185.154416 
L 260.812411 -187.140588 
L 261.386618 -189.12676 
L 262.009386 -191.112933 
L 262.671137 -193.099105 
L 263.360671 -195.085278 
L 264.066337 -197.07145 
L 264.777197 -199.057623 
L 265.484012 -201.043795 
L 266.179909 -203.029968 
L 266.860688 -205.01614 
L 267.524724 -207.002313 
L 268.17257 -208.988485 
L 268.806304 -210.974657 
L 269.428778 -212.96083 
L 270.042854 -214.947002 
L 270.650731 -216.933175 
L 271.25344 -218.919347 
L 271.850537 -220.90552 
L 272.440017 -222.891692 
L 273.018441 -224.877865 
L 273.581243 -226.864037 
L 274.123201 -228.85021 
L 274.638995 -230.836382 
L 275.123813 -232.822555 
L 275.573918 -234.808727 
L 275.987111 -236.794899 
L 276.363017 -238.781072 
L 276.703149 -240.767244 
L 277.010738 -242.753417 
L 277.290338 -244.739589 
L 277.547271 -246.725762 
L 277.787002 -248.711934 
L 278.014528 -250.698107 
L 278.233888 -252.684279 
L 278.447854 -254.670452 
L 278.657844 -256.656624 
L 278.864042 -258.642796 
L 279.065676 -260.628969 
L 279.261397 -262.615141 
L 279.44966 -264.601314 
L 279.629058 -266.587486 
L 279.798543 -268.573659 
L 279.957515 -270.559831 
L 280.105808 -272.546004 
L 282.379549 -272.546004 
L 282.379549 -272.546004 
L 282.527842 -270.559831 
L 282.686815 -268.573659 
L 282.856299 -266.587486 
L 283.035697 -264.601314 
L 283.22396 -262.615141 
L 283.419681 -260.628969 
L 283.621315 -258.642796 
L 283.827513 -256.656624 
L 284.037504 -254.670452 
L 284.251469 -252.684279 
L 284.470829 -250.698107 
L 284.698355 -248.711934 
L 284.938086 -246.725762 
L 285.195019 -244.739589 
L 285.474619 -242.753417 
L 285.782208 -240.767244 
L 286.12234 -238.781072 
L 286.498246 -236.794899 
L 286.911439 -234.808727 
L 287.361544 -232.822555 
L 287.846362 -230.836382 
L 288.362156 -228.85021 
L 288.904114 -226.864037 
L 289.466916 -224.877865 
L 290.04534 -222.891692 
L 290.63482 -220.90552 
L 291.231917 -218.919347 
L 291.834626 -216.933175 
L 292.442503 -214.947002 
L 293.056579 -212.96083 
L 293.679054 -210.974657 
L 294.312788 -208.988485 
L 294.960633 -207.002313 
L 295.62467 -205.01614 
L 296.305448 -203.029968 
L 297.001346 -201.043795 
L 297.70816 -199.057623 
L 298.41902 -197.07145 
L 299.124686 -195.085278 
L 299.814221 -193.099105 
L 300.475971 -191.112933 
L 301.098739 -189.12676 
L 301.672946 -187.140588 
L 302.191619 -185.154416 
L 302.650997 -183.168243 
L 303.050639 -181.182071 
L 303.392964 -179.195898 
L 303.682266 -177.209726 
L 303.923335 -175.223553 
L 304.119908 -173.237381 
L 304.273207 -171.251208 
L 304.380843 -169.265036 
L 304.436321 -167.278863 
L 304.42927 -165.292691 
L 304.346428 -163.306519 
L 304.173273 -161.320346 
L 303.896057 -159.334174 
L 303.503948 -157.348001 
L 302.99093 -155.361829 
L 302.357169 -153.375656 
L 301.60961 -151.389484 
L 300.761713 -149.403311 
L 299.832366 -147.417139 
L 298.844135 -145.430966 
L 297.821116 -143.444794 
L 296.786707 -141.458622 
L 295.761589 -139.472449 
L 294.762206 -137.486277 
L 293.799879 -135.500104 
L 292.880651 -133.513932 
L 292.005793 -131.527759 
L 291.17284 -129.541587 
L 290.376962 -127.555414 
L 289.612432 -125.569242 
L 288.873976 -123.583069 
L 288.15784 -121.596897 
L 287.462458 -119.610725 
L 286.788686 -117.624552 
L 286.139628 -115.63838 
L 285.520149 -113.652207 
L 284.93618 -111.666035 
L 284.393943 -109.679862 
L 283.899213 -107.69369 
L 283.456691 -105.707517 
L 283.069561 -103.721345 
L 282.739232 -101.735172 
L 282.465265 -99.749 
L 282.245455 -97.762828 
L 282.076024 -95.776655 
L 281.951889 -93.790483 
L 281.866979 -91.80431 
L 281.814558 -89.818138 
L 281.787558 -87.831965 
L 281.778905 -85.845793 
L 281.781828 -83.85962 
L 281.790149 -81.873448 
L 281.79854 -79.887275 
L 281.802728 -77.901103 
L 281.799633 -75.91493 
z
" style="stroke: #2f2f2f; stroke-width: 0.75"/>
    </defs>
    <g clip-path="url(#p846c097b80)">
     <use xlink:href="#m7e9120cbde" x="0" y="301.06575" style="fill: #148a6a; stroke: #2f2f2f; stroke-width: 0.75"/>
    </g>
   </g>
   <g id="FillBetweenPolyCollection_6">
    <defs>
     <path id="md4b00a9ca5" d="M 333.350052 -65.569829 
L 332.218162 -65.569829 
L 332.207231 -67.566433 
L 332.200472 -69.563037 
L 332.194412 -71.559642 
L 332.184478 -73.556246 
L 332.165164 -75.55285 
L 332.130286 -77.549455 
L 332.073282 -79.546059 
L 331.987542 -81.542663 
L 331.86675 -83.539267 
L 331.705211 -85.535872 
L 331.498154 -87.532476 
L 331.241977 -89.52908 
L 330.93444 -91.525684 
L 330.574769 -93.522289 
L 330.163658 -95.518893 
L 329.703166 -97.515497 
L 329.196473 -99.512102 
L 328.647534 -101.508706 
L 328.060623 -103.50531 
L 327.439816 -105.501914 
L 326.788484 -107.498519 
L 326.108854 -109.495123 
L 325.401717 -111.491727 
L 324.666375 -113.488332 
L 323.900841 -115.484936 
L 323.102342 -117.48154 
L 322.268059 -119.478144 
L 321.396052 -121.474749 
L 320.486234 -123.471353 
L 319.541265 -125.467957 
L 318.567205 -127.464562 
L 317.573821 -129.461166 
L 316.574443 -131.45777 
L 315.585375 -133.454374 
L 314.624882 -135.450979 
L 313.711894 -137.447583 
L 312.864562 -139.444187 
L 312.098889 -141.440791 
L 311.427582 -143.437396 
L 310.859315 -145.434 
L 310.398466 -147.430604 
L 310.045346 -149.427209 
L 309.796874 -151.423813 
L 309.647533 -153.420417 
L 309.590464 -155.417021 
L 309.618491 -157.413626 
L 309.724918 -159.41023 
L 309.904 -161.406834 
L 310.151028 -163.403439 
L 310.462077 -165.400043 
L 310.833498 -167.396647 
L 311.261308 -169.393251 
L 311.740606 -171.389856 
L 312.265178 -173.38646 
L 312.827353 -175.383064 
L 313.418191 -177.379669 
L 314.027955 -179.376273 
L 314.646821 -181.372877 
L 315.265703 -183.369481 
L 315.877073 -185.366086 
L 316.475632 -187.36269 
L 317.058738 -189.359294 
L 317.626504 -191.355898 
L 318.181554 -193.352503 
L 318.728461 -195.349107 
L 319.272957 -197.345711 
L 319.821015 -199.342316 
L 320.377942 -201.33892 
L 320.947594 -203.335524 
L 321.531808 -205.332128 
L 322.130103 -207.328733 
L 322.73966 -209.325337 
L 323.355557 -211.321941 
L 323.971203 -213.318546 
L 324.578901 -215.31515 
L 325.170492 -217.311754 
L 325.737991 -219.308358 
L 326.274199 -221.304963 
L 326.773229 -223.301567 
L 327.230926 -225.298171 
L 327.64514 -227.294775 
L 328.015842 -229.29138 
L 328.345057 -231.287984 
L 328.636615 -233.284588 
L 328.895746 -235.281193 
L 329.128552 -237.277797 
L 329.34142 -239.274401 
L 329.540447 -241.271005 
L 329.73094 -243.26761 
L 329.917059 -245.264214 
L 330.101634 -247.260818 
L 330.286153 -249.257423 
L 330.470909 -251.254027 
L 330.655262 -253.250631 
L 330.837946 -255.247235 
L 331.017381 -257.24384 
L 331.191932 -259.240444 
L 331.360096 -261.237048 
L 331.520604 -263.233653 
L 334.047611 -263.233653 
L 334.047611 -263.233653 
L 334.208118 -261.237048 
L 334.376283 -259.240444 
L 334.550833 -257.24384 
L 334.730268 -255.247235 
L 334.912952 -253.250631 
L 335.097305 -251.254027 
L 335.282062 -249.257423 
L 335.46658 -247.260818 
L 335.651155 -245.264214 
L 335.837274 -243.26761 
L 336.027767 -241.271005 
L 336.226794 -239.274401 
L 336.439663 -237.277797 
L 336.672469 -235.281193 
L 336.931599 -233.284588 
L 337.223157 -231.287984 
L 337.552372 -229.29138 
L 337.923074 -227.294775 
L 338.337289 -225.298171 
L 338.794985 -223.301567 
L 339.294016 -221.304963 
L 339.830224 -219.308358 
L 340.397722 -217.311754 
L 340.989313 -215.31515 
L 341.597012 -213.318546 
L 342.212657 -211.321941 
L 342.828554 -209.325337 
L 343.438111 -207.328733 
L 344.036406 -205.332128 
L 344.62062 -203.335524 
L 345.190272 -201.33892 
L 345.747199 -199.342316 
L 346.295257 -197.345711 
L 346.839753 -195.349107 
L 347.38666 -193.352503 
L 347.94171 -191.355898 
L 348.509476 -189.359294 
L 349.092583 -187.36269 
L 349.691141 -185.366086 
L 350.302511 -183.369481 
L 350.921393 -181.372877 
L 351.540259 -179.376273 
L 352.150023 -177.379669 
L 352.740861 -175.383064 
L 353.303036 -173.38646 
L 353.827608 -171.389856 
L 354.306907 -169.393251 
L 354.734716 -167.396647 
L 355.106138 -165.400043 
L 355.417186 -163.403439 
L 355.664215 -161.406834 
L 355.843297 -159.41023 
L 355.949724 -157.413626 
L 355.97775 -155.417021 
L 355.920681 -153.420417 
L 355.771341 -151.423813 
L 355.522868 -149.427209 
L 355.169749 -147.430604 
L 354.708899 -145.434 
L 354.140632 -143.437396 
L 353.469326 -141.440791 
L 352.703652 -139.444187 
L 351.856321 -137.447583 
L 350.943332 -135.450979 
L 349.982839 -133.454374 
L 348.993771 -131.45777 
L 347.994393 -129.461166 
L 347.001009 -127.464562 
L 346.026949 -125.467957 
L 345.08198 -123.471353 
L 344.172163 -121.474749 
L 343.300156 -119.478144 
L 342.465873 -117.48154 
L 341.667373 -115.484936 
L 340.90184 -113.488332 
L 340.166497 -111.491727 
L 339.45936 -109.495123 
L 338.77973 -107.498519 
L 338.128399 -105.501914 
L 337.507592 -103.50531 
L 336.92068 -101.508706 
L 336.371741 -99.512102 
L 335.865049 -97.515497 
L 335.404556 -95.518893 
L 334.993446 -93.522289 
L 334.633774 -91.525684 
L 334.326237 -89.52908 
L 334.07006 -87.532476 
L 333.863003 -85.535872 
L 333.701465 -83.539267 
L 333.580672 -81.542663 
L 333.494932 -79.546059 
L 333.437928 -77.549455 
L 333.40305 -75.55285 
L 333.383737 -73.556246 
L 333.373802 -71.559642 
L 333.367743 -69.563037 
L 333.360983 -67.566433 
L 333.350052 -65.569829 
z
" style="stroke: #2f2f2f; stroke-width: 0.75"/>
    </defs>
    <g clip-path="url(#p846c097b80)">
     <use xlink:href="#md4b00a9ca5" x="0" y="301.06575" style="fill: #95cabc; stroke: #2f2f2f; stroke-width: 0.75"/>
    </g>
   </g>
   <g id="FillBetweenPolyCollection_7">
    <defs>
     <path id="m2947e6c6b5" d="M 384.919784 -116.245232 
L 383.731287 -116.245232 
L 383.704045 -117.991127 
L 383.674538 -119.737022 
L 383.637281 -121.482917 
L 383.585451 -123.228812 
L 383.511207 -124.974707 
L 383.406136 -126.720602 
L 383.261779 -128.466497 
L 383.070207 -130.212392 
L 382.82457 -131.958287 
L 382.519558 -133.704182 
L 382.151734 -135.450077 
L 381.719668 -137.195972 
L 381.223865 -138.941867 
L 380.666496 -140.687762 
L 380.050958 -142.433657 
L 379.381345 -144.179553 
L 378.661919 -145.925448 
L 377.896675 -147.671343 
L 377.089091 -149.417238 
L 376.242109 -151.163133 
L 375.358373 -152.909028 
L 374.440668 -154.654923 
L 373.492487 -156.400818 
L 372.518611 -158.146713 
L 371.525583 -159.892608 
L 370.521962 -161.638503 
L 369.518305 -163.384398 
L 368.526836 -165.130293 
L 367.560856 -166.876188 
L 366.633941 -168.622083 
L 365.759057 -170.367978 
L 364.947687 -172.113873 
L 364.209108 -173.859768 
L 363.549879 -175.605663 
L 362.973642 -177.351558 
L 362.481233 -179.097453 
L 362.071118 -180.843348 
L 361.740084 -182.589243 
L 361.48409 -184.335138 
L 361.299183 -186.081034 
L 361.182306 -187.826929 
L 361.131893 -189.572824 
L 361.148146 -191.318719 
L 361.232936 -193.064614 
L 361.389346 -194.810509 
L 361.620942 -196.556404 
L 361.93089 -198.302299 
L 362.321073 -200.048194 
L 362.791368 -201.794089 
L 363.339177 -203.539984 
L 363.959277 -205.285879 
L 364.643979 -207.031774 
L 365.383541 -208.777669 
L 366.166738 -210.523564 
L 366.981502 -212.269459 
L 367.81553 -214.015354 
L 368.656821 -215.761249 
L 369.494109 -217.507144 
L 370.317188 -219.253039 
L 371.11715 -220.998934 
L 371.886541 -222.744829 
L 372.619461 -224.490724 
L 373.311593 -226.236619 
L 373.96018 -227.982514 
L 374.563931 -229.72841 
L 375.122886 -231.474305 
L 375.638238 -233.2202 
L 376.112143 -234.966095 
L 376.547531 -236.71199 
L 376.947939 -238.457885 
L 377.317367 -240.20378 
L 377.660153 -241.949675 
L 377.980841 -243.69557 
L 378.284042 -245.441465 
L 378.574276 -247.18736 
L 378.855781 -248.933255 
L 379.132325 -250.67915 
L 379.407018 -252.425045 
L 379.682169 -254.17094 
L 379.959186 -255.916835 
L 380.23854 -257.66273 
L 380.519788 -259.408625 
L 380.801648 -261.15452 
L 381.08211 -262.900415 
L 381.358582 -264.64631 
L 381.628047 -266.392205 
L 381.887262 -268.1381 
L 382.132963 -269.883995 
L 382.362109 -271.629891 
L 382.572121 -273.375786 
L 382.761131 -275.121681 
L 382.928175 -276.867576 
L 383.073322 -278.613471 
L 383.197702 -280.359366 
L 383.303416 -282.105261 
L 383.393332 -283.851156 
L 383.470789 -285.597051 
L 383.53925 -287.342946 
L 383.60195 -289.088841 
L 385.049121 -289.088841 
L 385.049121 -289.088841 
L 385.111821 -287.342946 
L 385.180282 -285.597051 
L 385.257739 -283.851156 
L 385.347655 -282.105261 
L 385.453369 -280.359366 
L 385.57775 -278.613471 
L 385.722896 -276.867576 
L 385.88994 -275.121681 
L 386.07895 -273.375786 
L 386.288963 -271.629891 
L 386.518108 -269.883995 
L 386.76381 -268.1381 
L 387.023024 -266.392205 
L 387.29249 -264.64631 
L 387.568961 -262.900415 
L 387.849424 -261.15452 
L 388.131284 -259.408625 
L 388.412531 -257.66273 
L 388.691885 -255.916835 
L 388.968902 -254.17094 
L 389.244053 -252.425045 
L 389.518747 -250.67915 
L 389.79529 -248.933255 
L 390.076795 -247.18736 
L 390.367029 -245.441465 
L 390.670231 -243.69557 
L 390.990918 -241.949675 
L 391.333704 -240.20378 
L 391.703133 -238.457885 
L 392.103541 -236.71199 
L 392.538928 -234.966095 
L 393.012833 -233.2202 
L 393.528186 -231.474305 
L 394.087141 -229.72841 
L 394.690891 -227.982514 
L 395.339478 -226.236619 
L 396.031611 -224.490724 
L 396.764531 -222.744829 
L 397.533922 -220.998934 
L 398.333883 -219.253039 
L 399.156962 -217.507144 
L 399.99425 -215.761249 
L 400.835541 -214.015354 
L 401.669569 -212.269459 
L 402.484333 -210.523564 
L 403.267531 -208.777669 
L 404.007092 -207.031774 
L 404.691794 -205.285879 
L 405.311894 -203.539984 
L 405.859703 -201.794089 
L 406.329999 -200.048194 
L 406.720182 -198.302299 
L 407.030129 -196.556404 
L 407.261725 -194.810509 
L 407.418136 -193.064614 
L 407.502925 -191.318719 
L 407.519179 -189.572824 
L 407.468766 -187.826929 
L 407.351888 -186.081034 
L 407.166981 -184.335138 
L 406.910988 -182.589243 
L 406.579953 -180.843348 
L 406.169839 -179.097453 
L 405.67743 -177.351558 
L 405.101192 -175.605663 
L 404.441963 -173.859768 
L 403.703384 -172.113873 
L 402.892015 -170.367978 
L 402.01713 -168.622083 
L 401.090215 -166.876188 
L 400.124235 -165.130293 
L 399.132767 -163.384398 
L 398.129109 -161.638503 
L 397.125488 -159.892608 
L 396.13246 -158.146713 
L 395.158585 -156.400818 
L 394.210403 -154.654923 
L 393.292698 -152.909028 
L 392.408962 -151.163133 
L 391.56198 -149.417238 
L 390.754396 -147.671343 
L 389.989153 -145.925448 
L 389.269727 -144.179553 
L 388.600113 -142.433657 
L 387.984575 -140.687762 
L 387.427206 -138.941867 
L 386.931404 -137.195972 
L 386.499337 -135.450077 
L 386.131514 -133.704182 
L 385.826502 -131.958287 
L 385.580864 -130.212392 
L 385.389292 -128.466497 
L 385.244936 -126.720602 
L 385.139864 -124.974707 
L 385.065621 -123.228812 
L 385.01379 -121.482917 
L 384.976533 -119.737022 
L 384.947027 -117.991127 
L 384.919784 -116.245232 
z
" style="stroke: #2f2f2f; stroke-width: 0.75"/>
    </defs>
    <g clip-path="url(#p846c097b80)">
     <use xlink:href="#m2947e6c6b5" x="0" y="301.06575" style="fill: #c9941d; stroke: #2f2f2f; stroke-width: 0.75"/>
    </g>
   </g>
   <g id="matplotlib.axis_1">
    <g id="xtick_1">
     <g id="text_1">
      <!-- MVT -->
      <g transform="translate(64.288683 276.590438) scale(0.1 -0.1)">
       <defs>
        <path id="DejaVuSans-4d" d="M 628 4666 
L 1569 4666 
L 2759 1491 
L 3956 4666 
L 4897 4666 
L 4897 0 
L 4281 0 
L 4281 4097 
L 3078 897 
L 2444 897 
L 1241 4097 
L 1241 0 
L 628 0 
L 628 4666 
z
" transform="scale(0.015625)"/>
        <path id="DejaVuSans-56" d="M 1831 0 
L 50 4666 
L 709 4666 
L 2188 738 
L 3669 4666 
L 4325 4666 
L 2547 0 
L 1831 0 
z
" transform="scale(0.015625)"/>
        <path id="DejaVuSans-54" d="M -19 4666 
L 3928 4666 
L 3928 4134 
L 2272 4134 
L 2272 0 
L 1638 0 
L 1638 4134 
L -19 4134 
L -19 4666 
z
" transform="scale(0.015625)"/>
       </defs>
       <use xlink:href="#DejaVuSans-4d"/>
       <use xlink:href="#DejaVuSans-56" transform="translate(86.279297 0)"/>
       <use xlink:href="#DejaVuSans-54" transform="translate(154.6875 0)"/>
      </g>
     </g>
    </g>
    <g id="xtick_2">
     <g id="text_2">
      <!-- MVT -->
      <g transform="translate(115.830112 276.590438) scale(0.1 -0.1)">
       <use xlink:href="#DejaVuSans-4d"/>
       <use xlink:href="#DejaVuSans-56" transform="translate(86.279297 0)"/>
       <use xlink:href="#DejaVuSans-54" transform="translate(154.6875 0)"/>
      </g>
      <!-- (SIMD) -->
      <g transform="translate(109.903549 287.78825) scale(0.1 -0.1)">
       <defs>
        <path id="DejaVuSans-28" d="M 1984 4856 
Q 1566 4138 1362 3434 
Q 1159 2731 1159 2009 
Q 1159 1288 1364 580 
Q 1569 -128 1984 -844 
L 1484 -844 
Q 1016 -109 783 600 
Q 550 1309 550 2009 
Q 550 2706 781 3412 
Q 1013 4119 1484 4856 
L 1984 4856 
z
" transform="scale(0.015625)"/>
        <path id="DejaVuSans-53" d="M 3425 4513 
L 3425 3897 
Q 3066 4069 2747 4153 
Q 2428 4238 2131 4238 
Q 1616 4238 1336 4038 
Q 1056 3838 1056 3469 
Q 1056 3159 1242 3001 
Q 1428 2844 1947 2747 
L 2328 2669 
Q 3034 2534 3370 2195 
Q 3706 1856 3706 1288 
Q 3706 609 3251 259 
Q 2797 -91 1919 -91 
Q 1588 -91 1214 -16 
Q 841 59 441 206 
L 441 856 
Q 825 641 1194 531 
Q 1563 422 1919 422 
Q 2459 422 2753 634 
Q 3047 847 3047 1241 
Q 3047 1584 2836 1778 
Q 2625 1972 2144 2069 
L 1759 2144 
Q 1053 2284 737 2584 
Q 422 2884 422 3419 
Q 422 4038 858 4394 
Q 1294 4750 2059 4750 
Q 2388 4750 2728 4690 
Q 3069 4631 3425 4513 
z
" transform="scale(0.015625)"/>
        <path id="DejaVuSans-49" d="M 628 4666 
L 1259 4666 
L 1259 0 
L 628 0 
L 628 4666 
z
" transform="scale(0.015625)"/>
        <path id="DejaVuSans-44" d="M 1259 4147 
L 1259 519 
L 2022 519 
Q 2988 519 3436 956 
Q 3884 1394 3884 2338 
Q 3884 3275 3436 3711 
Q 2988 4147 2022 4147 
L 1259 4147 
z
M 628 4666 
L 1925 4666 
Q 3281 4666 3915 4102 
Q 4550 3538 4550 2338 
Q 4550 1131 3912 565 
Q 3275 0 1925 0 
L 628 0 
L 628 4666 
z
" transform="scale(0.015625)"/>
        <path id="DejaVuSans-29" d="M 513 4856 
L 1013 4856 
Q 1481 4119 1714 3412 
Q 1947 2706 1947 2009 
Q 1947 1309 1714 600 
Q 1481 -109 1013 -844 
L 513 -844 
Q 928 -128 1133 580 
Q 1338 1288 1338 2009 
Q 1338 2731 1133 3434 
Q 928 4138 513 4856 
z
" transform="scale(0.015625)"/>
       </defs>
       <use xlink:href="#DejaVuSans-28"/>
       <use xlink:href="#DejaVuSans-53" transform="translate(39.013672 0)"/>
       <use xlink:href="#DejaVuSans-49" transform="translate(102.490234 0)"/>
       <use xlink:href="#DejaVuSans-4d" transform="translate(131.982422 0)"/>
       <use xlink:href="#DejaVuSans-44" transform="translate(218.261719 0)"/>
       <use xlink:href="#DejaVuSans-29" transform="translate(295.263672 0)"/>
      </g>
     </g>
    </g>
    <g id="xtick_3">
     <g id="text_3">
      <!-- Mutable -->
      <g transform="translate(158.012946 276.590438) scale(0.1 -0.1)">
       <defs>
        <path id="DejaVuSans-75" d="M 544 1381 
L 544 3500 
L 1119 3500 
L 1119 1403 
Q 1119 906 1312 657 
Q 1506 409 1894 409 
Q 2359 409 2629 706 
Q 2900 1003 2900 1516 
L 2900 3500 
L 3475 3500 
L 3475 0 
L 2900 0 
L 2900 538 
Q 2691 219 2414 64 
Q 2138 -91 1772 -91 
Q 1169 -91 856 284 
Q 544 659 544 1381 
z
M 1991 3584 
L 1991 3584 
z
" transform="scale(0.015625)"/>
        <path id="DejaVuSans-74" d="M 1172 4494 
L 1172 3500 
L 2356 3500 
L 2356 3053 
L 1172 3053 
L 1172 1153 
Q 1172 725 1289 603 
Q 1406 481 1766 481 
L 2356 481 
L 2356 0 
L 1766 0 
Q 1100 0 847 248 
Q 594 497 594 1153 
L 594 3053 
L 172 3053 
L 172 3500 
L 594 3500 
L 594 4494 
L 1172 4494 
z
" transform="scale(0.015625)"/>
        <path id="DejaVuSans-61" d="M 2194 1759 
Q 1497 1759 1228 1600 
Q 959 1441 959 1056 
Q 959 750 1161 570 
Q 1363 391 1709 391 
Q 2188 391 2477 730 
Q 2766 1069 2766 1631 
L 2766 1759 
L 2194 1759 
z
M 3341 1997 
L 3341 0 
L 2766 0 
L 2766 531 
Q 2569 213 2275 61 
Q 1981 -91 1556 -91 
Q 1019 -91 701 211 
Q 384 513 384 1019 
Q 384 1609 779 1909 
Q 1175 2209 1959 2209 
L 2766 2209 
L 2766 2266 
Q 2766 2663 2505 2880 
Q 2244 3097 1772 3097 
Q 1472 3097 1187 3025 
Q 903 2953 641 2809 
L 641 3341 
Q 956 3463 1253 3523 
Q 1550 3584 1831 3584 
Q 2591 3584 2966 3190 
Q 3341 2797 3341 1997 
z
" transform="scale(0.015625)"/>
        <path id="DejaVuSans-62" d="M 3116 1747 
Q 3116 2381 2855 2742 
Q 2594 3103 2138 3103 
Q 1681 3103 1420 2742 
Q 1159 2381 1159 1747 
Q 1159 1113 1420 752 
Q 1681 391 2138 391 
Q 2594 391 2855 752 
Q 3116 1113 3116 1747 
z
M 1159 2969 
Q 1341 3281 1617 3432 
Q 1894 3584 2278 3584 
Q 2916 3584 3314 3078 
Q 3713 2572 3713 1747 
Q 3713 922 3314 415 
Q 2916 -91 2278 -91 
Q 1894 -91 1617 61 
Q 1341 213 1159 525 
L 1159 0 
L 581 0 
L 581 4863 
L 1159 4863 
L 1159 2969 
z
" transform="scale(0.015625)"/>
        <path id="DejaVuSans-6c" d="M 603 4863 
L 1178 4863 
L 1178 0 
L 603 0 
L 603 4863 
z
" transform="scale(0.015625)"/>
        <path id="DejaVuSans-65" d="M 3597 1894 
L 3597 1613 
L 953 1613 
Q 991 1019 1311 708 
Q 1631 397 2203 397 
Q 2534 397 2845 478 
Q 3156 559 3463 722 
L 3463 178 
Q 3153 47 2828 -22 
Q 2503 -91 2169 -91 
Q 1331 -91 842 396 
Q 353 884 353 1716 
Q 353 2575 817 3079 
Q 1281 3584 2069 3584 
Q 2775 3584 3186 3129 
Q 3597 2675 3597 1894 
z
M 3022 2063 
Q 3016 2534 2758 2815 
Q 2500 3097 2075 3097 
Q 1594 3097 1305 2825 
Q 1016 2553 972 2059 
L 3022 2063 
z
" transform="scale(0.015625)"/>
       </defs>
       <use xlink:href="#DejaVuSans-4d"/>
       <use xlink:href="#DejaVuSans-75" transform="translate(86.279297 0)"/>
       <use xlink:href="#DejaVuSans-74" transform="translate(149.658203 0)"/>
       <use xlink:href="#DejaVuSans-61" transform="translate(188.867188 0)"/>
       <use xlink:href="#DejaVuSans-62" transform="translate(250.146484 0)"/>
       <use xlink:href="#DejaVuSans-6c" transform="translate(313.623047 0)"/>
       <use xlink:href="#DejaVuSans-65" transform="translate(341.40625 0)"/>
      </g>
      <!-- MVT -->
      <g transform="translate(167.37154 287.78825) scale(0.1 -0.1)">
       <use xlink:href="#DejaVuSans-4d"/>
       <use xlink:href="#DejaVuSans-56" transform="translate(86.279297 0)"/>
       <use xlink:href="#DejaVuSans-54" transform="translate(154.6875 0)"/>
      </g>
     </g>
    </g>
    <g id="xtick_4">
     <g id="text_4">
      <!-- Mutable -->
      <g transform="translate(209.554375 276.590438) scale(0.1 -0.1)">
       <use xlink:href="#DejaVuSans-4d"/>
       <use xlink:href="#DejaVuSans-75" transform="translate(86.279297 0)"/>
       <use xlink:href="#DejaVuSans-74" transform="translate(149.658203 0)"/>
       <use xlink:href="#DejaVuSans-61" transform="translate(188.867188 0)"/>
       <use xlink:href="#DejaVuSans-62" transform="translate(250.146484 0)"/>
       <use xlink:href="#DejaVuSans-6c" transform="translate(313.623047 0)"/>
       <use xlink:href="#DejaVuSans-65" transform="translate(341.40625 0)"/>
      </g>
      <!-- MVT -->
      <g transform="translate(218.912969 287.78825) scale(0.1 -0.1)">
       <use xlink:href="#DejaVuSans-4d"/>
       <use xlink:href="#DejaVuSans-56" transform="translate(86.279297 0)"/>
       <use xlink:href="#DejaVuSans-54" transform="translate(154.6875 0)"/>
      </g>
      <!-- (SIMD) -->
      <g transform="translate(212.986406 298.986063) scale(0.1 -0.1)">
       <use xlink:href="#DejaVuSans-28"/>
       <use xlink:href="#DejaVuSans-53" transform="translate(39.013672 0)"/>
       <use xlink:href="#DejaVuSans-49" transform="translate(102.490234 0)"/>
       <use xlink:href="#DejaVuSans-4d" transform="translate(131.982422 0)"/>
       <use xlink:href="#DejaVuSans-44" transform="translate(218.261719 0)"/>
       <use xlink:href="#DejaVuSans-29" transform="translate(295.263672 0)"/>
      </g>
     </g>
    </g>
    <g id="xtick_5">
     <g id="text_5">
      <!-- CAPT -->
      <g transform="translate(268.26221 276.590438) scale(0.1 -0.1)">
       <defs>
        <path id="DejaVuSans-43" d="M 4122 4306 
L 4122 3641 
Q 3803 3938 3442 4084 
Q 3081 4231 2675 4231 
Q 1875 4231 1450 3742 
Q 1025 3253 1025 2328 
Q 1025 1406 1450 917 
Q 1875 428 2675 428 
Q 3081 428 3442 575 
Q 3803 722 4122 1019 
L 4122 359 
Q 3791 134 3420 21 
Q 3050 -91 2638 -91 
Q 1578 -91 968 557 
Q 359 1206 359 2328 
Q 359 3453 968 4101 
Q 1578 4750 2638 4750 
Q 3056 4750 3426 4639 
Q 3797 4528 4122 4306 
z
" transform="scale(0.015625)"/>
        <path id="DejaVuSans-41" d="M 2188 4044 
L 1331 1722 
L 3047 1722 
L 2188 4044 
z
M 1831 4666 
L 2547 4666 
L 4325 0 
L 3669 0 
L 3244 1197 
L 1141 1197 
L 716 0 
L 50 0 
L 1831 4666 
z
" transform="scale(0.015625)"/>
        <path id="DejaVuSans-50" d="M 1259 4147 
L 1259 2394 
L 2053 2394 
Q 2494 2394 2734 2622 
Q 2975 2850 2975 3272 
Q 2975 3691 2734 3919 
Q 2494 4147 2053 4147 
L 1259 4147 
z
M 628 4666 
L 2053 4666 
Q 2838 4666 3239 4311 
Q 3641 3956 3641 3272 
Q 3641 2581 3239 2228 
Q 2838 1875 2053 1875 
L 1259 1875 
L 1259 0 
L 628 0 
L 628 4666 
z
" transform="scale(0.015625)"/>
       </defs>
       <use xlink:href="#DejaVuSans-43"/>
       <use xlink:href="#DejaVuSans-41" transform="translate(69.824219 0)"/>
       <use xlink:href="#DejaVuSans-50" transform="translate(138.232422 0)"/>
       <use xlink:href="#DejaVuSans-54" transform="translate(198.535156 0)"/>
      </g>
     </g>
    </g>
    <g id="xtick_6">
     <g id="text_6">
      <!-- CAPT -->
      <g transform="translate(319.803638 276.590438) scale(0.1 -0.1)">
       <use xlink:href="#DejaVuSans-43"/>
       <use xlink:href="#DejaVuSans-41" transform="translate(69.824219 0)"/>
       <use xlink:href="#DejaVuSans-50" transform="translate(138.232422 0)"/>
       <use xlink:href="#DejaVuSans-54" transform="translate(198.535156 0)"/>
      </g>
      <!-- (SIMD) -->
      <g transform="translate(316.069263 287.78825) scale(0.1 -0.1)">
       <use xlink:href="#DejaVuSans-28"/>
       <use xlink:href="#DejaVuSans-53" transform="translate(39.013672 0)"/>
       <use xlink:href="#DejaVuSans-49" transform="translate(102.490234 0)"/>
       <use xlink:href="#DejaVuSans-4d" transform="translate(131.982422 0)"/>
       <use xlink:href="#DejaVuSans-44" transform="translate(218.261719 0)"/>
       <use xlink:href="#DejaVuSans-29" transform="translate(295.263672 0)"/>
      </g>
     </g>
    </g>
    <g id="xtick_7">
     <g id="text_7">
      <!-- kiddo -->
      <g transform="translate(370.633348 276.590438) scale(0.1 -0.1)">
       <defs>
        <path id="DejaVuSans-6b" d="M 581 4863 
L 1159 4863 
L 1159 1991 
L 2875 3500 
L 3609 3500 
L 1753 1863 
L 3688 0 
L 2938 0 
L 1159 1709 
L 1159 0 
L 581 0 
L 581 4863 
z
" transform="scale(0.015625)"/>
        <path id="DejaVuSans-69" d="M 603 3500 
L 1178 3500 
L 1178 0 
L 603 0 
L 603 3500 
z
M 603 4863 
L 1178 4863 
L 1178 4134 
L 603 4134 
L 603 4863 
z
" transform="scale(0.015625)"/>
        <path id="DejaVuSans-64" d="M 2906 2969 
L 2906 4863 
L 3481 4863 
L 3481 0 
L 2906 0 
L 2906 525 
Q 2725 213 2448 61 
Q 2172 -91 1784 -91 
Q 1150 -91 751 415 
Q 353 922 353 1747 
Q 353 2572 751 3078 
Q 1150 3584 1784 3584 
Q 2172 3584 2448 3432 
Q 2725 3281 2906 2969 
z
M 947 1747 
Q 947 1113 1208 752 
Q 1469 391 1925 391 
Q 2381 391 2643 752 
Q 2906 1113 2906 1747 
Q 2906 2381 2643 2742 
Q 2381 3103 1925 3103 
Q 1469 3103 1208 2742 
Q 947 2381 947 1747 
z
" transform="scale(0.015625)"/>
        <path id="DejaVuSans-6f" d="M 1959 3097 
Q 1497 3097 1228 2736 
Q 959 2375 959 1747 
Q 959 1119 1226 758 
Q 1494 397 1959 397 
Q 2419 397 2687 759 
Q 2956 1122 2956 1747 
Q 2956 2369 2687 2733 
Q 2419 3097 1959 3097 
z
M 1959 3584 
Q 2709 3584 3137 3096 
Q 3566 2609 3566 1747 
Q 3566 888 3137 398 
Q 2709 -91 1959 -91 
Q 1206 -91 779 398 
Q 353 888 353 1747 
Q 353 2609 779 3096 
Q 1206 3584 1959 3584 
z
" transform="scale(0.015625)"/>
       </defs>
       <use xlink:href="#DejaVuSans-6b"/>
       <use xlink:href="#DejaVuSans-69" transform="translate(57.910156 0)"/>
       <use xlink:href="#DejaVuSans-64" transform="translate(85.693359 0)"/>
       <use xlink:href="#DejaVuSans-64" transform="translate(149.169922 0)"/>
       <use xlink:href="#DejaVuSans-6f" transform="translate(212.646484 0)"/>
      </g>
     </g>
    </g>
   </g>
   <g id="matplotlib.axis_2">
    <g id="ytick_1">
     <g id="line2d_1">
      <defs>
       <path id="m5ee1c6dd3e" d="M 0 0 
L -3.5 0 
" style="stroke: #000000; stroke-width: 0.8"/>
      </defs>
      <g>
       <use xlink:href="#m5ee1c6dd3e" x="49.30625" y="251.515091" style="stroke: #000000; stroke-width: 0.8"/>
      </g>
     </g>
     <g id="text_8">
      <!-- 0.171 -->
      <g transform="translate(13.678125 255.31431) scale(0.1 -0.1)">
       <defs>
        <path id="DejaVuSans-30" d="M 2034 4250 
Q 1547 4250 1301 3770 
Q 1056 3291 1056 2328 
Q 1056 1369 1301 889 
Q 1547 409 2034 409 
Q 2525 409 2770 889 
Q 3016 1369 3016 2328 
Q 3016 3291 2770 3770 
Q 2525 4250 2034 4250 
z
M 2034 4750 
Q 2819 4750 3233 4129 
Q 3647 3509 3647 2328 
Q 3647 1150 3233 529 
Q 2819 -91 2034 -91 
Q 1250 -91 836 529 
Q 422 1150 422 2328 
Q 422 3509 836 4129 
Q 1250 4750 2034 4750 
z
" transform="scale(0.015625)"/>
        <path id="DejaVuSans-2e" d="M 684 794 
L 1344 794 
L 1344 0 
L 684 0 
L 684 794 
z
" transform="scale(0.015625)"/>
        <path id="DejaVuSans-31" d="M 794 531 
L 1825 531 
L 1825 4091 
L 703 3866 
L 703 4441 
L 1819 4666 
L 2450 4666 
L 2450 531 
L 3481 531 
L 3481 0 
L 794 0 
L 794 531 
z
" transform="scale(0.015625)"/>
        <path id="DejaVuSans-37" d="M 525 4666 
L 3525 4666 
L 3525 4397 
L 1831 0 
L 1172 0 
L 2766 4134 
L 525 4134 
L 525 4666 
z
" transform="scale(0.015625)"/>
       </defs>
       <use xlink:href="#DejaVuSans-30"/>
       <use xlink:href="#DejaVuSans-2e" transform="translate(63.623047 0)"/>
       <use xlink:href="#DejaVuSans-31" transform="translate(95.410156 0)"/>
       <use xlink:href="#DejaVuSans-37" transform="translate(159.033203 0)"/>
       <use xlink:href="#DejaVuSans-31" transform="translate(222.65625 0)"/>
      </g>
     </g>
    </g>
    <g id="ytick_2">
     <g id="line2d_2">
      <g>
       <use xlink:href="#m5ee1c6dd3e" x="49.30625" y="191.558106" style="stroke: #000000; stroke-width: 0.8"/>
      </g>
     </g>
     <g id="text_9">
      <!-- $\mathdefault{10^{0}}$ -->
      <g transform="translate(24.70625 195.357325) scale(0.1 -0.1)">
       <use xlink:href="#DejaVuSans-31" transform="translate(0 0.765625)"/>
       <use xlink:href="#DejaVuSans-30" transform="translate(63.623047 0.765625)"/>
       <use xlink:href="#DejaVuSans-30" transform="translate(128.203125 39.046875) scale(0.7)"/>
      </g>
     </g>
    </g>
    <g id="ytick_3">
     <g id="line2d_3">
      <g>
       <use xlink:href="#m5ee1c6dd3e" x="49.30625" y="113.320163" style="stroke: #000000; stroke-width: 0.8"/>
      </g>
     </g>
     <g id="text_10">
      <!-- $\mathdefault{10^{1}}$ -->
      <g transform="translate(24.70625 117.119381) scale(0.1 -0.1)">
       <use xlink:href="#DejaVuSans-31" transform="translate(0 0.684375)"/>
       <use xlink:href="#DejaVuSans-30" transform="translate(63.623047 0.684375)"/>
       <use xlink:href="#DejaVuSans-31" transform="translate(128.203125 38.965625) scale(0.7)"/>
      </g>
     </g>
    </g>
    <g id="ytick_4">
     <g id="line2d_4">
      <g>
       <use xlink:href="#m5ee1c6dd3e" x="49.30625" y="35.082219" style="stroke: #000000; stroke-width: 0.8"/>
      </g>
     </g>
     <g id="text_11">
      <!-- $\mathdefault{10^{2}}$ -->
      <g transform="translate(24.70625 38.881438) scale(0.1 -0.1)">
       <defs>
        <path id="DejaVuSans-32" d="M 1228 531 
L 3431 531 
L 3431 0 
L 469 0 
L 469 531 
Q 828 903 1448 1529 
Q 2069 2156 2228 2338 
Q 2531 2678 2651 2914 
Q 2772 3150 2772 3378 
Q 2772 3750 2511 3984 
Q 2250 4219 1831 4219 
Q 1534 4219 1204 4116 
Q 875 4013 500 3803 
L 500 4441 
Q 881 4594 1212 4672 
Q 1544 4750 1819 4750 
Q 2544 4750 2975 4387 
Q 3406 4025 3406 3419 
Q 3406 3131 3298 2873 
Q 3191 2616 2906 2266 
Q 2828 2175 2409 1742 
Q 1991 1309 1228 531 
z
" transform="scale(0.015625)"/>
       </defs>
       <use xlink:href="#DejaVuSans-31" transform="translate(0 0.765625)"/>
       <use xlink:href="#DejaVuSans-30" transform="translate(63.623047 0.765625)"/>
       <use xlink:href="#DejaVuSans-32" transform="translate(128.203125 39.046875) scale(0.7)"/>
      </g>
     </g>
    </g>
    <g id="ytick_5">
     <g id="line2d_5">
      <g>
       <use xlink:href="#m5ee1c6dd3e" x="49.30625" y="11.976909" style="stroke: #000000; stroke-width: 0.8"/>
      </g>
     </g>
     <g id="text_12">
      <!-- 197 -->
      <g transform="translate(23.21875 15.776128) scale(0.1 -0.1)">
       <defs>
        <path id="DejaVuSans-39" d="M 703 97 
L 703 672 
Q 941 559 1184 500 
Q 1428 441 1663 441 
Q 2288 441 2617 861 
Q 2947 1281 2994 2138 
Q 2813 1869 2534 1725 
Q 2256 1581 1919 1581 
Q 1219 1581 811 2004 
Q 403 2428 403 3163 
Q 403 3881 828 4315 
Q 1253 4750 1959 4750 
Q 2769 4750 3195 4129 
Q 3622 3509 3622 2328 
Q 3622 1225 3098 567 
Q 2575 -91 1691 -91 
Q 1453 -91 1209 -44 
Q 966 3 703 97 
z
M 1959 2075 
Q 2384 2075 2632 2365 
Q 2881 2656 2881 3163 
Q 2881 3666 2632 3958 
Q 2384 4250 1959 4250 
Q 1534 4250 1286 3958 
Q 1038 3666 1038 3163 
Q 1038 2656 1286 2365 
Q 1534 2075 1959 2075 
z
" transform="scale(0.015625)"/>
       </defs>
       <use xlink:href="#DejaVuSans-31"/>
       <use xlink:href="#DejaVuSans-39" transform="translate(63.623047 0)"/>
       <use xlink:href="#DejaVuSans-37" transform="translate(127.246094 0)"/>
      </g>
     </g>
    </g>
    <g id="ytick_6">
     <g id="line2d_6">
      <defs>
       <path id="mfeaf1b5dd8" d="M 0 0 
L -2 0 
" style="stroke: #000000; stroke-width: 0.6"/>
      </defs>
      <g>
       <use xlink:href="#mfeaf1b5dd8" x="49.30625" y="246.244082" style="stroke: #000000; stroke-width: 0.6"/>
      </g>
     </g>
    </g>
    <g id="ytick_7">
     <g id="line2d_7">
      <g>
       <use xlink:href="#mfeaf1b5dd8" x="49.30625" y="232.467064" style="stroke: #000000; stroke-width: 0.6"/>
      </g>
     </g>
    </g>
    <g id="ytick_8">
     <g id="line2d_8">
      <g>
       <use xlink:href="#mfeaf1b5dd8" x="49.30625" y="222.692114" style="stroke: #000000; stroke-width: 0.6"/>
      </g>
     </g>
    </g>
    <g id="ytick_9">
     <g id="line2d_9">
      <g>
       <use xlink:href="#mfeaf1b5dd8" x="49.30625" y="215.110074" style="stroke: #000000; stroke-width: 0.6"/>
      </g>
     </g>
    </g>
    <g id="ytick_10">
     <g id="line2d_10">
      <g>
       <use xlink:href="#mfeaf1b5dd8" x="49.30625" y="208.915096" style="stroke: #000000; stroke-width: 0.6"/>
      </g>
     </g>
    </g>
    <g id="ytick_11">
     <g id="line2d_11">
      <g>
       <use xlink:href="#mfeaf1b5dd8" x="49.30625" y="203.677317" style="stroke: #000000; stroke-width: 0.6"/>
      </g>
     </g>
    </g>
    <g id="ytick_12">
     <g id="line2d_12">
      <g>
       <use xlink:href="#mfeaf1b5dd8" x="49.30625" y="199.140146" style="stroke: #000000; stroke-width: 0.6"/>
      </g>
     </g>
    </g>
    <g id="ytick_13">
     <g id="line2d_13">
      <g>
       <use xlink:href="#mfeaf1b5dd8" x="49.30625" y="195.138078" style="stroke: #000000; stroke-width: 0.6"/>
      </g>
     </g>
    </g>
    <g id="ytick_14">
     <g id="line2d_14">
      <g>
       <use xlink:href="#mfeaf1b5dd8" x="49.30625" y="168.006138" style="stroke: #000000; stroke-width: 0.6"/>
      </g>
     </g>
    </g>
    <g id="ytick_15">
     <g id="line2d_15">
      <g>
       <use xlink:href="#mfeaf1b5dd8" x="49.30625" y="154.22912" style="stroke: #000000; stroke-width: 0.6"/>
      </g>
     </g>
    </g>
    <g id="ytick_16">
     <g id="line2d_16">
      <g>
       <use xlink:href="#mfeaf1b5dd8" x="49.30625" y="144.454171" style="stroke: #000000; stroke-width: 0.6"/>
      </g>
     </g>
    </g>
    <g id="ytick_17">
     <g id="line2d_17">
      <g>
       <use xlink:href="#mfeaf1b5dd8" x="49.30625" y="136.87213" style="stroke: #000000; stroke-width: 0.6"/>
      </g>
     </g>
    </g>
    <g id="ytick_18">
     <g id="line2d_18">
      <g>
       <use xlink:href="#mfeaf1b5dd8" x="49.30625" y="130.677153" style="stroke: #000000; stroke-width: 0.6"/>
      </g>
     </g>
    </g>
    <g id="ytick_19">
     <g id="line2d_19">
      <g>
       <use xlink:href="#mfeaf1b5dd8" x="49.30625" y="125.439373" style="stroke: #000000; stroke-width: 0.6"/>
      </g>
     </g>
    </g>
    <g id="ytick_20">
     <g id="line2d_20">
      <g>
       <use xlink:href="#mfeaf1b5dd8" x="49.30625" y="120.902203" style="stroke: #000000; stroke-width: 0.6"/>
      </g>
     </g>
    </g>
    <g id="ytick_21">
     <g id="line2d_21">
      <g>
       <use xlink:href="#mfeaf1b5dd8" x="49.30625" y="116.900135" style="stroke: #000000; stroke-width: 0.6"/>
      </g>
     </g>
    </g>
    <g id="ytick_22">
     <g id="line2d_22">
      <g>
       <use xlink:href="#mfeaf1b5dd8" x="49.30625" y="89.768195" style="stroke: #000000; stroke-width: 0.6"/>
      </g>
     </g>
    </g>
    <g id="ytick_23">
     <g id="line2d_23">
      <g>
       <use xlink:href="#mfeaf1b5dd8" x="49.30625" y="75.991177" style="stroke: #000000; stroke-width: 0.6"/>
      </g>
     </g>
    </g>
    <g id="ytick_24">
     <g id="line2d_24">
      <g>
       <use xlink:href="#mfeaf1b5dd8" x="49.30625" y="66.216227" style="stroke: #000000; stroke-width: 0.6"/>
      </g>
     </g>
    </g>
    <g id="ytick_25">
     <g id="line2d_25">
      <g>
       <use xlink:href="#mfeaf1b5dd8" x="49.30625" y="58.634187" style="stroke: #000000; stroke-width: 0.6"/>
      </g>
     </g>
    </g>
    <g id="ytick_26">
     <g id="line2d_26">
      <g>
       <use xlink:href="#mfeaf1b5dd8" x="49.30625" y="52.439209" style="stroke: #000000; stroke-width: 0.6"/>
      </g>
     </g>
    </g>
    <g id="ytick_27">
     <g id="line2d_27">
      <g>
       <use xlink:href="#mfeaf1b5dd8" x="49.30625" y="47.20143" style="stroke: #000000; stroke-width: 0.6"/>
      </g>
     </g>
    </g>
    <g id="ytick_28">
     <g id="line2d_28">
      <g>
       <use xlink:href="#mfeaf1b5dd8" x="49.30625" y="42.664259" style="stroke: #000000; stroke-width: 0.6"/>
      </g>
     </g>
    </g>
    <g id="ytick_29">
     <g id="line2d_29">
      <g>
       <use xlink:href="#mfeaf1b5dd8" x="49.30625" y="38.662191" style="stroke: #000000; stroke-width: 0.6"/>
      </g>
     </g>
    </g>
    <g id="text_13">
     <!-- Solve Time (Milliseconds) -->
     <g transform="translate(7.598438 195.025688) rotate(-90) scale(0.1 -0.1)">
      <defs>
       <path id="DejaVuSans-76" d="M 191 3500 
L 800 3500 
L 1894 563 
L 2988 3500 
L 3597 3500 
L 2284 0 
L 1503 0 
L 191 3500 
z
" transform="scale(0.015625)"/>
       <path id="DejaVuSans-20" transform="scale(0.015625)"/>
       <path id="DejaVuSans-6d" d="M 3328 2828 
Q 3544 3216 3844 3400 
Q 4144 3584 4550 3584 
Q 5097 3584 5394 3201 
Q 5691 2819 5691 2113 
L 5691 0 
L 5113 0 
L 5113 2094 
Q 5113 2597 4934 2840 
Q 4756 3084 4391 3084 
Q 3944 3084 3684 2787 
Q 3425 2491 3425 1978 
L 3425 0 
L 2847 0 
L 2847 2094 
Q 2847 2600 2669 2842 
Q 2491 3084 2119 3084 
Q 1678 3084 1418 2786 
Q 1159 2488 1159 1978 
L 1159 0 
L 581 0 
L 581 3500 
L 1159 3500 
L 1159 2956 
Q 1356 3278 1631 3431 
Q 1906 3584 2284 3584 
Q 2666 3584 2933 3390 
Q 3200 3197 3328 2828 
z
" transform="scale(0.015625)"/>
       <path id="DejaVuSans-73" d="M 2834 3397 
L 2834 2853 
Q 2591 2978 2328 3040 
Q 2066 3103 1784 3103 
Q 1356 3103 1142 2972 
Q 928 2841 928 2578 
Q 928 2378 1081 2264 
Q 1234 2150 1697 2047 
L 1894 2003 
Q 2506 1872 2764 1633 
Q 3022 1394 3022 966 
Q 3022 478 2636 193 
Q 2250 -91 1575 -91 
Q 1294 -91 989 -36 
Q 684 19 347 128 
L 347 722 
Q 666 556 975 473 
Q 1284 391 1588 391 
Q 1994 391 2212 530 
Q 2431 669 2431 922 
Q 2431 1156 2273 1281 
Q 2116 1406 1581 1522 
L 1381 1569 
Q 847 1681 609 1914 
Q 372 2147 372 2553 
Q 372 3047 722 3315 
Q 1072 3584 1716 3584 
Q 2034 3584 2315 3537 
Q 2597 3491 2834 3397 
z
" transform="scale(0.015625)"/>
       <path id="DejaVuSans-63" d="M 3122 3366 
L 3122 2828 
Q 2878 2963 2633 3030 
Q 2388 3097 2138 3097 
Q 1578 3097 1268 2742 
Q 959 2388 959 1747 
Q 959 1106 1268 751 
Q 1578 397 2138 397 
Q 2388 397 2633 464 
Q 2878 531 3122 666 
L 3122 134 
Q 2881 22 2623 -34 
Q 2366 -91 2075 -91 
Q 1284 -91 818 406 
Q 353 903 353 1747 
Q 353 2603 823 3093 
Q 1294 3584 2113 3584 
Q 2378 3584 2631 3529 
Q 2884 3475 3122 3366 
z
" transform="scale(0.015625)"/>
       <path id="DejaVuSans-6e" d="M 3513 2113 
L 3513 0 
L 2938 0 
L 2938 2094 
Q 2938 2591 2744 2837 
Q 2550 3084 2163 3084 
Q 1697 3084 1428 2787 
Q 1159 2491 1159 1978 
L 1159 0 
L 581 0 
L 581 3500 
L 1159 3500 
L 1159 2956 
Q 1366 3272 1645 3428 
Q 1925 3584 2291 3584 
Q 2894 3584 3203 3211 
Q 3513 2838 3513 2113 
z
" transform="scale(0.015625)"/>
      </defs>
      <use xlink:href="#DejaVuSans-53"/>
      <use xlink:href="#DejaVuSans-6f" transform="translate(63.476562 0)"/>
      <use xlink:href="#DejaVuSans-6c" transform="translate(124.658203 0)"/>
      <use xlink:href="#DejaVuSans-76" transform="translate(152.441406 0)"/>
      <use xlink:href="#DejaVuSans-65" transform="translate(211.621094 0)"/>
      <use xlink:href="#DejaVuSans-20" transform="translate(273.144531 0)"/>
      <use xlink:href="#DejaVuSans-54" transform="translate(304.931641 0)"/>
      <use xlink:href="#DejaVuSans-69" transform="translate(362.890625 0)"/>
      <use xlink:href="#DejaVuSans-6d" transform="translate(390.673828 0)"/>
      <use xlink:href="#DejaVuSans-65" transform="translate(488.085938 0)"/>
      <use xlink:href="#DejaVuSans-20" transform="translate(549.609375 0)"/>
      <use xlink:href="#DejaVuSans-28" transform="translate(581.396484 0)"/>
      <use xlink:href="#DejaVuSans-4d" transform="translate(620.410156 0)"/>
      <use xlink:href="#DejaVuSans-69" transform="translate(706.689453 0)"/>
      <use xlink:href="#DejaVuSans-6c" transform="translate(734.472656 0)"/>
      <use xlink:href="#DejaVuSans-6c" transform="translate(762.255859 0)"/>
      <use xlink:href="#DejaVuSans-69" transform="translate(790.039062 0)"/>
      <use xlink:href="#DejaVuSans-73" transform="translate(817.822266 0)"/>
      <use xlink:href="#DejaVuSans-65" transform="translate(869.921875 0)"/>
      <use xlink:href="#DejaVuSans-63" transform="translate(931.445312 0)"/>
      <use xlink:href="#DejaVuSans-6f" transform="translate(986.425781 0)"/>
      <use xlink:href="#DejaVuSans-6e" transform="translate(1047.607422 0)"/>
      <use xlink:href="#DejaVuSans-64" transform="translate(1110.986328 0)"/>
      <use xlink:href="#DejaVuSans-73" transform="translate(1174.462891 0)"/>
      <use xlink:href="#DejaVuSans-29" transform="translate(1226.5625 0)"/>
     </g>
    </g>
   </g>
   <g id="line2d_30">
    <path d="M 75.076964 213.065761 
L 75.076964 60.773378 
" clip-path="url(#p846c097b80)" style="fill: none; stroke: #2f2f2f; stroke-width: 1.125; stroke-linecap: square"/>
   </g>
   <g id="line2d_31">
    <path d="M 75.076964 171.287768 
L 75.076964 126.214253 
" clip-path="url(#p846c097b80)" style="fill: none; stroke: #2f2f2f; stroke-width: 3.375; stroke-linecap: square"/>
   </g>
   <g id="line2d_32">
    <path d="M 75.076964 149.643201 
" clip-path="url(#p846c097b80)" style="fill: none; stroke: #2f2f2f; stroke-width: 1.5; stroke-linecap: square"/>
    <defs>
     <path id="m3092db2c82" d="M 1.40625 0 
L -1.40625 -0 
" style="stroke: #ffffff; stroke-width: 0.675"/>
    </defs>
    <g clip-path="url(#p846c097b80)">
     <use xlink:href="#m3092db2c82" x="75.076964" y="149.643201" style="fill: #ffffff; stroke: #ffffff; stroke-width: 0.675"/>
    </g>
   </g>
   <g id="line2d_33">
    <path d="M 126.618393 218.083208 
L 126.618393 62.481058 
" clip-path="url(#p846c097b80)" style="fill: none; stroke: #2f2f2f; stroke-width: 1.125; stroke-linecap: square"/>
   </g>
   <g id="line2d_34">
    <path d="M 126.618393 173.142394 
L 126.618393 127.412504 
" clip-path="url(#p846c097b80)" style="fill: none; stroke: #2f2f2f; stroke-width: 3.375; stroke-linecap: square"/>
   </g>
   <g id="line2d_35">
    <path d="M 126.618393 151.823676 
" clip-path="url(#p846c097b80)" style="fill: none; stroke: #2f2f2f; stroke-width: 1.5; stroke-linecap: square"/>
    <g clip-path="url(#p846c097b80)">
     <use xlink:href="#m3092db2c82" x="126.618393" y="151.823676" style="fill: #ffffff; stroke: #ffffff; stroke-width: 0.675"/>
    </g>
   </g>
   <g id="line2d_36">
    <path d="M 178.159821 215.881441 
L 178.159821 61.802976 
" clip-path="url(#p846c097b80)" style="fill: none; stroke: #2f2f2f; stroke-width: 1.125; stroke-linecap: square"/>
   </g>
   <g id="line2d_37">
    <path d="M 178.159821 173.12002 
L 178.159821 127.27719 
" clip-path="url(#p846c097b80)" style="fill: none; stroke: #2f2f2f; stroke-width: 3.375; stroke-linecap: square"/>
   </g>
   <g id="line2d_38">
    <path d="M 178.159821 152.38802 
" clip-path="url(#p846c097b80)" style="fill: none; stroke: #2f2f2f; stroke-width: 1.5; stroke-linecap: square"/>
    <g clip-path="url(#p846c097b80)">
     <use xlink:href="#m3092db2c82" x="178.159821" y="152.38802" style="fill: #ffffff; stroke: #ffffff; stroke-width: 0.675"/>
    </g>
   </g>
   <g id="line2d_39">
    <path d="M 229.70125 219.082297 
L 229.70125 63.588675 
" clip-path="url(#p846c097b80)" style="fill: none; stroke: #2f2f2f; stroke-width: 1.125; stroke-linecap: square"/>
   </g>
   <g id="line2d_40">
    <path d="M 229.70125 174.617143 
L 229.70125 129.536163 
" clip-path="url(#p846c097b80)" style="fill: none; stroke: #2f2f2f; stroke-width: 3.375; stroke-linecap: square"/>
   </g>
   <g id="line2d_41">
    <path d="M 229.70125 154.328705 
" clip-path="url(#p846c097b80)" style="fill: none; stroke: #2f2f2f; stroke-width: 1.5; stroke-linecap: square"/>
    <g clip-path="url(#p846c097b80)">
     <use xlink:href="#m3092db2c82" x="229.70125" y="154.328705" style="fill: #ffffff; stroke: #ffffff; stroke-width: 0.675"/>
    </g>
   </g>
   <g id="line2d_42">
    <path d="M 281.242679 187.317519 
L 281.242679 44.576366 
" clip-path="url(#p846c097b80)" style="fill: none; stroke: #2f2f2f; stroke-width: 1.125; stroke-linecap: square"/>
   </g>
   <g id="line2d_43">
    <path d="M 281.242679 146.596976 
L 281.242679 104.668652 
" clip-path="url(#p846c097b80)" style="fill: none; stroke: #2f2f2f; stroke-width: 3.375; stroke-linecap: square"/>
   </g>
   <g id="line2d_44">
    <path d="M 281.242679 126.089837 
" clip-path="url(#p846c097b80)" style="fill: none; stroke: #2f2f2f; stroke-width: 1.5; stroke-linecap: square"/>
    <g clip-path="url(#p846c097b80)">
     <use xlink:href="#m3092db2c82" x="281.242679" y="126.089837" style="fill: #ffffff; stroke: #ffffff; stroke-width: 0.675"/>
    </g>
   </g>
   <g id="line2d_45">
    <path d="M 332.784107 201.013356 
L 332.784107 51.873094 
" clip-path="url(#p846c097b80)" style="fill: none; stroke: #2f2f2f; stroke-width: 1.125; stroke-linecap: square"/>
   </g>
   <g id="line2d_46">
    <path d="M 332.784107 159.096691 
L 332.784107 114.363378 
" clip-path="url(#p846c097b80)" style="fill: none; stroke: #2f2f2f; stroke-width: 3.375; stroke-linecap: square"/>
   </g>
   <g id="line2d_47">
    <path d="M 332.784107 136.293132 
" clip-path="url(#p846c097b80)" style="fill: none; stroke: #2f2f2f; stroke-width: 1.5; stroke-linecap: square"/>
    <g clip-path="url(#p846c097b80)">
     <use xlink:href="#m3092db2c82" x="332.784107" y="136.293132" style="fill: #ffffff; stroke: #ffffff; stroke-width: 0.675"/>
    </g>
   </g>
   <g id="line2d_48">
    <path d="M 384.325536 155.523376 
L 384.325536 33.686606 
" clip-path="url(#p846c097b80)" style="fill: none; stroke: #2f2f2f; stroke-width: 1.125; stroke-linecap: square"/>
   </g>
   <g id="line2d_49">
    <path d="M 384.325536 125.141273 
L 384.325536 87.142179 
" clip-path="url(#p846c097b80)" style="fill: none; stroke: #2f2f2f; stroke-width: 3.375; stroke-linecap: square"/>
   </g>
   <g id="line2d_50">
    <path d="M 384.325536 106.496191 
" clip-path="url(#p846c097b80)" style="fill: none; stroke: #2f2f2f; stroke-width: 1.5; stroke-linecap: square"/>
    <g clip-path="url(#p846c097b80)">
     <use xlink:href="#m3092db2c82" x="384.325536" y="106.496191" style="fill: #ffffff; stroke: #ffffff; stroke-width: 0.675"/>
    </g>
   </g>
   <g id="patch_3">
    <path d="M 49.30625 251.515091 
L 49.30625 11.976909 
" style="fill: none; stroke: #000000; stroke-width: 0.8; stroke-linejoin: miter; stroke-linecap: square"/>
   </g>
  </g>
 </g>
 <defs>
  <clipPath id="p846c097b80">
   <rect x="49.30625" y="0" width="360.79" height="263.492"/>
  </clipPath>
 </defs>
</svg>
