<?xml version="1.0" encoding="utf-8" standalone="no"?>
<!DOCTYPE svg PUBLIC "-//W3C//DTD SVG 1.1//EN"
  "http://www.w3.org/Graphics/SVG/1.1/DTD/svg11.dtd">
<svg xmlns:xlink="http://www.w3.org/1999/xlink" width="561.38625pt" height="301.06575pt" viewBox="0 0 561.38625 301.06575" xmlns="http://www.w3.org/2000/svg" version="1.1">
 <metadata>
  <rdf:RDF xmlns:dc="http://purl.org/dc/elements/1.1/" xmlns:cc="http://creativecommons.org/ns#" xmlns:rdf="http://www.w3.org/1999/02/22-rdf-syntax-ns#">
   <cc:Work>
    <dc:type rdf:resource="http://purl.org/dc/dcmitype/StillImage"/>
    <dc:date>2026-07-17T14:39:39.272587</dc:date>
    <dc:format>image/svg+xml</dc:format>
    <dc:creator>
     <cc:Agent>
      <dc:title>Matplotlib v3.10.9, https://matplotlib.org/</dc:title>
     </cc:Agent>
    </dc:creator>
   </cc:Work>
  </rdf:RDF>
 </metadata>
 <defs>
  <style type="text/css">*{stroke-linejoin: round; stroke-linecap: butt}</style>
 </defs>
 <g id="figure_1">
  <g id="patch_1">
   <path d="M 0 301.06575 
L 561.38625 301.06575 
L 561.38625 0 
L 0 0 
L 0 301.06575 
z
" style="fill: none"/>
  </g>
  <g id="axes_1">
   <g id="patch_2">
    <path d="M 49.30625 263.492 
L 561.38625 263.492 
L 561.38625 0 
L 49.30625 0 
L 49.30625 263.492 
z
" style="fill: none"/>
   </g>
   <g id="FillBetweenPolyCollection_1">
    <defs>
     <path id="m2bba9562b3" d="M 78.381933 -53.223886 
L 77.128344 -53.223886 
L 77.110958 -55.250988 
L 77.09608 -57.27809 
L 77.079736 -59.305192 
L 77.056791 -61.332294 
L 77.021135 -63.359396 
L 76.965948 -65.386498 
L 76.884008 -67.4136 
L 76.768049 -69.440701 
L 76.611107 -71.467803 
L 76.406874 -73.494905 
L 76.15001 -75.522007 
L 75.836409 -77.549109 
L 75.463411 -79.576211 
L 75.029926 -81.603313 
L 74.536478 -83.630415 
L 73.985137 -85.657516 
L 73.379344 -87.684618 
L 72.723618 -89.71172 
L 72.023158 -91.738822 
L 71.283372 -93.765924 
L 70.509363 -95.793026 
L 69.705443 -97.820128 
L 68.87473 -99.84723 
L 68.018923 -101.874332 
L 67.138299 -103.901433 
L 66.231983 -105.928535 
L 65.2985 -107.955637 
L 64.336566 -109.982739 
L 63.346032 -112.009841 
L 62.328859 -114.036943 
L 61.289963 -116.064045 
L 60.237783 -118.091147 
L 59.184445 -120.118249 
L 58.145439 -122.14535 
L 57.138821 -124.172452 
L 56.18401 -126.199554 
L 55.300341 -128.226656 
L 54.505565 -130.253758 
L 53.814524 -132.28086 
L 53.238184 -134.307962 
L 52.783158 -136.335064 
L 52.451758 -138.362165 
L 52.242532 -140.389267 
L 52.151139 -142.416369 
L 52.171379 -144.443471 
L 52.296179 -146.470573 
L 52.518338 -148.497675 
L 52.830934 -150.524777 
L 53.227337 -152.551879 
L 53.7009 -154.578981 
L 54.244417 -156.606082 
L 54.849542 -158.633184 
L 55.506318 -160.660286 
L 56.202965 -162.687388 
L 56.92604 -164.71449 
L 57.66096 -166.741592 
L 58.392878 -168.768694 
L 59.107778 -170.795796 
L 59.79365 -172.822898 
L 60.441579 -174.849999 
L 61.046571 -176.877101 
L 61.608008 -178.904203 
L 62.129637 -180.931305 
L 62.619087 -182.958407 
L 63.086976 -184.985509 
L 63.545689 -187.012611 
L 64.008006 -189.039713 
L 64.485722 -191.066814 
L 64.988419 -193.093916 
L 65.52253 -195.121018 
L 66.090762 -197.14812 
L 66.69192 -199.175222 
L 67.321107 -201.202324 
L 67.970257 -203.229426 
L 68.628908 -205.256528 
L 69.285131 -207.28363 
L 69.92652 -209.310731 
L 70.541172 -211.337833 
L 71.118565 -213.364935 
L 71.650303 -215.392037 
L 72.130656 -217.419139 
L 72.556878 -219.446241 
L 72.929266 -221.473343 
L 73.250977 -223.500445 
L 73.527596 -225.527547 
L 73.766529 -227.554648 
L 73.976248 -229.58175 
L 74.165503 -231.608852 
L 74.34257 -233.635954 
L 74.514608 -235.663056 
L 74.687205 -237.690158 
L 74.86414 -239.71726 
L 75.047349 -241.744362 
L 75.237097 -243.771463 
L 75.43228 -245.798565 
L 75.630806 -247.825667 
L 75.829998 -249.852769 
L 76.026955 -251.879871 
L 76.218847 -253.906973 
L 79.291431 -253.906973 
L 79.291431 -253.906973 
L 79.483323 -251.879871 
L 79.68028 -249.852769 
L 79.879472 -247.825667 
L 80.077998 -245.798565 
L 80.27318 -243.771463 
L 80.462929 -241.744362 
L 80.646138 -239.71726 
L 80.823072 -237.690158 
L 80.99567 -235.663056 
L 81.167708 -233.635954 
L 81.344774 -231.608852 
L 81.53403 -229.58175 
L 81.743749 -227.554648 
L 81.982681 -225.527547 
L 82.259301 -223.500445 
L 82.581012 -221.473343 
L 82.9534 -219.446241 
L 83.379622 -217.419139 
L 83.859975 -215.392037 
L 84.391713 -213.364935 
L 84.969106 -211.337833 
L 85.583758 -209.310731 
L 86.225147 -207.28363 
L 86.88137 -205.256528 
L 87.540021 -203.229426 
L 88.189171 -201.202324 
L 88.818358 -199.175222 
L 89.419516 -197.14812 
L 89.987748 -195.121018 
L 90.521859 -193.093916 
L 91.024556 -191.066814 
L 91.502271 -189.039713 
L 91.964589 -187.012611 
L 92.423302 -184.985509 
L 92.89119 -182.958407 
L 93.380641 -180.931305 
L 93.90227 -178.904203 
L 94.463707 -176.877101 
L 95.068699 -174.849999 
L 95.716628 -172.822898 
L 96.4025 -170.795796 
L 97.117399 -168.768694 
L 97.849317 -166.741592 
L 98.584238 -164.71449 
L 99.307313 -162.687388 
L 100.00396 -160.660286 
L 100.660735 -158.633184 
L 101.265861 -156.606082 
L 101.809378 -154.578981 
L 102.282941 -152.551879 
L 102.679344 -150.524777 
L 102.991939 -148.497675 
L 103.214098 -146.470573 
L 103.338898 -144.443471 
L 103.359139 -142.416369 
L 103.267745 -140.389267 
L 103.05852 -138.362165 
L 102.72712 -136.335064 
L 102.272094 -134.307962 
L 101.695754 -132.28086 
L 101.004713 -130.253758 
L 100.209937 -128.226656 
L 99.326268 -126.199554 
L 98.371457 -124.172452 
L 97.364839 -122.14535 
L 96.325833 -120.118249 
L 95.272495 -118.091147 
L 94.220315 -116.064045 
L 93.181419 -114.036943 
L 92.164246 -112.009841 
L 91.173712 -109.982739 
L 90.211778 -107.955637 
L 89.278295 -105.928535 
L 88.371979 -103.901433 
L 87.491355 -101.874332 
L 86.635548 -99.84723 
L 85.804835 -97.820128 
L 85.000915 -95.793026 
L 84.226906 -93.765924 
L 83.48712 -91.738822 
L 82.78666 -89.71172 
L 82.130933 -87.684618 
L 81.52514 -85.657516 
L 80.9738 -83.630415 
L 80.480351 -81.603313 
L 80.046867 -79.576211 
L 79.673868 -77.549109 
L 79.360268 -75.522007 
L 79.103404 -73.494905 
L 78.899171 -71.467803 
L 78.742229 -69.440701 
L 78.626269 -67.4136 
L 78.54433 -65.386498 
L 78.489143 -63.359396 
L 78.453487 -61.332294 
L 78.430542 -59.305192 
L 78.414198 -57.27809 
L 78.39932 -55.250988 
L 78.381933 -53.223886 
z
" style="stroke: #2f2f2f; stroke-width: 0.75"/>
    </defs>
    <g clip-path="url(#pd26928e349)">
     <use xlink:href="#m2bba9562b3" x="0" y="301.06575" style="fill: #166c9c; stroke: #2f2f2f; stroke-width: 0.75"/>
    </g>
   </g>
   <g id="FillBetweenPolyCollection_2">
    <defs>
     <path id="m68800d1783" d="M 135.278239 -49.550659 
L 134.027595 -49.550659 
L 134.011283 -51.581233 
L 133.997713 -53.611806 
L 133.982986 -55.64238 
L 133.962054 -57.672953 
L 133.928899 -59.703526 
L 133.876791 -61.7341 
L 133.798602 -63.764673 
L 133.687164 -65.795247 
L 133.535634 -67.82582 
L 133.337857 -69.856394 
L 133.0887 -71.886967 
L 132.784332 -73.917541 
L 132.422437 -75.948114 
L 132.002341 -77.978688 
L 131.525025 -80.009261 
L 130.993019 -82.039835 
L 130.410174 -84.070408 
L 129.781309 -86.100982 
L 129.111754 -88.131555 
L 128.40683 -90.162129 
L 127.671311 -92.192702 
L 126.908941 -94.223275 
L 126.122057 -96.253849 
L 125.311417 -98.284422 
L 124.476252 -100.314996 
L 123.614595 -102.345569 
L 122.723874 -104.376143 
L 121.801719 -106.406716 
L 120.8469 -108.43729 
L 119.860272 -110.467863 
L 118.845602 -112.498437 
L 117.810119 -114.52901 
L 116.764699 -116.559584 
L 115.723613 -118.590157 
L 114.703828 -120.620731 
L 113.723939 -122.651304 
L 112.802861 -124.681878 
L 111.958438 -126.712451 
L 111.206186 -128.743024 
L 110.558319 -130.773598 
L 110.023189 -132.804171 
L 109.605208 -134.834745 
L 109.305204 -136.865318 
L 109.121124 -138.895892 
L 109.048917 -140.926465 
L 109.083407 -142.957039 
L 109.219006 -144.987612 
L 109.450115 -147.018186 
L 109.771177 -149.048759 
L 110.176409 -151.079333 
L 110.659296 -153.109906 
L 111.21202 -155.14048 
L 111.824971 -157.171053 
L 112.486514 -159.201627 
L 113.183102 -161.2322 
L 113.899793 -163.262773 
L 114.62112 -165.293347 
L 115.33223 -167.32392 
L 116.020117 -169.354494 
L 116.674784 -171.385067 
L 117.290156 -173.415641 
L 117.864603 -175.446214 
L 118.400992 -177.476788 
L 118.906239 -179.507361 
L 119.390423 -181.537935 
L 119.865576 -183.568508 
L 120.344292 -185.599082 
L 120.83833 -187.629655 
L 121.357378 -189.660229 
L 121.90809 -191.690802 
L 122.493502 -193.721376 
L 123.112832 -195.751949 
L 123.761652 -197.782522 
L 124.432377 -199.813096 
L 125.114977 -201.843669 
L 125.797832 -203.874243 
L 126.468632 -205.904816 
L 127.115271 -207.93539 
L 127.726665 -209.965963 
L 128.293457 -211.996537 
L 128.808586 -214.02711 
L 129.267677 -216.057684 
L 129.669247 -218.088257 
L 130.014711 -220.118831 
L 130.308165 -222.149404 
L 130.555988 -224.179978 
L 130.766263 -226.210551 
L 130.948086 -228.241125 
L 131.110821 -230.271698 
L 131.263375 -232.302271 
L 131.413561 -234.332845 
L 131.567617 -236.363418 
L 131.729904 -238.393992 
L 131.902813 -240.424565 
L 132.086858 -242.455139 
L 132.280922 -244.485712 
L 132.482607 -246.516286 
L 132.688642 -248.546859 
L 132.895288 -250.577433 
L 136.410545 -250.577433 
L 136.410545 -250.577433 
L 136.617191 -248.546859 
L 136.823226 -246.516286 
L 137.024911 -244.485712 
L 137.218975 -242.455139 
L 137.40302 -240.424565 
L 137.57593 -238.393992 
L 137.738216 -236.363418 
L 137.892272 -234.332845 
L 138.042459 -232.302271 
L 138.195013 -230.271698 
L 138.357748 -228.241125 
L 138.53957 -226.210551 
L 138.749845 -224.179978 
L 138.997668 -222.149404 
L 139.291123 -220.118831 
L 139.636586 -218.088257 
L 140.038156 -216.057684 
L 140.497247 -214.02711 
L 141.012376 -211.996537 
L 141.579169 -209.965963 
L 142.190563 -207.93539 
L 142.837202 -205.904816 
L 143.508002 -203.874243 
L 144.190856 -201.843669 
L 144.873457 -199.813096 
L 145.544182 -197.782522 
L 146.193001 -195.751949 
L 146.812331 -193.721376 
L 147.397743 -191.690802 
L 147.948456 -189.660229 
L 148.467503 -187.629655 
L 148.961542 -185.599082 
L 149.440258 -183.568508 
L 149.915411 -181.537935 
L 150.399595 -179.507361 
L 150.904841 -177.476788 
L 151.44123 -175.446214 
L 152.015678 -173.415641 
L 152.631049 -171.385067 
L 153.285716 -169.354494 
L 153.973603 -167.32392 
L 154.684713 -165.293347 
L 155.406041 -163.262773 
L 156.122731 -161.2322 
L 156.819319 -159.201627 
L 157.480862 -157.171053 
L 158.093814 -155.14048 
L 158.646538 -153.109906 
L 159.129425 -151.079333 
L 159.534656 -149.048759 
L 159.855718 -147.018186 
L 160.086827 -144.987612 
L 160.222426 -142.957039 
L 160.256917 -140.926465 
L 160.184709 -138.895892 
L 160.000629 -136.865318 
L 159.700625 -134.834745 
L 159.282644 -132.804171 
L 158.747514 -130.773598 
L 158.099647 -128.743024 
L 157.347396 -126.712451 
L 156.502973 -124.681878 
L 155.581894 -122.651304 
L 154.602005 -120.620731 
L 153.58222 -118.590157 
L 152.541134 -116.559584 
L 151.495715 -114.52901 
L 150.460231 -112.498437 
L 149.445561 -110.467863 
L 148.458934 -108.43729 
L 147.504114 -106.406716 
L 146.581959 -104.376143 
L 145.691238 -102.345569 
L 144.829581 -100.314996 
L 143.994416 -98.284422 
L 143.183776 -96.253849 
L 142.396893 -94.223275 
L 141.634522 -92.192702 
L 140.899003 -90.162129 
L 140.194079 -88.131555 
L 139.524524 -86.100982 
L 138.895659 -84.070408 
L 138.312815 -82.039835 
L 137.780809 -80.009261 
L 137.303492 -77.978688 
L 136.883396 -75.948114 
L 136.521502 -73.917541 
L 136.217133 -71.886967 
L 135.967976 -69.856394 
L 135.770199 -67.82582 
L 135.618669 -65.795247 
L 135.507231 -63.764673 
L 135.429043 -61.7341 
L 135.376934 -59.703526 
L 135.34378 -57.672953 
L 135.322847 -55.64238 
L 135.30812 -53.611806 
L 135.29455 -51.581233 
L 135.278239 -49.550659 
z
" style="stroke: #2f2f2f; stroke-width: 0.75"/>
    </defs>
    <g clip-path="url(#pd26928e349)">
     <use xlink:href="#m68800d1783" x="0" y="301.06575" style="fill: #96bdd2; stroke: #2f2f2f; stroke-width: 0.75"/>
    </g>
   </g>
   <g id="FillBetweenPolyCollection_3">
    <defs>
     <path id="m9de88b4afb" d="M 192.196176 -55.25923 
L 190.905213 -55.25923 
L 190.880196 -57.263248 
L 190.855352 -59.267266 
L 190.826395 -61.271284 
L 190.787928 -63.275302 
L 190.733647 -65.27932 
L 190.656624 -67.283338 
L 190.549644 -69.287356 
L 190.405574 -71.291374 
L 190.21773 -73.295392 
L 189.980232 -75.29941 
L 189.688304 -77.303428 
L 189.33853 -79.307446 
L 188.929012 -81.311464 
L 188.459453 -83.315482 
L 187.93112 -85.3195 
L 187.346702 -87.323518 
L 186.710057 -89.327536 
L 186.025848 -91.331554 
L 185.299116 -93.335572 
L 184.534796 -95.33959 
L 183.737269 -97.343608 
L 182.909973 -99.347626 
L 182.055167 -101.351644 
L 181.1739 -103.355662 
L 180.266207 -105.35968 
L 179.331564 -107.363698 
L 178.369552 -109.367716 
L 177.380662 -111.371734 
L 176.367141 -113.375752 
L 175.333745 -115.37977 
L 174.288258 -117.383788 
L 173.241687 -119.387806 
L 172.208044 -121.391824 
L 171.203715 -123.395842 
L 170.246471 -125.39986 
L 169.354253 -127.403878 
L 168.543873 -129.407896 
L 167.829831 -131.411914 
L 167.223413 -133.415932 
L 166.732173 -135.41995 
L 166.35987 -137.423968 
L 166.106819 -139.427986 
L 165.97056 -141.432004 
L 165.946694 -143.436022 
L 166.029711 -145.440039 
L 166.213651 -147.444057 
L 166.492487 -149.448075 
L 166.860182 -151.452093 
L 167.310441 -153.456111 
L 167.836263 -155.460129 
L 168.429413 -157.464147 
L 169.079978 -159.468165 
L 169.77614 -161.472183 
L 170.504269 -163.476201 
L 171.24937 -165.480219 
L 171.995872 -167.484237 
L 172.728661 -169.488255 
L 173.43424 -171.492273 
L 174.10186 -173.496291 
L 174.724458 -175.500309 
L 175.299272 -177.504327 
L 175.828043 -179.508345 
L 176.316757 -181.512363 
L 176.774948 -183.516381 
L 177.214642 -185.520399 
L 177.64907 -187.524417 
L 178.091284 -189.528435 
L 178.552847 -191.532453 
L 179.042722 -193.536471 
L 179.566481 -195.540489 
L 180.125871 -197.544507 
L 180.718771 -199.548525 
L 181.3395 -201.552543 
L 181.979408 -203.556561 
L 182.627687 -205.560579 
L 183.272293 -207.564597 
L 183.900914 -209.568615 
L 184.501904 -211.572633 
L 185.065112 -213.576651 
L 185.582567 -215.580669 
L 186.048968 -217.584687 
L 186.461945 -219.588705 
L 186.822091 -221.592723 
L 187.132744 -223.596741 
L 187.399552 -225.600759 
L 187.62987 -227.604777 
L 187.832026 -229.608795 
L 188.014571 -231.612813 
L 188.185556 -233.616831 
L 188.35193 -235.620849 
L 188.519119 -237.624867 
L 188.690799 -239.628885 
L 188.868872 -241.632903 
L 189.05363 -243.636921 
L 189.244039 -245.640939 
L 189.438101 -247.644957 
L 189.633235 -249.648975 
L 189.826619 -251.652993 
L 190.015474 -253.657011 
L 193.085915 -253.657011 
L 193.085915 -253.657011 
L 193.274769 -251.652993 
L 193.468154 -249.648975 
L 193.663288 -247.644957 
L 193.85735 -245.640939 
L 194.047759 -243.636921 
L 194.232517 -241.632903 
L 194.41059 -239.628885 
L 194.58227 -237.624867 
L 194.749459 -235.620849 
L 194.915833 -233.616831 
L 195.086817 -231.612813 
L 195.269363 -229.608795 
L 195.471519 -227.604777 
L 195.701837 -225.600759 
L 195.968645 -223.596741 
L 196.279298 -221.592723 
L 196.639444 -219.588705 
L 197.052421 -217.584687 
L 197.518822 -215.580669 
L 198.036277 -213.576651 
L 198.599485 -211.572633 
L 199.200475 -209.568615 
L 199.829096 -207.564597 
L 200.473702 -205.560579 
L 201.12198 -203.556561 
L 201.761889 -201.552543 
L 202.382618 -199.548525 
L 202.975518 -197.544507 
L 203.534908 -195.540489 
L 204.058667 -193.536471 
L 204.548542 -191.532453 
L 205.010105 -189.528435 
L 205.452319 -187.524417 
L 205.886747 -185.520399 
L 206.326441 -183.516381 
L 206.784632 -181.512363 
L 207.273346 -179.508345 
L 207.802117 -177.504327 
L 208.376931 -175.500309 
L 208.999529 -173.496291 
L 209.667149 -171.492273 
L 210.372728 -169.488255 
L 211.105517 -167.484237 
L 211.852018 -165.480219 
L 212.59712 -163.476201 
L 213.325248 -161.472183 
L 214.021411 -159.468165 
L 214.671976 -157.464147 
L 215.265126 -155.460129 
L 215.790948 -153.456111 
L 216.241207 -151.452093 
L 216.608901 -149.448075 
L 216.887738 -147.444057 
L 217.071677 -145.440039 
L 217.154694 -143.436022 
L 217.130829 -141.432004 
L 216.99457 -139.427986 
L 216.741518 -137.423968 
L 216.369215 -135.41995 
L 215.877976 -133.415932 
L 215.271558 -131.411914 
L 214.557516 -129.407896 
L 213.747136 -127.403878 
L 212.854918 -125.39986 
L 211.897674 -123.395842 
L 210.893344 -121.391824 
L 209.859702 -119.387806 
L 208.813131 -117.383788 
L 207.767644 -115.37977 
L 206.734247 -113.375752 
L 205.720727 -111.371734 
L 204.731837 -109.367716 
L 203.769825 -107.363698 
L 202.835182 -105.35968 
L 201.927489 -103.355662 
L 201.046222 -101.351644 
L 200.191416 -99.347626 
L 199.36412 -97.343608 
L 198.566592 -95.33959 
L 197.802273 -93.335572 
L 197.07554 -91.331554 
L 196.391332 -89.327536 
L 195.754687 -87.323518 
L 195.170269 -85.3195 
L 194.641936 -83.315482 
L 194.172377 -81.311464 
L 193.762859 -79.307446 
L 193.413085 -77.303428 
L 193.121157 -75.29941 
L 192.883658 -73.295392 
L 192.695815 -71.291374 
L 192.551745 -69.287356 
L 192.444765 -67.283338 
L 192.367742 -65.27932 
L 192.313461 -63.275302 
L 192.274993 -61.271284 
L 192.246037 -59.267266 
L 192.221192 -57.263248 
L 192.196176 -55.25923 
z
" style="stroke: #2f2f2f; stroke-width: 0.75"/>
    </defs>
    <g clip-path="url(#pd26928e349)">
     <use xlink:href="#m9de88b4afb" x="0" y="301.06575" style="fill: #ba611b; stroke: #2f2f2f; stroke-width: 0.75"/>
    </g>
   </g>
   <g id="FillBetweenPolyCollection_4">
    <defs>
     <path id="m6f009aa5e1" d="M 249.100335 -52.252289 
L 247.796609 -52.252289 
L 247.770706 -54.254887 
L 247.744775 -56.257484 
L 247.714581 -58.260082 
L 247.674799 -60.262679 
L 247.619205 -62.265277 
L 247.540956 -64.267874 
L 247.43291 -66.270472 
L 247.287993 -68.273069 
L 247.099563 -70.275667 
L 246.861772 -72.278264 
L 246.569882 -74.280862 
L 246.220536 -76.283459 
L 245.811943 -78.286057 
L 245.343975 -80.288654 
L 244.81815 -82.291252 
L 244.23749 -84.293849 
L 243.606247 -86.296447 
L 242.92952 -88.299044 
L 242.212766 -90.301642 
L 241.461271 -92.304239 
L 240.679627 -94.306837 
L 239.871293 -96.309434 
L 239.038317 -98.312032 
L 238.181274 -100.314629 
L 237.299478 -102.317227 
L 236.391456 -104.319824 
L 235.455671 -106.322422 
L 234.491401 -108.325019 
L 233.49966 -110.327617 
L 232.484039 -112.330215 
L 231.451309 -114.332812 
L 230.411686 -116.33541 
L 229.378676 -118.338007 
L 228.368483 -120.340605 
L 227.399053 -122.343202 
L 226.488837 -124.3458 
L 225.655464 -126.348397 
L 224.914483 -128.350995 
L 224.278348 -130.353592 
L 223.755774 -132.35619 
L 223.351534 -134.358787 
L 223.066685 -136.361385 
L 222.899141 -138.363982 
L 222.844472 -140.36658 
L 222.896755 -142.369177 
L 223.049324 -144.371775 
L 223.295288 -146.374372 
L 223.627761 -148.37697 
L 224.039783 -150.379567 
L 224.524007 -152.382165 
L 225.07227 -154.384762 
L 225.675174 -156.38736 
L 226.321835 -158.389957 
L 226.999884 -160.392555 
L 227.695806 -162.395152 
L 228.39559 -164.39775 
L 229.085642 -166.400347 
L 229.753835 -168.402945 
L 230.390551 -170.405542 
L 230.989572 -172.40814 
L 231.548657 -174.410737 
L 232.069739 -176.413335 
L 232.558666 -178.415932 
L 233.024532 -180.41853 
L 233.478656 -182.421128 
L 233.933339 -184.423725 
L 234.40055 -186.426323 
L 234.890693 -188.42892 
L 235.411585 -190.431518 
L 235.967744 -192.434115 
L 236.560042 -194.436713 
L 237.185713 -196.43931 
L 237.838689 -198.441908 
L 238.510179 -200.444505 
L 239.189424 -202.447103 
L 239.864542 -204.4497 
L 240.523379 -206.452298 
L 241.154329 -208.454895 
L 241.747063 -210.457493 
L 242.293142 -212.46009 
L 242.786494 -214.462688 
L 243.223722 -216.465285 
L 243.604234 -218.467883 
L 243.930182 -220.47048 
L 244.206213 -222.473078 
L 244.439032 -224.475675 
L 244.636826 -226.478273 
L 244.808592 -228.48087 
L 244.963425 -230.483468 
L 245.109847 -232.486065 
L 245.255223 -234.488663 
L 245.405338 -236.49126 
L 245.564148 -238.493858 
L 245.733716 -240.496455 
L 245.91433 -242.499053 
L 246.104755 -244.50165 
L 246.30257 -246.504248 
L 246.50456 -248.506846 
L 246.707096 -250.509443 
L 250.189848 -250.509443 
L 250.189848 -250.509443 
L 250.392385 -248.506846 
L 250.594375 -246.504248 
L 250.79219 -244.50165 
L 250.982614 -242.499053 
L 251.163229 -240.496455 
L 251.332797 -238.493858 
L 251.491606 -236.49126 
L 251.641721 -234.488663 
L 251.787098 -232.486065 
L 251.933519 -230.483468 
L 252.088353 -228.48087 
L 252.260119 -226.478273 
L 252.457912 -224.475675 
L 252.690731 -222.473078 
L 252.966762 -220.47048 
L 253.292711 -218.467883 
L 253.673222 -216.465285 
L 254.11045 -214.462688 
L 254.603802 -212.46009 
L 255.149882 -210.457493 
L 255.742615 -208.454895 
L 256.373566 -206.452298 
L 257.032403 -204.4497 
L 257.70752 -202.447103 
L 258.386766 -200.444505 
L 259.058255 -198.441908 
L 259.711231 -196.43931 
L 260.336903 -194.436713 
L 260.929201 -192.434115 
L 261.48536 -190.431518 
L 262.006251 -188.42892 
L 262.496394 -186.426323 
L 262.963605 -184.423725 
L 263.418288 -182.421128 
L 263.872412 -180.41853 
L 264.338279 -178.415932 
L 264.827206 -176.413335 
L 265.348287 -174.410737 
L 265.907373 -172.40814 
L 266.506393 -170.405542 
L 267.14311 -168.402945 
L 267.811302 -166.400347 
L 268.501355 -164.39775 
L 269.201139 -162.395152 
L 269.897061 -160.392555 
L 270.57511 -158.389957 
L 271.22177 -156.38736 
L 271.824675 -154.384762 
L 272.372938 -152.382165 
L 272.857162 -150.379567 
L 273.269183 -148.37697 
L 273.601657 -146.374372 
L 273.847621 -144.371775 
L 274.000189 -142.369177 
L 274.052472 -140.36658 
L 273.997804 -138.363982 
L 273.83026 -136.361385 
L 273.54541 -134.358787 
L 273.141171 -132.35619 
L 272.618596 -130.353592 
L 271.982461 -128.350995 
L 271.24148 -126.348397 
L 270.408108 -124.3458 
L 269.497892 -122.343202 
L 268.528461 -120.340605 
L 267.518269 -118.338007 
L 266.485258 -116.33541 
L 265.445635 -114.332812 
L 264.412906 -112.330215 
L 263.397284 -110.327617 
L 262.405544 -108.325019 
L 261.441273 -106.322422 
L 260.505489 -104.319824 
L 259.597467 -102.317227 
L 258.71567 -100.314629 
L 257.858628 -98.312032 
L 257.025651 -96.309434 
L 256.217318 -94.306837 
L 255.435674 -92.304239 
L 254.684179 -90.301642 
L 253.967425 -88.299044 
L 253.290698 -86.296447 
L 252.659455 -84.293849 
L 252.078794 -82.291252 
L 251.552969 -80.288654 
L 251.085001 -78.286057 
L 250.676408 -76.283459 
L 250.327062 -74.280862 
L 250.035172 -72.278264 
L 249.797381 -70.275667 
L 249.608951 -68.273069 
L 249.464034 -66.270472 
L 249.355988 -64.267874 
L 249.277739 -62.265277 
L 249.222146 -60.262679 
L 249.182363 -58.260082 
L 249.152169 -56.257484 
L 249.126238 -54.254887 
L 249.100335 -52.252289 
z
" style="stroke: #2f2f2f; stroke-width: 0.75"/>
    </defs>
    <g clip-path="url(#pd26928e349)">
     <use xlink:href="#m6f009aa5e1" x="0" y="301.06575" style="fill: #e0b898; stroke: #2f2f2f; stroke-width: 0.75"/>
    </g>
   </g>
   <g id="FillBetweenPolyCollection_5">
    <defs>
     <path id="mca76fd23a9" d="M 305.92791 -51.630358 
L 304.76459 -51.630358 
L 304.756546 -53.553329 
L 304.753823 -55.476299 
L 304.753504 -57.399269 
L 304.751679 -59.32224 
L 304.743571 -61.24521 
L 304.723723 -63.16818 
L 304.686215 -65.091151 
L 304.624917 -67.014121 
L 304.533741 -68.937091 
L 304.406894 -70.860062 
L 304.239136 -72.783032 
L 304.026007 -74.706002 
L 303.764051 -76.628973 
L 303.451004 -78.551943 
L 303.085939 -80.474913 
L 302.669359 -82.397884 
L 302.203194 -84.320854 
L 301.690711 -86.243824 
L 301.136287 -88.166795 
L 300.545076 -90.089765 
L 299.922552 -92.012735 
L 299.273975 -93.935706 
L 298.603819 -95.858676 
L 297.915237 -97.781646 
L 297.209622 -99.704617 
L 296.48635 -101.627587 
L 295.742765 -103.550557 
L 294.974438 -105.473528 
L 294.175712 -107.396498 
L 293.340507 -109.319468 
L 292.463313 -111.242439 
L 291.540276 -113.165409 
L 290.570257 -115.088379 
L 289.555739 -117.01135 
L 288.503479 -118.93432 
L 287.424798 -120.85729 
L 286.335491 -122.780261 
L 285.255316 -124.703231 
L 284.20714 -126.626201 
L 283.215783 -128.549172 
L 282.306686 -130.472142 
L 281.504492 -132.395112 
L 280.831667 -134.318083 
L 280.307236 -136.241053 
L 279.945713 -138.164023 
L 279.756284 -140.086993 
L 279.74225 -142.009964 
L 279.900775 -143.932934 
L 280.222928 -145.855904 
L 280.694028 -147.778875 
L 281.294291 -149.701845 
L 281.999769 -151.624815 
L 282.783552 -153.547786 
L 283.617173 -155.470756 
L 284.472156 -157.393726 
L 285.321582 -159.316697 
L 286.141557 -161.239667 
L 286.91246 -163.162637 
L 287.619825 -165.085608 
L 288.254812 -167.008578 
L 288.814197 -168.931548 
L 289.299919 -170.854519 
L 289.718257 -172.777489 
L 290.078757 -174.700459 
L 290.393055 -176.62343 
L 290.67374 -178.5464 
L 290.933384 -180.46937 
L 291.183819 -182.392341 
L 291.435691 -184.315311 
L 291.698269 -186.238281 
L 291.979447 -188.161252 
L 292.285863 -190.084222 
L 292.623015 -192.007192 
L 292.995328 -193.930163 
L 293.406105 -195.853133 
L 293.857358 -197.776103 
L 294.349553 -199.699074 
L 294.881321 -201.622044 
L 295.449223 -203.545014 
L 296.047633 -205.467985 
L 296.66882 -207.390955 
L 297.303236 -209.313925 
L 297.940032 -211.236896 
L 298.567738 -213.159866 
L 299.175057 -215.082836 
L 299.75167 -217.005807 
L 300.288965 -218.928777 
L 300.780611 -220.851747 
L 301.222914 -222.774718 
L 301.614924 -224.697688 
L 301.958297 -226.620658 
L 302.256931 -228.543628 
L 302.516443 -230.466599 
L 302.743535 -232.389569 
L 302.945326 -234.312539 
L 303.128719 -236.23551 
L 303.29986 -238.15848 
L 303.463725 -240.08145 
L 303.623874 -242.004421 
L 307.068626 -242.004421 
L 307.068626 -242.004421 
L 307.228775 -240.08145 
L 307.39264 -238.15848 
L 307.563781 -236.23551 
L 307.747174 -234.312539 
L 307.948965 -232.389569 
L 308.176057 -230.466599 
L 308.435569 -228.543628 
L 308.734203 -226.620658 
L 309.077576 -224.697688 
L 309.469586 -222.774718 
L 309.911889 -220.851747 
L 310.403535 -218.928777 
L 310.94083 -217.005807 
L 311.517443 -215.082836 
L 312.124762 -213.159866 
L 312.752468 -211.236896 
L 313.389264 -209.313925 
L 314.02368 -207.390955 
L 314.644867 -205.467985 
L 315.243277 -203.545014 
L 315.811179 -201.622044 
L 316.342947 -199.699074 
L 316.835142 -197.776103 
L 317.286395 -195.853133 
L 317.697172 -193.930163 
L 318.069485 -192.007192 
L 318.406637 -190.084222 
L 318.713053 -188.161252 
L 318.994231 -186.238281 
L 319.256809 -184.315311 
L 319.508681 -182.392341 
L 319.759116 -180.46937 
L 320.01876 -178.5464 
L 320.299445 -176.62343 
L 320.613743 -174.700459 
L 320.974243 -172.777489 
L 321.392581 -170.854519 
L 321.878303 -168.931548 
L 322.437688 -167.008578 
L 323.072675 -165.085608 
L 323.78004 -163.162637 
L 324.550943 -161.239667 
L 325.370918 -159.316697 
L 326.220344 -157.393726 
L 327.075327 -155.470756 
L 327.908948 -153.547786 
L 328.692731 -151.624815 
L 329.398209 -149.701845 
L 329.998472 -147.778875 
L 330.469572 -145.855904 
L 330.791725 -143.932934 
L 330.95025 -142.009964 
L 330.936216 -140.086993 
L 330.746787 -138.164023 
L 330.385264 -136.241053 
L 329.860833 -134.318083 
L 329.188008 -132.395112 
L 328.385814 -130.472142 
L 327.476717 -128.549172 
L 326.48536 -126.626201 
L 325.437184 -124.703231 
L 324.357009 -122.780261 
L 323.267702 -120.85729 
L 322.189021 -118.93432 
L 321.136761 -117.01135 
L 320.122243 -115.088379 
L 319.152224 -113.165409 
L 318.229187 -111.242439 
L 317.351993 -109.319468 
L 316.516788 -107.396498 
L 315.718062 -105.473528 
L 314.949735 -103.550557 
L 314.20615 -101.627587 
L 313.482878 -99.704617 
L 312.777263 -97.781646 
L 312.088681 -95.858676 
L 311.418525 -93.935706 
L 310.769948 -92.012735 
L 310.147424 -90.089765 
L 309.556213 -88.166795 
L 309.001789 -86.243824 
L 308.489306 -84.320854 
L 308.023141 -82.397884 
L 307.606561 -80.474913 
L 307.241496 -78.551943 
L 306.928449 -76.628973 
L 306.666493 -74.706002 
L 306.453364 -72.783032 
L 306.285606 -70.860062 
L 306.158759 -68.937091 
L 306.067583 -67.014121 
L 306.006285 -65.091151 
L 305.968777 -63.16818 
L 305.948929 -61.24521 
L 305.940821 -59.32224 
L 305.938996 -57.399269 
L 305.938677 -55.476299 
L 305.935954 -53.553329 
L 305.92791 -51.630358 
z
" style="stroke: #2f2f2f; stroke-width: 0.75"/>
    </defs>
    <g clip-path="url(#pd26928e349)">
     <use xlink:href="#mca76fd23a9" x="0" y="301.06575" style="fill: #c283a6; stroke: #2f2f2f; stroke-width: 0.75"/>
    </g>
   </g>
   <g id="FillBetweenPolyCollection_6">
    <defs>
     <path id="m1ad9e57ef6" d="M 362.853604 -52.501354 
L 361.634452 -52.501354 
L 361.616004 -54.40617 
L 361.599575 -56.310986 
L 361.58177 -58.215802 
L 361.558242 -60.120619 
L 361.523849 -62.025435 
L 361.472867 -63.930251 
L 361.399251 -65.835067 
L 361.296917 -67.739883 
L 361.16004 -69.6447 
L 360.983344 -71.549516 
L 360.762369 -73.454332 
L 360.493712 -75.359148 
L 360.175222 -77.263964 
L 359.806128 -79.16878 
L 359.387099 -81.073597 
L 358.920205 -82.978413 
L 358.408776 -84.883229 
L 357.857146 -86.788045 
L 357.270286 -88.692861 
L 356.653351 -90.597678 
L 356.011162 -92.502494 
L 355.347685 -94.40731 
L 354.665558 -96.312126 
L 353.965734 -98.216942 
L 353.247298 -100.121759 
L 352.507513 -102.026575 
L 351.742113 -103.931391 
L 350.945848 -105.836207 
L 350.113241 -107.741023 
L 349.239508 -109.645839 
L 348.321529 -111.550656 
L 347.358799 -113.455472 
L 346.354222 -115.360288 
L 345.314679 -117.265104 
L 344.251275 -119.16992 
L 343.179238 -121.074737 
L 342.117458 -122.979553 
L 341.087697 -124.884369 
L 340.113537 -126.789185 
L 339.219151 -128.694001 
L 338.427991 -130.598818 
L 337.761502 -132.503634 
L 337.237937 -134.40845 
L 336.871357 -136.313266 
L 336.670852 -138.218082 
L 336.640028 -140.122898 
L 336.776761 -142.027715 
L 337.073228 -143.932531 
L 337.516204 -145.837347 
L 338.087635 -147.742163 
L 338.765443 -149.646979 
L 339.524575 -151.551796 
L 340.338229 -153.456612 
L 341.17922 -155.361428 
L 342.02139 -157.266244 
L 342.840976 -159.17106 
L 343.617816 -161.075876 
L 344.33629 -162.980693 
L 344.985909 -164.885509 
L 345.561499 -166.790325 
L 346.062971 -168.695141 
L 346.49472 -170.599957 
L 346.86474 -172.504774 
L 347.183571 -174.40959 
L 347.46321 -176.314406 
L 347.716111 -178.219222 
L 347.954369 -180.124038 
L 348.189135 -182.028855 
L 348.43029 -183.933671 
L 348.686334 -185.838487 
L 348.964427 -187.743303 
L 349.270505 -189.648119 
L 349.609387 -191.552935 
L 349.984817 -193.457752 
L 350.399403 -195.362568 
L 350.854457 -197.267384 
L 351.349761 -199.1722 
L 351.883331 -201.077016 
L 352.451232 -202.981833 
L 353.04752 -204.886649 
L 353.664358 -206.791465 
L 354.292325 -208.696281 
L 354.920914 -210.601097 
L 355.53917 -212.505913 
L 356.136415 -214.41073 
L 356.702977 -216.315546 
L 357.230834 -218.220362 
L 357.71412 -220.125178 
L 358.149433 -222.029994 
L 358.535923 -223.934811 
L 358.875157 -225.839627 
L 359.170795 -227.744443 
L 359.428111 -229.649259 
L 359.653422 -231.554075 
L 359.85348 -233.458892 
L 360.034889 -235.363708 
L 360.203598 -237.268524 
L 360.36451 -239.17334 
L 360.52123 -241.078156 
L 363.966826 -241.078156 
L 363.966826 -241.078156 
L 364.123546 -239.17334 
L 364.284458 -237.268524 
L 364.453167 -235.363708 
L 364.634575 -233.458892 
L 364.834633 -231.554075 
L 365.059944 -229.649259 
L 365.31726 -227.744443 
L 365.612898 -225.839627 
L 365.952133 -223.934811 
L 366.338622 -222.029994 
L 366.773936 -220.125178 
L 367.257222 -218.220362 
L 367.785078 -216.315546 
L 368.35164 -214.41073 
L 368.948886 -212.505913 
L 369.567142 -210.601097 
L 370.19573 -208.696281 
L 370.823698 -206.791465 
L 371.440536 -204.886649 
L 372.036824 -202.981833 
L 372.604725 -201.077016 
L 373.138294 -199.1722 
L 373.633599 -197.267384 
L 374.088652 -195.362568 
L 374.503239 -193.457752 
L 374.878669 -191.552935 
L 375.21755 -189.648119 
L 375.523628 -187.743303 
L 375.801722 -185.838487 
L 376.057766 -183.933671 
L 376.298921 -182.028855 
L 376.533686 -180.124038 
L 376.771944 -178.219222 
L 377.024846 -176.314406 
L 377.304485 -174.40959 
L 377.623315 -172.504774 
L 377.993335 -170.599957 
L 378.425084 -168.695141 
L 378.926556 -166.790325 
L 379.502147 -164.885509 
L 380.151766 -162.980693 
L 380.870239 -161.075876 
L 381.647079 -159.17106 
L 382.466666 -157.266244 
L 383.308836 -155.361428 
L 384.149826 -153.456612 
L 384.96348 -151.551796 
L 385.722612 -149.646979 
L 386.40042 -147.742163 
L 386.971851 -145.837347 
L 387.414828 -143.932531 
L 387.711294 -142.027715 
L 387.848028 -140.122898 
L 387.817204 -138.218082 
L 387.616699 -136.313266 
L 387.250118 -134.40845 
L 386.726553 -132.503634 
L 386.060064 -130.598818 
L 385.268905 -128.694001 
L 384.374519 -126.789185 
L 383.400359 -124.884369 
L 382.370598 -122.979553 
L 381.308817 -121.074737 
L 380.23678 -119.16992 
L 379.173376 -117.265104 
L 378.133833 -115.360288 
L 377.129257 -113.455472 
L 376.166527 -111.550656 
L 375.248548 -109.645839 
L 374.374814 -107.741023 
L 373.542208 -105.836207 
L 372.745942 -103.931391 
L 371.980542 -102.026575 
L 371.240757 -100.121759 
L 370.522321 -98.216942 
L 369.822497 -96.312126 
L 369.140371 -94.40731 
L 368.476894 -92.502494 
L 367.834705 -90.597678 
L 367.217769 -88.692861 
L 366.630909 -86.788045 
L 366.079279 -84.883229 
L 365.56785 -82.978413 
L 365.100957 -81.073597 
L 364.681927 -79.16878 
L 364.312833 -77.263964 
L 363.994343 -75.359148 
L 363.725687 -73.454332 
L 363.504712 -71.549516 
L 363.328015 -69.6447 
L 363.191139 -67.739883 
L 363.088805 -65.835067 
L 363.015188 -63.930251 
L 362.964207 -62.025435 
L 362.929814 -60.120619 
L 362.906286 -58.215802 
L 362.888481 -56.310986 
L 362.872052 -54.40617 
L 362.853604 -52.501354 
z
" style="stroke: #2f2f2f; stroke-width: 0.75"/>
    </defs>
    <g clip-path="url(#pd26928e349)">
     <use xlink:href="#m1ad9e57ef6" x="0" y="301.06575" style="fill: #e3c7d7; stroke: #2f2f2f; stroke-width: 0.75"/>
    </g>
   </g>
   <g id="FillBetweenPolyCollection_7">
    <defs>
     <path id="mbd7fdb07bc" d="M 419.751183 -75.132308 
L 418.532429 -75.132308 
L 418.529707 -77.124677 
L 418.535313 -79.117045 
L 418.545997 -81.109414 
L 418.557236 -83.101783 
L 418.563396 -85.094151 
L 418.557961 -87.08652 
L 418.533807 -89.078888 
L 418.483514 -91.071257 
L 418.399677 -93.063625 
L 418.275228 -95.055994 
L 418.103742 -97.048362 
L 417.879734 -99.040731 
L 417.598921 -101.033099 
L 417.258457 -103.025468 
L 416.857094 -105.017837 
L 416.395258 -107.010205 
L 415.875007 -109.002574 
L 415.299852 -110.994942 
L 414.674421 -112.987311 
L 414.00399 -114.979679 
L 413.293899 -116.972048 
L 412.548921 -118.964416 
L 411.772669 -120.956785 
L 410.967125 -122.949154 
L 410.132416 -124.941522 
L 409.266891 -126.933891 
L 408.367568 -128.926259 
L 407.430935 -130.918628 
L 406.454042 -132.910996 
L 405.435758 -134.903365 
L 404.378004 -136.895733 
L 403.286773 -138.888102 
L 402.172736 -140.880471 
L 401.051276 -142.872839 
L 399.94188 -144.865208 
L 398.866905 -146.857576 
L 397.849842 -148.849945 
L 396.913283 -150.842313 
L 396.076881 -152.834682 
L 395.355574 -154.82705 
L 394.758372 -156.819419 
L 394.287859 -158.811787 
L 393.940524 -160.804156 
L 393.707848 -162.796525 
L 393.577994 -164.788893 
L 393.537806 -166.781262 
L 393.574825 -168.77363 
L 393.678976 -170.765999 
L 393.84368 -172.758367 
L 394.066222 -174.750736 
L 394.347361 -176.743104 
L 394.690274 -178.735473 
L 395.099048 -180.727842 
L 395.57702 -182.72021 
L 396.12525 -184.712579 
L 396.741404 -186.704947 
L 397.419232 -188.697316 
L 398.1487 -190.689684 
L 398.916755 -192.682053 
L 399.708561 -194.674421 
L 400.508994 -196.66679 
L 401.304152 -198.659159 
L 402.082647 -200.651527 
L 402.836506 -202.643896 
L 403.561571 -204.636264 
L 404.25739 -206.628633 
L 404.926657 -208.621001 
L 405.574314 -210.61337 
L 406.206485 -212.605738 
L 406.82937 -214.598107 
L 407.448261 -216.590475 
L 408.066769 -218.582844 
L 408.686326 -220.575213 
L 409.306006 -222.567581 
L 409.922636 -224.55995 
L 410.531177 -226.552318 
L 411.125318 -228.544687 
L 411.698212 -230.537055 
L 412.243259 -232.529424 
L 412.754863 -234.521792 
L 413.229048 -236.514161 
L 413.663871 -238.50653 
L 414.059582 -240.498898 
L 414.418489 -242.491267 
L 414.744585 -244.483635 
L 415.042971 -246.476004 
L 415.31919 -248.468372 
L 415.57856 -250.460741 
L 415.825624 -252.453109 
L 416.063772 -254.445478 
L 416.295094 -256.437847 
L 416.520438 -258.430215 
L 416.73965 -260.422584 
L 416.951906 -262.414952 
L 417.156077 -264.407321 
L 417.351048 -266.399689 
L 417.535937 -268.392058 
L 417.7102 -270.384426 
L 417.873629 -272.376795 
L 420.409982 -272.376795 
L 420.409982 -272.376795 
L 420.573411 -270.384426 
L 420.747674 -268.392058 
L 420.932563 -266.399689 
L 421.127534 -264.407321 
L 421.331706 -262.414952 
L 421.543961 -260.422584 
L 421.763173 -258.430215 
L 421.988517 -256.437847 
L 422.219839 -254.445478 
L 422.457987 -252.453109 
L 422.705051 -250.460741 
L 422.964421 -248.468372 
L 423.24064 -246.476004 
L 423.539026 -244.483635 
L 423.865122 -242.491267 
L 424.224029 -240.498898 
L 424.61974 -238.50653 
L 425.054563 -236.514161 
L 425.528748 -234.521792 
L 426.040352 -232.529424 
L 426.5854 -230.537055 
L 427.158293 -228.544687 
L 427.752434 -226.552318 
L 428.360975 -224.55995 
L 428.977605 -222.567581 
L 429.597285 -220.575213 
L 430.216843 -218.582844 
L 430.83535 -216.590475 
L 431.454241 -214.598107 
L 432.077127 -212.605738 
L 432.709297 -210.61337 
L 433.356955 -208.621001 
L 434.026221 -206.628633 
L 434.72204 -204.636264 
L 435.447105 -202.643896 
L 436.200964 -200.651527 
L 436.979459 -198.659159 
L 437.774617 -196.66679 
L 438.57505 -194.674421 
L 439.366856 -192.682053 
L 440.134911 -190.689684 
L 440.864379 -188.697316 
L 441.542207 -186.704947 
L 442.158361 -184.712579 
L 442.706591 -182.72021 
L 443.184563 -180.727842 
L 443.593337 -178.735473 
L 443.93625 -176.743104 
L 444.217389 -174.750736 
L 444.439931 -172.758367 
L 444.604635 -170.765999 
L 444.708786 -168.77363 
L 444.745806 -166.781262 
L 444.705618 -164.788893 
L 444.575763 -162.796525 
L 444.343087 -160.804156 
L 443.995752 -158.811787 
L 443.525239 -156.819419 
L 442.928037 -154.82705 
L 442.206731 -152.834682 
L 441.370328 -150.842313 
L 440.433769 -148.849945 
L 439.416706 -146.857576 
L 438.341731 -144.865208 
L 437.232335 -142.872839 
L 436.110875 -140.880471 
L 434.996838 -138.888102 
L 433.905607 -136.895733 
L 432.847853 -134.903365 
L 431.829569 -132.910996 
L 430.852677 -130.918628 
L 429.916043 -128.926259 
L 429.01672 -126.933891 
L 428.151195 -124.941522 
L 427.316486 -122.949154 
L 426.510942 -120.956785 
L 425.73469 -118.964416 
L 424.989712 -116.972048 
L 424.279621 -114.979679 
L 423.60919 -112.987311 
L 422.983759 -110.994942 
L 422.408604 -109.002574 
L 421.888353 -107.010205 
L 421.426517 -105.017837 
L 421.025154 -103.025468 
L 420.68469 -101.033099 
L 420.403878 -99.040731 
L 420.179869 -97.048362 
L 420.008384 -95.055994 
L 419.883935 -93.063625 
L 419.800097 -91.071257 
L 419.749804 -89.078888 
L 419.72565 -87.08652 
L 419.720215 -85.094151 
L 419.726375 -83.101783 
L 419.737614 -81.109414 
L 419.748298 -79.117045 
L 419.753904 -77.124677 
L 419.751183 -75.132308 
z
" style="stroke: #2f2f2f; stroke-width: 0.75"/>
    </defs>
    <g clip-path="url(#pd26928e349)">
     <use xlink:href="#mbd7fdb07bc" x="0" y="301.06575" style="fill: #148a6a; stroke: #2f2f2f; stroke-width: 0.75"/>
    </g>
   </g>
   <g id="FillBetweenPolyCollection_8">
    <defs>
     <path id="m5cc96c2d1b" d="M 476.668276 -66.77031 
L 475.410891 -66.77031 
L 475.395343 -68.763041 
L 475.383218 -70.755771 
L 475.370532 -72.748502 
L 475.352103 -74.741232 
L 475.321748 -76.733963 
L 475.272563 -78.726693 
L 475.197249 -80.719424 
L 475.088472 -82.712154 
L 474.939229 -84.704885 
L 474.743192 -86.697615 
L 474.495022 -88.690346 
L 474.190637 -90.683076 
L 473.82742 -92.675807 
L 473.404349 -94.668537 
L 472.922045 -96.661268 
L 472.382705 -98.653998 
L 471.789923 -100.646729 
L 471.148386 -102.639459 
L 470.463453 -104.63219 
L 469.740642 -106.624921 
L 468.985074 -108.617651 
L 468.200941 -110.610382 
L 467.391072 -112.603112 
L 466.55669 -114.595843 
L 465.697419 -116.588573 
L 464.811594 -118.581304 
L 463.896865 -120.574034 
L 462.951063 -122.566765 
L 461.973218 -124.559495 
L 460.964591 -126.552226 
L 459.929575 -128.544956 
L 458.876284 -130.537687 
L 457.816727 -132.530417 
L 456.766479 -134.523148 
L 455.743857 -136.515878 
L 454.768683 -138.508609 
L 453.860784 -140.501339 
L 453.038434 -142.49407 
L 452.316954 -144.486801 
L 451.707663 -146.479531 
L 451.217333 -148.472262 
L 450.848192 -150.464992 
L 450.598448 -152.457723 
L 450.463204 -154.450453 
L 450.435583 -156.443184 
L 450.507857 -158.435914 
L 450.67236 -160.428645 
L 450.922074 -162.421375 
L 451.250792 -164.414106 
L 451.652903 -166.406836 
L 452.122888 -168.399567 
L 452.654683 -170.392297 
L 453.2411 -172.385028 
L 453.873446 -174.377758 
L 454.541466 -176.370489 
L 455.233669 -178.363219 
L 455.937982 -180.35595 
L 456.642663 -182.34868 
L 457.337321 -184.341411 
L 458.013865 -186.334142 
L 458.667241 -188.326872 
L 459.295817 -190.319603 
L 459.901353 -192.312333 
L 460.488553 -194.305064 
L 461.064261 -196.297794 
L 461.636415 -198.290525 
L 462.212914 -200.283255 
L 462.800541 -202.275986 
L 463.404077 -204.268716 
L 464.025709 -206.261447 
L 464.664758 -208.254177 
L 465.317747 -210.246908 
L 465.978743 -212.239638 
L 466.639923 -214.232369 
L 467.292277 -216.225099 
L 467.926377 -218.21783 
L 468.533142 -220.21056 
L 469.104549 -222.203291 
L 469.634226 -224.196021 
L 470.11792 -226.188752 
L 470.553761 -228.181483 
L 470.942335 -230.174213 
L 471.286534 -232.166944 
L 471.591201 -234.159674 
L 471.862597 -236.152405 
L 472.107752 -238.145135 
L 472.333783 -240.137866 
L 472.547246 -242.130596 
L 472.753612 -244.123327 
L 472.956926 -246.116057 
L 473.159672 -248.108788 
L 473.362834 -250.101518 
L 473.566139 -252.094249 
L 473.768389 -254.086979 
L 473.96785 -256.07971 
L 474.162601 -258.07244 
L 474.350825 -260.065171 
L 474.530984 -262.057901 
L 474.7019 -264.050632 
L 477.377266 -264.050632 
L 477.377266 -264.050632 
L 477.548182 -262.057901 
L 477.728341 -260.065171 
L 477.916565 -258.07244 
L 478.111317 -256.07971 
L 478.310777 -254.086979 
L 478.513028 -252.094249 
L 478.716332 -250.101518 
L 478.919495 -248.108788 
L 479.12224 -246.116057 
L 479.325555 -244.123327 
L 479.531921 -242.130596 
L 479.745383 -240.137866 
L 479.971415 -238.145135 
L 480.21657 -236.152405 
L 480.487965 -234.159674 
L 480.792632 -232.166944 
L 481.136832 -230.174213 
L 481.525406 -228.181483 
L 481.961246 -226.188752 
L 482.44494 -224.196021 
L 482.974618 -222.203291 
L 483.546024 -220.21056 
L 484.15279 -218.21783 
L 484.78689 -216.225099 
L 485.439244 -214.232369 
L 486.100424 -212.239638 
L 486.76142 -210.246908 
L 487.414409 -208.254177 
L 488.053458 -206.261447 
L 488.67509 -204.268716 
L 489.278626 -202.275986 
L 489.866253 -200.283255 
L 490.442752 -198.290525 
L 491.014906 -196.297794 
L 491.590614 -194.305064 
L 492.177814 -192.312333 
L 492.78335 -190.319603 
L 493.411926 -188.326872 
L 494.065302 -186.334142 
L 494.741846 -184.341411 
L 495.436503 -182.34868 
L 496.141185 -180.35595 
L 496.845497 -178.363219 
L 497.5377 -176.370489 
L 498.205721 -174.377758 
L 498.838066 -172.385028 
L 499.424484 -170.392297 
L 499.956279 -168.399567 
L 500.426263 -166.406836 
L 500.828374 -164.414106 
L 501.157092 -162.421375 
L 501.406806 -160.428645 
L 501.57131 -158.435914 
L 501.643583 -156.443184 
L 501.615963 -154.450453 
L 501.480718 -152.457723 
L 501.230974 -150.464992 
L 500.861834 -148.472262 
L 500.371504 -146.479531 
L 499.762213 -144.486801 
L 499.040732 -142.49407 
L 498.218383 -140.501339 
L 497.310483 -138.508609 
L 496.335309 -136.515878 
L 495.312687 -134.523148 
L 494.26244 -132.530417 
L 493.202883 -130.537687 
L 492.149592 -128.544956 
L 491.114576 -126.552226 
L 490.105949 -124.559495 
L 489.128104 -122.566765 
L 488.182302 -120.574034 
L 487.267573 -118.581304 
L 486.381747 -116.588573 
L 485.522477 -114.595843 
L 484.688095 -112.603112 
L 483.878226 -110.610382 
L 483.094092 -108.617651 
L 482.338525 -106.624921 
L 481.615714 -104.63219 
L 480.930781 -102.639459 
L 480.289244 -100.646729 
L 479.696462 -98.653998 
L 479.157121 -96.661268 
L 478.674817 -94.668537 
L 478.251747 -92.675807 
L 477.88853 -90.683076 
L 477.584145 -88.690346 
L 477.335975 -86.697615 
L 477.139937 -84.704885 
L 476.990694 -82.712154 
L 476.881918 -80.719424 
L 476.806603 -78.726693 
L 476.757418 -76.733963 
L 476.727064 -74.741232 
L 476.708635 -72.748502 
L 476.695949 -70.755771 
L 476.683824 -68.763041 
L 476.668276 -66.77031 
z
" style="stroke: #2f2f2f; stroke-width: 0.75"/>
    </defs>
    <g clip-path="url(#pd26928e349)">
     <use xlink:href="#m5cc96c2d1b" x="0" y="301.06575" style="fill: #95cabc; stroke: #2f2f2f; stroke-width: 0.75"/>
    </g>
   </g>
   <g id="FillBetweenPolyCollection_9">
    <defs>
     <path id="m60a0a7f052" d="M 533.576848 -115.424754 
L 532.297874 -115.424754 
L 532.273222 -117.178937 
L 532.247693 -118.933119 
L 532.215461 -120.687302 
L 532.169147 -122.441485 
L 532.100128 -124.195667 
L 531.998985 -125.94985 
L 531.856063 -127.704033 
L 531.662086 -129.458216 
L 531.40879 -131.212398 
L 531.089485 -132.966581 
L 530.699507 -134.720764 
L 530.236476 -136.474946 
L 529.700351 -138.229129 
L 529.09324 -139.983312 
L 528.419016 -141.737494 
L 527.682774 -143.491677 
L 526.890233 -145.24586 
L 526.047174 -147.000042 
L 525.15902 -148.754225 
L 524.230634 -150.508408 
L 523.266361 -152.262591 
L 522.270311 -154.016773 
L 521.246798 -155.770956 
L 520.200849 -157.525139 
L 519.138667 -159.279321 
L 518.067931 -161.033504 
L 516.997873 -162.787687 
L 515.939105 -164.541869 
L 514.903209 -166.296052 
L 513.902156 -168.050235 
L 512.947641 -169.804418 
L 512.050423 -171.5586 
L 511.219755 -173.312783 
L 510.462972 -175.066966 
L 509.785291 -176.821148 
L 509.189836 -178.575331 
L 508.677891 -180.329514 
L 508.249356 -182.083696 
L 507.903336 -183.837879 
L 507.638802 -185.592062 
L 507.455193 -187.346245 
L 507.352878 -189.100427 
L 507.333361 -190.85461 
L 507.399182 -192.608793 
L 507.553502 -194.362975 
L 507.799443 -196.117158 
L 508.139273 -197.871341 
L 508.573597 -199.625523 
L 509.100698 -201.379706 
L 509.716139 -203.133889 
L 510.412689 -204.888071 
L 511.180573 -206.642254 
L 512.007985 -208.396437 
L 512.88176 -210.15062 
L 513.788087 -211.904802 
L 514.713183 -213.658985 
L 515.643849 -215.413168 
L 516.567887 -217.16735 
L 517.474391 -218.921533 
L 518.353933 -220.675716 
L 519.19868 -222.429898 
L 520.002466 -224.184081 
L 520.760823 -225.938264 
L 521.47097 -227.692447 
L 522.131751 -229.446629 
L 522.743515 -231.200812 
L 523.307941 -232.954995 
L 523.827814 -234.709177 
L 524.306783 -236.46336 
L 524.749105 -238.217543 
L 525.159405 -239.971725 
L 525.542462 -241.725908 
L 525.903017 -243.480091 
L 526.245613 -245.234273 
L 526.574451 -246.988456 
L 526.893284 -248.742639 
L 527.205317 -250.496822 
L 527.513155 -252.251004 
L 527.818764 -254.005187 
L 528.123456 -255.75937 
L 528.427892 -257.513552 
L 528.732089 -259.267735 
L 529.035421 -261.021918 
L 529.336626 -262.7761 
L 529.633816 -264.530283 
L 529.924532 -266.284466 
L 530.205837 -268.038649 
L 530.474495 -269.792831 
L 530.727208 -271.547014 
L 530.960932 -273.301197 
L 531.173198 -275.055379 
L 531.36242 -276.809562 
L 531.528124 -278.563745 
L 531.671046 -280.317927 
L 531.793092 -282.07211 
L 531.897132 -283.826293 
L 531.986681 -285.580476 
L 532.065504 -287.334658 
L 532.137196 -289.088841 
L 533.737526 -289.088841 
L 533.737526 -289.088841 
L 533.809219 -287.334658 
L 533.888041 -285.580476 
L 533.977591 -283.826293 
L 534.08163 -282.07211 
L 534.203676 -280.317927 
L 534.346599 -278.563745 
L 534.512302 -276.809562 
L 534.701524 -275.055379 
L 534.91379 -273.301197 
L 535.147514 -271.547014 
L 535.400228 -269.792831 
L 535.668885 -268.038649 
L 535.95019 -266.284466 
L 536.240906 -264.530283 
L 536.538097 -262.7761 
L 536.839301 -261.021918 
L 537.142633 -259.267735 
L 537.44683 -257.513552 
L 537.751267 -255.75937 
L 538.055958 -254.005187 
L 538.361567 -252.251004 
L 538.669405 -250.496822 
L 538.981439 -248.742639 
L 539.300271 -246.988456 
L 539.62911 -245.234273 
L 539.971705 -243.480091 
L 540.332261 -241.725908 
L 540.715317 -239.971725 
L 541.125617 -238.217543 
L 541.567939 -236.46336 
L 542.046908 -234.709177 
L 542.566782 -232.954995 
L 543.131207 -231.200812 
L 543.742971 -229.446629 
L 544.403752 -227.692447 
L 545.113899 -225.938264 
L 545.872256 -224.184081 
L 546.676042 -222.429898 
L 547.520789 -220.675716 
L 548.400331 -218.921533 
L 549.306835 -217.16735 
L 550.230873 -215.413168 
L 551.161539 -213.658985 
L 552.086636 -211.904802 
L 552.992962 -210.15062 
L 553.866737 -208.396437 
L 554.69415 -206.642254 
L 555.462034 -204.888071 
L 556.158583 -203.133889 
L 556.774024 -201.379706 
L 557.301126 -199.625523 
L 557.735449 -197.871341 
L 558.075279 -196.117158 
L 558.32122 -194.362975 
L 558.475541 -192.608793 
L 558.541361 -190.85461 
L 558.521844 -189.100427 
L 558.41953 -187.346245 
L 558.235921 -185.592062 
L 557.971386 -183.837879 
L 557.625366 -182.083696 
L 557.196831 -180.329514 
L 556.684886 -178.575331 
L 556.089431 -176.821148 
L 555.41175 -175.066966 
L 554.654967 -173.312783 
L 553.824299 -171.5586 
L 552.927081 -169.804418 
L 551.972567 -168.050235 
L 550.971513 -166.296052 
L 549.935617 -164.541869 
L 548.876849 -162.787687 
L 547.806791 -161.033504 
L 546.736055 -159.279321 
L 545.673873 -157.525139 
L 544.627925 -155.770956 
L 543.604411 -154.016773 
L 542.608361 -152.262591 
L 541.644088 -150.508408 
L 540.715702 -148.754225 
L 539.827548 -147.000042 
L 538.984489 -145.24586 
L 538.191948 -143.491677 
L 537.455707 -141.737494 
L 536.781482 -139.983312 
L 536.174372 -138.229129 
L 535.638246 -136.474946 
L 535.175215 -134.720764 
L 534.785237 -132.966581 
L 534.465932 -131.212398 
L 534.212636 -129.458216 
L 534.018659 -127.704033 
L 533.875737 -125.94985 
L 533.774595 -124.195667 
L 533.705576 -122.441485 
L 533.659261 -120.687302 
L 533.627029 -118.933119 
L 533.6015 -117.178937 
L 533.576848 -115.424754 
z
" style="stroke: #2f2f2f; stroke-width: 0.75"/>
    </defs>
    <g clip-path="url(#pd26928e349)">
     <use xlink:href="#m60a0a7f052" x="0" y="301.06575" style="fill: #c9941d; stroke: #2f2f2f; stroke-width: 0.75"/>
    </g>
   </g>
   <g id="matplotlib.axis_1">
    <g id="xtick_1">
     <g id="text_1">
      <!-- MVT -->
      <g transform="translate(66.966858 276.590438) scale(0.1 -0.1)">
       <defs>
        <path id="DejaVuSans-4d" d="M 628 4666 
L 1569 4666 
L 2759 1491 
L 3956 4666 
L 4897 4666 
L 4897 0 
L 4281 0 
L 4281 4097 
L 3078 897 
L 2444 897 
L 1241 4097 
L 1241 0 
L 628 0 
L 628 4666 
z
" transform="scale(0.015625)"/>
        <path id="DejaVuSans-56" d="M 1831 0 
L 50 4666 
L 709 4666 
L 2188 738 
L 3669 4666 
L 4325 4666 
L 2547 0 
L 1831 0 
z
" transform="scale(0.015625)"/>
        <path id="DejaVuSans-54" d="M -19 4666 
L 3928 4666 
L 3928 4134 
L 2272 4134 
L 2272 0 
L 1638 0 
L 1638 4134 
L -19 4134 
L -19 4666 
z
" transform="scale(0.015625)"/>
       </defs>
       <use xlink:href="#DejaVuSans-4d"/>
       <use xlink:href="#DejaVuSans-56" transform="translate(86.279297 0)"/>
       <use xlink:href="#DejaVuSans-54" transform="translate(154.6875 0)"/>
      </g>
     </g>
    </g>
    <g id="xtick_2">
     <g id="text_2">
      <!-- MVT -->
      <g transform="translate(123.864635 276.590438) scale(0.1 -0.1)">
       <use xlink:href="#DejaVuSans-4d"/>
       <use xlink:href="#DejaVuSans-56" transform="translate(86.279297 0)"/>
       <use xlink:href="#DejaVuSans-54" transform="translate(154.6875 0)"/>
      </g>
      <!-- (SIMD) -->
      <g transform="translate(117.938073 287.78825) scale(0.1 -0.1)">
       <defs>
        <path id="DejaVuSans-28" d="M 1984 4856 
Q 1566 4138 1362 3434 
Q 1159 2731 1159 2009 
Q 1159 1288 1364 580 
Q 1569 -128 1984 -844 
L 1484 -844 
Q 1016 -109 783 600 
Q 550 1309 550 2009 
Q 550 2706 781 3412 
Q 1013 4119 1484 4856 
L 1984 4856 
z
" transform="scale(0.015625)"/>
        <path id="DejaVuSans-53" d="M 3425 4513 
L 3425 3897 
Q 3066 4069 2747 4153 
Q 2428 4238 2131 4238 
Q 1616 4238 1336 4038 
Q 1056 3838 1056 3469 
Q 1056 3159 1242 3001 
Q 1428 2844 1947 2747 
L 2328 2669 
Q 3034 2534 3370 2195 
Q 3706 1856 3706 1288 
Q 3706 609 3251 259 
Q 2797 -91 1919 -91 
Q 1588 -91 1214 -16 
Q 841 59 441 206 
L 441 856 
Q 825 641 1194 531 
Q 1563 422 1919 422 
Q 2459 422 2753 634 
Q 3047 847 3047 1241 
Q 3047 1584 2836 1778 
Q 2625 1972 2144 2069 
L 1759 2144 
Q 1053 2284 737 2584 
Q 422 2884 422 3419 
Q 422 4038 858 4394 
Q 1294 4750 2059 4750 
Q 2388 4750 2728 4690 
Q 3069 4631 3425 4513 
z
" transform="scale(0.015625)"/>
        <path id="DejaVuSans-49" d="M 628 4666 
L 1259 4666 
L 1259 0 
L 628 0 
L 628 4666 
z
" transform="scale(0.015625)"/>
        <path id="DejaVuSans-44" d="M 1259 4147 
L 1259 519 
L 2022 519 
Q 2988 519 3436 956 
Q 3884 1394 3884 2338 
Q 3884 3275 3436 3711 
Q 2988 4147 2022 4147 
L 1259 4147 
z
M 628 4666 
L 1925 4666 
Q 3281 4666 3915 4102 
Q 4550 3538 4550 2338 
Q 4550 1131 3912 565 
Q 3275 0 1925 0 
L 628 0 
L 628 4666 
z
" transform="scale(0.015625)"/>
        <path id="DejaVuSans-29" d="M 513 4856 
L 1013 4856 
Q 1481 4119 1714 3412 
Q 1947 2706 1947 2009 
Q 1947 1309 1714 600 
Q 1481 -109 1013 -844 
L 513 -844 
Q 928 -128 1133 580 
Q 1338 1288 1338 2009 
Q 1338 2731 1133 3434 
Q 928 4138 513 4856 
z
" transform="scale(0.015625)"/>
       </defs>
       <use xlink:href="#DejaVuSans-28"/>
       <use xlink:href="#DejaVuSans-53" transform="translate(39.013672 0)"/>
       <use xlink:href="#DejaVuSans-49" transform="translate(102.490234 0)"/>
       <use xlink:href="#DejaVuSans-4d" transform="translate(131.982422 0)"/>
       <use xlink:href="#DejaVuSans-44" transform="translate(218.261719 0)"/>
       <use xlink:href="#DejaVuSans-29" transform="translate(295.263672 0)"/>
      </g>
     </g>
    </g>
    <g id="xtick_3">
     <g id="text_3">
      <!-- Mutable -->
      <g transform="translate(171.403819 276.590438) scale(0.1 -0.1)">
       <defs>
        <path id="DejaVuSans-75" d="M 544 1381 
L 544 3500 
L 1119 3500 
L 1119 1403 
Q 1119 906 1312 657 
Q 1506 409 1894 409 
Q 2359 409 2629 706 
Q 2900 1003 2900 1516 
L 2900 3500 
L 3475 3500 
L 3475 0 
L 2900 0 
L 2900 538 
Q 2691 219 2414 64 
Q 2138 -91 1772 -91 
Q 1169 -91 856 284 
Q 544 659 544 1381 
z
M 1991 3584 
L 1991 3584 
z
" transform="scale(0.015625)"/>
        <path id="DejaVuSans-74" d="M 1172 4494 
L 1172 3500 
L 2356 3500 
L 2356 3053 
L 1172 3053 
L 1172 1153 
Q 1172 725 1289 603 
Q 1406 481 1766 481 
L 2356 481 
L 2356 0 
L 1766 0 
Q 1100 0 847 248 
Q 594 497 594 1153 
L 594 3053 
L 172 3053 
L 172 3500 
L 594 3500 
L 594 4494 
L 1172 4494 
z
" transform="scale(0.015625)"/>
        <path id="DejaVuSans-61" d="M 2194 1759 
Q 1497 1759 1228 1600 
Q 959 1441 959 1056 
Q 959 750 1161 570 
Q 1363 391 1709 391 
Q 2188 391 2477 730 
Q 2766 1069 2766 1631 
L 2766 1759 
L 2194 1759 
z
M 3341 1997 
L 3341 0 
L 2766 0 
L 2766 531 
Q 2569 213 2275 61 
Q 1981 -91 1556 -91 
Q 1019 -91 701 211 
Q 384 513 384 1019 
Q 384 1609 779 1909 
Q 1175 2209 1959 2209 
L 2766 2209 
L 2766 2266 
Q 2766 2663 2505 2880 
Q 2244 3097 1772 3097 
Q 1472 3097 1187 3025 
Q 903 2953 641 2809 
L 641 3341 
Q 956 3463 1253 3523 
Q 1550 3584 1831 3584 
Q 2591 3584 2966 3190 
Q 3341 2797 3341 1997 
z
" transform="scale(0.015625)"/>
        <path id="DejaVuSans-62" d="M 3116 1747 
Q 3116 2381 2855 2742 
Q 2594 3103 2138 3103 
Q 1681 3103 1420 2742 
Q 1159 2381 1159 1747 
Q 1159 1113 1420 752 
Q 1681 391 2138 391 
Q 2594 391 2855 752 
Q 3116 1113 3116 1747 
z
M 1159 2969 
Q 1341 3281 1617 3432 
Q 1894 3584 2278 3584 
Q 2916 3584 3314 3078 
Q 3713 2572 3713 1747 
Q 3713 922 3314 415 
Q 2916 -91 2278 -91 
Q 1894 -91 1617 61 
Q 1341 213 1159 525 
L 1159 0 
L 581 0 
L 581 4863 
L 1159 4863 
L 1159 2969 
z
" transform="scale(0.015625)"/>
        <path id="DejaVuSans-6c" d="M 603 4863 
L 1178 4863 
L 1178 0 
L 603 0 
L 603 4863 
z
" transform="scale(0.015625)"/>
        <path id="DejaVuSans-65" d="M 3597 1894 
L 3597 1613 
L 953 1613 
Q 991 1019 1311 708 
Q 1631 397 2203 397 
Q 2534 397 2845 478 
Q 3156 559 3463 722 
L 3463 178 
Q 3153 47 2828 -22 
Q 2503 -91 2169 -91 
Q 1331 -91 842 396 
Q 353 884 353 1716 
Q 353 2575 817 3079 
Q 1281 3584 2069 3584 
Q 2775 3584 3186 3129 
Q 3597 2675 3597 1894 
z
M 3022 2063 
Q 3016 2534 2758 2815 
Q 2500 3097 2075 3097 
Q 1594 3097 1305 2825 
Q 1016 2553 972 2059 
L 3022 2063 
z
" transform="scale(0.015625)"/>
       </defs>
       <use xlink:href="#DejaVuSans-4d"/>
       <use xlink:href="#DejaVuSans-75" transform="translate(86.279297 0)"/>
       <use xlink:href="#DejaVuSans-74" transform="translate(149.658203 0)"/>
       <use xlink:href="#DejaVuSans-61" transform="translate(188.867188 0)"/>
       <use xlink:href="#DejaVuSans-62" transform="translate(250.146484 0)"/>
       <use xlink:href="#DejaVuSans-6c" transform="translate(313.623047 0)"/>
       <use xlink:href="#DejaVuSans-65" transform="translate(341.40625 0)"/>
      </g>
      <!-- MVT -->
      <g transform="translate(180.762413 287.78825) scale(0.1 -0.1)">
       <use xlink:href="#DejaVuSans-4d"/>
       <use xlink:href="#DejaVuSans-56" transform="translate(86.279297 0)"/>
       <use xlink:href="#DejaVuSans-54" transform="translate(154.6875 0)"/>
      </g>
     </g>
    </g>
    <g id="xtick_4">
     <g id="text_4">
      <!-- Mutable -->
      <g transform="translate(228.301597 276.590438) scale(0.1 -0.1)">
       <use xlink:href="#DejaVuSans-4d"/>
       <use xlink:href="#DejaVuSans-75" transform="translate(86.279297 0)"/>
       <use xlink:href="#DejaVuSans-74" transform="translate(149.658203 0)"/>
       <use xlink:href="#DejaVuSans-61" transform="translate(188.867188 0)"/>
       <use xlink:href="#DejaVuSans-62" transform="translate(250.146484 0)"/>
       <use xlink:href="#DejaVuSans-6c" transform="translate(313.623047 0)"/>
       <use xlink:href="#DejaVuSans-65" transform="translate(341.40625 0)"/>
      </g>
      <!-- MVT -->
      <g transform="translate(237.660191 287.78825) scale(0.1 -0.1)">
       <use xlink:href="#DejaVuSans-4d"/>
       <use xlink:href="#DejaVuSans-56" transform="translate(86.279297 0)"/>
       <use xlink:href="#DejaVuSans-54" transform="translate(154.6875 0)"/>
      </g>
      <!-- (SIMD) -->
      <g transform="translate(231.733628 298.986063) scale(0.1 -0.1)">
       <use xlink:href="#DejaVuSans-28"/>
       <use xlink:href="#DejaVuSans-53" transform="translate(39.013672 0)"/>
       <use xlink:href="#DejaVuSans-49" transform="translate(102.490234 0)"/>
       <use xlink:href="#DejaVuSans-4d" transform="translate(131.982422 0)"/>
       <use xlink:href="#DejaVuSans-44" transform="translate(218.261719 0)"/>
       <use xlink:href="#DejaVuSans-29" transform="translate(295.263672 0)"/>
      </g>
     </g>
    </g>
    <g id="xtick_5">
     <g id="text_5">
      <!-- MVT -->
      <g transform="translate(294.557969 276.590438) scale(0.1 -0.1)">
       <use xlink:href="#DejaVuSans-4d"/>
       <use xlink:href="#DejaVuSans-56" transform="translate(86.279297 0)"/>
       <use xlink:href="#DejaVuSans-54" transform="translate(154.6875 0)"/>
      </g>
      <!-- (C++) -->
      <g transform="translate(289.573594 287.78825) scale(0.1 -0.1)">
       <defs>
        <path id="DejaVuSans-43" d="M 4122 4306 
L 4122 3641 
Q 3803 3938 3442 4084 
Q 3081 4231 2675 4231 
Q 1875 4231 1450 3742 
Q 1025 3253 1025 2328 
Q 1025 1406 1450 917 
Q 1875 428 2675 428 
Q 3081 428 3442 575 
Q 3803 722 4122 1019 
L 4122 359 
Q 3791 134 3420 21 
Q 3050 -91 2638 -91 
Q 1578 -91 968 557 
Q 359 1206 359 2328 
Q 359 3453 968 4101 
Q 1578 4750 2638 4750 
Q 3056 4750 3426 4639 
Q 3797 4528 4122 4306 
z
" transform="scale(0.015625)"/>
        <path id="DejaVuSans-2b" d="M 2944 4013 
L 2944 2272 
L 4684 2272 
L 4684 1741 
L 2944 1741 
L 2944 0 
L 2419 0 
L 2419 1741 
L 678 1741 
L 678 2272 
L 2419 2272 
L 2419 4013 
L 2944 4013 
z
" transform="scale(0.015625)"/>
       </defs>
       <use xlink:href="#DejaVuSans-28"/>
       <use xlink:href="#DejaVuSans-43" transform="translate(39.013672 0)"/>
       <use xlink:href="#DejaVuSans-2b" transform="translate(108.837891 0)"/>
       <use xlink:href="#DejaVuSans-2b" transform="translate(192.626953 0)"/>
       <use xlink:href="#DejaVuSans-29" transform="translate(276.416016 0)"/>
      </g>
     </g>
    </g>
    <g id="xtick_6">
     <g id="text_6">
      <!-- MVT -->
      <g transform="translate(351.455747 276.590438) scale(0.1 -0.1)">
       <use xlink:href="#DejaVuSans-4d"/>
       <use xlink:href="#DejaVuSans-56" transform="translate(86.279297 0)"/>
       <use xlink:href="#DejaVuSans-54" transform="translate(154.6875 0)"/>
      </g>
      <!-- (C++, SIMD) -->
      <g transform="translate(330.479965 287.78825) scale(0.1 -0.1)">
       <defs>
        <path id="DejaVuSans-2c" d="M 750 794 
L 1409 794 
L 1409 256 
L 897 -744 
L 494 -744 
L 750 256 
L 750 794 
z
" transform="scale(0.015625)"/>
        <path id="DejaVuSans-20" transform="scale(0.015625)"/>
       </defs>
       <use xlink:href="#DejaVuSans-28"/>
       <use xlink:href="#DejaVuSans-43" transform="translate(39.013672 0)"/>
       <use xlink:href="#DejaVuSans-2b" transform="translate(108.837891 0)"/>
       <use xlink:href="#DejaVuSans-2b" transform="translate(192.626953 0)"/>
       <use xlink:href="#DejaVuSans-2c" transform="translate(276.416016 0)"/>
       <use xlink:href="#DejaVuSans-20" transform="translate(308.203125 0)"/>
       <use xlink:href="#DejaVuSans-53" transform="translate(339.990234 0)"/>
       <use xlink:href="#DejaVuSans-49" transform="translate(403.466797 0)"/>
       <use xlink:href="#DejaVuSans-4d" transform="translate(432.958984 0)"/>
       <use xlink:href="#DejaVuSans-44" transform="translate(519.238281 0)"/>
       <use xlink:href="#DejaVuSans-29" transform="translate(596.240234 0)"/>
      </g>
     </g>
    </g>
    <g id="xtick_7">
     <g id="text_7">
      <!-- CAPT -->
      <g transform="translate(406.161337 276.590438) scale(0.1 -0.1)">
       <defs>
        <path id="DejaVuSans-41" d="M 2188 4044 
L 1331 1722 
L 3047 1722 
L 2188 4044 
z
M 1831 4666 
L 2547 4666 
L 4325 0 
L 3669 0 
L 3244 1197 
L 1141 1197 
L 716 0 
L 50 0 
L 1831 4666 
z
" transform="scale(0.015625)"/>
        <path id="DejaVuSans-50" d="M 1259 4147 
L 1259 2394 
L 2053 2394 
Q 2494 2394 2734 2622 
Q 2975 2850 2975 3272 
Q 2975 3691 2734 3919 
Q 2494 4147 2053 4147 
L 1259 4147 
z
M 628 4666 
L 2053 4666 
Q 2838 4666 3239 4311 
Q 3641 3956 3641 3272 
Q 3641 2581 3239 2228 
Q 2838 1875 2053 1875 
L 1259 1875 
L 1259 0 
L 628 0 
L 628 4666 
z
" transform="scale(0.015625)"/>
       </defs>
       <use xlink:href="#DejaVuSans-43"/>
       <use xlink:href="#DejaVuSans-41" transform="translate(69.824219 0)"/>
       <use xlink:href="#DejaVuSans-50" transform="translate(138.232422 0)"/>
       <use xlink:href="#DejaVuSans-54" transform="translate(198.535156 0)"/>
      </g>
     </g>
    </g>
    <g id="xtick_8">
     <g id="text_8">
      <!-- CAPT -->
      <g transform="translate(463.059115 276.590438) scale(0.1 -0.1)">
       <use xlink:href="#DejaVuSans-43"/>
       <use xlink:href="#DejaVuSans-41" transform="translate(69.824219 0)"/>
       <use xlink:href="#DejaVuSans-50" transform="translate(138.232422 0)"/>
       <use xlink:href="#DejaVuSans-54" transform="translate(198.535156 0)"/>
      </g>
      <!-- (SIMD) -->
      <g transform="translate(459.32474 287.78825) scale(0.1 -0.1)">
       <use xlink:href="#DejaVuSans-28"/>
       <use xlink:href="#DejaVuSans-53" transform="translate(39.013672 0)"/>
       <use xlink:href="#DejaVuSans-49" transform="translate(102.490234 0)"/>
       <use xlink:href="#DejaVuSans-4d" transform="translate(131.982422 0)"/>
       <use xlink:href="#DejaVuSans-44" transform="translate(218.261719 0)"/>
       <use xlink:href="#DejaVuSans-29" transform="translate(295.263672 0)"/>
      </g>
     </g>
    </g>
    <g id="xtick_9">
     <g id="text_9">
      <!-- kiddo -->
      <g transform="translate(519.245174 276.590438) scale(0.1 -0.1)">
       <defs>
        <path id="DejaVuSans-6b" d="M 581 4863 
L 1159 4863 
L 1159 1991 
L 2875 3500 
L 3609 3500 
L 1753 1863 
L 3688 0 
L 2938 0 
L 1159 1709 
L 1159 0 
L 581 0 
L 581 4863 
z
" transform="scale(0.015625)"/>
        <path id="DejaVuSans-69" d="M 603 3500 
L 1178 3500 
L 1178 0 
L 603 0 
L 603 3500 
z
M 603 4863 
L 1178 4863 
L 1178 4134 
L 603 4134 
L 603 4863 
z
" transform="scale(0.015625)"/>
        <path id="DejaVuSans-64" d="M 2906 2969 
L 2906 4863 
L 3481 4863 
L 3481 0 
L 2906 0 
L 2906 525 
Q 2725 213 2448 61 
Q 2172 -91 1784 -91 
Q 1150 -91 751 415 
Q 353 922 353 1747 
Q 353 2572 751 3078 
Q 1150 3584 1784 3584 
Q 2172 3584 2448 3432 
Q 2725 3281 2906 2969 
z
M 947 1747 
Q 947 1113 1208 752 
Q 1469 391 1925 391 
Q 2381 391 2643 752 
Q 2906 1113 2906 1747 
Q 2906 2381 2643 2742 
Q 2381 3103 1925 3103 
Q 1469 3103 1208 2742 
Q 947 2381 947 1747 
z
" transform="scale(0.015625)"/>
        <path id="DejaVuSans-6f" d="M 1959 3097 
Q 1497 3097 1228 2736 
Q 959 2375 959 1747 
Q 959 1119 1226 758 
Q 1494 397 1959 397 
Q 2419 397 2687 759 
Q 2956 1122 2956 1747 
Q 2956 2369 2687 2733 
Q 2419 3097 1959 3097 
z
M 1959 3584 
Q 2709 3584 3137 3096 
Q 3566 2609 3566 1747 
Q 3566 888 3137 398 
Q 2709 -91 1959 -91 
Q 1206 -91 779 398 
Q 353 888 353 1747 
Q 353 2609 779 3096 
Q 1206 3584 1959 3584 
z
" transform="scale(0.015625)"/>
       </defs>
       <use xlink:href="#DejaVuSans-6b"/>
       <use xlink:href="#DejaVuSans-69" transform="translate(57.910156 0)"/>
       <use xlink:href="#DejaVuSans-64" transform="translate(85.693359 0)"/>
       <use xlink:href="#DejaVuSans-64" transform="translate(149.169922 0)"/>
       <use xlink:href="#DejaVuSans-6f" transform="translate(212.646484 0)"/>
      </g>
     </g>
    </g>
   </g>
   <g id="matplotlib.axis_2">
    <g id="ytick_1">
     <g id="line2d_1">
      <defs>
       <path id="mc9e3135d84" d="M 0 0 
L -3.5 0 
" style="stroke: #000000; stroke-width: 0.8"/>
      </defs>
      <g>
       <use xlink:href="#mc9e3135d84" x="49.30625" y="251.515091" style="stroke: #000000; stroke-width: 0.8"/>
      </g>
     </g>
     <g id="text_10">
      <!-- 0.173 -->
      <g transform="translate(13.678125 255.31431) scale(0.1 -0.1)">
       <defs>
        <path id="DejaVuSans-30" d="M 2034 4250 
Q 1547 4250 1301 3770 
Q 1056 3291 1056 2328 
Q 1056 1369 1301 889 
Q 1547 409 2034 409 
Q 2525 409 2770 889 
Q 3016 1369 3016 2328 
Q 3016 3291 2770 3770 
Q 2525 4250 2034 4250 
z
M 2034 4750 
Q 2819 4750 3233 4129 
Q 3647 3509 3647 2328 
Q 3647 1150 3233 529 
Q 2819 -91 2034 -91 
Q 1250 -91 836 529 
Q 422 1150 422 2328 
Q 422 3509 836 4129 
Q 1250 4750 2034 4750 
z
" transform="scale(0.015625)"/>
        <path id="DejaVuSans-2e" d="M 684 794 
L 1344 794 
L 1344 0 
L 684 0 
L 684 794 
z
" transform="scale(0.015625)"/>
        <path id="DejaVuSans-31" d="M 794 531 
L 1825 531 
L 1825 4091 
L 703 3866 
L 703 4441 
L 1819 4666 
L 2450 4666 
L 2450 531 
L 3481 531 
L 3481 0 
L 794 0 
L 794 531 
z
" transform="scale(0.015625)"/>
        <path id="DejaVuSans-37" d="M 525 4666 
L 3525 4666 
L 3525 4397 
L 1831 0 
L 1172 0 
L 2766 4134 
L 525 4134 
L 525 4666 
z
" transform="scale(0.015625)"/>
        <path id="DejaVuSans-33" d="M 2597 2516 
Q 3050 2419 3304 2112 
Q 3559 1806 3559 1356 
Q 3559 666 3084 287 
Q 2609 -91 1734 -91 
Q 1441 -91 1130 -33 
Q 819 25 488 141 
L 488 750 
Q 750 597 1062 519 
Q 1375 441 1716 441 
Q 2309 441 2620 675 
Q 2931 909 2931 1356 
Q 2931 1769 2642 2001 
Q 2353 2234 1838 2234 
L 1294 2234 
L 1294 2753 
L 1863 2753 
Q 2328 2753 2575 2939 
Q 2822 3125 2822 3475 
Q 2822 3834 2567 4026 
Q 2313 4219 1838 4219 
Q 1578 4219 1281 4162 
Q 984 4106 628 3988 
L 628 4550 
Q 988 4650 1302 4700 
Q 1616 4750 1894 4750 
Q 2613 4750 3031 4423 
Q 3450 4097 3450 3541 
Q 3450 3153 3228 2886 
Q 3006 2619 2597 2516 
z
" transform="scale(0.015625)"/>
       </defs>
       <use xlink:href="#DejaVuSans-30"/>
       <use xlink:href="#DejaVuSans-2e" transform="translate(63.623047 0)"/>
       <use xlink:href="#DejaVuSans-31" transform="translate(95.410156 0)"/>
       <use xlink:href="#DejaVuSans-37" transform="translate(159.033203 0)"/>
       <use xlink:href="#DejaVuSans-33" transform="translate(222.65625 0)"/>
      </g>
     </g>
    </g>
    <g id="ytick_2">
     <g id="line2d_2">
      <g>
       <use xlink:href="#mc9e3135d84" x="49.30625" y="192.014575" style="stroke: #000000; stroke-width: 0.8"/>
      </g>
     </g>
     <g id="text_11">
      <!-- $\mathdefault{10^{0}}$ -->
      <g transform="translate(24.70625 195.813794) scale(0.1 -0.1)">
       <use xlink:href="#DejaVuSans-31" transform="translate(0 0.765625)"/>
       <use xlink:href="#DejaVuSans-30" transform="translate(63.623047 0.765625)"/>
       <use xlink:href="#DejaVuSans-30" transform="translate(128.203125 39.046875) scale(0.7)"/>
      </g>
     </g>
    </g>
    <g id="ytick_3">
     <g id="line2d_3">
      <g>
       <use xlink:href="#mc9e3135d84" x="49.30625" y="113.835639" style="stroke: #000000; stroke-width: 0.8"/>
      </g>
     </g>
     <g id="text_12">
      <!-- $\mathdefault{10^{1}}$ -->
      <g transform="translate(24.70625 117.634857) scale(0.1 -0.1)">
       <use xlink:href="#DejaVuSans-31" transform="translate(0 0.684375)"/>
       <use xlink:href="#DejaVuSans-30" transform="translate(63.623047 0.684375)"/>
       <use xlink:href="#DejaVuSans-31" transform="translate(128.203125 38.965625) scale(0.7)"/>
      </g>
     </g>
    </g>
    <g id="ytick_4">
     <g id="line2d_4">
      <g>
       <use xlink:href="#mc9e3135d84" x="49.30625" y="35.656702" style="stroke: #000000; stroke-width: 0.8"/>
      </g>
     </g>
     <g id="text_13">
      <!-- $\mathdefault{10^{2}}$ -->
      <g transform="translate(24.70625 39.455921) scale(0.1 -0.1)">
       <defs>
        <path id="DejaVuSans-32" d="M 1228 531 
L 3431 531 
L 3431 0 
L 469 0 
L 469 531 
Q 828 903 1448 1529 
Q 2069 2156 2228 2338 
Q 2531 2678 2651 2914 
Q 2772 3150 2772 3378 
Q 2772 3750 2511 3984 
Q 2250 4219 1831 4219 
Q 1534 4219 1204 4116 
Q 875 4013 500 3803 
L 500 4441 
Q 881 4594 1212 4672 
Q 1544 4750 1819 4750 
Q 2544 4750 2975 4387 
Q 3406 4025 3406 3419 
Q 3406 3131 3298 2873 
Q 3191 2616 2906 2266 
Q 2828 2175 2409 1742 
Q 1991 1309 1228 531 
z
" transform="scale(0.015625)"/>
       </defs>
       <use xlink:href="#DejaVuSans-31" transform="translate(0 0.765625)"/>
       <use xlink:href="#DejaVuSans-30" transform="translate(63.623047 0.765625)"/>
       <use xlink:href="#DejaVuSans-32" transform="translate(128.203125 39.046875) scale(0.7)"/>
      </g>
     </g>
    </g>
    <g id="ytick_5">
     <g id="line2d_5">
      <g>
       <use xlink:href="#mc9e3135d84" x="49.30625" y="11.976909" style="stroke: #000000; stroke-width: 0.8"/>
      </g>
     </g>
     <g id="text_14">
      <!-- 201 -->
      <g transform="translate(23.21875 15.776128) scale(0.1 -0.1)">
       <use xlink:href="#DejaVuSans-32"/>
       <use xlink:href="#DejaVuSans-30" transform="translate(63.623047 0)"/>
       <use xlink:href="#DejaVuSans-31" transform="translate(127.246094 0)"/>
      </g>
     </g>
    </g>
    <g id="ytick_6">
     <g id="line2d_6">
      <defs>
       <path id="m89ec66003e" d="M 0 0 
L -2 0 
" style="stroke: #000000; stroke-width: 0.6"/>
      </defs>
      <g>
       <use xlink:href="#m89ec66003e" x="49.30625" y="246.659306" style="stroke: #000000; stroke-width: 0.6"/>
      </g>
     </g>
    </g>
    <g id="ytick_7">
     <g id="line2d_7">
      <g>
       <use xlink:href="#m89ec66003e" x="49.30625" y="232.892679" style="stroke: #000000; stroke-width: 0.6"/>
      </g>
     </g>
    </g>
    <g id="ytick_8">
     <g id="line2d_8">
      <g>
       <use xlink:href="#m89ec66003e" x="49.30625" y="223.125102" style="stroke: #000000; stroke-width: 0.6"/>
      </g>
     </g>
    </g>
    <g id="ytick_9">
     <g id="line2d_9">
      <g>
       <use xlink:href="#m89ec66003e" x="49.30625" y="215.54878" style="stroke: #000000; stroke-width: 0.6"/>
      </g>
     </g>
    </g>
    <g id="ytick_10">
     <g id="line2d_10">
      <g>
       <use xlink:href="#m89ec66003e" x="49.30625" y="209.358474" style="stroke: #000000; stroke-width: 0.6"/>
      </g>
     </g>
    </g>
    <g id="ytick_11">
     <g id="line2d_11">
      <g>
       <use xlink:href="#m89ec66003e" x="49.30625" y="204.124645" style="stroke: #000000; stroke-width: 0.6"/>
      </g>
     </g>
    </g>
    <g id="ytick_12">
     <g id="line2d_12">
      <g>
       <use xlink:href="#m89ec66003e" x="49.30625" y="199.590897" style="stroke: #000000; stroke-width: 0.6"/>
      </g>
     </g>
    </g>
    <g id="ytick_13">
     <g id="line2d_13">
      <g>
       <use xlink:href="#m89ec66003e" x="49.30625" y="195.591847" style="stroke: #000000; stroke-width: 0.6"/>
      </g>
     </g>
    </g>
    <g id="ytick_14">
     <g id="line2d_14">
      <g>
       <use xlink:href="#m89ec66003e" x="49.30625" y="168.48037" style="stroke: #000000; stroke-width: 0.6"/>
      </g>
     </g>
    </g>
    <g id="ytick_15">
     <g id="line2d_15">
      <g>
       <use xlink:href="#m89ec66003e" x="49.30625" y="154.713743" style="stroke: #000000; stroke-width: 0.6"/>
      </g>
     </g>
    </g>
    <g id="ytick_16">
     <g id="line2d_16">
      <g>
       <use xlink:href="#m89ec66003e" x="49.30625" y="144.946165" style="stroke: #000000; stroke-width: 0.6"/>
      </g>
     </g>
    </g>
    <g id="ytick_17">
     <g id="line2d_17">
      <g>
       <use xlink:href="#m89ec66003e" x="49.30625" y="137.369844" style="stroke: #000000; stroke-width: 0.6"/>
      </g>
     </g>
    </g>
    <g id="ytick_18">
     <g id="line2d_18">
      <g>
       <use xlink:href="#m89ec66003e" x="49.30625" y="131.179538" style="stroke: #000000; stroke-width: 0.6"/>
      </g>
     </g>
    </g>
    <g id="ytick_19">
     <g id="line2d_19">
      <g>
       <use xlink:href="#m89ec66003e" x="49.30625" y="125.945709" style="stroke: #000000; stroke-width: 0.6"/>
      </g>
     </g>
    </g>
    <g id="ytick_20">
     <g id="line2d_20">
      <g>
       <use xlink:href="#m89ec66003e" x="49.30625" y="121.41196" style="stroke: #000000; stroke-width: 0.6"/>
      </g>
     </g>
    </g>
    <g id="ytick_21">
     <g id="line2d_21">
      <g>
       <use xlink:href="#m89ec66003e" x="49.30625" y="117.412911" style="stroke: #000000; stroke-width: 0.6"/>
      </g>
     </g>
    </g>
    <g id="ytick_22">
     <g id="line2d_22">
      <g>
       <use xlink:href="#m89ec66003e" x="49.30625" y="90.301434" style="stroke: #000000; stroke-width: 0.6"/>
      </g>
     </g>
    </g>
    <g id="ytick_23">
     <g id="line2d_23">
      <g>
       <use xlink:href="#m89ec66003e" x="49.30625" y="76.534806" style="stroke: #000000; stroke-width: 0.6"/>
      </g>
     </g>
    </g>
    <g id="ytick_24">
     <g id="line2d_24">
      <g>
       <use xlink:href="#m89ec66003e" x="49.30625" y="66.767229" style="stroke: #000000; stroke-width: 0.6"/>
      </g>
     </g>
    </g>
    <g id="ytick_25">
     <g id="line2d_25">
      <g>
       <use xlink:href="#m89ec66003e" x="49.30625" y="59.190907" style="stroke: #000000; stroke-width: 0.6"/>
      </g>
     </g>
    </g>
    <g id="ytick_26">
     <g id="line2d_26">
      <g>
       <use xlink:href="#m89ec66003e" x="49.30625" y="53.000602" style="stroke: #000000; stroke-width: 0.6"/>
      </g>
     </g>
    </g>
    <g id="ytick_27">
     <g id="line2d_27">
      <g>
       <use xlink:href="#m89ec66003e" x="49.30625" y="47.766773" style="stroke: #000000; stroke-width: 0.6"/>
      </g>
     </g>
    </g>
    <g id="ytick_28">
     <g id="line2d_28">
      <g>
       <use xlink:href="#m89ec66003e" x="49.30625" y="43.233024" style="stroke: #000000; stroke-width: 0.6"/>
      </g>
     </g>
    </g>
    <g id="ytick_29">
     <g id="line2d_29">
      <g>
       <use xlink:href="#m89ec66003e" x="49.30625" y="39.233974" style="stroke: #000000; stroke-width: 0.6"/>
      </g>
     </g>
    </g>
    <g id="ytick_30">
     <g id="line2d_30">
      <g>
       <use xlink:href="#m89ec66003e" x="49.30625" y="12.122497" style="stroke: #000000; stroke-width: 0.6"/>
      </g>
     </g>
    </g>
    <g id="text_15">
     <!-- Solve Time (Milliseconds) -->
     <g transform="translate(7.598438 195.025688) rotate(-90) scale(0.1 -0.1)">
      <defs>
       <path id="DejaVuSans-76" d="M 191 3500 
L 800 3500 
L 1894 563 
L 2988 3500 
L 3597 3500 
L 2284 0 
L 1503 0 
L 191 3500 
z
" transform="scale(0.015625)"/>
       <path id="DejaVuSans-6d" d="M 3328 2828 
Q 3544 3216 3844 3400 
Q 4144 3584 4550 3584 
Q 5097 3584 5394 3201 
Q 5691 2819 5691 2113 
L 5691 0 
L 5113 0 
L 5113 2094 
Q 5113 2597 4934 2840 
Q 4756 3084 4391 3084 
Q 3944 3084 3684 2787 
Q 3425 2491 3425 1978 
L 3425 0 
L 2847 0 
L 2847 2094 
Q 2847 2600 2669 2842 
Q 2491 3084 2119 3084 
Q 1678 3084 1418 2786 
Q 1159 2488 1159 1978 
L 1159 0 
L 581 0 
L 581 3500 
L 1159 3500 
L 1159 2956 
Q 1356 3278 1631 3431 
Q 1906 3584 2284 3584 
Q 2666 3584 2933 3390 
Q 3200 3197 3328 2828 
z
" transform="scale(0.015625)"/>
       <path id="DejaVuSans-73" d="M 2834 3397 
L 2834 2853 
Q 2591 2978 2328 3040 
Q 2066 3103 1784 3103 
Q 1356 3103 1142 2972 
Q 928 2841 928 2578 
Q 928 2378 1081 2264 
Q 1234 2150 1697 2047 
L 1894 2003 
Q 2506 1872 2764 1633 
Q 3022 1394 3022 966 
Q 3022 478 2636 193 
Q 2250 -91 1575 -91 
Q 1294 -91 989 -36 
Q 684 19 347 128 
L 347 722 
Q 666 556 975 473 
Q 1284 391 1588 391 
Q 1994 391 2212 530 
Q 2431 669 2431 922 
Q 2431 1156 2273 1281 
Q 2116 1406 1581 1522 
L 1381 1569 
Q 847 1681 609 1914 
Q 372 2147 372 2553 
Q 372 3047 722 3315 
Q 1072 3584 1716 3584 
Q 2034 3584 2315 3537 
Q 2597 3491 2834 3397 
z
" transform="scale(0.015625)"/>
       <path id="DejaVuSans-63" d="M 3122 3366 
L 3122 2828 
Q 2878 2963 2633 3030 
Q 2388 3097 2138 3097 
Q 1578 3097 1268 2742 
Q 959 2388 959 1747 
Q 959 1106 1268 751 
Q 1578 397 2138 397 
Q 2388 397 2633 464 
Q 2878 531 3122 666 
L 3122 134 
Q 2881 22 2623 -34 
Q 2366 -91 2075 -91 
Q 1284 -91 818 406 
Q 353 903 353 1747 
Q 353 2603 823 3093 
Q 1294 3584 2113 3584 
Q 2378 3584 2631 3529 
Q 2884 3475 3122 3366 
z
" transform="scale(0.015625)"/>
       <path id="DejaVuSans-6e" d="M 3513 2113 
L 3513 0 
L 2938 0 
L 2938 2094 
Q 2938 2591 2744 2837 
Q 2550 3084 2163 3084 
Q 1697 3084 1428 2787 
Q 1159 2491 1159 1978 
L 1159 0 
L 581 0 
L 581 3500 
L 1159 3500 
L 1159 2956 
Q 1366 3272 1645 3428 
Q 1925 3584 2291 3584 
Q 2894 3584 3203 3211 
Q 3513 2838 3513 2113 
z
" transform="scale(0.015625)"/>
      </defs>
      <use xlink:href="#DejaVuSans-53"/>
      <use xlink:href="#DejaVuSans-6f" transform="translate(63.476562 0)"/>
      <use xlink:href="#DejaVuSans-6c" transform="translate(124.658203 0)"/>
      <use xlink:href="#DejaVuSans-76" transform="translate(152.441406 0)"/>
      <use xlink:href="#DejaVuSans-65" transform="translate(211.621094 0)"/>
      <use xlink:href="#DejaVuSans-20" transform="translate(273.144531 0)"/>
      <use xlink:href="#DejaVuSans-54" transform="translate(304.931641 0)"/>
      <use xlink:href="#DejaVuSans-69" transform="translate(362.890625 0)"/>
      <use xlink:href="#DejaVuSans-6d" transform="translate(390.673828 0)"/>
      <use xlink:href="#DejaVuSans-65" transform="translate(488.085938 0)"/>
      <use xlink:href="#DejaVuSans-20" transform="translate(549.609375 0)"/>
      <use xlink:href="#DejaVuSans-28" transform="translate(581.396484 0)"/>
      <use xlink:href="#DejaVuSans-4d" transform="translate(620.410156 0)"/>
      <use xlink:href="#DejaVuSans-69" transform="translate(706.689453 0)"/>
      <use xlink:href="#DejaVuSans-6c" transform="translate(734.472656 0)"/>
      <use xlink:href="#DejaVuSans-6c" transform="translate(762.255859 0)"/>
      <use xlink:href="#DejaVuSans-69" transform="translate(790.039062 0)"/>
      <use xlink:href="#DejaVuSans-73" transform="translate(817.822266 0)"/>
      <use xlink:href="#DejaVuSans-65" transform="translate(869.921875 0)"/>
      <use xlink:href="#DejaVuSans-63" transform="translate(931.445312 0)"/>
      <use xlink:href="#DejaVuSans-6f" transform="translate(986.425781 0)"/>
      <use xlink:href="#DejaVuSans-6e" transform="translate(1047.607422 0)"/>
      <use xlink:href="#DejaVuSans-64" transform="translate(1110.986328 0)"/>
      <use xlink:href="#DejaVuSans-73" transform="translate(1174.462891 0)"/>
      <use xlink:href="#DejaVuSans-29" transform="translate(1226.5625 0)"/>
     </g>
    </g>
   </g>
   <g id="line2d_31">
    <path d="M 77.755139 214.081722 
L 77.755139 60.819106 
" clip-path="url(#pd26928e349)" style="fill: none; stroke: #2f2f2f; stroke-width: 1.125; stroke-linecap: square"/>
   </g>
   <g id="line2d_32">
    <path d="M 77.755139 170.752785 
L 77.755139 125.952471 
" clip-path="url(#pd26928e349)" style="fill: none; stroke: #2f2f2f; stroke-width: 3.375; stroke-linecap: square"/>
   </g>
   <g id="line2d_33">
    <path d="M 77.755139 150.266235 
" clip-path="url(#pd26928e349)" style="fill: none; stroke: #2f2f2f; stroke-width: 1.5; stroke-linecap: square"/>
    <defs>
     <path id="ma718dbc03f" d="M 1.40625 0 
L -1.40625 -0 
" style="stroke: #ffffff; stroke-width: 0.675"/>
    </defs>
    <g clip-path="url(#pd26928e349)">
     <use xlink:href="#ma718dbc03f" x="77.755139" y="150.266235" style="fill: #ffffff; stroke: #ffffff; stroke-width: 0.675"/>
    </g>
   </g>
   <g id="line2d_34">
    <path d="M 134.652917 217.017019 
L 134.652917 62.337601 
" clip-path="url(#pd26928e349)" style="fill: none; stroke: #2f2f2f; stroke-width: 1.125; stroke-linecap: square"/>
   </g>
   <g id="line2d_35">
    <path d="M 134.652917 174.395881 
L 134.652917 127.675599 
" clip-path="url(#pd26928e349)" style="fill: none; stroke: #2f2f2f; stroke-width: 3.375; stroke-linecap: square"/>
   </g>
   <g id="line2d_36">
    <path d="M 134.652917 151.592943 
" clip-path="url(#pd26928e349)" style="fill: none; stroke: #2f2f2f; stroke-width: 1.5; stroke-linecap: square"/>
    <g clip-path="url(#pd26928e349)">
     <use xlink:href="#ma718dbc03f" x="134.652917" y="151.592943" style="fill: #ffffff; stroke: #ffffff; stroke-width: 0.675"/>
    </g>
   </g>
   <g id="line2d_37">
    <path d="M 191.550694 214.066702 
L 191.550694 60.850931 
" clip-path="url(#pd26928e349)" style="fill: none; stroke: #2f2f2f; stroke-width: 1.125; stroke-linecap: square"/>
   </g>
   <g id="line2d_38">
    <path d="M 191.550694 170.622238 
L 191.550694 126.300072 
" clip-path="url(#pd26928e349)" style="fill: none; stroke: #2f2f2f; stroke-width: 3.375; stroke-linecap: square"/>
   </g>
   <g id="line2d_39">
    <path d="M 191.550694 150.459074 
" clip-path="url(#pd26928e349)" style="fill: none; stroke: #2f2f2f; stroke-width: 1.5; stroke-linecap: square"/>
    <g clip-path="url(#pd26928e349)">
     <use xlink:href="#ma718dbc03f" x="191.550694" y="150.459074" style="fill: #ffffff; stroke: #ffffff; stroke-width: 0.675"/>
    </g>
   </g>
   <g id="line2d_40">
    <path d="M 248.448472 217.300977 
L 248.448472 62.486154 
" clip-path="url(#pd26928e349)" style="fill: none; stroke: #2f2f2f; stroke-width: 1.125; stroke-linecap: square"/>
   </g>
   <g id="line2d_41">
    <path d="M 248.448472 174.557198 
L 248.448472 127.962758 
" clip-path="url(#pd26928e349)" style="fill: none; stroke: #2f2f2f; stroke-width: 3.375; stroke-linecap: square"/>
   </g>
   <g id="line2d_42">
    <path d="M 248.448472 152.359235 
" clip-path="url(#pd26928e349)" style="fill: none; stroke: #2f2f2f; stroke-width: 1.5; stroke-linecap: square"/>
    <g clip-path="url(#pd26928e349)">
     <use xlink:href="#ma718dbc03f" x="248.448472" y="152.359235" style="fill: #ffffff; stroke: #ffffff; stroke-width: 0.675"/>
    </g>
   </g>
   <g id="line2d_43">
    <path d="M 305.34625 214.854 
L 305.34625 59.061329 
" clip-path="url(#pd26928e349)" style="fill: none; stroke: #2f2f2f; stroke-width: 1.125; stroke-linecap: square"/>
   </g>
   <g id="line2d_44">
    <path d="M 305.34625 172.275007 
L 305.34625 123.558467 
" clip-path="url(#pd26928e349)" style="fill: none; stroke: #2f2f2f; stroke-width: 3.375; stroke-linecap: square"/>
   </g>
   <g id="line2d_45">
    <path d="M 305.34625 153.090864 
" clip-path="url(#pd26928e349)" style="fill: none; stroke: #2f2f2f; stroke-width: 1.5; stroke-linecap: square"/>
    <g clip-path="url(#pd26928e349)">
     <use xlink:href="#ma718dbc03f" x="305.34625" y="153.090864" style="fill: #ffffff; stroke: #ffffff; stroke-width: 0.675"/>
    </g>
   </g>
   <g id="line2d_46">
    <path d="M 362.244028 217.320932 
L 362.244028 59.987594 
" clip-path="url(#pd26928e349)" style="fill: none; stroke: #2f2f2f; stroke-width: 1.125; stroke-linecap: square"/>
   </g>
   <g id="line2d_47">
    <path d="M 362.244028 173.124829 
L 362.244028 125.230806 
" clip-path="url(#pd26928e349)" style="fill: none; stroke: #2f2f2f; stroke-width: 3.375; stroke-linecap: square"/>
   </g>
   <g id="line2d_48">
    <path d="M 362.244028 154.424524 
" clip-path="url(#pd26928e349)" style="fill: none; stroke: #2f2f2f; stroke-width: 1.5; stroke-linecap: square"/>
    <g clip-path="url(#pd26928e349)">
     <use xlink:href="#ma718dbc03f" x="362.244028" y="154.424524" style="fill: #ffffff; stroke: #ffffff; stroke-width: 0.675"/>
    </g>
   </g>
   <g id="line2d_49">
    <path d="M 419.141806 187.649966 
L 419.141806 44.052332 
" clip-path="url(#pd26928e349)" style="fill: none; stroke: #2f2f2f; stroke-width: 1.125; stroke-linecap: square"/>
   </g>
   <g id="line2d_50">
    <path d="M 419.141806 146.916141 
L 419.141806 104.401374 
" clip-path="url(#pd26928e349)" style="fill: none; stroke: #2f2f2f; stroke-width: 3.375; stroke-linecap: square"/>
   </g>
   <g id="line2d_51">
    <path d="M 419.141806 126.198015 
" clip-path="url(#pd26928e349)" style="fill: none; stroke: #2f2f2f; stroke-width: 1.5; stroke-linecap: square"/>
    <g clip-path="url(#pd26928e349)">
     <use xlink:href="#ma718dbc03f" x="419.141806" y="126.198015" style="fill: #ffffff; stroke: #ffffff; stroke-width: 0.675"/>
    </g>
   </g>
   <g id="line2d_52">
    <path d="M 476.039583 201.11051 
L 476.039583 52.102542 
" clip-path="url(#pd26928e349)" style="fill: none; stroke: #2f2f2f; stroke-width: 1.125; stroke-linecap: square"/>
   </g>
   <g id="line2d_53">
    <path d="M 476.039583 158.437558 
L 476.039583 114.343671 
" clip-path="url(#pd26928e349)" style="fill: none; stroke: #2f2f2f; stroke-width: 3.375; stroke-linecap: square"/>
   </g>
   <g id="line2d_54">
    <path d="M 476.039583 136.350732 
" clip-path="url(#pd26928e349)" style="fill: none; stroke: #2f2f2f; stroke-width: 1.5; stroke-linecap: square"/>
    <g clip-path="url(#pd26928e349)">
     <use xlink:href="#ma718dbc03f" x="476.039583" y="136.350732" style="fill: #ffffff; stroke: #ffffff; stroke-width: 0.675"/>
    </g>
   </g>
   <g id="line2d_55">
    <path d="M 532.937361 154.932399 
L 532.937361 33.64224 
" clip-path="url(#pd26928e349)" style="fill: none; stroke: #2f2f2f; stroke-width: 1.125; stroke-linecap: square"/>
   </g>
   <g id="line2d_56">
    <path d="M 532.937361 124.897359 
L 532.937361 87.273006 
" clip-path="url(#pd26928e349)" style="fill: none; stroke: #2f2f2f; stroke-width: 3.375; stroke-linecap: square"/>
   </g>
   <g id="line2d_57">
    <path d="M 532.937361 106.46307 
" clip-path="url(#pd26928e349)" style="fill: none; stroke: #2f2f2f; stroke-width: 1.5; stroke-linecap: square"/>
    <g clip-path="url(#pd26928e349)">
     <use xlink:href="#ma718dbc03f" x="532.937361" y="106.46307" style="fill: #ffffff; stroke: #ffffff; stroke-width: 0.675"/>
    </g>
   </g>
   <g id="patch_3">
    <path d="M 49.30625 251.515091 
L 49.30625 11.976909 
" style="fill: none; stroke: #000000; stroke-width: 0.8; stroke-linejoin: miter; stroke-linecap: square"/>
   </g>
  </g>
 </g>
 <defs>
  <clipPath id="pd26928e349">
   <rect x="49.30625" y="0" width="512.08" height="263.492"/>
  </clipPath>
 </defs>
</svg>
