<?xml version="1.0" encoding="utf-8" standalone="no"?>
<!DOCTYPE svg PUBLIC "-//W3C//DTD SVG 1.1//EN"
  "http://www.w3.org/Graphics/SVG/1.1/DTD/svg11.dtd">
<svg xmlns:xlink="http://www.w3.org/1999/xlink" width="561.38625pt" height="301.06575pt" viewBox="0 0 561.38625 301.06575" xmlns="http://www.w3.org/2000/svg" version="1.1">
 <metadata>
  <rdf:RDF xmlns:dc="http://purl.org/dc/elements/1.1/" xmlns:cc="http://creativecommons.org/ns#" xmlns:rdf="http://www.w3.org/1999/02/22-rdf-syntax-ns#">
   <cc:Work>
    <dc:type rdf:resource="http://purl.org/dc/dcmitype/StillImage"/>
    <dc:date>2026-07-19T22:44:04.023413</dc:date>
    <dc:format>image/svg+xml</dc:format>
    <dc:creator>
     <cc:Agent>
      <dc:title>Matplotlib v3.10.8, https://matplotlib.org/</dc:title>
     </cc:Agent>
    </dc:creator>
   </cc:Work>
  </rdf:RDF>
 </metadata>
 <defs>
  <style type="text/css">*{stroke-linejoin: round; stroke-linecap: butt}</style>
 </defs>
 <g id="figure_1">
  <g id="patch_1">
   <path d="M 0 301.06575 
L 561.38625 301.06575 
L 561.38625 0 
L 0 0 
L 0 301.06575 
z
" style="fill: none"/>
  </g>
  <g id="axes_1">
   <g id="patch_2">
    <path d="M 49.30625 263.492 
L 561.38625 263.492 
L 561.38625 0 
L 49.30625 0 
L 49.30625 263.492 
z
" style="fill: none"/>
   </g>
   <g id="FillBetweenPolyCollection_1">
    <defs>
     <path id="m811d72a021" d="M 78.367516 -49.550659 
L 77.142762 -49.550659 
L 77.132829 -51.609708 
L 77.128237 -53.668756 
L 77.125699 -55.727805 
L 77.120819 -57.786854 
L 77.108228 -59.845902 
L 77.081783 -61.904951 
L 77.034791 -63.963999 
L 76.960255 -66.023048 
L 76.851127 -68.082097 
L 76.700554 -70.141145 
L 76.502117 -72.200194 
L 76.250082 -74.259243 
L 75.939645 -76.318291 
L 75.567176 -78.37734 
L 75.130454 -80.436388 
L 74.628863 -82.495437 
L 74.063505 -84.554486 
L 73.437218 -86.613534 
L 72.754432 -88.672583 
L 72.020871 -90.731632 
L 71.243092 -92.79068 
L 70.427897 -94.849729 
L 69.581691 -96.908777 
L 68.709878 -98.967826 
L 67.816397 -101.026875 
L 66.903507 -103.085923 
L 65.971886 -105.144972 
L 65.021078 -107.20402 
L 64.050252 -109.263069 
L 63.059181 -111.322118 
L 62.049294 -113.381166 
L 61.02463 -115.440215 
L 59.992504 -117.499264 
L 58.963768 -119.558312 
L 57.952551 -121.617361 
L 56.97552 -123.676409 
L 56.050708 -125.735458 
L 55.196117 -127.794507 
L 54.428262 -129.853555 
L 53.760922 -131.912604 
L 53.20424 -133.971653 
L 52.764326 -136.030701 
L 52.44337 -138.08975 
L 52.240198 -140.148798 
L 52.151139 -142.207847 
L 52.170978 -144.266896 
L 52.293825 -146.325944 
L 52.513707 -148.384993 
L 52.824803 -150.444042 
L 53.221301 -152.50309 
L 53.696964 -154.562139 
L 54.244529 -156.621187 
L 54.855135 -158.680236 
L 55.517944 -160.739285 
L 56.220091 -162.798333 
L 56.947037 -164.857382 
L 57.683316 -166.916431 
L 58.413596 -168.975479 
L 59.123912 -171.034528 
L 59.802886 -173.093576 
L 60.442764 -175.152625 
L 61.040096 -177.211674 
L 61.595968 -179.270722 
L 62.115727 -181.329771 
L 62.608244 -183.388819 
L 63.084803 -185.447868 
L 63.557767 -187.506917 
L 64.039181 -189.565965 
L 64.53949 -191.625014 
L 65.066495 -193.684063 
L 65.624654 -195.743111 
L 66.214762 -197.80216 
L 66.833993 -199.861208 
L 67.476267 -201.920257 
L 68.132859 -203.979306 
L 68.793165 -206.038354 
L 69.445566 -208.097403 
L 70.078299 -210.156452 
L 70.68031 -212.2155 
L 71.242017 -214.274549 
L 71.75596 -216.333597 
L 72.217287 -218.392646 
L 72.624048 -220.451695 
L 72.977259 -222.510743 
L 73.28072 -224.569792 
L 73.5406 -226.628841 
L 73.764829 -228.687889 
L 73.962338 -230.746938 
L 74.142256 -232.805986 
L 74.313129 -234.865035 
L 74.482265 -236.924084 
L 74.655258 -238.983132 
L 74.835738 -241.042181 
L 75.025346 -243.10123 
L 75.223911 -245.160278 
L 75.429768 -247.219327 
L 75.640177 -249.278375 
L 75.851754 -251.337424 
L 76.060879 -253.396473 
L 79.449399 -253.396473 
L 79.449399 -253.396473 
L 79.658524 -251.337424 
L 79.870101 -249.278375 
L 80.08051 -247.219327 
L 80.286367 -245.160278 
L 80.484931 -243.10123 
L 80.67454 -241.042181 
L 80.85502 -238.983132 
L 81.028013 -236.924084 
L 81.197148 -234.865035 
L 81.368022 -232.805986 
L 81.54794 -230.746938 
L 81.745449 -228.687889 
L 81.969678 -226.628841 
L 82.229558 -224.569792 
L 82.533018 -222.510743 
L 82.886229 -220.451695 
L 83.292991 -218.392646 
L 83.754318 -216.333597 
L 84.26826 -214.274549 
L 84.829968 -212.2155 
L 85.431979 -210.156452 
L 86.064712 -208.097403 
L 86.717112 -206.038354 
L 87.377419 -203.979306 
L 88.03401 -201.920257 
L 88.676285 -199.861208 
L 89.295516 -197.80216 
L 89.885624 -195.743111 
L 90.443783 -193.684063 
L 90.970787 -191.625014 
L 91.471096 -189.565965 
L 91.952511 -187.506917 
L 92.425475 -185.447868 
L 92.902034 -183.388819 
L 93.39455 -181.329771 
L 93.914309 -179.270722 
L 94.470182 -177.211674 
L 95.067514 -175.152625 
L 95.707392 -173.093576 
L 96.386366 -171.034528 
L 97.096681 -168.975479 
L 97.826962 -166.916431 
L 98.563241 -164.857382 
L 99.290187 -162.798333 
L 99.992334 -160.739285 
L 100.655143 -158.680236 
L 101.265749 -156.621187 
L 101.813313 -154.562139 
L 102.288976 -152.50309 
L 102.685475 -150.444042 
L 102.996571 -148.384993 
L 103.216453 -146.325944 
L 103.3393 -144.266896 
L 103.359139 -142.207847 
L 103.27008 -140.148798 
L 103.066908 -138.08975 
L 102.745951 -136.030701 
L 102.306038 -133.971653 
L 101.749356 -131.912604 
L 101.082015 -129.853555 
L 100.314161 -127.794507 
L 99.459569 -125.735458 
L 98.534758 -123.676409 
L 97.557727 -121.617361 
L 96.54651 -119.558312 
L 95.517773 -117.499264 
L 94.485648 -115.440215 
L 93.460983 -113.381166 
L 92.451097 -111.322118 
L 91.460026 -109.263069 
L 90.4892 -107.20402 
L 89.538392 -105.144972 
L 88.60677 -103.085923 
L 87.69388 -101.026875 
L 86.8004 -98.967826 
L 85.928587 -96.908777 
L 85.082381 -94.849729 
L 84.267186 -92.79068 
L 83.489407 -90.731632 
L 82.755846 -88.672583 
L 82.07306 -86.613534 
L 81.446772 -84.554486 
L 80.881415 -82.495437 
L 80.379823 -80.436388 
L 79.943102 -78.37734 
L 79.570633 -76.318291 
L 79.260195 -74.259243 
L 79.008161 -72.200194 
L 78.809724 -70.141145 
L 78.65915 -68.082097 
L 78.550023 -66.023048 
L 78.475487 -63.963999 
L 78.428495 -61.904951 
L 78.402049 -59.845902 
L 78.389459 -57.786854 
L 78.384579 -55.727805 
L 78.382041 -53.668756 
L 78.377448 -51.609708 
L 78.367516 -49.550659 
z
" style="stroke: #2f2f2f; stroke-width: 0.75"/>
    </defs>
    <g clip-path="url(#p883fb08d8e)">
     <use xlink:href="#m811d72a021" x="0" y="301.06575" style="fill: #166c9c; stroke: #2f2f2f; stroke-width: 0.75"/>
    </g>
   </g>
   <g id="FillBetweenPolyCollection_2">
    <defs>
     <path id="m4c619f7df5" d="M 135.313056 -53.85626 
L 133.992777 -53.85626 
L 133.964464 -55.852933 
L 133.935737 -57.849605 
L 133.902481 -59.846278 
L 133.85959 -61.84295 
L 133.801184 -63.839623 
L 133.720903 -65.836295 
L 133.612239 -67.832967 
L 133.468898 -69.82964 
L 133.285146 -71.826312 
L 133.056132 -73.822985 
L 132.778148 -75.819657 
L 132.448831 -77.81633 
L 132.067274 -79.813002 
L 131.634042 -81.809675 
L 131.151087 -83.806347 
L 130.621559 -85.80302 
L 130.049501 -87.799692 
L 129.439461 -89.796365 
L 128.796027 -91.793037 
L 128.123326 -93.789709 
L 127.42455 -95.786382 
L 126.701554 -97.783054 
L 125.954615 -99.779727 
L 125.182387 -101.776399 
L 124.382131 -103.773072 
L 123.550199 -105.769744 
L 122.682778 -107.766417 
L 121.776807 -109.763089 
L 120.830975 -111.759762 
L 119.846664 -113.756434 
L 118.82869 -115.753106 
L 117.785731 -117.749779 
L 116.730324 -119.746451 
L 115.678426 -121.743124 
L 114.648543 -123.739796 
L 113.660529 -125.736469 
L 112.734201 -127.733141 
L 111.887942 -129.729814 
L 111.137474 -131.726486 
L 110.494935 -133.723159 
L 109.968392 -135.719831 
L 109.561788 -137.716503 
L 109.275308 -139.713176 
L 109.106058 -141.709848 
L 109.048917 -143.706521 
L 109.097399 -145.703193 
L 109.244389 -147.699866 
L 109.482642 -149.696538 
L 109.804991 -151.693211 
L 110.204276 -153.689883 
L 110.673074 -155.686556 
L 111.203305 -157.683228 
L 111.785887 -159.6799 
L 112.410518 -161.676573 
L 113.065709 -163.673245 
L 113.739105 -165.669918 
L 114.418084 -167.66659 
L 115.090579 -169.663263 
L 115.74602 -171.659935 
L 116.376247 -173.656608 
L 116.976269 -175.65328 
L 117.544732 -177.649953 
L 118.084013 -179.646625 
L 118.599903 -181.643297 
L 119.100896 -183.63997 
L 119.597185 -185.636642 
L 120.09946 -187.633315 
L 120.617683 -189.629987 
L 121.159974 -191.62666 
L 121.731739 -193.623332 
L 122.335117 -195.620005 
L 122.968799 -197.616677 
L 123.628177 -199.61335 
L 124.3058 -201.610022 
L 124.992035 -203.606694 
L 125.675859 -205.603367 
L 126.345699 -207.600039 
L 126.990242 -209.596712 
L 127.59918 -211.593384 
L 128.163844 -213.590057 
L 128.677707 -215.586729 
L 129.136737 -217.583402 
L 129.539582 -219.580074 
L 129.887576 -221.576747 
L 130.184569 -223.573419 
L 130.436572 -225.570092 
L 130.651253 -227.566764 
L 130.837311 -229.563436 
L 131.003799 -231.560109 
L 131.159438 -233.556781 
L 131.312007 -235.553454 
L 131.467849 -237.550126 
L 131.631555 -239.546799 
L 131.805817 -241.543471 
L 131.991475 -243.540144 
L 132.187705 -245.536816 
L 132.392339 -247.533489 
L 132.602232 -249.530161 
L 132.813666 -251.526833 
L 136.492168 -251.526833 
L 136.492168 -251.526833 
L 136.703601 -249.530161 
L 136.913494 -247.533489 
L 137.118128 -245.536816 
L 137.314359 -243.540144 
L 137.500016 -241.543471 
L 137.674278 -239.546799 
L 137.837984 -237.550126 
L 137.993827 -235.553454 
L 138.146395 -233.556781 
L 138.302035 -231.560109 
L 138.468523 -229.563436 
L 138.654581 -227.566764 
L 138.869261 -225.570092 
L 139.121264 -223.573419 
L 139.418257 -221.576747 
L 139.766252 -219.580074 
L 140.169096 -217.583402 
L 140.628127 -215.586729 
L 141.14199 -213.590057 
L 141.706654 -211.593384 
L 142.315591 -209.596712 
L 142.960134 -207.600039 
L 143.629974 -205.603367 
L 144.313799 -203.606694 
L 145.000034 -201.610022 
L 145.677656 -199.61335 
L 146.337034 -197.616677 
L 146.970716 -195.620005 
L 147.574095 -193.623332 
L 148.145859 -191.62666 
L 148.68815 -189.629987 
L 149.206373 -187.633315 
L 149.708648 -185.636642 
L 150.204937 -183.63997 
L 150.705931 -181.643297 
L 151.22182 -179.646625 
L 151.761101 -177.649953 
L 152.329564 -175.65328 
L 152.929586 -173.656608 
L 153.559813 -171.659935 
L 154.215254 -169.663263 
L 154.88775 -167.66659 
L 155.566728 -165.669918 
L 156.240124 -163.673245 
L 156.895316 -161.676573 
L 157.519946 -159.6799 
L 158.102528 -157.683228 
L 158.63276 -155.686556 
L 159.101557 -153.689883 
L 159.500843 -151.693211 
L 159.823191 -149.696538 
L 160.061444 -147.699866 
L 160.208435 -145.703193 
L 160.256917 -143.706521 
L 160.199775 -141.709848 
L 160.030525 -139.713176 
L 159.744045 -137.716503 
L 159.337441 -135.719831 
L 158.810898 -133.723159 
L 158.16836 -131.726486 
L 157.417891 -129.729814 
L 156.571633 -127.733141 
L 155.645305 -125.736469 
L 154.65729 -123.739796 
L 153.627407 -121.743124 
L 152.575509 -119.746451 
L 151.520103 -117.749779 
L 150.477143 -115.753106 
L 149.45917 -113.756434 
L 148.474858 -111.759762 
L 147.529026 -109.763089 
L 146.623055 -107.766417 
L 145.755634 -105.769744 
L 144.923702 -103.773072 
L 144.123446 -101.776399 
L 143.351219 -99.779727 
L 142.604279 -97.783054 
L 141.881284 -95.786382 
L 141.182507 -93.789709 
L 140.509807 -91.793037 
L 139.866372 -89.796365 
L 139.256333 -87.799692 
L 138.684275 -85.80302 
L 138.154746 -83.806347 
L 137.671792 -81.809675 
L 137.238559 -79.813002 
L 136.857002 -77.81633 
L 136.527685 -75.819657 
L 136.249702 -73.822985 
L 136.020687 -71.826312 
L 135.836936 -69.82964 
L 135.693595 -67.832967 
L 135.58493 -65.836295 
L 135.504649 -63.839623 
L 135.446243 -61.84295 
L 135.403352 -59.846278 
L 135.370097 -57.849605 
L 135.34137 -55.852933 
L 135.313056 -53.85626 
z
" style="stroke: #2f2f2f; stroke-width: 0.75"/>
    </defs>
    <g clip-path="url(#p883fb08d8e)">
     <use xlink:href="#m4c619f7df5" x="0" y="301.06575" style="fill: #96bdd2; stroke: #2f2f2f; stroke-width: 0.75"/>
    </g>
   </g>
   <g id="FillBetweenPolyCollection_3">
    <defs>
     <path id="maaea25b084" d="M 192.178009 -53.846795 
L 190.92338 -53.846795 
L 190.906669 -55.87088 
L 190.892667 -57.894964 
L 190.877474 -59.919049 
L 190.856041 -61.943134 
L 190.822341 -63.967218 
L 190.769617 -65.991303 
L 190.690694 -68.015388 
L 190.578315 -70.039473 
L 190.425505 -72.063557 
L 190.225923 -74.087642 
L 189.974191 -76.111727 
L 189.66619 -78.135812 
L 189.29929 -80.159896 
L 188.872507 -82.183981 
L 188.386566 -84.208066 
L 187.843846 -86.23215 
L 187.248209 -88.256235 
L 186.604695 -90.28032 
L 185.919112 -92.304405 
L 185.197543 -94.328489 
L 184.445808 -96.352574 
L 183.668948 -98.376659 
L 182.870805 -100.400744 
L 182.053736 -102.424828 
L 181.21855 -104.448913 
L 180.364667 -106.472998 
L 179.490534 -108.497082 
L 178.594239 -110.521167 
L 177.674291 -112.545252 
L 176.730444 -114.569337 
L 175.764481 -116.593421 
L 174.780839 -118.617506 
L 173.786967 -120.641591 
L 172.793364 -122.665676 
L 171.813263 -124.68976 
L 170.861979 -126.713845 
L 169.956 -128.73793 
L 169.111929 -130.762014 
L 168.345412 -132.786099 
L 167.670187 -134.810184 
L 167.097371 -136.834269 
L 166.635053 -138.858353 
L 166.288209 -140.882438 
L 166.058906 -142.906523 
L 165.946694 -144.930608 
L 165.949087 -146.954692 
L 166.061997 -148.978777 
L 166.280051 -151.002862 
L 166.596718 -153.026946 
L 167.004278 -155.051031 
L 167.493659 -157.075116 
L 168.054276 -159.099201 
L 168.673942 -161.123285 
L 169.338983 -163.14737 
L 170.034598 -165.171455 
L 170.745496 -167.195539 
L 171.456755 -169.219624 
L 172.154828 -171.243709 
L 172.828552 -173.267794 
L 173.470031 -175.291878 
L 174.075253 -177.315963 
L 174.644347 -179.340048 
L 175.181413 -181.364133 
L 175.693947 -183.388217 
L 176.191901 -185.412302 
L 176.686514 -187.436387 
L 177.189021 -189.460471 
L 177.70943 -191.484556 
L 178.255463 -193.508641 
L 178.831805 -195.532726 
L 179.439689 -197.55681 
L 180.076851 -199.580895 
L 180.737805 -201.60498 
L 181.414391 -203.629065 
L 182.096489 -205.653149 
L 182.772849 -207.677234 
L 183.431931 -209.701319 
L 184.062711 -211.725403 
L 184.655411 -213.749488 
L 185.202113 -215.773573 
L 185.697226 -217.797658 
L 186.137798 -219.821742 
L 186.523636 -221.845827 
L 186.857229 -223.869912 
L 187.143472 -225.893997 
L 187.389198 -227.918081 
L 187.602573 -229.942166 
L 187.792383 -231.966251 
L 187.967317 -233.990335 
L 188.13529 -236.01442 
L 188.302901 -238.038505 
L 188.475057 -240.06259 
L 188.654807 -242.086674 
L 188.843369 -244.110759 
L 189.04032 -246.134844 
L 189.24392 -248.158929 
L 189.451492 -250.183013 
L 189.659817 -252.207098 
L 189.86549 -254.231183 
L 193.235899 -254.231183 
L 193.235899 -254.231183 
L 193.441572 -252.207098 
L 193.649896 -250.183013 
L 193.857469 -248.158929 
L 194.061069 -246.134844 
L 194.25802 -244.110759 
L 194.446582 -242.086674 
L 194.626332 -240.06259 
L 194.798488 -238.038505 
L 194.966099 -236.01442 
L 195.134072 -233.990335 
L 195.309006 -231.966251 
L 195.498816 -229.942166 
L 195.712191 -227.918081 
L 195.957917 -225.893997 
L 196.244159 -223.869912 
L 196.577753 -221.845827 
L 196.96359 -219.821742 
L 197.404163 -217.797658 
L 197.899276 -215.773573 
L 198.445978 -213.749488 
L 199.038678 -211.725403 
L 199.669458 -209.701319 
L 200.32854 -207.677234 
L 201.0049 -205.653149 
L 201.686998 -203.629065 
L 202.363583 -201.60498 
L 203.024538 -199.580895 
L 203.6617 -197.55681 
L 204.269584 -195.532726 
L 204.845926 -193.508641 
L 205.391959 -191.484556 
L 205.912367 -189.460471 
L 206.414875 -187.436387 
L 206.909488 -185.412302 
L 207.407442 -183.388217 
L 207.919975 -181.364133 
L 208.457042 -179.340048 
L 209.026136 -177.315963 
L 209.631358 -175.291878 
L 210.272837 -173.267794 
L 210.946561 -171.243709 
L 211.644634 -169.219624 
L 212.355893 -167.195539 
L 213.066791 -165.171455 
L 213.762406 -163.14737 
L 214.427447 -161.123285 
L 215.047113 -159.099201 
L 215.60773 -157.075116 
L 216.097111 -155.051031 
L 216.50467 -153.026946 
L 216.821338 -151.002862 
L 217.039392 -148.978777 
L 217.152302 -146.954692 
L 217.154694 -144.930608 
L 217.042483 -142.906523 
L 216.81318 -140.882438 
L 216.466336 -138.858353 
L 216.004018 -136.834269 
L 215.431202 -134.810184 
L 214.755977 -132.786099 
L 213.98946 -130.762014 
L 213.145389 -128.73793 
L 212.23941 -126.713845 
L 211.288126 -124.68976 
L 210.308025 -122.665676 
L 209.314422 -120.641591 
L 208.32055 -118.617506 
L 207.336908 -116.593421 
L 206.370945 -114.569337 
L 205.427098 -112.545252 
L 204.50715 -110.521167 
L 203.610855 -108.497082 
L 202.736722 -106.472998 
L 201.882839 -104.448913 
L 201.047653 -102.424828 
L 200.230584 -100.400744 
L 199.432441 -98.376659 
L 198.655581 -96.352574 
L 197.903845 -94.328489 
L 197.182277 -92.304405 
L 196.496694 -90.28032 
L 195.85318 -88.256235 
L 195.257543 -86.23215 
L 194.714823 -84.208066 
L 194.228882 -82.183981 
L 193.802099 -80.159896 
L 193.435199 -78.135812 
L 193.127198 -76.111727 
L 192.875466 -74.087642 
L 192.675884 -72.063557 
L 192.523074 -70.039473 
L 192.410695 -68.015388 
L 192.331771 -65.991303 
L 192.279048 -63.967218 
L 192.245347 -61.943134 
L 192.223915 -59.919049 
L 192.208722 -57.894964 
L 192.19472 -55.87088 
L 192.178009 -53.846795 
z
" style="stroke: #2f2f2f; stroke-width: 0.75"/>
    </defs>
    <g clip-path="url(#p883fb08d8e)">
     <use xlink:href="#maaea25b084" x="0" y="301.06575" style="fill: #ba611b; stroke: #2f2f2f; stroke-width: 0.75"/>
    </g>
   </g>
   <g id="FillBetweenPolyCollection_4">
    <defs>
     <path id="mc2ee3493f0" d="M 249.074314 -54.016063 
L 247.822631 -54.016063 
L 247.804787 -56.015907 
L 247.788539 -58.015752 
L 247.769553 -60.015597 
L 247.742249 -62.015441 
L 247.699976 -64.015286 
L 247.635301 -66.01513 
L 247.540357 -68.014975 
L 247.407267 -70.014819 
L 247.228598 -72.014664 
L 246.997815 -74.014508 
L 246.709716 -76.014353 
L 246.360807 -78.014198 
L 245.949568 -80.014042 
L 245.476599 -82.013887 
L 244.94458 -84.013731 
L 244.358069 -86.013576 
L 243.723091 -88.01342 
L 243.046568 -90.013265 
L 242.335622 -92.01311 
L 241.596818 -94.012954 
L 240.835443 -96.012799 
L 240.054918 -98.012643 
L 239.256448 -100.012488 
L 238.438975 -102.012332 
L 237.599503 -104.012177 
L 236.733771 -106.012021 
L 235.837236 -108.011866 
L 234.906243 -110.011711 
L 233.939246 -112.011555 
L 232.937892 -114.0114 
L 231.907808 -116.011244 
L 230.858952 -118.011089 
L 229.805449 -120.010933 
L 228.764895 -122.010778 
L 227.757223 -124.010622 
L 226.803242 -126.010467 
L 225.923063 -128.010312 
L 225.1346 -130.010156 
L 224.452362 -132.010001 
L 223.88665 -134.009845 
L 223.443263 -136.00969 
L 223.123701 -138.009534 
L 222.925769 -140.009379 
L 222.844472 -142.009223 
L 222.872993 -144.009068 
L 223.003612 -146.008913 
L 223.228401 -148.008757 
L 223.539619 -150.008602 
L 223.929779 -152.008446 
L 224.391439 -154.008291 
L 224.916811 -156.008135 
L 225.497337 -158.00798 
L 226.123345 -160.007824 
L 226.783938 -162.007669 
L 227.467152 -164.007514 
L 228.160435 -166.007358 
L 228.851377 -168.007203 
L 229.528611 -170.007047 
L 230.182752 -172.006892 
L 230.807225 -174.006736 
L 231.398851 -176.006581 
L 231.958098 -178.006425 
L 232.488934 -180.00627 
L 232.998292 -182.006115 
L 233.495224 -184.005959 
L 233.989827 -186.005804 
L 234.492095 -188.005648 
L 235.01083 -190.005493 
L 235.552724 -192.005337 
L 236.121715 -194.005182 
L 236.718651 -196.005026 
L 237.341265 -198.004871 
L 237.984424 -200.004716 
L 238.640603 -202.00456 
L 239.300501 -204.004405 
L 239.953749 -206.004249 
L 240.589638 -208.004094 
L 241.197841 -210.003938 
L 241.769074 -212.003783 
L 242.295688 -214.003627 
L 242.772149 -216.003472 
L 243.19538 -218.003317 
L 243.564935 -220.003161 
L 243.882987 -222.003006 
L 244.15411 -224.00285 
L 244.384876 -226.002695 
L 244.583283 -228.002539 
L 244.758079 -230.002384 
L 244.918048 -232.002229 
L 245.071324 -234.002073 
L 245.224822 -236.001918 
L 245.383819 -238.001762 
L 245.551743 -240.001607 
L 245.73014 -242.001451 
L 245.918838 -244.001296 
L 246.116224 -246.00114 
L 246.319623 -248.000985 
L 246.525691 -250.00083 
L 246.730799 -252.000674 
L 250.166145 -252.000674 
L 250.166145 -252.000674 
L 250.371253 -250.00083 
L 250.577322 -248.000985 
L 250.780721 -246.00114 
L 250.978107 -244.001296 
L 251.166804 -242.001451 
L 251.345202 -240.001607 
L 251.513125 -238.001762 
L 251.672123 -236.001918 
L 251.82562 -234.002073 
L 251.978896 -232.002229 
L 252.138865 -230.002384 
L 252.313662 -228.002539 
L 252.512069 -226.002695 
L 252.742835 -224.00285 
L 253.013958 -222.003006 
L 253.332009 -220.003161 
L 253.701564 -218.003317 
L 254.124795 -216.003472 
L 254.601257 -214.003627 
L 255.127871 -212.003783 
L 255.699104 -210.003938 
L 256.307306 -208.004094 
L 256.943196 -206.004249 
L 257.596444 -204.004405 
L 258.256342 -202.00456 
L 258.91252 -200.004716 
L 259.555679 -198.004871 
L 260.178293 -196.005026 
L 260.77523 -194.005182 
L 261.344221 -192.005337 
L 261.886115 -190.005493 
L 262.404849 -188.005648 
L 262.907118 -186.005804 
L 263.40172 -184.005959 
L 263.898652 -182.006115 
L 264.408011 -180.00627 
L 264.938846 -178.006425 
L 265.498094 -176.006581 
L 266.08972 -174.006736 
L 266.714192 -172.006892 
L 267.368333 -170.007047 
L 268.045567 -168.007203 
L 268.736509 -166.007358 
L 269.429792 -164.007514 
L 270.113007 -162.007669 
L 270.773599 -160.007824 
L 271.399608 -158.00798 
L 271.980133 -156.008135 
L 272.505506 -154.008291 
L 272.967165 -152.008446 
L 273.357325 -150.008602 
L 273.668543 -148.008757 
L 273.893332 -146.008913 
L 274.023951 -144.009068 
L 274.052472 -142.009223 
L 273.971175 -140.009379 
L 273.773244 -138.009534 
L 273.453681 -136.00969 
L 273.010295 -134.009845 
L 272.444582 -132.010001 
L 271.762344 -130.010156 
L 270.973882 -128.010312 
L 270.093702 -126.010467 
L 269.139721 -124.010622 
L 268.13205 -122.010778 
L 267.091496 -120.010933 
L 266.037992 -118.011089 
L 264.989136 -116.011244 
L 263.959052 -114.0114 
L 262.957698 -112.011555 
L 261.990702 -110.011711 
L 261.059709 -108.011866 
L 260.163173 -106.012021 
L 259.297441 -104.012177 
L 258.457969 -102.012332 
L 257.640497 -100.012488 
L 256.842026 -98.012643 
L 256.061502 -96.012799 
L 255.300126 -94.012954 
L 254.561322 -92.01311 
L 253.850376 -90.013265 
L 253.173854 -88.01342 
L 252.538876 -86.013576 
L 251.952364 -84.013731 
L 251.420346 -82.013887 
L 250.947376 -80.014042 
L 250.536138 -78.014198 
L 250.187229 -76.014353 
L 249.89913 -74.014508 
L 249.668346 -72.014664 
L 249.489677 -70.014819 
L 249.356588 -68.014975 
L 249.261644 -66.01513 
L 249.196968 -64.015286 
L 249.154696 -62.015441 
L 249.127391 -60.015597 
L 249.108406 -58.015752 
L 249.092158 -56.015907 
L 249.074314 -54.016063 
z
" style="stroke: #2f2f2f; stroke-width: 0.75"/>
    </defs>
    <g clip-path="url(#p883fb08d8e)">
     <use xlink:href="#mc2ee3493f0" x="0" y="301.06575" style="fill: #e0b898; stroke: #2f2f2f; stroke-width: 0.75"/>
    </g>
   </g>
   <g id="FillBetweenPolyCollection_5">
    <defs>
     <path id="m8ed722a98a" d="M 305.937157 -55.716385 
L 304.755343 -55.716385 
L 304.746368 -57.776362 
L 304.742457 -59.836338 
L 304.740186 -61.896315 
L 304.73504 -63.956292 
L 304.721629 -66.016269 
L 304.69398 -68.076246 
L 304.645901 -70.136223 
L 304.571373 -72.196199 
L 304.464935 -74.256176 
L 304.322042 -76.316153 
L 304.139329 -78.37613 
L 303.914772 -80.436107 
L 303.647712 -82.496083 
L 303.338735 -84.55606 
L 302.989407 -86.616037 
L 302.601915 -88.676014 
L 302.178644 -90.735991 
L 301.721765 -92.795968 
L 301.232908 -94.855944 
L 300.712957 -96.915921 
L 300.162032 -98.975898 
L 299.579628 -101.035875 
L 298.9649 -103.095852 
L 298.317018 -105.155828 
L 297.635496 -107.215805 
L 296.920444 -109.275782 
L 296.172638 -111.335759 
L 295.393433 -113.395736 
L 294.584508 -115.455712 
L 293.747548 -117.515689 
L 292.883952 -119.575666 
L 291.99469 -121.635643 
L 291.080404 -123.69562 
L 290.141804 -125.755597 
L 289.180344 -127.815573 
L 288.199087 -129.87555 
L 287.203623 -131.935527 
L 286.202849 -133.995504 
L 285.209423 -136.055481 
L 284.239762 -138.115457 
L 283.313496 -140.175434 
L 282.452386 -142.235411 
L 281.678829 -144.295388 
L 281.014131 -146.355365 
L 280.476761 -148.415342 
L 280.08085 -150.475318 
L 279.835101 -152.535295 
L 279.74225 -154.595272 
L 279.799105 -156.655249 
L 279.997102 -158.715226 
L 280.323251 -160.775202 
L 280.761315 -162.835179 
L 281.293034 -164.895156 
L 281.899276 -166.955133 
L 282.561006 -169.01511 
L 283.260051 -171.075087 
L 283.979683 -173.135063 
L 284.705057 -175.19504 
L 285.42357 -177.255017 
L 286.125184 -179.314994 
L 286.802714 -181.374971 
L 287.452065 -183.434947 
L 288.072363 -185.494924 
L 288.665907 -187.554901 
L 289.237887 -189.614878 
L 289.795837 -191.674855 
L 290.348826 -193.734831 
L 290.906455 -195.794808 
L 291.477755 -197.854785 
L 292.070109 -199.914762 
L 292.688339 -201.974739 
L 293.334066 -204.034716 
L 294.005413 -206.094692 
L 294.697087 -208.154669 
L 295.400805 -210.214646 
L 296.10601 -212.274623 
L 296.800767 -214.3346 
L 297.472758 -216.394576 
L 298.110261 -218.454553 
L 298.703033 -220.51453 
L 299.243039 -222.574507 
L 299.724987 -224.634484 
L 300.146627 -226.694461 
L 300.508824 -228.754437 
L 300.815388 -230.814414 
L 301.07269 -232.874391 
L 301.289092 -234.934368 
L 301.47423 -236.994345 
L 301.638225 -239.054321 
L 301.790892 -241.114298 
L 301.941016 -243.174275 
L 302.095767 -245.234252 
L 302.260314 -247.294229 
L 302.437646 -249.354206 
L 302.62861 -251.414182 
L 302.832143 -253.474159 
L 303.04563 -255.534136 
L 303.265361 -257.594113 
L 303.486996 -259.65409 
L 307.205504 -259.65409 
L 307.205504 -259.65409 
L 307.427139 -257.594113 
L 307.64687 -255.534136 
L 307.860357 -253.474159 
L 308.06389 -251.414182 
L 308.254854 -249.354206 
L 308.432186 -247.294229 
L 308.596733 -245.234252 
L 308.751484 -243.174275 
L 308.901608 -241.114298 
L 309.054275 -239.054321 
L 309.21827 -236.994345 
L 309.403408 -234.934368 
L 309.61981 -232.874391 
L 309.877112 -230.814414 
L 310.183676 -228.754437 
L 310.545873 -226.694461 
L 310.967513 -224.634484 
L 311.449461 -222.574507 
L 311.989467 -220.51453 
L 312.582239 -218.454553 
L 313.219742 -216.394576 
L 313.891733 -214.3346 
L 314.58649 -212.274623 
L 315.291695 -210.214646 
L 315.995413 -208.154669 
L 316.687087 -206.094692 
L 317.358434 -204.034716 
L 318.004161 -201.974739 
L 318.622391 -199.914762 
L 319.214745 -197.854785 
L 319.786045 -195.794808 
L 320.343674 -193.734831 
L 320.896663 -191.674855 
L 321.454613 -189.614878 
L 322.026593 -187.554901 
L 322.620137 -185.494924 
L 323.240435 -183.434947 
L 323.889786 -181.374971 
L 324.567316 -179.314994 
L 325.26893 -177.255017 
L 325.987443 -175.19504 
L 326.712817 -173.135063 
L 327.432449 -171.075087 
L 328.131494 -169.01511 
L 328.793224 -166.955133 
L 329.399466 -164.895156 
L 329.931185 -162.835179 
L 330.369249 -160.775202 
L 330.695398 -158.715226 
L 330.893395 -156.655249 
L 330.95025 -154.595272 
L 330.857399 -152.535295 
L 330.61165 -150.475318 
L 330.215739 -148.415342 
L 329.678369 -146.355365 
L 329.013671 -144.295388 
L 328.240114 -142.235411 
L 327.379004 -140.175434 
L 326.452738 -138.115457 
L 325.483077 -136.055481 
L 324.489651 -133.995504 
L 323.488877 -131.935527 
L 322.493413 -129.87555 
L 321.512156 -127.815573 
L 320.550696 -125.755597 
L 319.612096 -123.69562 
L 318.69781 -121.635643 
L 317.808548 -119.575666 
L 316.944952 -117.515689 
L 316.107992 -115.455712 
L 315.299067 -113.395736 
L 314.519862 -111.335759 
L 313.772056 -109.275782 
L 313.057004 -107.215805 
L 312.375482 -105.155828 
L 311.7276 -103.095852 
L 311.112872 -101.035875 
L 310.530468 -98.975898 
L 309.979543 -96.915921 
L 309.459592 -94.855944 
L 308.970735 -92.795968 
L 308.513856 -90.735991 
L 308.090585 -88.676014 
L 307.703093 -86.616037 
L 307.353765 -84.55606 
L 307.044788 -82.496083 
L 306.777728 -80.436107 
L 306.553171 -78.37613 
L 306.370458 -76.316153 
L 306.227565 -74.256176 
L 306.121127 -72.196199 
L 306.046599 -70.136223 
L 305.99852 -68.076246 
L 305.970871 -66.016269 
L 305.95746 -63.956292 
L 305.952314 -61.896315 
L 305.950043 -59.836338 
L 305.946132 -57.776362 
L 305.937157 -55.716385 
z
" style="stroke: #2f2f2f; stroke-width: 0.75"/>
    </defs>
    <g clip-path="url(#p883fb08d8e)">
     <use xlink:href="#m8ed722a98a" x="0" y="301.06575" style="fill: #c283a6; stroke: #2f2f2f; stroke-width: 0.75"/>
    </g>
   </g>
   <g id="FillBetweenPolyCollection_6">
    <defs>
     <path id="m33731d8342" d="M 362.862716 -55.978026 
L 361.62534 -55.978026 
L 361.607403 -58.005843 
L 361.591413 -60.033661 
L 361.573542 -62.061478 
L 361.548958 -64.089295 
L 361.51205 -66.117112 
L 361.45675 -68.14493 
L 361.376899 -70.172747 
L 361.266641 -72.200564 
L 361.120801 -74.228381 
L 360.935205 -76.256198 
L 360.70691 -78.284016 
L 360.434316 -80.311833 
L 360.11715 -82.33965 
L 359.756316 -84.367467 
L 359.353639 -86.395284 
L 358.911532 -88.423102 
L 358.43264 -90.450919 
L 357.919502 -92.478736 
L 357.374294 -94.506553 
L 356.798672 -96.534371 
L 356.193726 -98.562188 
L 355.560051 -100.590005 
L 354.897878 -102.617822 
L 354.207234 -104.645639 
L 353.48808 -106.673457 
L 352.740392 -108.701274 
L 351.964174 -110.729091 
L 351.159418 -112.756908 
L 350.326061 -114.784725 
L 349.464007 -116.812543 
L 348.573257 -118.84036 
L 347.654222 -120.868177 
L 346.708206 -122.895994 
L 345.738037 -124.923812 
L 344.748765 -126.951629 
L 343.748291 -128.979446 
L 342.747818 -131.007263 
L 341.761961 -133.03508 
L 340.808453 -135.062898 
L 339.907397 -137.090715 
L 339.080104 -139.118532 
L 338.347644 -141.146349 
L 337.729251 -143.174166 
L 337.240803 -145.201984 
L 336.893559 -147.229801 
L 336.693307 -149.257618 
L 336.640028 -151.285435 
L 336.728077 -153.313252 
L 336.946842 -155.34107 
L 337.28175 -157.368887 
L 337.715479 -159.396704 
L 338.229211 -161.424521 
L 338.803809 -163.452339 
L 339.420813 -165.480156 
L 340.063215 -167.507973 
L 340.716025 -169.53579 
L 341.366645 -171.563607 
L 342.005108 -173.591425 
L 342.624223 -175.619242 
L 343.219643 -177.647059 
L 343.789873 -179.674876 
L 344.336176 -181.702693 
L 344.862378 -183.730511 
L 345.374504 -185.758328 
L 345.880265 -187.786145 
L 346.388377 -189.813962 
L 346.907769 -191.84178 
L 347.446721 -193.869597 
L 348.012041 -195.897414 
L 348.608342 -197.925231 
L 349.237512 -199.953048 
L 349.898429 -201.980866 
L 350.586946 -204.008683 
L 351.296134 -206.0365 
L 352.016762 -208.064317 
L 352.737941 -210.092134 
L 353.447878 -212.119952 
L 354.134663 -214.147769 
L 354.787044 -216.175586 
L 355.395126 -218.203403 
L 355.95096 -220.231221 
L 356.449013 -222.259038 
L 356.88646 -224.286855 
L 357.263322 -226.314672 
L 357.58241 -228.342489 
L 357.849087 -230.370307 
L 358.070851 -232.398124 
L 358.25677 -234.425941 
L 358.416805 -236.453758 
L 358.561072 -238.481575 
L 358.699128 -240.509393 
L 358.839313 -242.53721 
L 358.988247 -244.565027 
L 359.150487 -246.592844 
L 359.328398 -248.620662 
L 359.522211 -250.648479 
L 359.73026 -252.676296 
L 359.949354 -254.704113 
L 360.175225 -256.73193 
L 364.312831 -256.73193 
L 364.312831 -256.73193 
L 364.538701 -254.704113 
L 364.757795 -252.676296 
L 364.965845 -250.648479 
L 365.159658 -248.620662 
L 365.337569 -246.592844 
L 365.499809 -244.565027 
L 365.648742 -242.53721 
L 365.788928 -240.509393 
L 365.926983 -238.481575 
L 366.071251 -236.453758 
L 366.231285 -234.425941 
L 366.417205 -232.398124 
L 366.638969 -230.370307 
L 366.905645 -228.342489 
L 367.224733 -226.314672 
L 367.601596 -224.286855 
L 368.039043 -222.259038 
L 368.537095 -220.231221 
L 369.09293 -218.203403 
L 369.701011 -216.175586 
L 370.353393 -214.147769 
L 371.040178 -212.119952 
L 371.750114 -210.092134 
L 372.471294 -208.064317 
L 373.191922 -206.0365 
L 373.90111 -204.008683 
L 374.589626 -201.980866 
L 375.250544 -199.953048 
L 375.879714 -197.925231 
L 376.476014 -195.897414 
L 377.041334 -193.869597 
L 377.580287 -191.84178 
L 378.099678 -189.813962 
L 378.607791 -187.786145 
L 379.113552 -185.758328 
L 379.625678 -183.730511 
L 380.151879 -181.702693 
L 380.698183 -179.674876 
L 381.268412 -177.647059 
L 381.863833 -175.619242 
L 382.482948 -173.591425 
L 383.121411 -171.563607 
L 383.772031 -169.53579 
L 384.424841 -167.507973 
L 385.067243 -165.480156 
L 385.684246 -163.452339 
L 386.258844 -161.424521 
L 386.772577 -159.396704 
L 387.206305 -157.368887 
L 387.541214 -155.34107 
L 387.759979 -153.313252 
L 387.848028 -151.285435 
L 387.794748 -149.257618 
L 387.594497 -147.229801 
L 387.247253 -145.201984 
L 386.758805 -143.174166 
L 386.140412 -141.146349 
L 385.407951 -139.118532 
L 384.580659 -137.090715 
L 383.679602 -135.062898 
L 382.726095 -133.03508 
L 381.740238 -131.007263 
L 380.739764 -128.979446 
L 379.739291 -126.951629 
L 378.750018 -124.923812 
L 377.77985 -122.895994 
L 376.833833 -120.868177 
L 375.914799 -118.84036 
L 375.024049 -116.812543 
L 374.161994 -114.784725 
L 373.328638 -112.756908 
L 372.523881 -110.729091 
L 371.747663 -108.701274 
L 370.999976 -106.673457 
L 370.280822 -104.645639 
L 369.590178 -102.617822 
L 368.928004 -100.590005 
L 368.29433 -98.562188 
L 367.689384 -96.534371 
L 367.113761 -94.506553 
L 366.568554 -92.478736 
L 366.055416 -90.450919 
L 365.576523 -88.423102 
L 365.134416 -86.395284 
L 364.731739 -84.367467 
L 364.370905 -82.33965 
L 364.053739 -80.311833 
L 363.781145 -78.284016 
L 363.55285 -76.256198 
L 363.367254 -74.228381 
L 363.221415 -72.200564 
L 363.111157 -70.172747 
L 363.031305 -68.14493 
L 362.976005 -66.117112 
L 362.939098 -64.089295 
L 362.914513 -62.061478 
L 362.896642 -60.033661 
L 362.880652 -58.005843 
L 362.862716 -55.978026 
z
" style="stroke: #2f2f2f; stroke-width: 0.75"/>
    </defs>
    <g clip-path="url(#p883fb08d8e)">
     <use xlink:href="#m33731d8342" x="0" y="301.06575" style="fill: #e3c7d7; stroke: #2f2f2f; stroke-width: 0.75"/>
    </g>
   </g>
   <g id="FillBetweenPolyCollection_7">
    <defs>
     <path id="m4e9178b44b" d="M 419.89684 -81.356297 
L 418.386771 -81.356297 
L 418.330638 -83.26573 
L 418.266272 -85.175162 
L 418.188051 -87.084595 
L 418.089407 -88.994028 
L 417.963181 -90.903461 
L 417.802061 -92.812893 
L 417.599076 -94.722326 
L 417.348096 -96.631759 
L 417.044281 -98.541191 
L 416.684445 -100.450624 
L 416.267277 -102.360057 
L 415.793402 -104.269489 
L 415.265254 -106.178922 
L 414.686757 -108.088355 
L 414.062855 -109.997788 
L 413.39891 -111.90722 
L 412.700053 -113.816653 
L 411.970551 -115.726086 
L 411.21329 -117.635518 
L 410.429455 -119.544951 
L 409.618486 -121.454384 
L 408.778341 -123.363816 
L 407.906088 -125.273249 
L 406.998763 -127.182682 
L 406.05441 -129.092114 
L 405.073169 -131.001547 
L 404.058244 -132.91098 
L 403.016595 -134.820413 
L 401.959207 -136.729845 
L 400.90085 -138.639278 
L 399.859312 -140.548711 
L 398.854164 -142.458143 
L 397.905194 -144.367576 
L 397.030714 -146.277009 
L 396.245976 -148.186441 
L 395.561911 -150.095874 
L 394.984384 -152.005307 
L 394.514079 -153.914739 
L 394.14702 -155.824172 
L 393.875646 -157.733605 
L 393.690274 -159.643038 
L 393.580716 -161.55247 
L 393.537806 -163.461903 
L 393.554603 -165.371336 
L 393.627104 -167.280768 
L 393.754378 -169.190201 
L 393.938134 -171.099634 
L 394.181814 -173.009066 
L 394.489399 -174.918499 
L 394.864116 -176.827932 
L 395.307274 -178.737364 
L 395.817409 -180.646797 
L 396.38985 -182.55623 
L 397.016782 -184.465663 
L 397.687748 -186.375095 
L 398.390527 -188.284528 
L 399.112227 -190.193961 
L 399.840443 -192.103393 
L 400.564309 -194.012826 
L 401.275323 -195.922259 
L 401.96785 -197.831691 
L 402.639264 -199.741124 
L 403.28975 -201.650557 
L 403.921825 -203.55999 
L 404.53965 -205.469422 
L 405.148256 -207.378855 
L 405.752757 -209.288288 
L 406.357637 -211.19772 
L 406.966178 -213.107153 
L 407.580051 -215.016586 
L 408.199089 -216.926018 
L 408.821245 -218.835451 
L 409.442711 -220.744884 
L 410.058209 -222.654316 
L 410.661398 -224.563749 
L 411.245397 -226.473182 
L 411.803373 -228.382615 
L 412.329146 -230.292047 
L 412.817762 -232.20148 
L 413.265959 -234.110913 
L 413.672478 -236.020345 
L 414.038167 -237.929778 
L 414.365869 -239.839211 
L 414.660089 -241.748643 
L 414.926491 -243.658076 
L 415.171289 -245.567509 
L 415.400612 -247.476941 
L 415.619935 -249.386374 
L 415.833635 -251.295807 
L 416.044735 -253.20524 
L 416.254841 -255.114672 
L 416.464264 -257.024105 
L 416.672278 -258.933538 
L 416.87746 -260.84297 
L 417.078052 -262.752403 
L 417.272272 -264.661836 
L 417.458556 -266.571268 
L 417.635691 -268.480701 
L 417.802852 -270.390134 
L 420.480759 -270.390134 
L 420.480759 -270.390134 
L 420.64792 -268.480701 
L 420.825055 -266.571268 
L 421.011339 -264.661836 
L 421.205559 -262.752403 
L 421.406151 -260.84297 
L 421.611333 -258.933538 
L 421.819347 -257.024105 
L 422.02877 -255.114672 
L 422.238876 -253.20524 
L 422.449977 -251.295807 
L 422.663677 -249.386374 
L 422.882999 -247.476941 
L 423.112322 -245.567509 
L 423.35712 -243.658076 
L 423.623522 -241.748643 
L 423.917742 -239.839211 
L 424.245444 -237.929778 
L 424.611134 -236.020345 
L 425.017652 -234.110913 
L 425.465849 -232.20148 
L 425.954465 -230.292047 
L 426.480238 -228.382615 
L 427.038214 -226.473182 
L 427.622213 -224.563749 
L 428.225402 -222.654316 
L 428.8409 -220.744884 
L 429.462366 -218.835451 
L 430.084522 -216.926018 
L 430.70356 -215.016586 
L 431.317434 -213.107153 
L 431.925975 -211.19772 
L 432.530854 -209.288288 
L 433.135355 -207.378855 
L 433.743961 -205.469422 
L 434.361786 -203.55999 
L 434.993861 -201.650557 
L 435.644347 -199.741124 
L 436.315761 -197.831691 
L 437.008288 -195.922259 
L 437.719302 -194.012826 
L 438.443168 -192.103393 
L 439.171384 -190.193961 
L 439.893084 -188.284528 
L 440.595863 -186.375095 
L 441.266829 -184.465663 
L 441.893761 -182.55623 
L 442.466202 -180.646797 
L 442.976337 -178.737364 
L 443.419495 -176.827932 
L 443.794212 -174.918499 
L 444.101797 -173.009066 
L 444.345477 -171.099634 
L 444.529233 -169.190201 
L 444.656507 -167.280768 
L 444.729009 -165.371336 
L 444.745806 -163.461903 
L 444.702895 -161.55247 
L 444.593337 -159.643038 
L 444.407965 -157.733605 
L 444.136591 -155.824172 
L 443.769532 -153.914739 
L 443.299228 -152.005307 
L 442.7217 -150.095874 
L 442.037635 -148.186441 
L 441.252897 -146.277009 
L 440.378417 -144.367576 
L 439.429447 -142.458143 
L 438.424299 -140.548711 
L 437.382761 -138.639278 
L 436.324404 -136.729845 
L 435.267016 -134.820413 
L 434.225367 -132.91098 
L 433.210442 -131.001547 
L 432.229201 -129.092114 
L 431.284848 -127.182682 
L 430.377523 -125.273249 
L 429.50527 -123.363816 
L 428.665125 -121.454384 
L 427.854156 -119.544951 
L 427.070321 -117.635518 
L 426.31306 -115.726086 
L 425.583558 -113.816653 
L 424.884701 -111.90722 
L 424.220756 -109.997788 
L 423.596854 -108.088355 
L 423.018357 -106.178922 
L 422.490209 -104.269489 
L 422.016335 -102.360057 
L 421.599166 -100.450624 
L 421.23933 -98.541191 
L 420.935515 -96.631759 
L 420.684535 -94.722326 
L 420.48155 -92.812893 
L 420.32043 -90.903461 
L 420.194204 -88.994028 
L 420.09556 -87.084595 
L 420.017339 -85.175162 
L 419.952974 -83.26573 
L 419.89684 -81.356297 
z
" style="stroke: #2f2f2f; stroke-width: 0.75"/>
    </defs>
    <g clip-path="url(#p883fb08d8e)">
     <use xlink:href="#m4e9178b44b" x="0" y="301.06575" style="fill: #148a6a; stroke: #2f2f2f; stroke-width: 0.75"/>
    </g>
   </g>
   <g id="FillBetweenPolyCollection_8">
    <defs>
     <path id="m3cad6cf85e" d="M 476.665638 -67.326228 
L 475.413529 -67.326228 
L 475.398884 -69.301878 
L 475.387888 -71.277527 
L 475.376619 -73.253177 
L 475.359932 -75.228827 
L 475.331633 -77.204477 
L 475.284721 -79.180127 
L 475.211687 -81.155776 
L 475.10484 -83.131426 
L 474.95665 -85.107076 
L 474.760085 -87.082726 
L 474.508943 -89.058376 
L 474.198156 -91.034025 
L 473.824061 -93.009675 
L 473.384621 -94.985325 
L 472.879556 -96.960975 
L 472.310383 -98.936625 
L 471.680313 -100.912274 
L 470.993992 -102.887924 
L 470.257096 -104.863574 
L 469.475795 -106.839224 
L 468.656136 -108.814874 
L 467.803445 -110.790523 
L 466.921837 -112.766173 
L 466.013932 -114.741823 
L 465.080874 -116.717473 
L 464.122687 -118.693123 
L 463.138952 -120.668772 
L 462.129729 -122.644422 
L 461.096599 -124.620072 
L 460.043634 -126.595722 
L 458.97813 -128.571372 
L 457.910934 -130.547021 
L 456.856285 -132.522671 
L 455.831126 -134.498321 
L 454.853989 -136.473971 
L 453.943581 -138.449621 
L 453.117292 -140.42527 
L 452.389843 -142.40092 
L 451.77227 -144.37657 
L 451.271391 -146.35222 
L 450.889796 -148.32787 
L 450.626326 -150.303519 
L 450.476912 -152.279169 
L 450.435583 -154.254819 
L 450.495465 -156.230469 
L 450.649555 -158.206118 
L 450.891186 -160.181768 
L 451.214112 -162.157418 
L 451.61226 -164.133068 
L 452.079263 -166.108718 
L 452.607919 -168.084367 
L 453.189752 -170.060017 
L 453.814805 -172.035667 
L 454.47177 -174.011317 
L 455.14846 -175.986967 
L 455.832584 -177.962616 
L 456.512716 -179.938266 
L 457.17929 -181.913916 
L 457.825475 -183.889566 
L 458.447773 -185.865216 
L 459.046231 -187.840865 
L 459.624226 -189.816515 
L 460.187853 -191.792165 
L 460.744982 -193.767815 
L 461.304137 -195.743465 
L 461.873341 -197.719114 
L 462.459082 -199.694764 
L 463.065514 -201.670414 
L 463.69399 -203.646064 
L 464.342923 -205.621714 
L 465.007966 -207.597363 
L 465.682444 -209.573013 
L 466.357959 -211.548663 
L 467.025074 -213.524313 
L 467.674033 -215.499963 
L 468.295446 -217.475612 
L 468.880917 -219.451262 
L 469.423585 -221.426912 
L 469.918569 -223.402562 
L 470.363276 -225.378212 
L 470.757564 -227.353861 
L 471.103709 -229.329511 
L 471.406188 -231.305161 
L 471.671256 -233.280811 
L 471.906369 -235.256461 
L 472.119495 -237.23211 
L 472.318402 -239.20776 
L 472.509999 -241.18341 
L 472.699825 -243.15906 
L 472.891726 -245.13471 
L 473.08776 -247.110359 
L 473.288322 -249.086009 
L 473.492431 -251.061659 
L 473.698139 -253.037309 
L 473.90296 -255.012959 
L 474.10428 -256.988608 
L 474.299669 -258.964258 
L 474.487086 -260.939908 
L 474.664969 -262.915558 
L 477.414198 -262.915558 
L 477.414198 -262.915558 
L 477.59208 -260.939908 
L 477.779498 -258.964258 
L 477.974887 -256.988608 
L 478.176207 -255.012959 
L 478.381028 -253.037309 
L 478.586735 -251.061659 
L 478.790845 -249.086009 
L 478.991407 -247.110359 
L 479.187441 -245.13471 
L 479.379342 -243.15906 
L 479.569168 -241.18341 
L 479.760765 -239.20776 
L 479.959672 -237.23211 
L 480.172798 -235.256461 
L 480.407911 -233.280811 
L 480.672979 -231.305161 
L 480.975457 -229.329511 
L 481.321603 -227.353861 
L 481.71589 -225.378212 
L 482.160598 -223.402562 
L 482.655581 -221.426912 
L 483.198249 -219.451262 
L 483.78372 -217.475612 
L 484.405134 -215.499963 
L 485.054093 -213.524313 
L 485.721208 -211.548663 
L 486.396722 -209.573013 
L 487.071201 -207.597363 
L 487.736244 -205.621714 
L 488.385176 -203.646064 
L 489.013653 -201.670414 
L 489.620085 -199.694764 
L 490.205825 -197.719114 
L 490.77503 -195.743465 
L 491.334185 -193.767815 
L 491.891314 -191.792165 
L 492.45494 -189.816515 
L 493.032936 -187.840865 
L 493.631393 -185.865216 
L 494.253692 -183.889566 
L 494.899877 -181.913916 
L 495.566451 -179.938266 
L 496.246582 -177.962616 
L 496.930707 -175.986967 
L 497.607396 -174.011317 
L 498.264362 -172.035667 
L 498.889415 -170.060017 
L 499.471247 -168.084367 
L 499.999903 -166.108718 
L 500.466906 -164.133068 
L 500.865055 -162.157418 
L 501.187981 -160.181768 
L 501.429612 -158.206118 
L 501.583702 -156.230469 
L 501.643583 -154.254819 
L 501.602255 -152.279169 
L 501.45284 -150.303519 
L 501.189371 -148.32787 
L 500.807776 -146.35222 
L 500.306897 -144.37657 
L 499.689324 -142.40092 
L 498.961874 -140.42527 
L 498.135586 -138.449621 
L 497.225178 -136.473971 
L 496.248041 -134.498321 
L 495.222882 -132.522671 
L 494.168232 -130.547021 
L 493.101037 -128.571372 
L 492.035533 -126.595722 
L 490.982568 -124.620072 
L 489.949438 -122.644422 
L 488.940215 -120.668772 
L 487.956479 -118.693123 
L 486.998293 -116.717473 
L 486.065235 -114.741823 
L 485.15733 -112.766173 
L 484.275722 -110.790523 
L 483.423031 -108.814874 
L 482.603372 -106.839224 
L 481.82207 -104.863574 
L 481.085175 -102.887924 
L 480.398854 -100.912274 
L 479.768784 -98.936625 
L 479.199611 -96.960975 
L 478.694546 -94.985325 
L 478.255105 -93.009675 
L 477.881011 -91.034025 
L 477.570224 -89.058376 
L 477.319082 -87.082726 
L 477.122517 -85.107076 
L 476.974327 -83.131426 
L 476.86748 -81.155776 
L 476.794446 -79.180127 
L 476.747534 -77.204477 
L 476.719235 -75.228827 
L 476.702548 -73.253177 
L 476.691278 -71.277527 
L 476.680283 -69.301878 
L 476.665638 -67.326228 
z
" style="stroke: #2f2f2f; stroke-width: 0.75"/>
    </defs>
    <g clip-path="url(#p883fb08d8e)">
     <use xlink:href="#m3cad6cf85e" x="0" y="301.06575" style="fill: #95cabc; stroke: #2f2f2f; stroke-width: 0.75"/>
    </g>
   </g>
   <g id="FillBetweenPolyCollection_9">
    <defs>
     <path id="mbe351245ab" d="M 533.694595 -117.370303 
L 532.180127 -117.370303 
L 532.114143 -119.104834 
L 532.035863 -120.839364 
L 531.93847 -122.573895 
L 531.814174 -124.308426 
L 531.65469 -126.042956 
L 531.451794 -127.777487 
L 531.197913 -129.512018 
L 530.886666 -131.246549 
L 530.513282 -132.981079 
L 530.074842 -134.71561 
L 529.570323 -136.450141 
L 529.00043 -138.184671 
L 528.36727 -139.919202 
L 527.673923 -141.653733 
L 526.924007 -143.388263 
L 526.121321 -145.122794 
L 525.269641 -146.857325 
L 524.372701 -148.591855 
L 523.434373 -150.326386 
L 522.458981 -152.060917 
L 521.451689 -153.795447 
L 520.418849 -155.529978 
L 519.368231 -157.264509 
L 518.309067 -158.999039 
L 517.251865 -160.73357 
L 516.208038 -162.468101 
L 515.18937 -164.202632 
L 514.207411 -165.937162 
L 513.272877 -167.671693 
L 512.39512 -169.406224 
L 511.581733 -171.140754 
L 510.838299 -172.875285 
L 510.168314 -174.609816 
L 509.57327 -176.344346 
L 509.052896 -178.078877 
L 508.605556 -179.813408 
L 508.228761 -181.547938 
L 507.919784 -183.282469 
L 507.676305 -185.017 
L 507.497015 -186.75153 
L 507.382077 -188.486061 
L 507.333361 -190.220592 
L 507.354386 -191.955123 
L 507.449936 -193.689653 
L 507.6254 -195.424184 
L 507.885903 -197.158715 
L 508.23538 -198.893245 
L 508.675718 -200.627776 
L 509.206111 -202.362307 
L 509.822719 -204.096837 
L 510.518661 -205.831368 
L 511.284323 -207.565899 
L 512.107921 -209.300429 
L 512.976206 -211.03496 
L 513.875215 -212.769491 
L 514.79099 -214.504021 
L 515.710187 -216.238552 
L 516.62057 -217.973083 
L 517.511357 -219.707613 
L 518.37346 -221.442144 
L 519.199604 -223.176675 
L 519.984364 -224.911206 
L 520.724117 -226.645736 
L 521.41692 -228.380267 
L 522.06234 -230.114798 
L 522.661228 -231.849328 
L 523.215485 -233.583859 
L 523.727824 -235.31839 
L 524.201564 -237.05292 
L 524.640457 -238.787451 
L 525.048551 -240.521982 
L 525.430085 -242.256512 
L 525.789386 -243.991043 
L 526.130768 -245.725574 
L 526.458401 -247.460104 
L 526.776163 -249.194635 
L 527.087481 -250.929166 
L 527.39518 -252.663697 
L 527.701362 -254.398227 
L 528.007319 -256.132758 
L 528.313514 -257.867289 
L 528.619607 -259.601819 
L 528.924521 -261.33635 
L 529.226551 -263.070881 
L 529.523484 -264.805411 
L 529.81274 -266.539942 
L 530.091531 -268.274473 
L 530.357031 -270.009003 
L 530.606569 -271.743534 
L 530.837837 -273.478065 
L 531.049088 -275.212595 
L 531.23932 -276.947126 
L 531.408401 -278.681657 
L 531.557114 -280.416187 
L 531.687112 -282.150718 
L 531.800763 -283.885249 
L 531.900921 -285.61978 
L 531.990629 -287.35431 
L 532.072816 -289.088841 
L 533.801907 -289.088841 
L 533.801907 -289.088841 
L 533.884093 -287.35431 
L 533.973801 -285.61978 
L 534.073959 -283.885249 
L 534.18761 -282.150718 
L 534.317608 -280.416187 
L 534.466321 -278.681657 
L 534.635402 -276.947126 
L 534.825634 -275.212595 
L 535.036885 -273.478065 
L 535.268153 -271.743534 
L 535.517691 -270.009003 
L 535.783191 -268.274473 
L 536.061982 -266.539942 
L 536.351238 -264.805411 
L 536.648171 -263.070881 
L 536.950201 -261.33635 
L 537.255115 -259.601819 
L 537.561208 -257.867289 
L 537.867404 -256.132758 
L 538.17336 -254.398227 
L 538.479542 -252.663697 
L 538.787242 -250.929166 
L 539.098559 -249.194635 
L 539.416321 -247.460104 
L 539.743954 -245.725574 
L 540.085336 -243.991043 
L 540.444638 -242.256512 
L 540.826171 -240.521982 
L 541.234265 -238.787451 
L 541.673158 -237.05292 
L 542.146898 -235.31839 
L 542.659237 -233.583859 
L 543.213494 -231.849328 
L 543.812382 -230.114798 
L 544.457802 -228.380267 
L 545.150606 -226.645736 
L 545.890358 -224.911206 
L 546.675118 -223.176675 
L 547.501262 -221.442144 
L 548.363365 -219.707613 
L 549.254153 -217.973083 
L 550.164535 -216.238552 
L 551.083732 -214.504021 
L 551.999507 -212.769491 
L 552.898517 -211.03496 
L 553.766801 -209.300429 
L 554.5904 -207.565899 
L 555.356062 -205.831368 
L 556.052003 -204.096837 
L 556.668611 -202.362307 
L 557.199005 -200.627776 
L 557.639342 -198.893245 
L 557.988819 -197.158715 
L 558.249322 -195.424184 
L 558.424786 -193.689653 
L 558.520336 -191.955123 
L 558.541361 -190.220592 
L 558.492646 -188.486061 
L 558.377707 -186.75153 
L 558.198417 -185.017 
L 557.954939 -183.282469 
L 557.645961 -181.547938 
L 557.269166 -179.813408 
L 556.821826 -178.078877 
L 556.301452 -176.344346 
L 555.706408 -174.609816 
L 555.036423 -172.875285 
L 554.292989 -171.140754 
L 553.479602 -169.406224 
L 552.601845 -167.671693 
L 551.667311 -165.937162 
L 550.685352 -164.202632 
L 549.666684 -162.468101 
L 548.622858 -160.73357 
L 547.565656 -158.999039 
L 546.506491 -157.264509 
L 545.455873 -155.529978 
L 544.423033 -153.795447 
L 543.415741 -152.060917 
L 542.440349 -150.326386 
L 541.502021 -148.591855 
L 540.605081 -146.857325 
L 539.753401 -145.122794 
L 538.950716 -143.388263 
L 538.2008 -141.653733 
L 537.507452 -139.919202 
L 536.874292 -138.184671 
L 536.3044 -136.450141 
L 535.799881 -134.71561 
L 535.361441 -132.981079 
L 534.988056 -131.246549 
L 534.676809 -129.512018 
L 534.422928 -127.777487 
L 534.220032 -126.042956 
L 534.060548 -124.308426 
L 533.936253 -122.573895 
L 533.838859 -120.839364 
L 533.760579 -119.104834 
L 533.694595 -117.370303 
z
" style="stroke: #2f2f2f; stroke-width: 0.75"/>
    </defs>
    <g clip-path="url(#p883fb08d8e)">
     <use xlink:href="#mbe351245ab" x="0" y="301.06575" style="fill: #c9941d; stroke: #2f2f2f; stroke-width: 0.75"/>
    </g>
   </g>
   <g id="matplotlib.axis_1">
    <g id="xtick_1">
     <g id="text_1">
      <!-- MVT -->
      <g transform="translate(66.966858 276.590438) scale(0.1 -0.1)">
       <defs>
        <path id="DejaVuSans-4d" d="M 628 4666 
L 1569 4666 
L 2759 1491 
L 3956 4666 
L 4897 4666 
L 4897 0 
L 4281 0 
L 4281 4097 
L 3078 897 
L 2444 897 
L 1241 4097 
L 1241 0 
L 628 0 
L 628 4666 
z
" transform="scale(0.015625)"/>
        <path id="DejaVuSans-56" d="M 1831 0 
L 50 4666 
L 709 4666 
L 2188 738 
L 3669 4666 
L 4325 4666 
L 2547 0 
L 1831 0 
z
" transform="scale(0.015625)"/>
        <path id="DejaVuSans-54" d="M -19 4666 
L 3928 4666 
L 3928 4134 
L 2272 4134 
L 2272 0 
L 1638 0 
L 1638 4134 
L -19 4134 
L -19 4666 
z
" transform="scale(0.015625)"/>
       </defs>
       <use xlink:href="#DejaVuSans-4d"/>
       <use xlink:href="#DejaVuSans-56" transform="translate(86.279297 0)"/>
       <use xlink:href="#DejaVuSans-54" transform="translate(154.6875 0)"/>
      </g>
     </g>
    </g>
    <g id="xtick_2">
     <g id="text_2">
      <!-- MVT -->
      <g transform="translate(123.864635 276.590438) scale(0.1 -0.1)">
       <use xlink:href="#DejaVuSans-4d"/>
       <use xlink:href="#DejaVuSans-56" transform="translate(86.279297 0)"/>
       <use xlink:href="#DejaVuSans-54" transform="translate(154.6875 0)"/>
      </g>
      <!-- (SIMD) -->
      <g transform="translate(117.938073 287.78825) scale(0.1 -0.1)">
       <defs>
        <path id="DejaVuSans-28" d="M 1984 4856 
Q 1566 4138 1362 3434 
Q 1159 2731 1159 2009 
Q 1159 1288 1364 580 
Q 1569 -128 1984 -844 
L 1484 -844 
Q 1016 -109 783 600 
Q 550 1309 550 2009 
Q 550 2706 781 3412 
Q 1013 4119 1484 4856 
L 1984 4856 
z
" transform="scale(0.015625)"/>
        <path id="DejaVuSans-53" d="M 3425 4513 
L 3425 3897 
Q 3066 4069 2747 4153 
Q 2428 4238 2131 4238 
Q 1616 4238 1336 4038 
Q 1056 3838 1056 3469 
Q 1056 3159 1242 3001 
Q 1428 2844 1947 2747 
L 2328 2669 
Q 3034 2534 3370 2195 
Q 3706 1856 3706 1288 
Q 3706 609 3251 259 
Q 2797 -91 1919 -91 
Q 1588 -91 1214 -16 
Q 841 59 441 206 
L 441 856 
Q 825 641 1194 531 
Q 1563 422 1919 422 
Q 2459 422 2753 634 
Q 3047 847 3047 1241 
Q 3047 1584 2836 1778 
Q 2625 1972 2144 2069 
L 1759 2144 
Q 1053 2284 737 2584 
Q 422 2884 422 3419 
Q 422 4038 858 4394 
Q 1294 4750 2059 4750 
Q 2388 4750 2728 4690 
Q 3069 4631 3425 4513 
z
" transform="scale(0.015625)"/>
        <path id="DejaVuSans-49" d="M 628 4666 
L 1259 4666 
L 1259 0 
L 628 0 
L 628 4666 
z
" transform="scale(0.015625)"/>
        <path id="DejaVuSans-44" d="M 1259 4147 
L 1259 519 
L 2022 519 
Q 2988 519 3436 956 
Q 3884 1394 3884 2338 
Q 3884 3275 3436 3711 
Q 2988 4147 2022 4147 
L 1259 4147 
z
M 628 4666 
L 1925 4666 
Q 3281 4666 3915 4102 
Q 4550 3538 4550 2338 
Q 4550 1131 3912 565 
Q 3275 0 1925 0 
L 628 0 
L 628 4666 
z
" transform="scale(0.015625)"/>
        <path id="DejaVuSans-29" d="M 513 4856 
L 1013 4856 
Q 1481 4119 1714 3412 
Q 1947 2706 1947 2009 
Q 1947 1309 1714 600 
Q 1481 -109 1013 -844 
L 513 -844 
Q 928 -128 1133 580 
Q 1338 1288 1338 2009 
Q 1338 2731 1133 3434 
Q 928 4138 513 4856 
z
" transform="scale(0.015625)"/>
       </defs>
       <use xlink:href="#DejaVuSans-28"/>
       <use xlink:href="#DejaVuSans-53" transform="translate(39.013672 0)"/>
       <use xlink:href="#DejaVuSans-49" transform="translate(102.490234 0)"/>
       <use xlink:href="#DejaVuSans-4d" transform="translate(131.982422 0)"/>
       <use xlink:href="#DejaVuSans-44" transform="translate(218.261719 0)"/>
       <use xlink:href="#DejaVuSans-29" transform="translate(295.263672 0)"/>
      </g>
     </g>
    </g>
    <g id="xtick_3">
     <g id="text_3">
      <!-- Mutable -->
      <g transform="translate(171.403819 276.590438) scale(0.1 -0.1)">
       <defs>
        <path id="DejaVuSans-75" d="M 544 1381 
L 544 3500 
L 1119 3500 
L 1119 1403 
Q 1119 906 1312 657 
Q 1506 409 1894 409 
Q 2359 409 2629 706 
Q 2900 1003 2900 1516 
L 2900 3500 
L 3475 3500 
L 3475 0 
L 2900 0 
L 2900 538 
Q 2691 219 2414 64 
Q 2138 -91 1772 -91 
Q 1169 -91 856 284 
Q 544 659 544 1381 
z
M 1991 3584 
L 1991 3584 
z
" transform="scale(0.015625)"/>
        <path id="DejaVuSans-74" d="M 1172 4494 
L 1172 3500 
L 2356 3500 
L 2356 3053 
L 1172 3053 
L 1172 1153 
Q 1172 725 1289 603 
Q 1406 481 1766 481 
L 2356 481 
L 2356 0 
L 1766 0 
Q 1100 0 847 248 
Q 594 497 594 1153 
L 594 3053 
L 172 3053 
L 172 3500 
L 594 3500 
L 594 4494 
L 1172 4494 
z
" transform="scale(0.015625)"/>
        <path id="DejaVuSans-61" d="M 2194 1759 
Q 1497 1759 1228 1600 
Q 959 1441 959 1056 
Q 959 750 1161 570 
Q 1363 391 1709 391 
Q 2188 391 2477 730 
Q 2766 1069 2766 1631 
L 2766 1759 
L 2194 1759 
z
M 3341 1997 
L 3341 0 
L 2766 0 
L 2766 531 
Q 2569 213 2275 61 
Q 1981 -91 1556 -91 
Q 1019 -91 701 211 
Q 384 513 384 1019 
Q 384 1609 779 1909 
Q 1175 2209 1959 2209 
L 2766 2209 
L 2766 2266 
Q 2766 2663 2505 2880 
Q 2244 3097 1772 3097 
Q 1472 3097 1187 3025 
Q 903 2953 641 2809 
L 641 3341 
Q 956 3463 1253 3523 
Q 1550 3584 1831 3584 
Q 2591 3584 2966 3190 
Q 3341 2797 3341 1997 
z
" transform="scale(0.015625)"/>
        <path id="DejaVuSans-62" d="M 3116 1747 
Q 3116 2381 2855 2742 
Q 2594 3103 2138 3103 
Q 1681 3103 1420 2742 
Q 1159 2381 1159 1747 
Q 1159 1113 1420 752 
Q 1681 391 2138 391 
Q 2594 391 2855 752 
Q 3116 1113 3116 1747 
z
M 1159 2969 
Q 1341 3281 1617 3432 
Q 1894 3584 2278 3584 
Q 2916 3584 3314 3078 
Q 3713 2572 3713 1747 
Q 3713 922 3314 415 
Q 2916 -91 2278 -91 
Q 1894 -91 1617 61 
Q 1341 213 1159 525 
L 1159 0 
L 581 0 
L 581 4863 
L 1159 4863 
L 1159 2969 
z
" transform="scale(0.015625)"/>
        <path id="DejaVuSans-6c" d="M 603 4863 
L 1178 4863 
L 1178 0 
L 603 0 
L 603 4863 
z
" transform="scale(0.015625)"/>
        <path id="DejaVuSans-65" d="M 3597 1894 
L 3597 1613 
L 953 1613 
Q 991 1019 1311 708 
Q 1631 397 2203 397 
Q 2534 397 2845 478 
Q 3156 559 3463 722 
L 3463 178 
Q 3153 47 2828 -22 
Q 2503 -91 2169 -91 
Q 1331 -91 842 396 
Q 353 884 353 1716 
Q 353 2575 817 3079 
Q 1281 3584 2069 3584 
Q 2775 3584 3186 3129 
Q 3597 2675 3597 1894 
z
M 3022 2063 
Q 3016 2534 2758 2815 
Q 2500 3097 2075 3097 
Q 1594 3097 1305 2825 
Q 1016 2553 972 2059 
L 3022 2063 
z
" transform="scale(0.015625)"/>
       </defs>
       <use xlink:href="#DejaVuSans-4d"/>
       <use xlink:href="#DejaVuSans-75" transform="translate(86.279297 0)"/>
       <use xlink:href="#DejaVuSans-74" transform="translate(149.658203 0)"/>
       <use xlink:href="#DejaVuSans-61" transform="translate(188.867188 0)"/>
       <use xlink:href="#DejaVuSans-62" transform="translate(250.146484 0)"/>
       <use xlink:href="#DejaVuSans-6c" transform="translate(313.623047 0)"/>
       <use xlink:href="#DejaVuSans-65" transform="translate(341.40625 0)"/>
      </g>
      <!-- MVT -->
      <g transform="translate(180.762413 287.78825) scale(0.1 -0.1)">
       <use xlink:href="#DejaVuSans-4d"/>
       <use xlink:href="#DejaVuSans-56" transform="translate(86.279297 0)"/>
       <use xlink:href="#DejaVuSans-54" transform="translate(154.6875 0)"/>
      </g>
     </g>
    </g>
    <g id="xtick_4">
     <g id="text_4">
      <!-- Mutable -->
      <g transform="translate(228.301597 276.590438) scale(0.1 -0.1)">
       <use xlink:href="#DejaVuSans-4d"/>
       <use xlink:href="#DejaVuSans-75" transform="translate(86.279297 0)"/>
       <use xlink:href="#DejaVuSans-74" transform="translate(149.658203 0)"/>
       <use xlink:href="#DejaVuSans-61" transform="translate(188.867188 0)"/>
       <use xlink:href="#DejaVuSans-62" transform="translate(250.146484 0)"/>
       <use xlink:href="#DejaVuSans-6c" transform="translate(313.623047 0)"/>
       <use xlink:href="#DejaVuSans-65" transform="translate(341.40625 0)"/>
      </g>
      <!-- MVT -->
      <g transform="translate(237.660191 287.78825) scale(0.1 -0.1)">
       <use xlink:href="#DejaVuSans-4d"/>
       <use xlink:href="#DejaVuSans-56" transform="translate(86.279297 0)"/>
       <use xlink:href="#DejaVuSans-54" transform="translate(154.6875 0)"/>
      </g>
      <!-- (SIMD) -->
      <g transform="translate(231.733628 298.986063) scale(0.1 -0.1)">
       <use xlink:href="#DejaVuSans-28"/>
       <use xlink:href="#DejaVuSans-53" transform="translate(39.013672 0)"/>
       <use xlink:href="#DejaVuSans-49" transform="translate(102.490234 0)"/>
       <use xlink:href="#DejaVuSans-4d" transform="translate(131.982422 0)"/>
       <use xlink:href="#DejaVuSans-44" transform="translate(218.261719 0)"/>
       <use xlink:href="#DejaVuSans-29" transform="translate(295.263672 0)"/>
      </g>
     </g>
    </g>
    <g id="xtick_5">
     <g id="text_5">
      <!-- MVT -->
      <g transform="translate(294.557969 276.590438) scale(0.1 -0.1)">
       <use xlink:href="#DejaVuSans-4d"/>
       <use xlink:href="#DejaVuSans-56" transform="translate(86.279297 0)"/>
       <use xlink:href="#DejaVuSans-54" transform="translate(154.6875 0)"/>
      </g>
      <!-- (C++) -->
      <g transform="translate(289.573594 287.78825) scale(0.1 -0.1)">
       <defs>
        <path id="DejaVuSans-43" d="M 4122 4306 
L 4122 3641 
Q 3803 3938 3442 4084 
Q 3081 4231 2675 4231 
Q 1875 4231 1450 3742 
Q 1025 3253 1025 2328 
Q 1025 1406 1450 917 
Q 1875 428 2675 428 
Q 3081 428 3442 575 
Q 3803 722 4122 1019 
L 4122 359 
Q 3791 134 3420 21 
Q 3050 -91 2638 -91 
Q 1578 -91 968 557 
Q 359 1206 359 2328 
Q 359 3453 968 4101 
Q 1578 4750 2638 4750 
Q 3056 4750 3426 4639 
Q 3797 4528 4122 4306 
z
" transform="scale(0.015625)"/>
        <path id="DejaVuSans-2b" d="M 2944 4013 
L 2944 2272 
L 4684 2272 
L 4684 1741 
L 2944 1741 
L 2944 0 
L 2419 0 
L 2419 1741 
L 678 1741 
L 678 2272 
L 2419 2272 
L 2419 4013 
L 2944 4013 
z
" transform="scale(0.015625)"/>
       </defs>
       <use xlink:href="#DejaVuSans-28"/>
       <use xlink:href="#DejaVuSans-43" transform="translate(39.013672 0)"/>
       <use xlink:href="#DejaVuSans-2b" transform="translate(108.837891 0)"/>
       <use xlink:href="#DejaVuSans-2b" transform="translate(192.626953 0)"/>
       <use xlink:href="#DejaVuSans-29" transform="translate(276.416016 0)"/>
      </g>
     </g>
    </g>
    <g id="xtick_6">
     <g id="text_6">
      <!-- MVT -->
      <g transform="translate(351.455747 276.590438) scale(0.1 -0.1)">
       <use xlink:href="#DejaVuSans-4d"/>
       <use xlink:href="#DejaVuSans-56" transform="translate(86.279297 0)"/>
       <use xlink:href="#DejaVuSans-54" transform="translate(154.6875 0)"/>
      </g>
      <!-- (C++, SIMD) -->
      <g transform="translate(330.479965 287.78825) scale(0.1 -0.1)">
       <defs>
        <path id="DejaVuSans-2c" d="M 750 794 
L 1409 794 
L 1409 256 
L 897 -744 
L 494 -744 
L 750 256 
L 750 794 
z
" transform="scale(0.015625)"/>
        <path id="DejaVuSans-20" transform="scale(0.015625)"/>
       </defs>
       <use xlink:href="#DejaVuSans-28"/>
       <use xlink:href="#DejaVuSans-43" transform="translate(39.013672 0)"/>
       <use xlink:href="#DejaVuSans-2b" transform="translate(108.837891 0)"/>
       <use xlink:href="#DejaVuSans-2b" transform="translate(192.626953 0)"/>
       <use xlink:href="#DejaVuSans-2c" transform="translate(276.416016 0)"/>
       <use xlink:href="#DejaVuSans-20" transform="translate(308.203125 0)"/>
       <use xlink:href="#DejaVuSans-53" transform="translate(339.990234 0)"/>
       <use xlink:href="#DejaVuSans-49" transform="translate(403.466797 0)"/>
       <use xlink:href="#DejaVuSans-4d" transform="translate(432.958984 0)"/>
       <use xlink:href="#DejaVuSans-44" transform="translate(519.238281 0)"/>
       <use xlink:href="#DejaVuSans-29" transform="translate(596.240234 0)"/>
      </g>
     </g>
    </g>
    <g id="xtick_7">
     <g id="text_7">
      <!-- CAPT -->
      <g transform="translate(406.161337 276.590438) scale(0.1 -0.1)">
       <defs>
        <path id="DejaVuSans-41" d="M 2188 4044 
L 1331 1722 
L 3047 1722 
L 2188 4044 
z
M 1831 4666 
L 2547 4666 
L 4325 0 
L 3669 0 
L 3244 1197 
L 1141 1197 
L 716 0 
L 50 0 
L 1831 4666 
z
" transform="scale(0.015625)"/>
        <path id="DejaVuSans-50" d="M 1259 4147 
L 1259 2394 
L 2053 2394 
Q 2494 2394 2734 2622 
Q 2975 2850 2975 3272 
Q 2975 3691 2734 3919 
Q 2494 4147 2053 4147 
L 1259 4147 
z
M 628 4666 
L 2053 4666 
Q 2838 4666 3239 4311 
Q 3641 3956 3641 3272 
Q 3641 2581 3239 2228 
Q 2838 1875 2053 1875 
L 1259 1875 
L 1259 0 
L 628 0 
L 628 4666 
z
" transform="scale(0.015625)"/>
       </defs>
       <use xlink:href="#DejaVuSans-43"/>
       <use xlink:href="#DejaVuSans-41" transform="translate(69.824219 0)"/>
       <use xlink:href="#DejaVuSans-50" transform="translate(138.232422 0)"/>
       <use xlink:href="#DejaVuSans-54" transform="translate(198.535156 0)"/>
      </g>
     </g>
    </g>
    <g id="xtick_8">
     <g id="text_8">
      <!-- CAPT -->
      <g transform="translate(463.059115 276.590438) scale(0.1 -0.1)">
       <use xlink:href="#DejaVuSans-43"/>
       <use xlink:href="#DejaVuSans-41" transform="translate(69.824219 0)"/>
       <use xlink:href="#DejaVuSans-50" transform="translate(138.232422 0)"/>
       <use xlink:href="#DejaVuSans-54" transform="translate(198.535156 0)"/>
      </g>
      <!-- (SIMD) -->
      <g transform="translate(459.32474 287.78825) scale(0.1 -0.1)">
       <use xlink:href="#DejaVuSans-28"/>
       <use xlink:href="#DejaVuSans-53" transform="translate(39.013672 0)"/>
       <use xlink:href="#DejaVuSans-49" transform="translate(102.490234 0)"/>
       <use xlink:href="#DejaVuSans-4d" transform="translate(131.982422 0)"/>
       <use xlink:href="#DejaVuSans-44" transform="translate(218.261719 0)"/>
       <use xlink:href="#DejaVuSans-29" transform="translate(295.263672 0)"/>
      </g>
     </g>
    </g>
    <g id="xtick_9">
     <g id="text_9">
      <!-- kiddo -->
      <g transform="translate(519.245174 276.590438) scale(0.1 -0.1)">
       <defs>
        <path id="DejaVuSans-6b" d="M 581 4863 
L 1159 4863 
L 1159 1991 
L 2875 3500 
L 3609 3500 
L 1753 1863 
L 3688 0 
L 2938 0 
L 1159 1709 
L 1159 0 
L 581 0 
L 581 4863 
z
" transform="scale(0.015625)"/>
        <path id="DejaVuSans-69" d="M 603 3500 
L 1178 3500 
L 1178 0 
L 603 0 
L 603 3500 
z
M 603 4863 
L 1178 4863 
L 1178 4134 
L 603 4134 
L 603 4863 
z
" transform="scale(0.015625)"/>
        <path id="DejaVuSans-64" d="M 2906 2969 
L 2906 4863 
L 3481 4863 
L 3481 0 
L 2906 0 
L 2906 525 
Q 2725 213 2448 61 
Q 2172 -91 1784 -91 
Q 1150 -91 751 415 
Q 353 922 353 1747 
Q 353 2572 751 3078 
Q 1150 3584 1784 3584 
Q 2172 3584 2448 3432 
Q 2725 3281 2906 2969 
z
M 947 1747 
Q 947 1113 1208 752 
Q 1469 391 1925 391 
Q 2381 391 2643 752 
Q 2906 1113 2906 1747 
Q 2906 2381 2643 2742 
Q 2381 3103 1925 3103 
Q 1469 3103 1208 2742 
Q 947 2381 947 1747 
z
" transform="scale(0.015625)"/>
        <path id="DejaVuSans-6f" d="M 1959 3097 
Q 1497 3097 1228 2736 
Q 959 2375 959 1747 
Q 959 1119 1226 758 
Q 1494 397 1959 397 
Q 2419 397 2687 759 
Q 2956 1122 2956 1747 
Q 2956 2369 2687 2733 
Q 2419 3097 1959 3097 
z
M 1959 3584 
Q 2709 3584 3137 3096 
Q 3566 2609 3566 1747 
Q 3566 888 3137 398 
Q 2709 -91 1959 -91 
Q 1206 -91 779 398 
Q 353 888 353 1747 
Q 353 2609 779 3096 
Q 1206 3584 1959 3584 
z
" transform="scale(0.015625)"/>
       </defs>
       <use xlink:href="#DejaVuSans-6b"/>
       <use xlink:href="#DejaVuSans-69" transform="translate(57.910156 0)"/>
       <use xlink:href="#DejaVuSans-64" transform="translate(85.693359 0)"/>
       <use xlink:href="#DejaVuSans-64" transform="translate(149.169922 0)"/>
       <use xlink:href="#DejaVuSans-6f" transform="translate(212.646484 0)"/>
      </g>
     </g>
    </g>
   </g>
   <g id="matplotlib.axis_2">
    <g id="ytick_1">
     <g id="line2d_1">
      <defs>
       <path id="mbfe8522d91" d="M 0 0 
L -3.5 0 
" style="stroke: #000000; stroke-width: 0.8"/>
      </defs>
      <g>
       <use xlink:href="#mbfe8522d91" x="49.30625" y="251.515091" style="stroke: #000000; stroke-width: 0.8"/>
      </g>
     </g>
     <g id="text_10">
      <!-- 0.212 -->
      <g transform="translate(13.678125 255.31431) scale(0.1 -0.1)">
       <defs>
        <path id="DejaVuSans-30" d="M 2034 4250 
Q 1547 4250 1301 3770 
Q 1056 3291 1056 2328 
Q 1056 1369 1301 889 
Q 1547 409 2034 409 
Q 2525 409 2770 889 
Q 3016 1369 3016 2328 
Q 3016 3291 2770 3770 
Q 2525 4250 2034 4250 
z
M 2034 4750 
Q 2819 4750 3233 4129 
Q 3647 3509 3647 2328 
Q 3647 1150 3233 529 
Q 2819 -91 2034 -91 
Q 1250 -91 836 529 
Q 422 1150 422 2328 
Q 422 3509 836 4129 
Q 1250 4750 2034 4750 
z
" transform="scale(0.015625)"/>
        <path id="DejaVuSans-2e" d="M 684 794 
L 1344 794 
L 1344 0 
L 684 0 
L 684 794 
z
" transform="scale(0.015625)"/>
        <path id="DejaVuSans-32" d="M 1228 531 
L 3431 531 
L 3431 0 
L 469 0 
L 469 531 
Q 828 903 1448 1529 
Q 2069 2156 2228 2338 
Q 2531 2678 2651 2914 
Q 2772 3150 2772 3378 
Q 2772 3750 2511 3984 
Q 2250 4219 1831 4219 
Q 1534 4219 1204 4116 
Q 875 4013 500 3803 
L 500 4441 
Q 881 4594 1212 4672 
Q 1544 4750 1819 4750 
Q 2544 4750 2975 4387 
Q 3406 4025 3406 3419 
Q 3406 3131 3298 2873 
Q 3191 2616 2906 2266 
Q 2828 2175 2409 1742 
Q 1991 1309 1228 531 
z
" transform="scale(0.015625)"/>
        <path id="DejaVuSans-31" d="M 794 531 
L 1825 531 
L 1825 4091 
L 703 3866 
L 703 4441 
L 1819 4666 
L 2450 4666 
L 2450 531 
L 3481 531 
L 3481 0 
L 794 0 
L 794 531 
z
" transform="scale(0.015625)"/>
       </defs>
       <use xlink:href="#DejaVuSans-30"/>
       <use xlink:href="#DejaVuSans-2e" transform="translate(63.623047 0)"/>
       <use xlink:href="#DejaVuSans-32" transform="translate(95.410156 0)"/>
       <use xlink:href="#DejaVuSans-31" transform="translate(159.033203 0)"/>
       <use xlink:href="#DejaVuSans-32" transform="translate(222.65625 0)"/>
      </g>
     </g>
    </g>
    <g id="ytick_2">
     <g id="line2d_2">
      <g>
       <use xlink:href="#mbfe8522d91" x="49.30625" y="198.058295" style="stroke: #000000; stroke-width: 0.8"/>
      </g>
     </g>
     <g id="text_11">
      <!-- $\mathdefault{10^{0}}$ -->
      <g transform="translate(24.70625 201.857514) scale(0.1 -0.1)">
       <use xlink:href="#DejaVuSans-31" transform="translate(0 0.765625)"/>
       <use xlink:href="#DejaVuSans-30" transform="translate(63.623047 0.765625)"/>
       <use xlink:href="#DejaVuSans-30" transform="translate(128.203125 39.046875) scale(0.7)"/>
      </g>
     </g>
    </g>
    <g id="ytick_3">
     <g id="line2d_3">
      <g>
       <use xlink:href="#mbfe8522d91" x="49.30625" y="118.615005" style="stroke: #000000; stroke-width: 0.8"/>
      </g>
     </g>
     <g id="text_12">
      <!-- $\mathdefault{10^{1}}$ -->
      <g transform="translate(24.70625 122.414224) scale(0.1 -0.1)">
       <use xlink:href="#DejaVuSans-31" transform="translate(0 0.684375)"/>
       <use xlink:href="#DejaVuSans-30" transform="translate(63.623047 0.684375)"/>
       <use xlink:href="#DejaVuSans-31" transform="translate(128.203125 38.965625) scale(0.7)"/>
      </g>
     </g>
    </g>
    <g id="ytick_4">
     <g id="line2d_4">
      <g>
       <use xlink:href="#mbfe8522d91" x="49.30625" y="39.171716" style="stroke: #000000; stroke-width: 0.8"/>
      </g>
     </g>
     <g id="text_13">
      <!-- $\mathdefault{10^{2}}$ -->
      <g transform="translate(24.70625 42.970934) scale(0.1 -0.1)">
       <use xlink:href="#DejaVuSans-31" transform="translate(0 0.765625)"/>
       <use xlink:href="#DejaVuSans-30" transform="translate(63.623047 0.765625)"/>
       <use xlink:href="#DejaVuSans-32" transform="translate(128.203125 39.046875) scale(0.7)"/>
      </g>
     </g>
    </g>
    <g id="ytick_5">
     <g id="line2d_5">
      <g>
       <use xlink:href="#mbfe8522d91" x="49.30625" y="11.976909" style="stroke: #000000; stroke-width: 0.8"/>
      </g>
     </g>
     <g id="text_14">
      <!-- 220 -->
      <g transform="translate(23.21875 15.776128) scale(0.1 -0.1)">
       <use xlink:href="#DejaVuSans-32"/>
       <use xlink:href="#DejaVuSans-32" transform="translate(63.623047 0)"/>
       <use xlink:href="#DejaVuSans-30" transform="translate(127.246094 0)"/>
      </g>
     </g>
    </g>
    <g id="ytick_6">
     <g id="line2d_6">
      <defs>
       <path id="m8c57d66d9d" d="M 0 0 
L -2 0 
" style="stroke: #000000; stroke-width: 0.6"/>
      </defs>
      <g>
       <use xlink:href="#m8c57d66d9d" x="49.30625" y="239.597503" style="stroke: #000000; stroke-width: 0.6"/>
      </g>
     </g>
    </g>
    <g id="ytick_7">
     <g id="line2d_7">
      <g>
       <use xlink:href="#m8c57d66d9d" x="49.30625" y="229.671959" style="stroke: #000000; stroke-width: 0.6"/>
      </g>
     </g>
    </g>
    <g id="ytick_8">
     <g id="line2d_8">
      <g>
       <use xlink:href="#m8c57d66d9d" x="49.30625" y="221.973109" style="stroke: #000000; stroke-width: 0.6"/>
      </g>
     </g>
    </g>
    <g id="ytick_9">
     <g id="line2d_9">
      <g>
       <use xlink:href="#m8c57d66d9d" x="49.30625" y="215.68269" style="stroke: #000000; stroke-width: 0.6"/>
      </g>
     </g>
    </g>
    <g id="ytick_10">
     <g id="line2d_10">
      <g>
       <use xlink:href="#m8c57d66d9d" x="49.30625" y="210.364217" style="stroke: #000000; stroke-width: 0.6"/>
      </g>
     </g>
    </g>
    <g id="ytick_11">
     <g id="line2d_11">
      <g>
       <use xlink:href="#m8c57d66d9d" x="49.30625" y="205.757146" style="stroke: #000000; stroke-width: 0.6"/>
      </g>
     </g>
    </g>
    <g id="ytick_12">
     <g id="line2d_12">
      <g>
       <use xlink:href="#m8c57d66d9d" x="49.30625" y="201.693421" style="stroke: #000000; stroke-width: 0.6"/>
      </g>
     </g>
    </g>
    <g id="ytick_13">
     <g id="line2d_13">
      <g>
       <use xlink:href="#m8c57d66d9d" x="49.30625" y="174.143482" style="stroke: #000000; stroke-width: 0.6"/>
      </g>
     </g>
    </g>
    <g id="ytick_14">
     <g id="line2d_14">
      <g>
       <use xlink:href="#m8c57d66d9d" x="49.30625" y="160.154213" style="stroke: #000000; stroke-width: 0.6"/>
      </g>
     </g>
    </g>
    <g id="ytick_15">
     <g id="line2d_15">
      <g>
       <use xlink:href="#m8c57d66d9d" x="49.30625" y="150.228669" style="stroke: #000000; stroke-width: 0.6"/>
      </g>
     </g>
    </g>
    <g id="ytick_16">
     <g id="line2d_16">
      <g>
       <use xlink:href="#m8c57d66d9d" x="49.30625" y="142.529819" style="stroke: #000000; stroke-width: 0.6"/>
      </g>
     </g>
    </g>
    <g id="ytick_17">
     <g id="line2d_17">
      <g>
       <use xlink:href="#m8c57d66d9d" x="49.30625" y="136.2394" style="stroke: #000000; stroke-width: 0.6"/>
      </g>
     </g>
    </g>
    <g id="ytick_18">
     <g id="line2d_18">
      <g>
       <use xlink:href="#m8c57d66d9d" x="49.30625" y="130.920927" style="stroke: #000000; stroke-width: 0.6"/>
      </g>
     </g>
    </g>
    <g id="ytick_19">
     <g id="line2d_19">
      <g>
       <use xlink:href="#m8c57d66d9d" x="49.30625" y="126.313856" style="stroke: #000000; stroke-width: 0.6"/>
      </g>
     </g>
    </g>
    <g id="ytick_20">
     <g id="line2d_20">
      <g>
       <use xlink:href="#m8c57d66d9d" x="49.30625" y="122.250131" style="stroke: #000000; stroke-width: 0.6"/>
      </g>
     </g>
    </g>
    <g id="ytick_21">
     <g id="line2d_21">
      <g>
       <use xlink:href="#m8c57d66d9d" x="49.30625" y="94.700192" style="stroke: #000000; stroke-width: 0.6"/>
      </g>
     </g>
    </g>
    <g id="ytick_22">
     <g id="line2d_22">
      <g>
       <use xlink:href="#m8c57d66d9d" x="49.30625" y="80.710923" style="stroke: #000000; stroke-width: 0.6"/>
      </g>
     </g>
    </g>
    <g id="ytick_23">
     <g id="line2d_23">
      <g>
       <use xlink:href="#m8c57d66d9d" x="49.30625" y="70.785379" style="stroke: #000000; stroke-width: 0.6"/>
      </g>
     </g>
    </g>
    <g id="ytick_24">
     <g id="line2d_24">
      <g>
       <use xlink:href="#m8c57d66d9d" x="49.30625" y="63.086529" style="stroke: #000000; stroke-width: 0.6"/>
      </g>
     </g>
    </g>
    <g id="ytick_25">
     <g id="line2d_25">
      <g>
       <use xlink:href="#m8c57d66d9d" x="49.30625" y="56.79611" style="stroke: #000000; stroke-width: 0.6"/>
      </g>
     </g>
    </g>
    <g id="ytick_26">
     <g id="line2d_26">
      <g>
       <use xlink:href="#m8c57d66d9d" x="49.30625" y="51.477637" style="stroke: #000000; stroke-width: 0.6"/>
      </g>
     </g>
    </g>
    <g id="ytick_27">
     <g id="line2d_27">
      <g>
       <use xlink:href="#m8c57d66d9d" x="49.30625" y="46.870566" style="stroke: #000000; stroke-width: 0.6"/>
      </g>
     </g>
    </g>
    <g id="ytick_28">
     <g id="line2d_28">
      <g>
       <use xlink:href="#m8c57d66d9d" x="49.30625" y="42.806841" style="stroke: #000000; stroke-width: 0.6"/>
      </g>
     </g>
    </g>
    <g id="ytick_29">
     <g id="line2d_29">
      <g>
       <use xlink:href="#m8c57d66d9d" x="49.30625" y="15.256902" style="stroke: #000000; stroke-width: 0.6"/>
      </g>
     </g>
    </g>
    <g id="text_15">
     <!-- Solve Time (Milliseconds) -->
     <g transform="translate(7.598438 195.025688) rotate(-90) scale(0.1 -0.1)">
      <defs>
       <path id="DejaVuSans-76" d="M 191 3500 
L 800 3500 
L 1894 563 
L 2988 3500 
L 3597 3500 
L 2284 0 
L 1503 0 
L 191 3500 
z
" transform="scale(0.015625)"/>
       <path id="DejaVuSans-6d" d="M 3328 2828 
Q 3544 3216 3844 3400 
Q 4144 3584 4550 3584 
Q 5097 3584 5394 3201 
Q 5691 2819 5691 2113 
L 5691 0 
L 5113 0 
L 5113 2094 
Q 5113 2597 4934 2840 
Q 4756 3084 4391 3084 
Q 3944 3084 3684 2787 
Q 3425 2491 3425 1978 
L 3425 0 
L 2847 0 
L 2847 2094 
Q 2847 2600 2669 2842 
Q 2491 3084 2119 3084 
Q 1678 3084 1418 2786 
Q 1159 2488 1159 1978 
L 1159 0 
L 581 0 
L 581 3500 
L 1159 3500 
L 1159 2956 
Q 1356 3278 1631 3431 
Q 1906 3584 2284 3584 
Q 2666 3584 2933 3390 
Q 3200 3197 3328 2828 
z
" transform="scale(0.015625)"/>
       <path id="DejaVuSans-73" d="M 2834 3397 
L 2834 2853 
Q 2591 2978 2328 3040 
Q 2066 3103 1784 3103 
Q 1356 3103 1142 2972 
Q 928 2841 928 2578 
Q 928 2378 1081 2264 
Q 1234 2150 1697 2047 
L 1894 2003 
Q 2506 1872 2764 1633 
Q 3022 1394 3022 966 
Q 3022 478 2636 193 
Q 2250 -91 1575 -91 
Q 1294 -91 989 -36 
Q 684 19 347 128 
L 347 722 
Q 666 556 975 473 
Q 1284 391 1588 391 
Q 1994 391 2212 530 
Q 2431 669 2431 922 
Q 2431 1156 2273 1281 
Q 2116 1406 1581 1522 
L 1381 1569 
Q 847 1681 609 1914 
Q 372 2147 372 2553 
Q 372 3047 722 3315 
Q 1072 3584 1716 3584 
Q 2034 3584 2315 3537 
Q 2597 3491 2834 3397 
z
" transform="scale(0.015625)"/>
       <path id="DejaVuSans-63" d="M 3122 3366 
L 3122 2828 
Q 2878 2963 2633 3030 
Q 2388 3097 2138 3097 
Q 1578 3097 1268 2742 
Q 959 2388 959 1747 
Q 959 1106 1268 751 
Q 1578 397 2138 397 
Q 2388 397 2633 464 
Q 2878 531 3122 666 
L 3122 134 
Q 2881 22 2623 -34 
Q 2366 -91 2075 -91 
Q 1284 -91 818 406 
Q 353 903 353 1747 
Q 353 2603 823 3093 
Q 1294 3584 2113 3584 
Q 2378 3584 2631 3529 
Q 2884 3475 3122 3366 
z
" transform="scale(0.015625)"/>
       <path id="DejaVuSans-6e" d="M 3513 2113 
L 3513 0 
L 2938 0 
L 2938 2094 
Q 2938 2591 2744 2837 
Q 2550 3084 2163 3084 
Q 1697 3084 1428 2787 
Q 1159 2491 1159 1978 
L 1159 0 
L 581 0 
L 581 3500 
L 1159 3500 
L 1159 2956 
Q 1366 3272 1645 3428 
Q 1925 3584 2291 3584 
Q 2894 3584 3203 3211 
Q 3513 2838 3513 2113 
z
" transform="scale(0.015625)"/>
      </defs>
      <use xlink:href="#DejaVuSans-53"/>
      <use xlink:href="#DejaVuSans-6f" transform="translate(63.476562 0)"/>
      <use xlink:href="#DejaVuSans-6c" transform="translate(124.658203 0)"/>
      <use xlink:href="#DejaVuSans-76" transform="translate(152.441406 0)"/>
      <use xlink:href="#DejaVuSans-65" transform="translate(211.621094 0)"/>
      <use xlink:href="#DejaVuSans-20" transform="translate(273.144531 0)"/>
      <use xlink:href="#DejaVuSans-54" transform="translate(304.931641 0)"/>
      <use xlink:href="#DejaVuSans-69" transform="translate(362.890625 0)"/>
      <use xlink:href="#DejaVuSans-6d" transform="translate(390.673828 0)"/>
      <use xlink:href="#DejaVuSans-65" transform="translate(488.085938 0)"/>
      <use xlink:href="#DejaVuSans-20" transform="translate(549.609375 0)"/>
      <use xlink:href="#DejaVuSans-28" transform="translate(581.396484 0)"/>
      <use xlink:href="#DejaVuSans-4d" transform="translate(620.410156 0)"/>
      <use xlink:href="#DejaVuSans-69" transform="translate(706.689453 0)"/>
      <use xlink:href="#DejaVuSans-6c" transform="translate(734.472656 0)"/>
      <use xlink:href="#DejaVuSans-6c" transform="translate(762.255859 0)"/>
      <use xlink:href="#DejaVuSans-69" transform="translate(790.039062 0)"/>
      <use xlink:href="#DejaVuSans-73" transform="translate(817.822266 0)"/>
      <use xlink:href="#DejaVuSans-65" transform="translate(869.921875 0)"/>
      <use xlink:href="#DejaVuSans-63" transform="translate(931.445312 0)"/>
      <use xlink:href="#DejaVuSans-6f" transform="translate(986.425781 0)"/>
      <use xlink:href="#DejaVuSans-6e" transform="translate(1047.607422 0)"/>
      <use xlink:href="#DejaVuSans-64" transform="translate(1110.986328 0)"/>
      <use xlink:href="#DejaVuSans-73" transform="translate(1174.462891 0)"/>
      <use xlink:href="#DejaVuSans-29" transform="translate(1226.5625 0)"/>
     </g>
    </g>
   </g>
   <g id="line2d_30">
    <path d="M 77.755139 216.076641 
L 77.755139 60.455038 
" clip-path="url(#p883fb08d8e)" style="fill: none; stroke: #2f2f2f; stroke-width: 1.125; stroke-linecap: square"/>
   </g>
   <g id="line2d_31">
    <path d="M 77.755139 171.967676 
L 77.755139 125.363858 
" clip-path="url(#p883fb08d8e)" style="fill: none; stroke: #2f2f2f; stroke-width: 3.375; stroke-linecap: square"/>
   </g>
   <g id="line2d_32">
    <path d="M 77.755139 149.244972 
" clip-path="url(#p883fb08d8e)" style="fill: none; stroke: #2f2f2f; stroke-width: 1.5; stroke-linecap: square"/>
    <defs>
     <path id="m9dcec12e5b" d="M 1.40625 0 
L -1.40625 -0 
" style="stroke: #ffffff; stroke-width: 0.675"/>
    </defs>
    <g clip-path="url(#p883fb08d8e)">
     <use xlink:href="#m9dcec12e5b" x="77.755139" y="149.244972" style="fill: #ffffff; stroke: #ffffff; stroke-width: 0.675"/>
    </g>
   </g>
   <g id="line2d_33">
    <path d="M 134.652917 216.32367 
L 134.652917 60.366945 
" clip-path="url(#p883fb08d8e)" style="fill: none; stroke: #2f2f2f; stroke-width: 1.125; stroke-linecap: square"/>
   </g>
   <g id="line2d_34">
    <path d="M 134.652917 171.418271 
L 134.652917 125.416784 
" clip-path="url(#p883fb08d8e)" style="fill: none; stroke: #2f2f2f; stroke-width: 3.375; stroke-linecap: square"/>
   </g>
   <g id="line2d_35">
    <path d="M 134.652917 149.335294 
" clip-path="url(#p883fb08d8e)" style="fill: none; stroke: #2f2f2f; stroke-width: 1.5; stroke-linecap: square"/>
    <g clip-path="url(#p883fb08d8e)">
     <use xlink:href="#m9dcec12e5b" x="134.652917" y="149.335294" style="fill: #ffffff; stroke: #ffffff; stroke-width: 0.675"/>
    </g>
   </g>
   <g id="line2d_36">
    <path d="M 191.550694 213.262521 
L 191.550694 58.964179 
" clip-path="url(#p883fb08d8e)" style="fill: none; stroke: #2f2f2f; stroke-width: 1.125; stroke-linecap: square"/>
   </g>
   <g id="line2d_37">
    <path d="M 191.550694 169.411675 
L 191.550694 122.657677 
" clip-path="url(#p883fb08d8e)" style="fill: none; stroke: #2f2f2f; stroke-width: 3.375; stroke-linecap: square"/>
   </g>
   <g id="line2d_38">
    <path d="M 191.550694 148.944529 
" clip-path="url(#p883fb08d8e)" style="fill: none; stroke: #2f2f2f; stroke-width: 1.5; stroke-linecap: square"/>
    <g clip-path="url(#p883fb08d8e)">
     <use xlink:href="#m9dcec12e5b" x="191.550694" y="148.944529" style="fill: #ffffff; stroke: #ffffff; stroke-width: 0.675"/>
    </g>
   </g>
   <g id="line2d_39">
    <path d="M 248.448472 210.857704 
L 248.448472 61.126281 
" clip-path="url(#p883fb08d8e)" style="fill: none; stroke: #2f2f2f; stroke-width: 1.125; stroke-linecap: square"/>
   </g>
   <g id="line2d_40">
    <path d="M 248.448472 172.327554 
L 248.448472 126.731727 
" clip-path="url(#p883fb08d8e)" style="fill: none; stroke: #2f2f2f; stroke-width: 3.375; stroke-linecap: square"/>
   </g>
   <g id="line2d_41">
    <path d="M 248.448472 150.17342 
" clip-path="url(#p883fb08d8e)" style="fill: none; stroke: #2f2f2f; stroke-width: 1.5; stroke-linecap: square"/>
    <g clip-path="url(#p883fb08d8e)">
     <use xlink:href="#m9dcec12e5b" x="248.448472" y="150.17342" style="fill: #ffffff; stroke: #ffffff; stroke-width: 0.675"/>
    </g>
   </g>
   <g id="line2d_42">
    <path d="M 305.34625 205.720033 
L 305.34625 51.789826 
" clip-path="url(#p883fb08d8e)" style="fill: none; stroke: #2f2f2f; stroke-width: 1.125; stroke-linecap: square"/>
   </g>
   <g id="line2d_43">
    <path d="M 305.34625 159.120838 
L 305.34625 115.600223 
" clip-path="url(#p883fb08d8e)" style="fill: none; stroke: #2f2f2f; stroke-width: 3.375; stroke-linecap: square"/>
   </g>
   <g id="line2d_44">
    <path d="M 305.34625 141.832189 
" clip-path="url(#p883fb08d8e)" style="fill: none; stroke: #2f2f2f; stroke-width: 1.5; stroke-linecap: square"/>
    <g clip-path="url(#p883fb08d8e)">
     <use xlink:href="#m9dcec12e5b" x="305.34625" y="141.832189" style="fill: #ffffff; stroke: #ffffff; stroke-width: 0.675"/>
    </g>
   </g>
   <g id="line2d_45">
    <path d="M 362.244028 208.275482 
L 362.244028 53.349991 
" clip-path="url(#p883fb08d8e)" style="fill: none; stroke: #2f2f2f; stroke-width: 1.125; stroke-linecap: square"/>
   </g>
   <g id="line2d_46">
    <path d="M 362.244028 162.480158 
L 362.244028 116.947236 
" clip-path="url(#p883fb08d8e)" style="fill: none; stroke: #2f2f2f; stroke-width: 3.375; stroke-linecap: square"/>
   </g>
   <g id="line2d_47">
    <path d="M 362.244028 143.981077 
" clip-path="url(#p883fb08d8e)" style="fill: none; stroke: #2f2f2f; stroke-width: 1.5; stroke-linecap: square"/>
    <g clip-path="url(#p883fb08d8e)">
     <use xlink:href="#m9dcec12e5b" x="362.244028" y="143.981077" style="fill: #ffffff; stroke: #ffffff; stroke-width: 0.675"/>
    </g>
   </g>
   <g id="line2d_48">
    <path d="M 419.141806 192.289529 
L 419.141806 46.356044 
" clip-path="url(#p883fb08d8e)" style="fill: none; stroke: #2f2f2f; stroke-width: 1.125; stroke-linecap: square"/>
   </g>
   <g id="line2d_49">
    <path d="M 419.141806 151.631037 
L 419.141806 106.587117 
" clip-path="url(#p883fb08d8e)" style="fill: none; stroke: #2f2f2f; stroke-width: 3.375; stroke-linecap: square"/>
   </g>
   <g id="line2d_50">
    <path d="M 419.141806 129.342583 
" clip-path="url(#p883fb08d8e)" style="fill: none; stroke: #2f2f2f; stroke-width: 1.5; stroke-linecap: square"/>
    <g clip-path="url(#p883fb08d8e)">
     <use xlink:href="#m9dcec12e5b" x="419.141806" y="129.342583" style="fill: #ffffff; stroke: #ffffff; stroke-width: 0.675"/>
    </g>
   </g>
   <g id="line2d_51">
    <path d="M 476.039583 200.658668 
L 476.039583 52.857139 
" clip-path="url(#p883fb08d8e)" style="fill: none; stroke: #2f2f2f; stroke-width: 1.125; stroke-linecap: square"/>
   </g>
   <g id="line2d_52">
    <path d="M 476.039583 160.494719 
L 476.039583 116.265747 
" clip-path="url(#p883fb08d8e)" style="fill: none; stroke: #2f2f2f; stroke-width: 3.375; stroke-linecap: square"/>
   </g>
   <g id="line2d_53">
    <path d="M 476.039583 138.591409 
" clip-path="url(#p883fb08d8e)" style="fill: none; stroke: #2f2f2f; stroke-width: 1.5; stroke-linecap: square"/>
    <g clip-path="url(#p883fb08d8e)">
     <use xlink:href="#m9dcec12e5b" x="476.039583" y="138.591409" style="fill: #ffffff; stroke: #ffffff; stroke-width: 0.675"/>
    </g>
   </g>
   <g id="line2d_54">
    <path d="M 532.937361 183.695447 
L 532.937361 32.664418 
" clip-path="url(#p883fb08d8e)" style="fill: none; stroke: #2f2f2f; stroke-width: 1.125; stroke-linecap: square"/>
   </g>
   <g id="line2d_55">
    <path d="M 532.937361 126.2432 
L 532.937361 87.79711 
" clip-path="url(#p883fb08d8e)" style="fill: none; stroke: #2f2f2f; stroke-width: 3.375; stroke-linecap: square"/>
   </g>
   <g id="line2d_56">
    <path d="M 532.937361 106.528121 
" clip-path="url(#p883fb08d8e)" style="fill: none; stroke: #2f2f2f; stroke-width: 1.5; stroke-linecap: square"/>
    <g clip-path="url(#p883fb08d8e)">
     <use xlink:href="#m9dcec12e5b" x="532.937361" y="106.528121" style="fill: #ffffff; stroke: #ffffff; stroke-width: 0.675"/>
    </g>
   </g>
   <g id="patch_3">
    <path d="M 49.30625 251.515091 
L 49.30625 11.976909 
" style="fill: none; stroke: #000000; stroke-width: 0.8; stroke-linejoin: miter; stroke-linecap: square"/>
   </g>
  </g>
 </g>
 <defs>
  <clipPath id="p883fb08d8e">
   <rect x="49.30625" y="0" width="512.08" height="263.492"/>
  </clipPath>
 </defs>
</svg>
