<?xml version="1.0" encoding="utf-8" standalone="no"?>
<!DOCTYPE svg PUBLIC "-//W3C//DTD SVG 1.1//EN"
  "http://www.w3.org/Graphics/SVG/1.1/DTD/svg11.dtd">
<svg xmlns:xlink="http://www.w3.org/1999/xlink" width="410.09625pt" height="301.06575pt" viewBox="0 0 410.09625 301.06575" xmlns="http://www.w3.org/2000/svg" version="1.1">
 <metadata>
  <rdf:RDF xmlns:dc="http://purl.org/dc/elements/1.1/" xmlns:cc="http://creativecommons.org/ns#" xmlns:rdf="http://www.w3.org/1999/02/22-rdf-syntax-ns#">
   <cc:Work>
    <dc:type rdf:resource="http://purl.org/dc/dcmitype/StillImage"/>
    <dc:date>2026-07-16T14:59:19.260586</dc:date>
    <dc:format>image/svg+xml</dc:format>
    <dc:creator>
     <cc:Agent>
      <dc:title>Matplotlib v3.10.8, https://matplotlib.org/</dc:title>
     </cc:Agent>
    </dc:creator>
   </cc:Work>
  </rdf:RDF>
 </metadata>
 <defs>
  <style type="text/css">*{stroke-linejoin: round; stroke-linecap: butt}</style>
 </defs>
 <g id="figure_1">
  <g id="patch_1">
   <path d="M 0 301.06575 
L 410.09625 301.06575 
L 410.09625 0 
L 0 0 
L 0 301.06575 
z
" style="fill: none"/>
  </g>
  <g id="axes_1">
   <g id="patch_2">
    <path d="M 49.30625 263.492 
L 410.09625 263.492 
L 410.09625 0 
L 49.30625 0 
L 49.30625 263.492 
z
" style="fill: none"/>
   </g>
   <g id="FillBetweenPolyCollection_1">
    <defs>
     <path id="m396d90b8b3" d="M 75.673362 -57.59468 
L 74.480567 -57.59468 
L 74.455601 -59.471181 
L 74.430001 -61.347682 
L 74.399785 -63.224183 
L 74.360012 -65.100684 
L 74.305006 -66.977185 
L 74.228642 -68.853686 
L 74.124698 -70.730187 
L 73.987221 -72.606688 
L 73.810894 -74.483189 
L 73.591363 -76.35969 
L 73.3255 -78.236191 
L 73.011584 -80.112692 
L 72.649374 -81.989193 
L 72.240069 -83.865694 
L 71.786154 -85.742195 
L 71.291149 -87.618696 
L 70.759253 -89.495197 
L 70.194939 -91.371698 
L 69.602507 -93.248199 
L 68.985651 -95.1247 
L 68.347074 -97.001201 
L 67.688196 -98.877702 
L 67.009006 -100.754203 
L 66.308086 -102.630704 
L 65.582845 -104.507205 
L 64.829958 -106.383706 
L 64.046005 -108.260207 
L 63.228265 -110.136708 
L 62.375572 -112.013209 
L 61.489148 -113.88971 
L 60.573291 -115.766211 
L 59.635783 -117.642712 
L 58.687949 -119.519213 
L 57.74428 -121.395714 
L 56.82166 -123.272215 
L 55.938244 -125.148715 
L 55.112121 -127.025216 
L 54.35996 -128.901717 
L 53.695792 -130.778218 
L 53.130133 -132.654719 
L 52.669535 -134.53122 
L 52.316622 -136.407721 
L 52.070565 -138.284222 
L 51.927869 -140.160723 
L 51.883321 -142.037224 
L 51.930902 -143.913725 
L 52.064497 -145.790226 
L 52.278315 -147.666727 
L 52.566945 -149.543228 
L 52.925109 -151.419729 
L 53.347207 -153.29623 
L 53.826777 -155.172731 
L 54.356044 -157.049232 
L 54.925673 -158.925733 
L 55.52482 -160.802234 
L 56.141516 -162.678735 
L 56.763347 -164.555236 
L 57.378355 -166.431737 
L 57.976027 -168.308238 
L 58.548238 -170.184739 
L 59.089997 -172.06124 
L 59.599894 -173.937741 
L 60.080164 -175.814242 
L 60.536357 -177.690743 
L 60.976635 -179.567244 
L 61.410795 -181.443745 
L 61.849132 -183.320246 
L 62.301277 -185.196747 
L 62.775155 -187.073248 
L 63.27617 -188.949749 
L 63.806697 -190.82625 
L 64.365903 -192.702751 
L 64.949897 -194.579252 
L 65.552141 -196.455752 
L 66.164072 -198.332253 
L 66.775834 -200.208754 
L 67.377054 -202.085255 
L 67.957607 -203.961756 
L 68.508301 -205.838257 
L 69.021458 -207.714758 
L 69.491374 -209.591259 
L 69.914619 -211.46776 
L 70.290178 -213.344261 
L 70.619413 -215.220762 
L 70.905856 -217.097263 
L 71.154838 -218.973764 
L 71.372983 -220.850265 
L 71.567617 -222.726766 
L 71.746147 -224.603267 
L 71.915476 -226.479768 
L 72.081508 -228.356269 
L 72.248794 -230.23277 
L 72.420342 -232.109271 
L 72.597602 -233.985772 
L 72.780594 -235.862273 
L 72.968151 -237.738774 
L 73.158233 -239.615275 
L 73.348255 -241.491776 
L 73.535405 -243.368277 
L 76.618523 -243.368277 
L 76.618523 -243.368277 
L 76.805674 -241.491776 
L 76.995696 -239.615275 
L 77.185777 -237.738774 
L 77.373334 -235.862273 
L 77.556327 -233.985772 
L 77.733587 -232.109271 
L 77.905135 -230.23277 
L 78.07242 -228.356269 
L 78.238452 -226.479768 
L 78.407782 -224.603267 
L 78.586312 -222.726766 
L 78.780946 -220.850265 
L 78.99909 -218.973764 
L 79.248072 -217.097263 
L 79.534516 -215.220762 
L 79.863751 -213.344261 
L 80.239309 -211.46776 
L 80.662555 -209.591259 
L 81.132471 -207.714758 
L 81.645628 -205.838257 
L 82.196321 -203.961756 
L 82.776875 -202.085255 
L 83.378095 -200.208754 
L 83.989856 -198.332253 
L 84.601787 -196.455752 
L 85.204032 -194.579252 
L 85.788026 -192.702751 
L 86.347232 -190.82625 
L 86.877758 -188.949749 
L 87.378774 -187.073248 
L 87.852651 -185.196747 
L 88.304796 -183.320246 
L 88.743133 -181.443745 
L 89.177294 -179.567244 
L 89.617572 -177.690743 
L 90.073764 -175.814242 
L 90.554035 -173.937741 
L 91.063931 -172.06124 
L 91.60569 -170.184739 
L 92.177901 -168.308238 
L 92.775574 -166.431737 
L 93.390582 -164.555236 
L 94.012413 -162.678735 
L 94.629108 -160.802234 
L 95.228255 -158.925733 
L 95.797885 -157.049232 
L 96.327152 -155.172731 
L 96.806722 -153.29623 
L 97.22882 -151.419729 
L 97.586984 -149.543228 
L 97.875613 -147.666727 
L 98.089431 -145.790226 
L 98.223027 -143.913725 
L 98.270607 -142.037224 
L 98.22606 -140.160723 
L 98.083364 -138.284222 
L 97.837307 -136.407721 
L 97.484394 -134.53122 
L 97.023796 -132.654719 
L 96.458137 -130.778218 
L 95.793969 -128.901717 
L 95.041807 -127.025216 
L 94.215685 -125.148715 
L 93.332268 -123.272215 
L 92.409649 -121.395714 
L 91.46598 -119.519213 
L 90.518145 -117.642712 
L 89.580638 -115.766211 
L 88.664781 -113.88971 
L 87.778357 -112.013209 
L 86.925663 -110.136708 
L 86.107923 -108.260207 
L 85.323971 -106.383706 
L 84.571083 -104.507205 
L 83.845842 -102.630704 
L 83.144923 -100.754203 
L 82.465733 -98.877702 
L 81.806855 -97.001201 
L 81.168278 -95.1247 
L 80.551422 -93.248199 
L 79.95899 -91.371698 
L 79.394675 -89.495197 
L 78.862779 -87.618696 
L 78.367774 -85.742195 
L 77.91386 -83.865694 
L 77.504554 -81.989193 
L 77.142344 -80.112692 
L 76.828429 -78.236191 
L 76.562566 -76.35969 
L 76.343034 -74.483189 
L 76.166707 -72.606688 
L 76.02923 -70.730187 
L 75.925286 -68.853686 
L 75.848923 -66.977185 
L 75.793916 -65.100684 
L 75.754144 -63.224183 
L 75.723928 -61.347682 
L 75.698328 -59.471181 
L 75.673362 -57.59468 
z
" style="stroke: #2f2f2f; stroke-width: 0.75"/>
    </defs>
    <g clip-path="url(#pe1d4a74e84)">
     <use xlink:href="#m396d90b8b3" x="0" y="301.06575" style="fill: #166c9c; stroke: #2f2f2f; stroke-width: 0.75"/>
    </g>
   </g>
   <g id="FillBetweenPolyCollection_2">
    <defs>
     <path id="m1abb79204a" d="M 127.139373 -49.550659 
L 126.097412 -49.550659 
L 126.100011 -51.490399 
L 126.112185 -53.430138 
L 126.131904 -55.369878 
L 126.156195 -57.309617 
L 126.181273 -59.249357 
L 126.20271 -61.189096 
L 126.215616 -63.128836 
L 126.214827 -65.068576 
L 126.195072 -67.008315 
L 126.151125 -68.948055 
L 126.077947 -70.887794 
L 125.970822 -72.827534 
L 125.825499 -74.767273 
L 125.638341 -76.707013 
L 125.406477 -78.646752 
L 125.127937 -80.586492 
L 124.801757 -82.526232 
L 124.428029 -84.465971 
L 124.007867 -86.405711 
L 123.543293 -88.34545 
L 123.037017 -90.28519 
L 122.492153 -92.224929 
L 121.911865 -94.164669 
L 121.299006 -96.104408 
L 120.65577 -98.044148 
L 119.983423 -99.983888 
L 119.282145 -101.923627 
L 118.551031 -103.863367 
L 117.788274 -105.803106 
L 116.991544 -107.742846 
L 116.158555 -109.682585 
L 115.287778 -111.622325 
L 114.379226 -113.562064 
L 113.435232 -115.501804 
L 112.461086 -117.441544 
L 111.465444 -119.381283 
L 110.460391 -121.321023 
L 109.461114 -123.260762 
L 108.485194 -125.200502 
L 107.551563 -127.140241 
L 106.679264 -129.079981 
L 105.886172 -131.01972 
L 105.18785 -132.95946 
L 104.596683 -134.8992 
L 104.121412 -136.838939 
L 103.767065 -138.778679 
L 103.535261 -140.718418 
L 103.42475 -142.658158 
L 103.43205 -144.597897 
L 103.552018 -146.537637 
L 103.778233 -148.477376 
L 104.103142 -150.417116 
L 104.517981 -152.356856 
L 105.012555 -154.296595 
L 105.575022 -156.236335 
L 106.191816 -158.176074 
L 106.847838 -160.115814 
L 107.526993 -162.055553 
L 108.213051 -163.995293 
L 108.890766 -165.935032 
L 109.547092 -167.874772 
L 110.172334 -169.814512 
L 110.761008 -171.754251 
L 111.312298 -173.693991 
L 111.829979 -175.63373 
L 112.321809 -177.57347 
L 112.798464 -179.513209 
L 113.272136 -181.452949 
L 113.755009 -183.392688 
L 114.257796 -185.332428 
L 114.788517 -187.272168 
L 115.351656 -189.211907 
L 115.947758 -191.151647 
L 116.57346 -193.091386 
L 117.221902 -195.031126 
L 117.883421 -196.970865 
L 118.546423 -198.910605 
L 119.198334 -200.850344 
L 119.826545 -202.790084 
L 120.419298 -204.729823 
L 120.966476 -206.669563 
L 121.460259 -208.609303 
L 121.895623 -210.549042 
L 122.270656 -212.488782 
L 122.586646 -214.428521 
L 122.847943 -216.368261 
L 123.061562 -218.308 
L 123.236567 -220.24774 
L 123.38328 -222.187479 
L 123.512386 -224.127219 
L 123.634041 -226.066959 
L 123.757069 -228.006698 
L 123.888345 -229.946438 
L 124.032421 -231.886177 
L 124.191408 -233.825917 
L 124.365126 -235.765656 
L 124.551444 -237.705396 
L 124.746777 -239.645135 
L 124.946632 -241.584875 
L 128.290153 -241.584875 
L 128.290153 -241.584875 
L 128.490009 -239.645135 
L 128.685342 -237.705396 
L 128.87166 -235.765656 
L 129.045378 -233.825917 
L 129.204365 -231.886177 
L 129.348441 -229.946438 
L 129.479717 -228.006698 
L 129.602745 -226.066959 
L 129.724399 -224.127219 
L 129.853506 -222.187479 
L 130.000219 -220.24774 
L 130.175224 -218.308 
L 130.388843 -216.368261 
L 130.65014 -214.428521 
L 130.96613 -212.488782 
L 131.341162 -210.549042 
L 131.776527 -208.609303 
L 132.27031 -206.669563 
L 132.817488 -204.729823 
L 133.410241 -202.790084 
L 134.038451 -200.850344 
L 134.690362 -198.910605 
L 135.353365 -196.970865 
L 136.014883 -195.031126 
L 136.663325 -193.091386 
L 137.289028 -191.151647 
L 137.88513 -189.211907 
L 138.448269 -187.272168 
L 138.97899 -185.332428 
L 139.481777 -183.392688 
L 139.96465 -181.452949 
L 140.438322 -179.513209 
L 140.914976 -177.57347 
L 141.406807 -175.63373 
L 141.924488 -173.693991 
L 142.475778 -171.754251 
L 143.064452 -169.814512 
L 143.689693 -167.874772 
L 144.34602 -165.935032 
L 145.023734 -163.995293 
L 145.709792 -162.055553 
L 146.388948 -160.115814 
L 147.04497 -158.176074 
L 147.661764 -156.236335 
L 148.224231 -154.296595 
L 148.718805 -152.356856 
L 149.133644 -150.417116 
L 149.458553 -148.477376 
L 149.684768 -146.537637 
L 149.804735 -144.597897 
L 149.812036 -142.658158 
L 149.701525 -140.718418 
L 149.46972 -138.778679 
L 149.115374 -136.838939 
L 148.640102 -134.8992 
L 148.048936 -132.95946 
L 147.350613 -131.01972 
L 146.557522 -129.079981 
L 145.685223 -127.140241 
L 144.751591 -125.200502 
L 143.775672 -123.260762 
L 142.776395 -121.321023 
L 141.771342 -119.381283 
L 140.7757 -117.441544 
L 139.801554 -115.501804 
L 138.857559 -113.562064 
L 137.949008 -111.622325 
L 137.078231 -109.682585 
L 136.245242 -107.742846 
L 135.448512 -105.803106 
L 134.685755 -103.863367 
L 133.954641 -101.923627 
L 133.253363 -99.983888 
L 132.581016 -98.044148 
L 131.93778 -96.104408 
L 131.32492 -94.164669 
L 130.744633 -92.224929 
L 130.199768 -90.28519 
L 129.693493 -88.34545 
L 129.228918 -86.405711 
L 128.808757 -84.465971 
L 128.435029 -82.526232 
L 128.108849 -80.586492 
L 127.830309 -78.646752 
L 127.598444 -76.707013 
L 127.411287 -74.767273 
L 127.265964 -72.827534 
L 127.158838 -70.887794 
L 127.08566 -68.948055 
L 127.041713 -67.008315 
L 127.021959 -65.068576 
L 127.02117 -63.128836 
L 127.034076 -61.189096 
L 127.055512 -59.249357 
L 127.080591 -57.309617 
L 127.104882 -55.369878 
L 127.124601 -53.430138 
L 127.136775 -51.490399 
L 127.139373 -49.550659 
z
" style="stroke: #2f2f2f; stroke-width: 0.75"/>
    </defs>
    <g clip-path="url(#pe1d4a74e84)">
     <use xlink:href="#m1abb79204a" x="0" y="301.06575" style="fill: #96bdd2; stroke: #2f2f2f; stroke-width: 0.75"/>
    </g>
   </g>
   <g id="FillBetweenPolyCollection_3">
    <defs>
     <path id="mddb12190e7" d="M 178.733281 -56.998468 
L 177.586362 -56.998468 
L 177.573063 -58.890107 
L 177.563343 -60.781745 
L 177.553867 -62.673384 
L 177.540291 -64.565023 
L 177.517435 -66.456661 
L 177.479523 -68.3483 
L 177.420451 -70.239939 
L 177.33409 -72.131578 
L 177.21456 -74.023216 
L 177.056503 -75.914855 
L 176.855303 -77.806494 
L 176.607273 -79.698133 
L 176.309787 -81.589771 
L 175.961359 -83.48141 
L 175.561668 -85.373049 
L 175.111525 -87.264687 
L 174.612771 -89.156326 
L 174.068114 -91.047965 
L 173.480906 -92.939604 
L 172.854871 -94.831242 
L 172.193793 -96.722881 
L 171.501211 -98.61452 
L 170.780141 -100.506158 
L 170.032875 -102.397797 
L 169.260901 -104.289436 
L 168.46497 -106.181075 
L 167.64534 -108.072713 
L 166.802177 -109.964352 
L 165.936098 -111.855991 
L 165.048774 -113.747629 
L 164.14352 -115.639268 
L 163.225766 -117.530907 
L 162.303323 -119.422546 
L 161.386353 -121.314184 
L 160.487032 -123.205823 
L 159.618905 -125.097462 
L 158.796009 -126.9891 
L 158.031892 -128.880739 
L 157.338655 -130.772378 
L 156.726169 -132.664017 
L 156.201582 -134.555655 
L 155.769183 -136.447294 
L 155.430615 -138.338933 
L 155.185378 -140.230572 
L 155.031491 -142.12221 
L 154.966179 -144.013849 
L 154.986426 -145.905488 
L 155.089303 -147.797126 
L 155.27199 -149.688765 
L 155.531532 -151.580404 
L 155.864388 -153.472043 
L 156.265891 -155.363681 
L 156.729776 -157.25532 
L 157.247896 -159.146959 
L 157.810231 -161.038597 
L 158.40524 -162.930236 
L 159.020529 -164.821875 
L 159.643766 -166.713514 
L 160.263719 -168.605152 
L 160.871261 -170.496791 
L 161.460185 -172.38843 
L 162.02771 -174.280068 
L 162.574585 -176.171707 
L 163.104769 -178.063346 
L 163.624727 -179.954985 
L 164.142438 -181.846623 
L 164.666254 -183.738262 
L 165.203759 -185.629901 
L 165.760785 -187.521539 
L 166.340684 -189.413178 
L 166.943935 -191.304817 
L 167.568084 -193.196456 
L 168.207999 -195.088094 
L 168.856361 -196.979733 
L 169.504301 -198.871372 
L 170.142117 -200.763011 
L 170.759991 -202.654649 
L 171.348648 -204.546288 
L 171.899949 -206.437927 
L 172.40738 -208.329565 
L 172.866425 -210.221204 
L 173.274819 -212.112843 
L 173.632654 -214.004482 
L 173.942316 -215.89612 
L 174.208269 -217.787759 
L 174.436662 -219.679398 
L 174.634807 -221.571036 
L 174.810571 -223.462675 
L 174.971739 -225.354314 
L 175.125424 -227.245953 
L 175.27758 -229.137591 
L 175.432675 -231.02923 
L 175.593542 -232.920869 
L 175.761404 -234.812507 
L 175.936047 -236.704146 
L 176.116102 -238.595785 
L 176.299376 -240.487424 
L 176.483189 -242.379062 
L 176.664684 -244.270701 
L 179.654958 -244.270701 
L 179.654958 -244.270701 
L 179.836454 -242.379062 
L 180.020267 -240.487424 
L 180.20354 -238.595785 
L 180.383595 -236.704146 
L 180.558239 -234.812507 
L 180.7261 -232.920869 
L 180.886968 -231.02923 
L 181.042063 -229.137591 
L 181.194219 -227.245953 
L 181.347903 -225.354314 
L 181.509072 -223.462675 
L 181.684836 -221.571036 
L 181.882981 -219.679398 
L 182.111373 -217.787759 
L 182.377327 -215.89612 
L 182.686989 -214.004482 
L 183.044824 -212.112843 
L 183.453218 -210.221204 
L 183.912263 -208.329565 
L 184.419694 -206.437927 
L 184.970995 -204.546288 
L 185.559652 -202.654649 
L 186.177525 -200.763011 
L 186.815342 -198.871372 
L 187.463282 -196.979733 
L 188.111643 -195.088094 
L 188.751559 -193.196456 
L 189.375708 -191.304817 
L 189.978958 -189.413178 
L 190.558858 -187.521539 
L 191.115884 -185.629901 
L 191.653389 -183.738262 
L 192.177204 -181.846623 
L 192.694916 -179.954985 
L 193.214874 -178.063346 
L 193.745058 -176.171707 
L 194.291933 -174.280068 
L 194.859458 -172.38843 
L 195.448382 -170.496791 
L 196.055924 -168.605152 
L 196.675877 -166.713514 
L 197.299114 -164.821875 
L 197.914403 -162.930236 
L 198.509412 -161.038597 
L 199.071747 -159.146959 
L 199.589867 -157.25532 
L 200.053752 -155.363681 
L 200.455255 -153.472043 
L 200.788111 -151.580404 
L 201.047653 -149.688765 
L 201.23034 -147.797126 
L 201.333217 -145.905488 
L 201.353464 -144.013849 
L 201.288152 -142.12221 
L 201.134265 -140.230572 
L 200.889028 -138.338933 
L 200.55046 -136.447294 
L 200.118061 -134.555655 
L 199.593474 -132.664017 
L 198.980988 -130.772378 
L 198.287751 -128.880739 
L 197.523634 -126.9891 
L 196.700738 -125.097462 
L 195.83261 -123.205823 
L 194.93329 -121.314184 
L 194.01632 -119.422546 
L 193.093876 -117.530907 
L 192.176123 -115.639268 
L 191.270868 -113.747629 
L 190.383545 -111.855991 
L 189.517466 -109.964352 
L 188.674303 -108.072713 
L 187.854673 -106.181075 
L 187.058742 -104.289436 
L 186.286767 -102.397797 
L 185.539502 -100.506158 
L 184.818432 -98.61452 
L 184.12585 -96.722881 
L 183.464772 -94.831242 
L 182.838737 -92.939604 
L 182.251529 -91.047965 
L 181.706872 -89.156326 
L 181.208117 -87.264687 
L 180.757975 -85.373049 
L 180.358284 -83.48141 
L 180.009856 -81.589771 
L 179.712369 -79.698133 
L 179.46434 -77.806494 
L 179.26314 -75.914855 
L 179.105083 -74.023216 
L 178.985553 -72.131578 
L 178.899191 -70.239939 
L 178.84012 -68.3483 
L 178.802208 -66.456661 
L 178.779352 -64.565023 
L 178.765776 -62.673384 
L 178.756299 -60.781745 
L 178.74658 -58.890107 
L 178.733281 -56.998468 
z
" style="stroke: #2f2f2f; stroke-width: 0.75"/>
    </defs>
    <g clip-path="url(#pe1d4a74e84)">
     <use xlink:href="#mddb12190e7" x="0" y="301.06575" style="fill: #ba611b; stroke: #2f2f2f; stroke-width: 0.75"/>
    </g>
   </g>
   <g id="FillBetweenPolyCollection_4">
    <defs>
     <path id="mea6db61a7f" d="M 230.2335 -55.36634 
L 229.169 -55.36634 
L 229.164344 -57.239642 
L 229.165643 -59.112944 
L 229.170081 -60.986245 
L 229.17382 -62.859547 
L 229.172125 -64.732848 
L 229.159557 -66.60615 
L 229.130205 -68.479452 
L 229.077942 -70.352753 
L 228.996698 -72.226055 
L 228.880715 -74.099356 
L 228.724785 -75.972658 
L 228.52446 -77.84596 
L 228.27621 -79.719261 
L 227.977532 -81.592563 
L 227.626994 -83.465865 
L 227.224209 -85.339166 
L 226.76975 -87.212468 
L 226.264986 -89.085769 
L 225.711873 -90.959071 
L 225.112712 -92.832373 
L 224.46988 -94.705674 
L 223.785589 -96.578976 
L 223.061682 -98.452278 
L 222.299506 -100.325579 
L 221.499898 -102.198881 
L 220.663309 -104.072182 
L 219.790069 -105.945484 
L 218.880817 -107.818786 
L 217.937039 -109.692087 
L 216.961691 -111.565389 
L 215.959813 -113.43869 
L 214.939036 -115.311992 
L 213.909899 -117.185294 
L 212.885861 -119.058595 
L 211.882974 -120.931897 
L 210.919188 -122.805199 
L 210.013343 -124.6785 
L 209.183959 -126.551802 
L 208.447947 -128.425103 
L 207.819435 -130.298405 
L 207.30885 -132.171707 
L 206.922394 -134.045008 
L 206.661955 -135.91831 
L 206.525466 -137.791611 
L 206.507607 -139.664913 
L 206.600715 -141.538215 
L 206.79573 -143.411516 
L 207.083019 -145.284818 
L 207.452937 -147.15812 
L 207.896069 -149.031421 
L 208.403169 -150.904723 
L 208.964861 -152.778024 
L 209.571254 -154.651326 
L 210.211603 -156.524628 
L 210.874178 -158.397929 
L 211.546424 -160.271231 
L 212.215451 -162.144532 
L 212.868823 -164.017834 
L 213.495519 -165.891136 
L 214.086936 -167.764437 
L 214.637752 -169.637739 
L 215.146495 -171.511041 
L 215.615703 -173.384342 
L 216.051638 -175.257644 
L 216.46356 -177.130945 
L 216.862669 -179.004247 
L 217.260846 -180.877549 
L 217.669365 -182.75085 
L 218.097729 -184.624152 
L 218.552763 -186.497453 
L 219.038057 -188.370755 
L 219.553765 -190.244057 
L 220.096756 -192.117358 
L 220.661044 -193.99066 
L 221.238414 -195.863962 
L 221.819165 -197.737263 
L 222.39288 -199.610565 
L 222.949178 -201.483866 
L 223.478409 -203.357168 
L 223.972249 -205.23047 
L 224.424203 -207.103771 
L 224.829966 -208.977073 
L 225.187658 -210.850374 
L 225.497879 -212.723676 
L 225.763599 -214.596978 
L 225.98986 -216.470279 
L 226.183319 -218.343581 
L 226.351658 -220.216883 
L 226.502936 -222.090184 
L 226.644921 -223.963486 
L 226.784504 -225.836787 
L 226.927228 -227.710089 
L 227.076993 -229.583391 
L 227.235946 -231.456692 
L 227.404545 -233.329994 
L 227.581772 -235.203295 
L 227.765455 -237.076597 
L 227.952629 -238.949899 
L 228.139913 -240.8232 
L 231.262587 -240.8232 
L 231.262587 -240.8232 
L 231.449871 -238.949899 
L 231.637045 -237.076597 
L 231.820728 -235.203295 
L 231.997955 -233.329994 
L 232.166554 -231.456692 
L 232.325507 -229.583391 
L 232.475272 -227.710089 
L 232.617996 -225.836787 
L 232.757579 -223.963486 
L 232.899564 -222.090184 
L 233.050842 -220.216883 
L 233.219181 -218.343581 
L 233.41264 -216.470279 
L 233.638901 -214.596978 
L 233.904621 -212.723676 
L 234.214842 -210.850374 
L 234.572534 -208.977073 
L 234.978297 -207.103771 
L 235.430251 -205.23047 
L 235.924091 -203.357168 
L 236.453322 -201.483866 
L 237.00962 -199.610565 
L 237.583335 -197.737263 
L 238.164086 -195.863962 
L 238.741456 -193.99066 
L 239.305744 -192.117358 
L 239.848735 -190.244057 
L 240.364443 -188.370755 
L 240.849737 -186.497453 
L 241.304771 -184.624152 
L 241.733135 -182.75085 
L 242.141654 -180.877549 
L 242.539831 -179.004247 
L 242.93894 -177.130945 
L 243.350862 -175.257644 
L 243.786797 -173.384342 
L 244.256005 -171.511041 
L 244.764748 -169.637739 
L 245.315564 -167.764437 
L 245.906981 -165.891136 
L 246.533677 -164.017834 
L 247.187049 -162.144532 
L 247.856076 -160.271231 
L 248.528322 -158.397929 
L 249.190897 -156.524628 
L 249.831246 -154.651326 
L 250.437639 -152.778024 
L 250.999331 -150.904723 
L 251.506431 -149.031421 
L 251.949563 -147.15812 
L 252.319481 -145.284818 
L 252.60677 -143.411516 
L 252.801785 -141.538215 
L 252.894893 -139.664913 
L 252.877034 -137.791611 
L 252.740545 -135.91831 
L 252.480106 -134.045008 
L 252.09365 -132.171707 
L 251.583065 -130.298405 
L 250.954553 -128.425103 
L 250.218541 -126.551802 
L 249.389157 -124.6785 
L 248.483312 -122.805199 
L 247.519526 -120.931897 
L 246.516639 -119.058595 
L 245.492601 -117.185294 
L 244.463464 -115.311992 
L 243.442687 -113.43869 
L 242.440809 -111.565389 
L 241.465461 -109.692087 
L 240.521683 -107.818786 
L 239.612431 -105.945484 
L 238.739191 -104.072182 
L 237.902602 -102.198881 
L 237.102994 -100.325579 
L 236.340818 -98.452278 
L 235.616911 -96.578976 
L 234.93262 -94.705674 
L 234.289788 -92.832373 
L 233.690627 -90.959071 
L 233.137514 -89.085769 
L 232.63275 -87.212468 
L 232.178291 -85.339166 
L 231.775506 -83.465865 
L 231.424968 -81.592563 
L 231.12629 -79.719261 
L 230.87804 -77.84596 
L 230.677715 -75.972658 
L 230.521785 -74.099356 
L 230.405802 -72.226055 
L 230.324558 -70.352753 
L 230.272295 -68.479452 
L 230.242943 -66.60615 
L 230.230375 -64.732848 
L 230.22868 -62.859547 
L 230.232419 -60.986245 
L 230.236857 -59.112944 
L 230.238156 -57.239642 
L 230.2335 -55.36634 
z
" style="stroke: #2f2f2f; stroke-width: 0.75"/>
    </defs>
    <g clip-path="url(#pe1d4a74e84)">
     <use xlink:href="#mea6db61a7f" x="0" y="301.06575" style="fill: #e0b898; stroke: #2f2f2f; stroke-width: 0.75"/>
    </g>
   </g>
   <g id="FillBetweenPolyCollection_5">
    <defs>
     <path id="m76b88fa299" d="M 281.795915 -107.38208 
L 280.689442 -107.38208 
L 280.695362 -109.217501 
L 280.713274 -111.052923 
L 280.741679 -112.888345 
L 280.778265 -114.723767 
L 280.820063 -116.559189 
L 280.863632 -118.394611 
L 280.905226 -120.230032 
L 280.940926 -122.065454 
L 280.966707 -123.900876 
L 280.97845 -125.736298 
L 280.971902 -127.57172 
L 280.942629 -129.407142 
L 280.885985 -131.242563 
L 280.797146 -133.077985 
L 280.671238 -134.913407 
L 280.503583 -136.748829 
L 280.290045 -138.584251 
L 280.027464 -140.419673 
L 279.714121 -142.255094 
L 279.350154 -144.090516 
L 278.93786 -145.925938 
L 278.481789 -147.76136 
L 277.988591 -149.596782 
L 277.466565 -151.432204 
L 276.924937 -153.267625 
L 276.372913 -155.103047 
L 275.818607 -156.938469 
L 275.267971 -158.773891 
L 274.723861 -160.609313 
L 274.185402 -162.444735 
L 273.647741 -164.280156 
L 273.102295 -166.115578 
L 272.537493 -167.951 
L 271.939995 -169.786422 
L 271.296269 -171.621844 
L 270.594369 -173.457266 
L 269.825718 -175.292687 
L 268.986664 -177.128109 
L 268.079598 -178.963531 
L 267.113471 -180.798953 
L 266.103593 -182.634375 
L 265.070712 -184.469797 
L 264.039457 -186.305218 
L 263.036314 -188.14064 
L 262.08738 -189.976062 
L 261.216162 -191.811484 
L 260.441679 -193.646906 
L 259.777087 -195.482328 
L 259.22896 -197.317749 
L 258.797281 -199.153171 
L 258.476111 -200.988593 
L 258.25482 -202.824015 
L 258.119719 -204.659437 
L 258.055894 -206.494858 
L 258.049036 -208.33028 
L 258.087064 -210.165702 
L 258.161379 -212.001124 
L 258.267613 -213.836546 
L 258.405795 -215.671968 
L 258.579933 -217.507389 
L 258.797062 -219.342811 
L 259.065888 -221.178233 
L 259.395212 -223.013655 
L 259.792363 -224.849077 
L 260.261849 -226.684499 
L 260.804439 -228.51992 
L 261.416789 -230.355342 
L 262.091675 -232.190764 
L 262.818759 -234.026186 
L 263.585748 -235.861608 
L 264.379734 -237.69703 
L 265.188485 -239.532451 
L 266.001459 -241.367873 
L 266.810416 -243.203295 
L 267.609534 -245.038717 
L 268.395101 -246.874139 
L 269.164877 -248.709561 
L 269.917311 -250.544982 
L 270.650794 -252.380404 
L 271.363104 -254.215826 
L 272.051146 -256.051248 
L 272.711008 -257.88667 
L 273.3383 -259.722092 
L 273.928685 -261.557513 
L 274.478488 -263.392935 
L 274.985258 -265.228357 
L 275.448202 -267.063779 
L 275.868409 -268.899201 
L 276.248847 -270.734623 
L 276.59414 -272.570044 
L 276.910149 -274.405466 
L 277.203424 -276.240888 
L 277.48059 -278.07631 
L 277.747736 -279.911732 
L 278.00988 -281.747154 
L 278.27057 -283.582575 
L 278.531657 -285.417997 
L 278.793265 -287.253419 
L 279.053943 -289.088841 
L 283.431414 -289.088841 
L 283.431414 -289.088841 
L 283.692093 -287.253419 
L 283.9537 -285.417997 
L 284.214787 -283.582575 
L 284.475477 -281.747154 
L 284.737621 -279.911732 
L 285.004767 -278.07631 
L 285.281933 -276.240888 
L 285.575208 -274.405466 
L 285.891217 -272.570044 
L 286.23651 -270.734623 
L 286.616948 -268.899201 
L 287.037155 -267.063779 
L 287.500099 -265.228357 
L 288.006869 -263.392935 
L 288.556672 -261.557513 
L 289.147057 -259.722092 
L 289.774349 -257.88667 
L 290.434211 -256.051248 
L 291.122253 -254.215826 
L 291.834564 -252.380404 
L 292.568046 -250.544982 
L 293.32048 -248.709561 
L 294.090256 -246.874139 
L 294.875823 -245.038717 
L 295.674941 -243.203295 
L 296.483898 -241.367873 
L 297.296872 -239.532451 
L 298.105623 -237.69703 
L 298.899609 -235.861608 
L 299.666598 -234.026186 
L 300.393682 -232.190764 
L 301.068568 -230.355342 
L 301.680918 -228.51992 
L 302.223508 -226.684499 
L 302.692995 -224.849077 
L 303.090145 -223.013655 
L 303.41947 -221.178233 
L 303.688295 -219.342811 
L 303.905424 -217.507389 
L 304.079562 -215.671968 
L 304.217744 -213.836546 
L 304.323978 -212.001124 
L 304.398293 -210.165702 
L 304.436321 -208.33028 
L 304.429463 -206.494858 
L 304.365639 -204.659437 
L 304.230537 -202.824015 
L 304.009246 -200.988593 
L 303.688076 -199.153171 
L 303.256397 -197.317749 
L 302.70827 -195.482328 
L 302.043678 -193.646906 
L 301.269196 -191.811484 
L 300.397978 -189.976062 
L 299.449044 -188.14064 
L 298.4459 -186.305218 
L 297.414645 -184.469797 
L 296.381764 -182.634375 
L 295.371886 -180.798953 
L 294.405759 -178.963531 
L 293.498694 -177.128109 
L 292.659639 -175.292687 
L 291.890988 -173.457266 
L 291.189088 -171.621844 
L 290.545362 -169.786422 
L 289.947864 -167.951 
L 289.383062 -166.115578 
L 288.837616 -164.280156 
L 288.299955 -162.444735 
L 287.761496 -160.609313 
L 287.217386 -158.773891 
L 286.66675 -156.938469 
L 286.112444 -155.103047 
L 285.56042 -153.267625 
L 285.018792 -151.432204 
L 284.496766 -149.596782 
L 284.003568 -147.76136 
L 283.547497 -145.925938 
L 283.135203 -144.090516 
L 282.771236 -142.255094 
L 282.457893 -140.419673 
L 282.195312 -138.584251 
L 281.981774 -136.748829 
L 281.814119 -134.913407 
L 281.688212 -133.077985 
L 281.599372 -131.242563 
L 281.542728 -129.407142 
L 281.513455 -127.57172 
L 281.506907 -125.736298 
L 281.51865 -123.900876 
L 281.544431 -122.065454 
L 281.580131 -120.230032 
L 281.621726 -118.394611 
L 281.665294 -116.559189 
L 281.707092 -114.723767 
L 281.743678 -112.888345 
L 281.772083 -111.052923 
L 281.789995 -109.217501 
L 281.795915 -107.38208 
z
" style="stroke: #2f2f2f; stroke-width: 0.75"/>
    </defs>
    <g clip-path="url(#pe1d4a74e84)">
     <use xlink:href="#m76b88fa299" x="0" y="301.06575" style="fill: #148a6a; stroke: #2f2f2f; stroke-width: 0.75"/>
    </g>
   </g>
   <g id="FillBetweenPolyCollection_6">
    <defs>
     <path id="mbc7a535a6b" d="M 333.332872 -106.6286 
L 332.235342 -106.6286 
L 332.231784 -108.465956 
L 332.235247 -110.303313 
L 332.243349 -112.140669 
L 332.252831 -113.978025 
L 332.259711 -115.815382 
L 332.25948 -117.652738 
L 332.247332 -119.490095 
L 332.218404 -121.327451 
L 332.168 -123.164808 
L 332.091806 -125.002164 
L 331.986072 -126.83952 
L 331.847771 -128.676877 
L 331.674737 -130.514233 
L 331.465783 -132.35159 
L 331.220801 -134.188946 
L 330.940831 -136.026303 
L 330.628098 -137.863659 
L 330.285994 -139.701016 
L 329.918985 -141.538372 
L 329.53243 -143.375728 
L 329.132305 -145.213085 
L 328.724816 -147.050441 
L 328.315933 -148.887798 
L 327.910858 -150.725154 
L 327.513475 -152.562511 
L 327.125822 -154.399867 
L 326.747656 -156.237223 
L 326.376143 -158.07458 
L 326.005738 -159.911936 
L 325.628276 -161.749293 
L 325.23331 -163.586649 
L 324.808687 -165.424006 
L 324.341352 -167.261362 
L 323.818346 -169.098718 
L 323.227934 -170.936075 
L 322.560792 -172.773431 
L 321.811154 -174.610788 
L 320.977807 -176.448144 
L 320.06483 -178.285501 
L 319.081969 -180.122857 
L 318.044577 -181.960213 
L 316.973066 -183.79757 
L 315.89189 -185.634926 
L 314.828109 -187.472283 
L 313.809644 -189.309639 
L 312.863383 -191.146996 
L 312.013315 -192.984352 
L 311.278878 -194.821708 
L 310.673701 -196.659065 
L 310.204868 -198.496421 
L 309.872782 -200.333778 
L 309.671643 -202.171134 
L 309.590464 -204.008491 
L 309.614509 -205.845847 
L 309.726966 -207.683203 
L 309.910667 -209.52056 
L 310.149651 -211.357916 
L 310.430408 -213.195273 
L 310.742689 -215.032629 
L 311.079844 -216.869986 
L 311.438678 -218.707342 
L 311.818931 -220.544698 
L 312.222473 -222.382055 
L 312.652365 -224.219411 
L 313.111925 -226.056768 
L 313.603921 -227.894124 
L 314.129976 -229.731481 
L 314.690242 -231.568837 
L 315.283331 -233.406194 
L 315.90649 -235.24355 
L 316.555921 -237.080906 
L 317.227191 -238.918263 
L 317.915622 -240.755619 
L 318.6166 -242.592976 
L 319.325743 -244.430332 
L 320.038932 -246.267689 
L 320.752203 -248.105045 
L 321.461573 -249.942401 
L 322.162856 -251.779758 
L 322.851537 -253.617114 
L 323.522765 -255.454471 
L 324.171487 -257.291827 
L 324.792715 -259.129184 
L 325.381897 -260.96654 
L 325.935318 -262.803896 
L 326.450468 -264.641253 
L 326.92631 -266.478609 
L 327.363399 -268.315966 
L 327.763826 -270.153322 
L 328.131001 -271.990679 
L 328.469305 -273.828035 
L 328.783655 -275.665391 
L 329.079048 -277.502748 
L 329.360123 -279.340104 
L 329.630803 -281.177461 
L 329.894033 -283.014817 
L 330.151639 -284.852174 
L 330.404296 -286.68953 
L 330.651618 -288.526886 
L 334.916596 -288.526886 
L 334.916596 -288.526886 
L 335.163918 -286.68953 
L 335.416576 -284.852174 
L 335.674181 -283.014817 
L 335.937412 -281.177461 
L 336.208092 -279.340104 
L 336.489166 -277.502748 
L 336.784559 -275.665391 
L 337.09891 -273.828035 
L 337.437213 -271.990679 
L 337.804388 -270.153322 
L 338.204815 -268.315966 
L 338.641904 -266.478609 
L 339.117747 -264.641253 
L 339.632896 -262.803896 
L 340.186317 -260.96654 
L 340.775499 -259.129184 
L 341.396728 -257.291827 
L 342.045449 -255.454471 
L 342.716678 -253.617114 
L 343.405359 -251.779758 
L 344.106641 -249.942401 
L 344.816012 -248.105045 
L 345.529282 -246.267689 
L 346.242471 -244.430332 
L 346.951615 -242.592976 
L 347.652592 -240.755619 
L 348.341024 -238.918263 
L 349.012293 -237.080906 
L 349.661724 -235.24355 
L 350.284883 -233.406194 
L 350.877973 -231.568837 
L 351.438238 -229.731481 
L 351.964294 -227.894124 
L 352.45629 -226.056768 
L 352.91585 -224.219411 
L 353.345741 -222.382055 
L 353.749283 -220.544698 
L 354.129536 -218.707342 
L 354.48837 -216.869986 
L 354.825525 -215.032629 
L 355.137807 -213.195273 
L 355.418563 -211.357916 
L 355.657547 -209.52056 
L 355.841249 -207.683203 
L 355.953706 -205.845847 
L 355.97775 -204.008491 
L 355.896571 -202.171134 
L 355.695432 -200.333778 
L 355.363346 -198.496421 
L 354.894513 -196.659065 
L 354.289336 -194.821708 
L 353.5549 -192.984352 
L 352.704832 -191.146996 
L 351.758571 -189.309639 
L 350.740105 -187.472283 
L 349.676324 -185.634926 
L 348.595148 -183.79757 
L 347.523637 -181.960213 
L 346.486245 -180.122857 
L 345.503385 -178.285501 
L 344.590407 -176.448144 
L 343.75706 -174.610788 
L 343.007422 -172.773431 
L 342.34028 -170.936075 
L 341.749868 -169.098718 
L 341.226862 -167.261362 
L 340.759528 -165.424006 
L 340.334905 -163.586649 
L 339.939939 -161.749293 
L 339.562477 -159.911936 
L 339.192071 -158.07458 
L 338.820558 -156.237223 
L 338.442392 -154.399867 
L 338.05474 -152.562511 
L 337.657356 -150.725154 
L 337.252281 -148.887798 
L 336.843398 -147.050441 
L 336.435909 -145.213085 
L 336.035784 -143.375728 
L 335.649229 -141.538372 
L 335.28222 -139.701016 
L 334.940116 -137.863659 
L 334.627383 -136.026303 
L 334.347413 -134.188946 
L 334.102431 -132.35159 
L 333.893478 -130.514233 
L 333.720443 -128.676877 
L 333.582142 -126.83952 
L 333.476408 -125.002164 
L 333.400215 -123.164808 
L 333.349811 -121.327451 
L 333.320882 -119.490095 
L 333.308734 -117.652738 
L 333.308503 -115.815382 
L 333.315383 -113.978025 
L 333.324866 -112.140669 
L 333.332967 -110.303313 
L 333.33643 -108.465956 
L 333.332872 -106.6286 
z
" style="stroke: #2f2f2f; stroke-width: 0.75"/>
    </defs>
    <g clip-path="url(#pe1d4a74e84)">
     <use xlink:href="#mbc7a535a6b" x="0" y="301.06575" style="fill: #95cabc; stroke: #2f2f2f; stroke-width: 0.75"/>
    </g>
   </g>
   <g id="FillBetweenPolyCollection_7">
    <defs>
     <path id="m92f00ea481" d="M 384.92603 -112.786709 
L 383.725041 -112.786709 
L 383.69482 -114.44159 
L 383.661187 -116.096471 
L 383.618459 -117.751352 
L 383.559658 -119.406233 
L 383.476879 -121.061114 
L 383.361788 -122.715996 
L 383.206236 -124.370877 
L 383.002901 -126.025758 
L 382.745926 -127.680639 
L 382.431445 -129.33552 
L 382.057945 -130.990401 
L 381.626381 -132.645282 
L 381.140018 -134.300163 
L 380.603994 -135.955044 
L 380.02464 -137.609925 
L 379.408634 -139.264806 
L 378.762126 -140.919687 
L 378.089941 -142.574568 
L 377.395023 -144.229449 
L 376.67821 -145.88433 
L 375.93839 -147.539211 
L 375.173051 -149.194092 
L 374.379125 -150.848973 
L 373.554021 -152.503854 
L 372.696659 -154.158735 
L 371.808364 -155.813616 
L 370.893462 -157.468497 
L 369.959477 -159.123378 
L 369.016922 -160.778259 
L 368.07869 -162.433141 
L 367.159144 -164.088022 
L 366.273037 -165.742903 
L 365.434403 -167.397784 
L 364.655566 -169.052665 
L 363.94639 -170.707546 
L 363.31386 -172.362427 
L 362.762042 -174.017308 
L 362.292395 -175.672189 
L 361.904393 -177.32707 
L 361.59633 -178.981951 
L 361.366175 -180.636832 
L 361.212319 -182.291713 
L 361.134084 -183.946594 
L 361.131893 -185.601475 
L 361.207086 -187.256356 
L 361.361416 -188.911237 
L 361.596339 -190.566118 
L 361.912258 -192.220999 
L 362.307878 -193.87588 
L 362.779807 -195.530761 
L 363.322472 -197.185642 
L 363.928373 -198.840523 
L 364.588573 -200.495404 
L 365.293343 -202.150285 
L 366.032799 -203.805167 
L 366.797435 -205.460048 
L 367.578464 -207.114929 
L 368.367953 -208.76981 
L 369.158789 -210.424691 
L 369.944539 -212.079572 
L 370.719279 -213.734453 
L 371.477467 -215.389334 
L 372.213903 -217.044215 
L 372.923782 -218.699096 
L 373.602816 -220.353977 
L 374.247408 -222.008858 
L 374.854825 -223.663739 
L 375.423337 -225.31862 
L 375.952308 -226.973501 
L 376.442218 -228.628382 
L 376.89462 -230.283263 
L 377.31204 -231.938144 
L 377.697813 -233.593025 
L 378.055888 -235.247906 
L 378.39059 -236.902787 
L 378.706375 -238.557668 
L 379.007575 -240.212549 
L 379.298171 -241.86743 
L 379.581597 -243.522312 
L 379.86059 -245.177193 
L 380.137084 -246.832074 
L 380.412168 -248.486955 
L 380.686066 -250.141836 
L 380.958176 -251.796717 
L 381.227128 -253.451598 
L 381.490893 -255.106479 
L 381.746933 -256.76136 
L 381.992395 -258.416241 
L 382.224355 -260.071122 
L 382.440101 -261.726003 
L 382.637406 -263.380884 
L 382.814797 -265.035765 
L 382.971731 -266.690646 
L 383.108696 -268.345527 
L 383.22717 -270.000408 
L 383.329464 -271.655289 
L 383.418463 -273.31017 
L 383.497301 -274.965051 
L 383.56901 -276.619932 
L 385.082062 -276.619932 
L 385.082062 -276.619932 
L 385.153771 -274.965051 
L 385.232608 -273.31017 
L 385.321608 -271.655289 
L 385.423902 -270.000408 
L 385.542375 -268.345527 
L 385.67934 -266.690646 
L 385.836275 -265.035765 
L 386.013665 -263.380884 
L 386.210971 -261.726003 
L 386.426716 -260.071122 
L 386.658677 -258.416241 
L 386.904138 -256.76136 
L 387.160178 -255.106479 
L 387.423944 -253.451598 
L 387.692896 -251.796717 
L 387.965005 -250.141836 
L 388.238904 -248.486955 
L 388.513987 -246.832074 
L 388.790482 -245.177193 
L 389.069474 -243.522312 
L 389.3529 -241.86743 
L 389.643497 -240.212549 
L 389.944697 -238.557668 
L 390.260481 -236.902787 
L 390.595184 -235.247906 
L 390.953258 -233.593025 
L 391.339031 -231.938144 
L 391.756451 -230.283263 
L 392.208854 -228.628382 
L 392.698764 -226.973501 
L 393.227735 -225.31862 
L 393.796247 -223.663739 
L 394.403663 -222.008858 
L 395.048255 -220.353977 
L 395.727289 -218.699096 
L 396.437168 -217.044215 
L 397.173605 -215.389334 
L 397.931793 -213.734453 
L 398.706532 -212.079572 
L 399.492282 -210.424691 
L 400.283119 -208.76981 
L 401.072607 -207.114929 
L 401.853636 -205.460048 
L 402.618273 -203.805167 
L 403.357729 -202.150285 
L 404.062499 -200.495404 
L 404.722699 -198.840523 
L 405.328599 -197.185642 
L 405.871265 -195.530761 
L 406.343193 -193.87588 
L 406.738813 -192.220999 
L 407.054733 -190.566118 
L 407.289655 -188.911237 
L 407.443985 -187.256356 
L 407.519179 -185.601475 
L 407.516988 -183.946594 
L 407.438752 -182.291713 
L 407.284896 -180.636832 
L 407.054741 -178.981951 
L 406.746678 -177.32707 
L 406.358676 -175.672189 
L 405.889029 -174.017308 
L 405.337211 -172.362427 
L 404.704682 -170.707546 
L 403.995505 -169.052665 
L 403.216668 -167.397784 
L 402.378034 -165.742903 
L 401.491927 -164.088022 
L 400.572381 -162.433141 
L 399.634149 -160.778259 
L 398.691595 -159.123378 
L 397.75761 -157.468497 
L 396.842707 -155.813616 
L 395.954413 -154.158735 
L 395.097051 -152.503854 
L 394.271946 -150.848973 
L 393.478021 -149.194092 
L 392.712681 -147.539211 
L 391.972862 -145.88433 
L 391.256048 -144.229449 
L 390.561131 -142.574568 
L 389.888945 -140.919687 
L 389.242437 -139.264806 
L 388.626432 -137.609925 
L 388.047077 -135.955044 
L 387.511053 -134.300163 
L 387.02469 -132.645282 
L 386.593126 -130.990401 
L 386.219626 -129.33552 
L 385.905146 -127.680639 
L 385.648171 -126.025758 
L 385.444836 -124.370877 
L 385.289283 -122.715996 
L 385.174193 -121.061114 
L 385.091413 -119.406233 
L 385.032612 -117.751352 
L 384.989884 -116.096471 
L 384.956252 -114.44159 
L 384.92603 -112.786709 
z
" style="stroke: #2f2f2f; stroke-width: 0.75"/>
    </defs>
    <g clip-path="url(#pe1d4a74e84)">
     <use xlink:href="#m92f00ea481" x="0" y="301.06575" style="fill: #c9941d; stroke: #2f2f2f; stroke-width: 0.75"/>
    </g>
   </g>
   <g id="matplotlib.axis_1">
    <g id="xtick_1">
     <g id="text_1">
      <!-- MVT -->
      <g transform="translate(64.288683 276.590438) scale(0.1 -0.1)">
       <defs>
        <path id="DejaVuSans-4d" d="M 628 4666 
L 1569 4666 
L 2759 1491 
L 3956 4666 
L 4897 4666 
L 4897 0 
L 4281 0 
L 4281 4097 
L 3078 897 
L 2444 897 
L 1241 4097 
L 1241 0 
L 628 0 
L 628 4666 
z
" transform="scale(0.015625)"/>
        <path id="DejaVuSans-56" d="M 1831 0 
L 50 4666 
L 709 4666 
L 2188 738 
L 3669 4666 
L 4325 4666 
L 2547 0 
L 1831 0 
z
" transform="scale(0.015625)"/>
        <path id="DejaVuSans-54" d="M -19 4666 
L 3928 4666 
L 3928 4134 
L 2272 4134 
L 2272 0 
L 1638 0 
L 1638 4134 
L -19 4134 
L -19 4666 
z
" transform="scale(0.015625)"/>
       </defs>
       <use xlink:href="#DejaVuSans-4d"/>
       <use xlink:href="#DejaVuSans-56" transform="translate(86.279297 0)"/>
       <use xlink:href="#DejaVuSans-54" transform="translate(154.6875 0)"/>
      </g>
     </g>
    </g>
    <g id="xtick_2">
     <g id="text_2">
      <!-- MVT -->
      <g transform="translate(115.830112 276.590438) scale(0.1 -0.1)">
       <use xlink:href="#DejaVuSans-4d"/>
       <use xlink:href="#DejaVuSans-56" transform="translate(86.279297 0)"/>
       <use xlink:href="#DejaVuSans-54" transform="translate(154.6875 0)"/>
      </g>
      <!-- (SIMD x8) -->
      <g transform="translate(102.173862 287.78825) scale(0.1 -0.1)">
       <defs>
        <path id="DejaVuSans-28" d="M 1984 4856 
Q 1566 4138 1362 3434 
Q 1159 2731 1159 2009 
Q 1159 1288 1364 580 
Q 1569 -128 1984 -844 
L 1484 -844 
Q 1016 -109 783 600 
Q 550 1309 550 2009 
Q 550 2706 781 3412 
Q 1013 4119 1484 4856 
L 1984 4856 
z
" transform="scale(0.015625)"/>
        <path id="DejaVuSans-53" d="M 3425 4513 
L 3425 3897 
Q 3066 4069 2747 4153 
Q 2428 4238 2131 4238 
Q 1616 4238 1336 4038 
Q 1056 3838 1056 3469 
Q 1056 3159 1242 3001 
Q 1428 2844 1947 2747 
L 2328 2669 
Q 3034 2534 3370 2195 
Q 3706 1856 3706 1288 
Q 3706 609 3251 259 
Q 2797 -91 1919 -91 
Q 1588 -91 1214 -16 
Q 841 59 441 206 
L 441 856 
Q 825 641 1194 531 
Q 1563 422 1919 422 
Q 2459 422 2753 634 
Q 3047 847 3047 1241 
Q 3047 1584 2836 1778 
Q 2625 1972 2144 2069 
L 1759 2144 
Q 1053 2284 737 2584 
Q 422 2884 422 3419 
Q 422 4038 858 4394 
Q 1294 4750 2059 4750 
Q 2388 4750 2728 4690 
Q 3069 4631 3425 4513 
z
" transform="scale(0.015625)"/>
        <path id="DejaVuSans-49" d="M 628 4666 
L 1259 4666 
L 1259 0 
L 628 0 
L 628 4666 
z
" transform="scale(0.015625)"/>
        <path id="DejaVuSans-44" d="M 1259 4147 
L 1259 519 
L 2022 519 
Q 2988 519 3436 956 
Q 3884 1394 3884 2338 
Q 3884 3275 3436 3711 
Q 2988 4147 2022 4147 
L 1259 4147 
z
M 628 4666 
L 1925 4666 
Q 3281 4666 3915 4102 
Q 4550 3538 4550 2338 
Q 4550 1131 3912 565 
Q 3275 0 1925 0 
L 628 0 
L 628 4666 
z
" transform="scale(0.015625)"/>
        <path id="DejaVuSans-20" transform="scale(0.015625)"/>
        <path id="DejaVuSans-78" d="M 3513 3500 
L 2247 1797 
L 3578 0 
L 2900 0 
L 1881 1375 
L 863 0 
L 184 0 
L 1544 1831 
L 300 3500 
L 978 3500 
L 1906 2253 
L 2834 3500 
L 3513 3500 
z
" transform="scale(0.015625)"/>
        <path id="DejaVuSans-38" d="M 2034 2216 
Q 1584 2216 1326 1975 
Q 1069 1734 1069 1313 
Q 1069 891 1326 650 
Q 1584 409 2034 409 
Q 2484 409 2743 651 
Q 3003 894 3003 1313 
Q 3003 1734 2745 1975 
Q 2488 2216 2034 2216 
z
M 1403 2484 
Q 997 2584 770 2862 
Q 544 3141 544 3541 
Q 544 4100 942 4425 
Q 1341 4750 2034 4750 
Q 2731 4750 3128 4425 
Q 3525 4100 3525 3541 
Q 3525 3141 3298 2862 
Q 3072 2584 2669 2484 
Q 3125 2378 3379 2068 
Q 3634 1759 3634 1313 
Q 3634 634 3220 271 
Q 2806 -91 2034 -91 
Q 1263 -91 848 271 
Q 434 634 434 1313 
Q 434 1759 690 2068 
Q 947 2378 1403 2484 
z
M 1172 3481 
Q 1172 3119 1398 2916 
Q 1625 2713 2034 2713 
Q 2441 2713 2670 2916 
Q 2900 3119 2900 3481 
Q 2900 3844 2670 4047 
Q 2441 4250 2034 4250 
Q 1625 4250 1398 4047 
Q 1172 3844 1172 3481 
z
" transform="scale(0.015625)"/>
        <path id="DejaVuSans-29" d="M 513 4856 
L 1013 4856 
Q 1481 4119 1714 3412 
Q 1947 2706 1947 2009 
Q 1947 1309 1714 600 
Q 1481 -109 1013 -844 
L 513 -844 
Q 928 -128 1133 580 
Q 1338 1288 1338 2009 
Q 1338 2731 1133 3434 
Q 928 4138 513 4856 
z
" transform="scale(0.015625)"/>
       </defs>
       <use xlink:href="#DejaVuSans-28"/>
       <use xlink:href="#DejaVuSans-53" transform="translate(39.013672 0)"/>
       <use xlink:href="#DejaVuSans-49" transform="translate(102.490234 0)"/>
       <use xlink:href="#DejaVuSans-4d" transform="translate(131.982422 0)"/>
       <use xlink:href="#DejaVuSans-44" transform="translate(218.261719 0)"/>
       <use xlink:href="#DejaVuSans-20" transform="translate(295.263672 0)"/>
       <use xlink:href="#DejaVuSans-78" transform="translate(327.050781 0)"/>
       <use xlink:href="#DejaVuSans-38" transform="translate(386.230469 0)"/>
       <use xlink:href="#DejaVuSans-29" transform="translate(449.853516 0)"/>
      </g>
     </g>
    </g>
    <g id="xtick_3">
     <g id="text_3">
      <!-- Mutable -->
      <g transform="translate(158.012946 276.590438) scale(0.1 -0.1)">
       <defs>
        <path id="DejaVuSans-75" d="M 544 1381 
L 544 3500 
L 1119 3500 
L 1119 1403 
Q 1119 906 1312 657 
Q 1506 409 1894 409 
Q 2359 409 2629 706 
Q 2900 1003 2900 1516 
L 2900 3500 
L 3475 3500 
L 3475 0 
L 2900 0 
L 2900 538 
Q 2691 219 2414 64 
Q 2138 -91 1772 -91 
Q 1169 -91 856 284 
Q 544 659 544 1381 
z
M 1991 3584 
L 1991 3584 
z
" transform="scale(0.015625)"/>
        <path id="DejaVuSans-74" d="M 1172 4494 
L 1172 3500 
L 2356 3500 
L 2356 3053 
L 1172 3053 
L 1172 1153 
Q 1172 725 1289 603 
Q 1406 481 1766 481 
L 2356 481 
L 2356 0 
L 1766 0 
Q 1100 0 847 248 
Q 594 497 594 1153 
L 594 3053 
L 172 3053 
L 172 3500 
L 594 3500 
L 594 4494 
L 1172 4494 
z
" transform="scale(0.015625)"/>
        <path id="DejaVuSans-61" d="M 2194 1759 
Q 1497 1759 1228 1600 
Q 959 1441 959 1056 
Q 959 750 1161 570 
Q 1363 391 1709 391 
Q 2188 391 2477 730 
Q 2766 1069 2766 1631 
L 2766 1759 
L 2194 1759 
z
M 3341 1997 
L 3341 0 
L 2766 0 
L 2766 531 
Q 2569 213 2275 61 
Q 1981 -91 1556 -91 
Q 1019 -91 701 211 
Q 384 513 384 1019 
Q 384 1609 779 1909 
Q 1175 2209 1959 2209 
L 2766 2209 
L 2766 2266 
Q 2766 2663 2505 2880 
Q 2244 3097 1772 3097 
Q 1472 3097 1187 3025 
Q 903 2953 641 2809 
L 641 3341 
Q 956 3463 1253 3523 
Q 1550 3584 1831 3584 
Q 2591 3584 2966 3190 
Q 3341 2797 3341 1997 
z
" transform="scale(0.015625)"/>
        <path id="DejaVuSans-62" d="M 3116 1747 
Q 3116 2381 2855 2742 
Q 2594 3103 2138 3103 
Q 1681 3103 1420 2742 
Q 1159 2381 1159 1747 
Q 1159 1113 1420 752 
Q 1681 391 2138 391 
Q 2594 391 2855 752 
Q 3116 1113 3116 1747 
z
M 1159 2969 
Q 1341 3281 1617 3432 
Q 1894 3584 2278 3584 
Q 2916 3584 3314 3078 
Q 3713 2572 3713 1747 
Q 3713 922 3314 415 
Q 2916 -91 2278 -91 
Q 1894 -91 1617 61 
Q 1341 213 1159 525 
L 1159 0 
L 581 0 
L 581 4863 
L 1159 4863 
L 1159 2969 
z
" transform="scale(0.015625)"/>
        <path id="DejaVuSans-6c" d="M 603 4863 
L 1178 4863 
L 1178 0 
L 603 0 
L 603 4863 
z
" transform="scale(0.015625)"/>
        <path id="DejaVuSans-65" d="M 3597 1894 
L 3597 1613 
L 953 1613 
Q 991 1019 1311 708 
Q 1631 397 2203 397 
Q 2534 397 2845 478 
Q 3156 559 3463 722 
L 3463 178 
Q 3153 47 2828 -22 
Q 2503 -91 2169 -91 
Q 1331 -91 842 396 
Q 353 884 353 1716 
Q 353 2575 817 3079 
Q 1281 3584 2069 3584 
Q 2775 3584 3186 3129 
Q 3597 2675 3597 1894 
z
M 3022 2063 
Q 3016 2534 2758 2815 
Q 2500 3097 2075 3097 
Q 1594 3097 1305 2825 
Q 1016 2553 972 2059 
L 3022 2063 
z
" transform="scale(0.015625)"/>
       </defs>
       <use xlink:href="#DejaVuSans-4d"/>
       <use xlink:href="#DejaVuSans-75" transform="translate(86.279297 0)"/>
       <use xlink:href="#DejaVuSans-74" transform="translate(149.658203 0)"/>
       <use xlink:href="#DejaVuSans-61" transform="translate(188.867188 0)"/>
       <use xlink:href="#DejaVuSans-62" transform="translate(250.146484 0)"/>
       <use xlink:href="#DejaVuSans-6c" transform="translate(313.623047 0)"/>
       <use xlink:href="#DejaVuSans-65" transform="translate(341.40625 0)"/>
      </g>
      <!-- MVT -->
      <g transform="translate(167.37154 287.78825) scale(0.1 -0.1)">
       <use xlink:href="#DejaVuSans-4d"/>
       <use xlink:href="#DejaVuSans-56" transform="translate(86.279297 0)"/>
       <use xlink:href="#DejaVuSans-54" transform="translate(154.6875 0)"/>
      </g>
     </g>
    </g>
    <g id="xtick_4">
     <g id="text_4">
      <!-- Mutable -->
      <g transform="translate(209.554375 276.590438) scale(0.1 -0.1)">
       <use xlink:href="#DejaVuSans-4d"/>
       <use xlink:href="#DejaVuSans-75" transform="translate(86.279297 0)"/>
       <use xlink:href="#DejaVuSans-74" transform="translate(149.658203 0)"/>
       <use xlink:href="#DejaVuSans-61" transform="translate(188.867188 0)"/>
       <use xlink:href="#DejaVuSans-62" transform="translate(250.146484 0)"/>
       <use xlink:href="#DejaVuSans-6c" transform="translate(313.623047 0)"/>
       <use xlink:href="#DejaVuSans-65" transform="translate(341.40625 0)"/>
      </g>
      <!-- MVT -->
      <g transform="translate(218.912969 287.78825) scale(0.1 -0.1)">
       <use xlink:href="#DejaVuSans-4d"/>
       <use xlink:href="#DejaVuSans-56" transform="translate(86.279297 0)"/>
       <use xlink:href="#DejaVuSans-54" transform="translate(154.6875 0)"/>
      </g>
      <!-- (SIMD x8) -->
      <g transform="translate(205.256719 298.986063) scale(0.1 -0.1)">
       <use xlink:href="#DejaVuSans-28"/>
       <use xlink:href="#DejaVuSans-53" transform="translate(39.013672 0)"/>
       <use xlink:href="#DejaVuSans-49" transform="translate(102.490234 0)"/>
       <use xlink:href="#DejaVuSans-4d" transform="translate(131.982422 0)"/>
       <use xlink:href="#DejaVuSans-44" transform="translate(218.261719 0)"/>
       <use xlink:href="#DejaVuSans-20" transform="translate(295.263672 0)"/>
       <use xlink:href="#DejaVuSans-78" transform="translate(327.050781 0)"/>
       <use xlink:href="#DejaVuSans-38" transform="translate(386.230469 0)"/>
       <use xlink:href="#DejaVuSans-29" transform="translate(449.853516 0)"/>
      </g>
     </g>
    </g>
    <g id="xtick_5">
     <g id="text_5">
      <!-- CAPT -->
      <g transform="translate(268.26221 276.590438) scale(0.1 -0.1)">
       <defs>
        <path id="DejaVuSans-43" d="M 4122 4306 
L 4122 3641 
Q 3803 3938 3442 4084 
Q 3081 4231 2675 4231 
Q 1875 4231 1450 3742 
Q 1025 3253 1025 2328 
Q 1025 1406 1450 917 
Q 1875 428 2675 428 
Q 3081 428 3442 575 
Q 3803 722 4122 1019 
L 4122 359 
Q 3791 134 3420 21 
Q 3050 -91 2638 -91 
Q 1578 -91 968 557 
Q 359 1206 359 2328 
Q 359 3453 968 4101 
Q 1578 4750 2638 4750 
Q 3056 4750 3426 4639 
Q 3797 4528 4122 4306 
z
" transform="scale(0.015625)"/>
        <path id="DejaVuSans-41" d="M 2188 4044 
L 1331 1722 
L 3047 1722 
L 2188 4044 
z
M 1831 4666 
L 2547 4666 
L 4325 0 
L 3669 0 
L 3244 1197 
L 1141 1197 
L 716 0 
L 50 0 
L 1831 4666 
z
" transform="scale(0.015625)"/>
        <path id="DejaVuSans-50" d="M 1259 4147 
L 1259 2394 
L 2053 2394 
Q 2494 2394 2734 2622 
Q 2975 2850 2975 3272 
Q 2975 3691 2734 3919 
Q 2494 4147 2053 4147 
L 1259 4147 
z
M 628 4666 
L 2053 4666 
Q 2838 4666 3239 4311 
Q 3641 3956 3641 3272 
Q 3641 2581 3239 2228 
Q 2838 1875 2053 1875 
L 1259 1875 
L 1259 0 
L 628 0 
L 628 4666 
z
" transform="scale(0.015625)"/>
       </defs>
       <use xlink:href="#DejaVuSans-43"/>
       <use xlink:href="#DejaVuSans-41" transform="translate(69.824219 0)"/>
       <use xlink:href="#DejaVuSans-50" transform="translate(138.232422 0)"/>
       <use xlink:href="#DejaVuSans-54" transform="translate(198.535156 0)"/>
      </g>
     </g>
    </g>
    <g id="xtick_6">
     <g id="text_6">
      <!-- CAPT -->
      <g transform="translate(319.803638 276.590438) scale(0.1 -0.1)">
       <use xlink:href="#DejaVuSans-43"/>
       <use xlink:href="#DejaVuSans-41" transform="translate(69.824219 0)"/>
       <use xlink:href="#DejaVuSans-50" transform="translate(138.232422 0)"/>
       <use xlink:href="#DejaVuSans-54" transform="translate(198.535156 0)"/>
      </g>
      <!-- (SIMD x8) -->
      <g transform="translate(308.339576 287.78825) scale(0.1 -0.1)">
       <use xlink:href="#DejaVuSans-28"/>
       <use xlink:href="#DejaVuSans-53" transform="translate(39.013672 0)"/>
       <use xlink:href="#DejaVuSans-49" transform="translate(102.490234 0)"/>
       <use xlink:href="#DejaVuSans-4d" transform="translate(131.982422 0)"/>
       <use xlink:href="#DejaVuSans-44" transform="translate(218.261719 0)"/>
       <use xlink:href="#DejaVuSans-20" transform="translate(295.263672 0)"/>
       <use xlink:href="#DejaVuSans-78" transform="translate(327.050781 0)"/>
       <use xlink:href="#DejaVuSans-38" transform="translate(386.230469 0)"/>
       <use xlink:href="#DejaVuSans-29" transform="translate(449.853516 0)"/>
      </g>
     </g>
    </g>
    <g id="xtick_7">
     <g id="text_7">
      <!-- kiddo -->
      <g transform="translate(370.633348 276.590438) scale(0.1 -0.1)">
       <defs>
        <path id="DejaVuSans-6b" d="M 581 4863 
L 1159 4863 
L 1159 1991 
L 2875 3500 
L 3609 3500 
L 1753 1863 
L 3688 0 
L 2938 0 
L 1159 1709 
L 1159 0 
L 581 0 
L 581 4863 
z
" transform="scale(0.015625)"/>
        <path id="DejaVuSans-69" d="M 603 3500 
L 1178 3500 
L 1178 0 
L 603 0 
L 603 3500 
z
M 603 4863 
L 1178 4863 
L 1178 4134 
L 603 4134 
L 603 4863 
z
" transform="scale(0.015625)"/>
        <path id="DejaVuSans-64" d="M 2906 2969 
L 2906 4863 
L 3481 4863 
L 3481 0 
L 2906 0 
L 2906 525 
Q 2725 213 2448 61 
Q 2172 -91 1784 -91 
Q 1150 -91 751 415 
Q 353 922 353 1747 
Q 353 2572 751 3078 
Q 1150 3584 1784 3584 
Q 2172 3584 2448 3432 
Q 2725 3281 2906 2969 
z
M 947 1747 
Q 947 1113 1208 752 
Q 1469 391 1925 391 
Q 2381 391 2643 752 
Q 2906 1113 2906 1747 
Q 2906 2381 2643 2742 
Q 2381 3103 1925 3103 
Q 1469 3103 1208 2742 
Q 947 2381 947 1747 
z
" transform="scale(0.015625)"/>
        <path id="DejaVuSans-6f" d="M 1959 3097 
Q 1497 3097 1228 2736 
Q 959 2375 959 1747 
Q 959 1119 1226 758 
Q 1494 397 1959 397 
Q 2419 397 2687 759 
Q 2956 1122 2956 1747 
Q 2956 2369 2687 2733 
Q 2419 3097 1959 3097 
z
M 1959 3584 
Q 2709 3584 3137 3096 
Q 3566 2609 3566 1747 
Q 3566 888 3137 398 
Q 2709 -91 1959 -91 
Q 1206 -91 779 398 
Q 353 888 353 1747 
Q 353 2609 779 3096 
Q 1206 3584 1959 3584 
z
" transform="scale(0.015625)"/>
       </defs>
       <use xlink:href="#DejaVuSans-6b"/>
       <use xlink:href="#DejaVuSans-69" transform="translate(57.910156 0)"/>
       <use xlink:href="#DejaVuSans-64" transform="translate(85.693359 0)"/>
       <use xlink:href="#DejaVuSans-64" transform="translate(149.169922 0)"/>
       <use xlink:href="#DejaVuSans-6f" transform="translate(212.646484 0)"/>
      </g>
     </g>
    </g>
   </g>
   <g id="matplotlib.axis_2">
    <g id="ytick_1">
     <g id="line2d_1">
      <defs>
       <path id="mbca4caa8c3" d="M 0 0 
L -3.5 0 
" style="stroke: #000000; stroke-width: 0.8"/>
      </defs>
      <g>
       <use xlink:href="#mbca4caa8c3" x="49.30625" y="251.515091" style="stroke: #000000; stroke-width: 0.8"/>
      </g>
     </g>
     <g id="text_8">
      <!-- 0.183 -->
      <g transform="translate(13.678125 255.31431) scale(0.1 -0.1)">
       <defs>
        <path id="DejaVuSans-30" d="M 2034 4250 
Q 1547 4250 1301 3770 
Q 1056 3291 1056 2328 
Q 1056 1369 1301 889 
Q 1547 409 2034 409 
Q 2525 409 2770 889 
Q 3016 1369 3016 2328 
Q 3016 3291 2770 3770 
Q 2525 4250 2034 4250 
z
M 2034 4750 
Q 2819 4750 3233 4129 
Q 3647 3509 3647 2328 
Q 3647 1150 3233 529 
Q 2819 -91 2034 -91 
Q 1250 -91 836 529 
Q 422 1150 422 2328 
Q 422 3509 836 4129 
Q 1250 4750 2034 4750 
z
" transform="scale(0.015625)"/>
        <path id="DejaVuSans-2e" d="M 684 794 
L 1344 794 
L 1344 0 
L 684 0 
L 684 794 
z
" transform="scale(0.015625)"/>
        <path id="DejaVuSans-31" d="M 794 531 
L 1825 531 
L 1825 4091 
L 703 3866 
L 703 4441 
L 1819 4666 
L 2450 4666 
L 2450 531 
L 3481 531 
L 3481 0 
L 794 0 
L 794 531 
z
" transform="scale(0.015625)"/>
        <path id="DejaVuSans-33" d="M 2597 2516 
Q 3050 2419 3304 2112 
Q 3559 1806 3559 1356 
Q 3559 666 3084 287 
Q 2609 -91 1734 -91 
Q 1441 -91 1130 -33 
Q 819 25 488 141 
L 488 750 
Q 750 597 1062 519 
Q 1375 441 1716 441 
Q 2309 441 2620 675 
Q 2931 909 2931 1356 
Q 2931 1769 2642 2001 
Q 2353 2234 1838 2234 
L 1294 2234 
L 1294 2753 
L 1863 2753 
Q 2328 2753 2575 2939 
Q 2822 3125 2822 3475 
Q 2822 3834 2567 4026 
Q 2313 4219 1838 4219 
Q 1578 4219 1281 4162 
Q 984 4106 628 3988 
L 628 4550 
Q 988 4650 1302 4700 
Q 1616 4750 1894 4750 
Q 2613 4750 3031 4423 
Q 3450 4097 3450 3541 
Q 3450 3153 3228 2886 
Q 3006 2619 2597 2516 
z
" transform="scale(0.015625)"/>
       </defs>
       <use xlink:href="#DejaVuSans-30"/>
       <use xlink:href="#DejaVuSans-2e" transform="translate(63.623047 0)"/>
       <use xlink:href="#DejaVuSans-31" transform="translate(95.410156 0)"/>
       <use xlink:href="#DejaVuSans-38" transform="translate(159.033203 0)"/>
       <use xlink:href="#DejaVuSans-33" transform="translate(222.65625 0)"/>
      </g>
     </g>
    </g>
    <g id="ytick_2">
     <g id="line2d_2">
      <g>
       <use xlink:href="#mbca4caa8c3" x="49.30625" y="197.727323" style="stroke: #000000; stroke-width: 0.8"/>
      </g>
     </g>
     <g id="text_9">
      <!-- $\mathdefault{10^{0}}$ -->
      <g transform="translate(24.70625 201.526542) scale(0.1 -0.1)">
       <use xlink:href="#DejaVuSans-31" transform="translate(0 0.765625)"/>
       <use xlink:href="#DejaVuSans-30" transform="translate(63.623047 0.765625)"/>
       <use xlink:href="#DejaVuSans-30" transform="translate(128.203125 39.046875) scale(0.7)"/>
      </g>
     </g>
    </g>
    <g id="ytick_3">
     <g id="line2d_3">
      <g>
       <use xlink:href="#mbca4caa8c3" x="49.30625" y="124.814845" style="stroke: #000000; stroke-width: 0.8"/>
      </g>
     </g>
     <g id="text_10">
      <!-- $\mathdefault{10^{1}}$ -->
      <g transform="translate(24.70625 128.614063) scale(0.1 -0.1)">
       <use xlink:href="#DejaVuSans-31" transform="translate(0 0.684375)"/>
       <use xlink:href="#DejaVuSans-30" transform="translate(63.623047 0.684375)"/>
       <use xlink:href="#DejaVuSans-31" transform="translate(128.203125 38.965625) scale(0.7)"/>
      </g>
     </g>
    </g>
    <g id="ytick_4">
     <g id="line2d_4">
      <g>
       <use xlink:href="#mbca4caa8c3" x="49.30625" y="51.902366" style="stroke: #000000; stroke-width: 0.8"/>
      </g>
     </g>
     <g id="text_11">
      <!-- $\mathdefault{10^{2}}$ -->
      <g transform="translate(24.70625 55.701585) scale(0.1 -0.1)">
       <defs>
        <path id="DejaVuSans-32" d="M 1228 531 
L 3431 531 
L 3431 0 
L 469 0 
L 469 531 
Q 828 903 1448 1529 
Q 2069 2156 2228 2338 
Q 2531 2678 2651 2914 
Q 2772 3150 2772 3378 
Q 2772 3750 2511 3984 
Q 2250 4219 1831 4219 
Q 1534 4219 1204 4116 
Q 875 4013 500 3803 
L 500 4441 
Q 881 4594 1212 4672 
Q 1544 4750 1819 4750 
Q 2544 4750 2975 4387 
Q 3406 4025 3406 3419 
Q 3406 3131 3298 2873 
Q 3191 2616 2906 2266 
Q 2828 2175 2409 1742 
Q 1991 1309 1228 531 
z
" transform="scale(0.015625)"/>
       </defs>
       <use xlink:href="#DejaVuSans-31" transform="translate(0 0.765625)"/>
       <use xlink:href="#DejaVuSans-30" transform="translate(63.623047 0.765625)"/>
       <use xlink:href="#DejaVuSans-32" transform="translate(128.203125 39.046875) scale(0.7)"/>
      </g>
     </g>
    </g>
    <g id="ytick_5">
     <g id="line2d_5">
      <g>
       <use xlink:href="#mbca4caa8c3" x="49.30625" y="11.976909" style="stroke: #000000; stroke-width: 0.8"/>
      </g>
     </g>
     <g id="text_12">
      <!-- 353 -->
      <g transform="translate(23.21875 15.776128) scale(0.1 -0.1)">
       <defs>
        <path id="DejaVuSans-35" d="M 691 4666 
L 3169 4666 
L 3169 4134 
L 1269 4134 
L 1269 2991 
Q 1406 3038 1543 3061 
Q 1681 3084 1819 3084 
Q 2600 3084 3056 2656 
Q 3513 2228 3513 1497 
Q 3513 744 3044 326 
Q 2575 -91 1722 -91 
Q 1428 -91 1123 -41 
Q 819 9 494 109 
L 494 744 
Q 775 591 1075 516 
Q 1375 441 1709 441 
Q 2250 441 2565 725 
Q 2881 1009 2881 1497 
Q 2881 1984 2565 2268 
Q 2250 2553 1709 2553 
Q 1456 2553 1204 2497 
Q 953 2441 691 2322 
L 691 4666 
z
" transform="scale(0.015625)"/>
       </defs>
       <use xlink:href="#DejaVuSans-33"/>
       <use xlink:href="#DejaVuSans-35" transform="translate(63.623047 0)"/>
       <use xlink:href="#DejaVuSans-33" transform="translate(127.246094 0)"/>
      </g>
     </g>
    </g>
    <g id="ytick_6">
     <g id="line2d_6">
      <defs>
       <path id="m80a296c62b" d="M 0 0 
L -2 0 
" style="stroke: #000000; stroke-width: 0.6"/>
      </defs>
      <g>
       <use xlink:href="#m80a296c62b" x="49.30625" y="248.690958" style="stroke: #000000; stroke-width: 0.6"/>
      </g>
     </g>
    </g>
    <g id="ytick_7">
     <g id="line2d_7">
      <g>
       <use xlink:href="#m80a296c62b" x="49.30625" y="235.851708" style="stroke: #000000; stroke-width: 0.6"/>
      </g>
     </g>
    </g>
    <g id="ytick_8">
     <g id="line2d_8">
      <g>
       <use xlink:href="#m80a296c62b" x="49.30625" y="226.742115" style="stroke: #000000; stroke-width: 0.6"/>
      </g>
     </g>
    </g>
    <g id="ytick_9">
     <g id="line2d_9">
      <g>
       <use xlink:href="#m80a296c62b" x="49.30625" y="219.676166" style="stroke: #000000; stroke-width: 0.6"/>
      </g>
     </g>
    </g>
    <g id="ytick_10">
     <g id="line2d_10">
      <g>
       <use xlink:href="#m80a296c62b" x="49.30625" y="213.902865" style="stroke: #000000; stroke-width: 0.6"/>
      </g>
     </g>
    </g>
    <g id="ytick_11">
     <g id="line2d_11">
      <g>
       <use xlink:href="#m80a296c62b" x="49.30625" y="209.021609" style="stroke: #000000; stroke-width: 0.6"/>
      </g>
     </g>
    </g>
    <g id="ytick_12">
     <g id="line2d_12">
      <g>
       <use xlink:href="#m80a296c62b" x="49.30625" y="204.793272" style="stroke: #000000; stroke-width: 0.6"/>
      </g>
     </g>
    </g>
    <g id="ytick_13">
     <g id="line2d_13">
      <g>
       <use xlink:href="#m80a296c62b" x="49.30625" y="201.063615" style="stroke: #000000; stroke-width: 0.6"/>
      </g>
     </g>
    </g>
    <g id="ytick_14">
     <g id="line2d_14">
      <g>
       <use xlink:href="#m80a296c62b" x="49.30625" y="175.77848" style="stroke: #000000; stroke-width: 0.6"/>
      </g>
     </g>
    </g>
    <g id="ytick_15">
     <g id="line2d_15">
      <g>
       <use xlink:href="#m80a296c62b" x="49.30625" y="162.93923" style="stroke: #000000; stroke-width: 0.6"/>
      </g>
     </g>
    </g>
    <g id="ytick_16">
     <g id="line2d_16">
      <g>
       <use xlink:href="#m80a296c62b" x="49.30625" y="153.829637" style="stroke: #000000; stroke-width: 0.6"/>
      </g>
     </g>
    </g>
    <g id="ytick_17">
     <g id="line2d_17">
      <g>
       <use xlink:href="#m80a296c62b" x="49.30625" y="146.763688" style="stroke: #000000; stroke-width: 0.6"/>
      </g>
     </g>
    </g>
    <g id="ytick_18">
     <g id="line2d_18">
      <g>
       <use xlink:href="#m80a296c62b" x="49.30625" y="140.990387" style="stroke: #000000; stroke-width: 0.6"/>
      </g>
     </g>
    </g>
    <g id="ytick_19">
     <g id="line2d_19">
      <g>
       <use xlink:href="#m80a296c62b" x="49.30625" y="136.10913" style="stroke: #000000; stroke-width: 0.6"/>
      </g>
     </g>
    </g>
    <g id="ytick_20">
     <g id="line2d_20">
      <g>
       <use xlink:href="#m80a296c62b" x="49.30625" y="131.880794" style="stroke: #000000; stroke-width: 0.6"/>
      </g>
     </g>
    </g>
    <g id="ytick_21">
     <g id="line2d_21">
      <g>
       <use xlink:href="#m80a296c62b" x="49.30625" y="128.151137" style="stroke: #000000; stroke-width: 0.6"/>
      </g>
     </g>
    </g>
    <g id="ytick_22">
     <g id="line2d_22">
      <g>
       <use xlink:href="#m80a296c62b" x="49.30625" y="102.866002" style="stroke: #000000; stroke-width: 0.6"/>
      </g>
     </g>
    </g>
    <g id="ytick_23">
     <g id="line2d_23">
      <g>
       <use xlink:href="#m80a296c62b" x="49.30625" y="90.026752" style="stroke: #000000; stroke-width: 0.6"/>
      </g>
     </g>
    </g>
    <g id="ytick_24">
     <g id="line2d_24">
      <g>
       <use xlink:href="#m80a296c62b" x="49.30625" y="80.917159" style="stroke: #000000; stroke-width: 0.6"/>
      </g>
     </g>
    </g>
    <g id="ytick_25">
     <g id="line2d_25">
      <g>
       <use xlink:href="#m80a296c62b" x="49.30625" y="73.851209" style="stroke: #000000; stroke-width: 0.6"/>
      </g>
     </g>
    </g>
    <g id="ytick_26">
     <g id="line2d_26">
      <g>
       <use xlink:href="#m80a296c62b" x="49.30625" y="68.077909" style="stroke: #000000; stroke-width: 0.6"/>
      </g>
     </g>
    </g>
    <g id="ytick_27">
     <g id="line2d_27">
      <g>
       <use xlink:href="#m80a296c62b" x="49.30625" y="63.196652" style="stroke: #000000; stroke-width: 0.6"/>
      </g>
     </g>
    </g>
    <g id="ytick_28">
     <g id="line2d_28">
      <g>
       <use xlink:href="#m80a296c62b" x="49.30625" y="58.968316" style="stroke: #000000; stroke-width: 0.6"/>
      </g>
     </g>
    </g>
    <g id="ytick_29">
     <g id="line2d_29">
      <g>
       <use xlink:href="#m80a296c62b" x="49.30625" y="55.238658" style="stroke: #000000; stroke-width: 0.6"/>
      </g>
     </g>
    </g>
    <g id="ytick_30">
     <g id="line2d_30">
      <g>
       <use xlink:href="#m80a296c62b" x="49.30625" y="29.953523" style="stroke: #000000; stroke-width: 0.6"/>
      </g>
     </g>
    </g>
    <g id="ytick_31">
     <g id="line2d_31">
      <g>
       <use xlink:href="#m80a296c62b" x="49.30625" y="17.114273" style="stroke: #000000; stroke-width: 0.6"/>
      </g>
     </g>
    </g>
    <g id="text_13">
     <!-- Solve Time (Milliseconds) -->
     <g transform="translate(7.598438 195.025688) rotate(-90) scale(0.1 -0.1)">
      <defs>
       <path id="DejaVuSans-76" d="M 191 3500 
L 800 3500 
L 1894 563 
L 2988 3500 
L 3597 3500 
L 2284 0 
L 1503 0 
L 191 3500 
z
" transform="scale(0.015625)"/>
       <path id="DejaVuSans-6d" d="M 3328 2828 
Q 3544 3216 3844 3400 
Q 4144 3584 4550 3584 
Q 5097 3584 5394 3201 
Q 5691 2819 5691 2113 
L 5691 0 
L 5113 0 
L 5113 2094 
Q 5113 2597 4934 2840 
Q 4756 3084 4391 3084 
Q 3944 3084 3684 2787 
Q 3425 2491 3425 1978 
L 3425 0 
L 2847 0 
L 2847 2094 
Q 2847 2600 2669 2842 
Q 2491 3084 2119 3084 
Q 1678 3084 1418 2786 
Q 1159 2488 1159 1978 
L 1159 0 
L 581 0 
L 581 3500 
L 1159 3500 
L 1159 2956 
Q 1356 3278 1631 3431 
Q 1906 3584 2284 3584 
Q 2666 3584 2933 3390 
Q 3200 3197 3328 2828 
z
" transform="scale(0.015625)"/>
       <path id="DejaVuSans-73" d="M 2834 3397 
L 2834 2853 
Q 2591 2978 2328 3040 
Q 2066 3103 1784 3103 
Q 1356 3103 1142 2972 
Q 928 2841 928 2578 
Q 928 2378 1081 2264 
Q 1234 2150 1697 2047 
L 1894 2003 
Q 2506 1872 2764 1633 
Q 3022 1394 3022 966 
Q 3022 478 2636 193 
Q 2250 -91 1575 -91 
Q 1294 -91 989 -36 
Q 684 19 347 128 
L 347 722 
Q 666 556 975 473 
Q 1284 391 1588 391 
Q 1994 391 2212 530 
Q 2431 669 2431 922 
Q 2431 1156 2273 1281 
Q 2116 1406 1581 1522 
L 1381 1569 
Q 847 1681 609 1914 
Q 372 2147 372 2553 
Q 372 3047 722 3315 
Q 1072 3584 1716 3584 
Q 2034 3584 2315 3537 
Q 2597 3491 2834 3397 
z
" transform="scale(0.015625)"/>
       <path id="DejaVuSans-63" d="M 3122 3366 
L 3122 2828 
Q 2878 2963 2633 3030 
Q 2388 3097 2138 3097 
Q 1578 3097 1268 2742 
Q 959 2388 959 1747 
Q 959 1106 1268 751 
Q 1578 397 2138 397 
Q 2388 397 2633 464 
Q 2878 531 3122 666 
L 3122 134 
Q 2881 22 2623 -34 
Q 2366 -91 2075 -91 
Q 1284 -91 818 406 
Q 353 903 353 1747 
Q 353 2603 823 3093 
Q 1294 3584 2113 3584 
Q 2378 3584 2631 3529 
Q 2884 3475 3122 3366 
z
" transform="scale(0.015625)"/>
       <path id="DejaVuSans-6e" d="M 3513 2113 
L 3513 0 
L 2938 0 
L 2938 2094 
Q 2938 2591 2744 2837 
Q 2550 3084 2163 3084 
Q 1697 3084 1428 2787 
Q 1159 2491 1159 1978 
L 1159 0 
L 581 0 
L 581 3500 
L 1159 3500 
L 1159 2956 
Q 1366 3272 1645 3428 
Q 1925 3584 2291 3584 
Q 2894 3584 3203 3211 
Q 3513 2838 3513 2113 
z
" transform="scale(0.015625)"/>
      </defs>
      <use xlink:href="#DejaVuSans-53"/>
      <use xlink:href="#DejaVuSans-6f" transform="translate(63.476562 0)"/>
      <use xlink:href="#DejaVuSans-6c" transform="translate(124.658203 0)"/>
      <use xlink:href="#DejaVuSans-76" transform="translate(152.441406 0)"/>
      <use xlink:href="#DejaVuSans-65" transform="translate(211.621094 0)"/>
      <use xlink:href="#DejaVuSans-20" transform="translate(273.144531 0)"/>
      <use xlink:href="#DejaVuSans-54" transform="translate(304.931641 0)"/>
      <use xlink:href="#DejaVuSans-69" transform="translate(362.890625 0)"/>
      <use xlink:href="#DejaVuSans-6d" transform="translate(390.673828 0)"/>
      <use xlink:href="#DejaVuSans-65" transform="translate(488.085938 0)"/>
      <use xlink:href="#DejaVuSans-20" transform="translate(549.609375 0)"/>
      <use xlink:href="#DejaVuSans-28" transform="translate(581.396484 0)"/>
      <use xlink:href="#DejaVuSans-4d" transform="translate(620.410156 0)"/>
      <use xlink:href="#DejaVuSans-69" transform="translate(706.689453 0)"/>
      <use xlink:href="#DejaVuSans-6c" transform="translate(734.472656 0)"/>
      <use xlink:href="#DejaVuSans-6c" transform="translate(762.255859 0)"/>
      <use xlink:href="#DejaVuSans-69" transform="translate(790.039062 0)"/>
      <use xlink:href="#DejaVuSans-73" transform="translate(817.822266 0)"/>
      <use xlink:href="#DejaVuSans-65" transform="translate(869.921875 0)"/>
      <use xlink:href="#DejaVuSans-63" transform="translate(931.445312 0)"/>
      <use xlink:href="#DejaVuSans-6f" transform="translate(986.425781 0)"/>
      <use xlink:href="#DejaVuSans-6e" transform="translate(1047.607422 0)"/>
      <use xlink:href="#DejaVuSans-64" transform="translate(1110.986328 0)"/>
      <use xlink:href="#DejaVuSans-73" transform="translate(1174.462891 0)"/>
      <use xlink:href="#DejaVuSans-29" transform="translate(1226.5625 0)"/>
     </g>
    </g>
   </g>
   <g id="line2d_32">
    <path d="M 75.076964 213.168573 
L 75.076964 69.435213 
" clip-path="url(#pe1d4a74e84)" style="fill: none; stroke: #2f2f2f; stroke-width: 1.125; stroke-linecap: square"/>
   </g>
   <g id="line2d_33">
    <path d="M 75.076964 171.023364 
L 75.076964 128.874131 
" clip-path="url(#pe1d4a74e84)" style="fill: none; stroke: #2f2f2f; stroke-width: 3.375; stroke-linecap: square"/>
   </g>
   <g id="line2d_34">
    <path d="M 75.076964 151.203201 
" clip-path="url(#pe1d4a74e84)" style="fill: none; stroke: #2f2f2f; stroke-width: 1.5; stroke-linecap: square"/>
    <defs>
     <path id="m9cca8cc2bc" d="M 1.40625 0 
L -1.40625 -0 
" style="stroke: #ffffff; stroke-width: 0.675"/>
    </defs>
    <g clip-path="url(#pe1d4a74e84)">
     <use xlink:href="#m9cca8cc2bc" x="75.076964" y="151.203201" style="fill: #ffffff; stroke: #ffffff; stroke-width: 0.675"/>
    </g>
   </g>
   <g id="line2d_35">
    <path d="M 126.618393 211.371294 
L 126.618393 70.937379 
" clip-path="url(#pe1d4a74e84)" style="fill: none; stroke: #2f2f2f; stroke-width: 1.125; stroke-linecap: square"/>
   </g>
   <g id="line2d_36">
    <path d="M 126.618393 170.302087 
L 126.618393 129.166347 
" clip-path="url(#pe1d4a74e84)" style="fill: none; stroke: #2f2f2f; stroke-width: 3.375; stroke-linecap: square"/>
   </g>
   <g id="line2d_37">
    <path d="M 126.618393 150.795333 
" clip-path="url(#pe1d4a74e84)" style="fill: none; stroke: #2f2f2f; stroke-width: 1.5; stroke-linecap: square"/>
    <g clip-path="url(#pe1d4a74e84)">
     <use xlink:href="#m9cca8cc2bc" x="126.618393" y="150.795333" style="fill: #ffffff; stroke: #ffffff; stroke-width: 0.675"/>
    </g>
   </g>
   <g id="line2d_38">
    <path d="M 178.159821 212.626129 
L 178.159821 67.875043 
" clip-path="url(#pe1d4a74e84)" style="fill: none; stroke: #2f2f2f; stroke-width: 1.125; stroke-linecap: square"/>
   </g>
   <g id="line2d_39">
    <path d="M 178.159821 170.951202 
L 178.159821 127.981065 
" clip-path="url(#pe1d4a74e84)" style="fill: none; stroke: #2f2f2f; stroke-width: 3.375; stroke-linecap: square"/>
   </g>
   <g id="line2d_40">
    <path d="M 178.159821 149.958299 
" clip-path="url(#pe1d4a74e84)" style="fill: none; stroke: #2f2f2f; stroke-width: 1.5; stroke-linecap: square"/>
    <g clip-path="url(#pe1d4a74e84)">
     <use xlink:href="#m9cca8cc2bc" x="178.159821" y="149.958299" style="fill: #ffffff; stroke: #ffffff; stroke-width: 0.675"/>
    </g>
   </g>
   <g id="line2d_41">
    <path d="M 229.70125 209.990405 
L 229.70125 70.792431 
" clip-path="url(#pe1d4a74e84)" style="fill: none; stroke: #2f2f2f; stroke-width: 1.125; stroke-linecap: square"/>
   </g>
   <g id="line2d_42">
    <path d="M 229.70125 171.929701 
L 229.70125 130.834846 
" clip-path="url(#pe1d4a74e84)" style="fill: none; stroke: #2f2f2f; stroke-width: 3.375; stroke-linecap: square"/>
   </g>
   <g id="line2d_43">
    <path d="M 229.70125 154.003606 
" clip-path="url(#pe1d4a74e84)" style="fill: none; stroke: #2f2f2f; stroke-width: 1.5; stroke-linecap: square"/>
    <g clip-path="url(#pe1d4a74e84)">
     <use xlink:href="#m9cca8cc2bc" x="229.70125" y="154.003606" style="fill: #ffffff; stroke: #ffffff; stroke-width: 0.675"/>
    </g>
   </g>
   <g id="line2d_44">
    <path d="M 281.242679 147.410784 
L 281.242679 11.976909 
" clip-path="url(#pe1d4a74e84)" style="fill: none; stroke: #2f2f2f; stroke-width: 1.125; stroke-linecap: square"/>
   </g>
   <g id="line2d_45">
    <path d="M 281.242679 107.622303 
L 281.242679 68.799014 
" clip-path="url(#pe1d4a74e84)" style="fill: none; stroke: #2f2f2f; stroke-width: 3.375; stroke-linecap: square"/>
   </g>
   <g id="line2d_46">
    <path d="M 281.242679 89.913988 
" clip-path="url(#pe1d4a74e84)" style="fill: none; stroke: #2f2f2f; stroke-width: 1.5; stroke-linecap: square"/>
    <g clip-path="url(#pe1d4a74e84)">
     <use xlink:href="#m9cca8cc2bc" x="281.242679" y="89.913988" style="fill: #ffffff; stroke: #ffffff; stroke-width: 0.675"/>
    </g>
   </g>
   <g id="line2d_47">
    <path d="M 332.784107 160.670995 
L 332.784107 12.538864 
" clip-path="url(#pe1d4a74e84)" style="fill: none; stroke: #2f2f2f; stroke-width: 1.125; stroke-linecap: square"/>
   </g>
   <g id="line2d_48">
    <path d="M 332.784107 109.357231 
L 332.784107 67.724121 
" clip-path="url(#pe1d4a74e84)" style="fill: none; stroke: #2f2f2f; stroke-width: 3.375; stroke-linecap: square"/>
   </g>
   <g id="line2d_49">
    <path d="M 332.784107 91.75619 
" clip-path="url(#pe1d4a74e84)" style="fill: none; stroke: #2f2f2f; stroke-width: 1.5; stroke-linecap: square"/>
    <g clip-path="url(#pe1d4a74e84)">
     <use xlink:href="#m9cca8cc2bc" x="332.784107" y="91.75619" style="fill: #ffffff; stroke: #ffffff; stroke-width: 0.675"/>
    </g>
   </g>
   <g id="line2d_50">
    <path d="M 384.325536 160.295352 
L 384.325536 44.623422 
" clip-path="url(#pe1d4a74e84)" style="fill: none; stroke: #2f2f2f; stroke-width: 1.125; stroke-linecap: square"/>
   </g>
   <g id="line2d_51">
    <path d="M 384.325536 130.134515 
L 384.325536 93.582625 
" clip-path="url(#pe1d4a74e84)" style="fill: none; stroke: #2f2f2f; stroke-width: 3.375; stroke-linecap: square"/>
   </g>
   <g id="line2d_52">
    <path d="M 384.325536 112.839349 
" clip-path="url(#pe1d4a74e84)" style="fill: none; stroke: #2f2f2f; stroke-width: 1.5; stroke-linecap: square"/>
    <g clip-path="url(#pe1d4a74e84)">
     <use xlink:href="#m9cca8cc2bc" x="384.325536" y="112.839349" style="fill: #ffffff; stroke: #ffffff; stroke-width: 0.675"/>
    </g>
   </g>
   <g id="patch_3">
    <path d="M 49.30625 251.515091 
L 49.30625 11.976909 
" style="fill: none; stroke: #000000; stroke-width: 0.8; stroke-linejoin: miter; stroke-linecap: square"/>
   </g>
  </g>
 </g>
 <defs>
  <clipPath id="pe1d4a74e84">
   <rect x="49.30625" y="0" width="360.79" height="263.492"/>
  </clipPath>
 </defs>
</svg>
