<?xml version="1.0" encoding="utf-8" standalone="no"?>
<!DOCTYPE svg PUBLIC "-//W3C//DTD SVG 1.1//EN"
  "http://www.w3.org/Graphics/SVG/1.1/DTD/svg11.dtd">
<svg xmlns:xlink="http://www.w3.org/1999/xlink" width="561.47625pt" height="301.06575pt" viewBox="0 0 561.47625 301.06575" xmlns="http://www.w3.org/2000/svg" version="1.1">
 <metadata>
  <rdf:RDF xmlns:dc="http://purl.org/dc/elements/1.1/" xmlns:cc="http://creativecommons.org/ns#" xmlns:rdf="http://www.w3.org/1999/02/22-rdf-syntax-ns#">
   <cc:Work>
    <dc:type rdf:resource="http://purl.org/dc/dcmitype/StillImage"/>
    <dc:date>2026-07-21T11:08:37.183938</dc:date>
    <dc:format>image/svg+xml</dc:format>
    <dc:creator>
     <cc:Agent>
      <dc:title>Matplotlib v3.10.8, https://matplotlib.org/</dc:title>
     </cc:Agent>
    </dc:creator>
   </cc:Work>
  </rdf:RDF>
 </metadata>
 <defs>
  <style type="text/css">*{stroke-linejoin: round; stroke-linecap: butt}</style>
 </defs>
 <g id="figure_1">
  <g id="patch_1">
   <path d="M 0 301.06575 
L 561.47625 301.06575 
L 561.47625 0 
L 0 0 
L 0 301.06575 
z
" style="fill: none"/>
  </g>
  <g id="axes_1">
   <g id="patch_2">
    <path d="M 37.30625 263.492 
L 561.47625 263.492 
L 561.47625 0 
L 37.30625 0 
L 37.30625 263.492 
z
" style="fill: none"/>
   </g>
   <g id="FillBetweenPolyCollection_1">
    <defs>
     <path id="m2c18ba306a" d="M 67.10774 -54.24826 
L 65.745871 -54.24826 
L 65.713326 -56.246751 
L 65.679029 -58.245242 
L 65.638518 -60.243734 
L 65.586274 -62.242225 
L 65.515941 -64.240716 
L 65.420612 -66.239208 
L 65.293166 -68.237699 
L 65.126643 -70.23619 
L 64.914611 -72.234682 
L 64.651517 -74.233173 
L 64.332997 -76.231665 
L 63.956114 -78.230156 
L 63.519531 -80.228647 
L 63.023575 -82.227139 
L 62.470204 -84.22563 
L 61.862846 -86.224121 
L 61.206135 -88.222613 
L 60.50553 -90.221104 
L 59.766847 -92.219595 
L 58.995757 -94.218087 
L 58.19728 -96.216578 
L 57.375357 -98.215069 
L 56.532558 -100.213561 
L 55.669998 -102.212052 
L 54.787486 -104.210543 
L 53.883932 -106.209035 
L 52.957985 -108.207526 
L 52.008824 -110.206017 
L 51.037013 -112.204509 
L 50.045286 -114.203 
L 49.039134 -116.201492 
L 48.027089 -118.199983 
L 47.020631 -120.198474 
L 46.033703 -122.196966 
L 45.081889 -124.195457 
L 44.181357 -126.193948 
L 43.347732 -128.19244 
L 42.595039 -130.190931 
L 41.934895 -132.189422 
L 41.376029 -134.187914 
L 40.924191 -136.186405 
L 40.582411 -138.184896 
L 40.35151 -140.183388 
L 40.230727 -142.181879 
L 40.218306 -144.18037 
L 40.3119 -146.178862 
L 40.508719 -148.177353 
L 40.805376 -150.175845 
L 41.197499 -152.174336 
L 41.679203 -154.172827 
L 42.242566 -156.171319 
L 42.877257 -158.16981 
L 43.570448 -160.168301 
L 44.307082 -162.166793 
L 45.070519 -164.165284 
L 45.843501 -166.163775 
L 46.609336 -168.162267 
L 47.35315 -170.160758 
L 48.063042 -172.159249 
L 48.730994 -174.157741 
L 49.353409 -176.156232 
L 49.931206 -178.154723 
L 50.469465 -180.153215 
L 50.976666 -182.151706 
L 51.463616 -184.150197 
L 51.942208 -186.148689 
L 52.424142 -188.14718 
L 52.91976 -190.145672 
L 53.437108 -192.144163 
L 53.981295 -194.142654 
L 54.554175 -196.141146 
L 55.154348 -198.139637 
L 55.777439 -200.138128 
L 56.416565 -202.13662 
L 57.062957 -204.135111 
L 57.706641 -206.133602 
L 58.337145 -208.132094 
L 58.944184 -210.130585 
L 59.518304 -212.129076 
L 60.051458 -214.127568 
L 60.537488 -216.126059 
L 60.972496 -218.12455 
L 61.355076 -220.123042 
L 61.686369 -222.121533 
L 61.969946 -224.120024 
L 62.21149 -226.118516 
L 62.418324 -228.117007 
L 62.598802 -230.115499 
L 62.761633 -232.11399 
L 62.915204 -234.112481 
L 63.066964 -236.110973 
L 63.222945 -238.109464 
L 63.38744 -240.107955 
L 63.562876 -242.106447 
L 63.749867 -244.104938 
L 63.947412 -246.103429 
L 64.153216 -248.101921 
L 64.364067 -250.100412 
L 64.576223 -252.098903 
L 68.277388 -252.098903 
L 68.277388 -252.098903 
L 68.489544 -250.100412 
L 68.700395 -248.101921 
L 68.906199 -246.103429 
L 69.103744 -244.104938 
L 69.290735 -242.106447 
L 69.466171 -240.107955 
L 69.630666 -238.109464 
L 69.786647 -236.110973 
L 69.938407 -234.112481 
L 70.091978 -232.11399 
L 70.254809 -230.115499 
L 70.435287 -228.117007 
L 70.642121 -226.118516 
L 70.883665 -224.120024 
L 71.167242 -222.121533 
L 71.498535 -220.123042 
L 71.881115 -218.12455 
L 72.316123 -216.126059 
L 72.802153 -214.127568 
L 73.335307 -212.129076 
L 73.909428 -210.130585 
L 74.516466 -208.132094 
L 75.14697 -206.133602 
L 75.790654 -204.135111 
L 76.437046 -202.13662 
L 77.076173 -200.138128 
L 77.699263 -198.139637 
L 78.299437 -196.141146 
L 78.872316 -194.142654 
L 79.416503 -192.144163 
L 79.933852 -190.145672 
L 80.429469 -188.14718 
L 80.911403 -186.148689 
L 81.389995 -184.150197 
L 81.876946 -182.151706 
L 82.384146 -180.153215 
L 82.922405 -178.154723 
L 83.500202 -176.156232 
L 84.122617 -174.157741 
L 84.790569 -172.159249 
L 85.500461 -170.160758 
L 86.244275 -168.162267 
L 87.01011 -166.163775 
L 87.783092 -164.165284 
L 88.546529 -162.166793 
L 89.283163 -160.168301 
L 89.976354 -158.16981 
L 90.611045 -156.171319 
L 91.174408 -154.172827 
L 91.656112 -152.174336 
L 92.048236 -150.175845 
L 92.344892 -148.177353 
L 92.541711 -146.178862 
L 92.635306 -144.18037 
L 92.622884 -142.181879 
L 92.502101 -140.183388 
L 92.2712 -138.184896 
L 91.92942 -136.186405 
L 91.477582 -134.187914 
L 90.918716 -132.189422 
L 90.258572 -130.190931 
L 89.50588 -128.19244 
L 88.672254 -126.193948 
L 87.771723 -124.195457 
L 86.819908 -122.196966 
L 85.83298 -120.198474 
L 84.826522 -118.199983 
L 83.814478 -116.201492 
L 82.808325 -114.203 
L 81.816598 -112.204509 
L 80.844787 -110.206017 
L 79.895626 -108.207526 
L 78.969679 -106.209035 
L 78.066125 -104.210543 
L 77.183613 -102.212052 
L 76.321053 -100.213561 
L 75.478254 -98.215069 
L 74.656331 -96.216578 
L 73.857854 -94.218087 
L 73.086764 -92.219595 
L 72.348081 -90.221104 
L 71.647476 -88.222613 
L 70.990765 -86.224121 
L 70.383407 -84.22563 
L 69.830036 -82.227139 
L 69.33408 -80.228647 
L 68.897497 -78.230156 
L 68.520614 -76.231665 
L 68.202094 -74.233173 
L 67.939 -72.234682 
L 67.726969 -70.23619 
L 67.560445 -68.237699 
L 67.433 -66.239208 
L 67.33767 -64.240716 
L 67.267337 -62.242225 
L 67.215093 -60.243734 
L 67.174582 -58.245242 
L 67.140285 -56.246751 
L 67.10774 -54.24826 
z
" style="stroke: #2f2f2f; stroke-width: 0.75"/>
    </defs>
    <g clip-path="url(#p367e5a2643)">
     <use xlink:href="#m2c18ba306a" x="0" y="301.06575" style="fill: #4e5ba6; stroke: #2f2f2f; stroke-width: 0.75"/>
    </g>
   </g>
   <g id="FillBetweenPolyCollection_2">
    <defs>
     <path id="mbedaf3db1f" d="M 125.289822 -49.550659 
L 124.046011 -49.550659 
L 124.035798 -51.593741 
L 124.030524 -53.636823 
L 124.026605 -55.679904 
L 124.019282 -57.722986 
L 124.002791 -59.766068 
L 123.970605 -61.80915 
L 123.915745 -63.852232 
L 123.831126 -65.895313 
L 123.709922 -67.938395 
L 123.545935 -69.981477 
L 123.333944 -72.024559 
L 123.070004 -74.06764 
L 122.751692 -76.110722 
L 122.37827 -78.153804 
L 121.950732 -80.196886 
L 121.471744 -82.239968 
L 120.945439 -84.283049 
L 120.377085 -86.326131 
L 119.772615 -88.369213 
L 119.138074 -90.412295 
L 118.478987 -92.455377 
L 117.799741 -94.498458 
L 117.103015 -96.54154 
L 116.389361 -98.584622 
L 115.656997 -100.627704 
L 114.901882 -102.670785 
L 114.118105 -104.713867 
L 113.298622 -106.756949 
L 112.436278 -108.800031 
L 111.525046 -110.843113 
L 110.561357 -112.886194 
L 109.545339 -114.929276 
L 108.481807 -116.972358 
L 107.380821 -119.01544 
L 106.257689 -121.058521 
L 105.132367 -123.101603 
L 104.028276 -125.144685 
L 102.970653 -127.187767 
L 101.984646 -129.230849 
L 101.093389 -131.27393 
L 100.316313 -133.317012 
L 99.667906 -135.360094 
L 99.157082 -137.403176 
L 98.787174 -139.446258 
L 98.556513 -141.489339 
L 98.459417 -143.532421 
L 98.487384 -145.575503 
L 98.630266 -147.618585 
L 98.877219 -149.661666 
L 99.217318 -151.704748 
L 99.639795 -153.74783 
L 100.133965 -155.790912 
L 100.688951 -157.833994 
L 101.293385 -159.877075 
L 101.935231 -161.920157 
L 102.601841 -163.963239 
L 103.28032 -166.006321 
L 103.958161 -168.049402 
L 104.624076 -170.092484 
L 105.268895 -172.135566 
L 105.886377 -174.178648 
L 106.473796 -176.22173 
L 107.032187 -178.264811 
L 107.566194 -180.307893 
L 108.083525 -182.350975 
L 108.594053 -184.394057 
L 109.108695 -186.437138 
L 109.638173 -188.48022 
L 110.191829 -190.523302 
L 110.776602 -192.566384 
L 111.396288 -194.609466 
L 112.051135 -196.652547 
L 112.737799 -198.695629 
L 113.449624 -200.738711 
L 114.177196 -202.781793 
L 114.909108 -204.824875 
L 115.632823 -206.867956 
L 116.335591 -208.911038 
L 117.005334 -210.95412 
L 117.631446 -212.997202 
L 118.205465 -215.040283 
L 118.721588 -217.083365 
L 119.176986 -219.126447 
L 119.571913 -221.169529 
L 119.909585 -223.212611 
L 120.195845 -225.255692 
L 120.438626 -227.298774 
L 120.647262 -229.341856 
L 120.831716 -231.384938 
L 121.001781 -233.428019 
L 121.166349 -235.471101 
L 121.332815 -237.514183 
L 121.506654 -239.557265 
L 121.691228 -241.600347 
L 121.887786 -243.643428 
L 122.09567 -245.68651 
L 122.312646 -247.729592 
L 122.535339 -249.772674 
L 122.759682 -251.815756 
L 126.576151 -251.815756 
L 126.576151 -251.815756 
L 126.800495 -249.772674 
L 127.023187 -247.729592 
L 127.240163 -245.68651 
L 127.448047 -243.643428 
L 127.644606 -241.600347 
L 127.829179 -239.557265 
L 128.003019 -237.514183 
L 128.169484 -235.471101 
L 128.334053 -233.428019 
L 128.504117 -231.384938 
L 128.688571 -229.341856 
L 128.897208 -227.298774 
L 129.139988 -225.255692 
L 129.426248 -223.212611 
L 129.763921 -221.169529 
L 130.158848 -219.126447 
L 130.614246 -217.083365 
L 131.130368 -215.040283 
L 131.704387 -212.997202 
L 132.330499 -210.95412 
L 133.000242 -208.911038 
L 133.703011 -206.867956 
L 134.426725 -204.824875 
L 135.158637 -202.781793 
L 135.88621 -200.738711 
L 136.598034 -198.695629 
L 137.284698 -196.652547 
L 137.939546 -194.609466 
L 138.559231 -192.566384 
L 139.144004 -190.523302 
L 139.69766 -188.48022 
L 140.227139 -186.437138 
L 140.74178 -184.394057 
L 141.252308 -182.350975 
L 141.769639 -180.307893 
L 142.303647 -178.264811 
L 142.862038 -176.22173 
L 143.449457 -174.178648 
L 144.066939 -172.135566 
L 144.711757 -170.092484 
L 145.377672 -168.049402 
L 146.055513 -166.006321 
L 146.733993 -163.963239 
L 147.400603 -161.920157 
L 148.042448 -159.877075 
L 148.646883 -157.833994 
L 149.201869 -155.790912 
L 149.696038 -153.74783 
L 150.118516 -151.704748 
L 150.458614 -149.661666 
L 150.705567 -147.618585 
L 150.848449 -145.575503 
L 150.876417 -143.532421 
L 150.77932 -141.489339 
L 150.548659 -139.446258 
L 150.178751 -137.403176 
L 149.667927 -135.360094 
L 149.019521 -133.317012 
L 148.242444 -131.27393 
L 147.351188 -129.230849 
L 146.365181 -127.187767 
L 145.307557 -125.144685 
L 144.203466 -123.101603 
L 143.078145 -121.058521 
L 141.955013 -119.01544 
L 140.854026 -116.972358 
L 139.790494 -114.929276 
L 138.774476 -112.886194 
L 137.810787 -110.843113 
L 136.899556 -108.800031 
L 136.037212 -106.756949 
L 135.217729 -104.713867 
L 134.433952 -102.670785 
L 133.678836 -100.627704 
L 132.946473 -98.584622 
L 132.232819 -96.54154 
L 131.536092 -94.498458 
L 130.856846 -92.455377 
L 130.19776 -90.412295 
L 129.563218 -88.369213 
L 128.958749 -86.326131 
L 128.390394 -84.283049 
L 127.86409 -82.239968 
L 127.385102 -80.196886 
L 126.957564 -78.153804 
L 126.584141 -76.110722 
L 126.26583 -74.06764 
L 126.001889 -72.024559 
L 125.789898 -69.981477 
L 125.625912 -67.938395 
L 125.504708 -65.895313 
L 125.420088 -63.852232 
L 125.365229 -61.80915 
L 125.333043 -59.766068 
L 125.316551 -57.722986 
L 125.309228 -55.679904 
L 125.305309 -53.636823 
L 125.300036 -51.593741 
L 125.289822 -49.550659 
z
" style="stroke: #2f2f2f; stroke-width: 0.75"/>
    </defs>
    <g clip-path="url(#p367e5a2643)">
     <use xlink:href="#mbedaf3db1f" x="0" y="301.06575" style="fill: #afb5d7; stroke: #2f2f2f; stroke-width: 0.75"/>
    </g>
   </g>
   <g id="FillBetweenPolyCollection_3">
    <defs>
     <path id="m4e02b7dfec" d="M 183.587368 -55.355322 
L 182.230688 -55.355322 
L 182.199948 -57.355336 
L 182.167538 -59.355351 
L 182.128767 -61.355365 
L 182.07783 -63.35538 
L 182.008046 -65.355395 
L 181.912172 -67.355409 
L 181.782789 -69.355424 
L 181.612707 -71.355438 
L 181.395387 -73.355453 
L 181.125313 -75.355467 
L 180.798312 -77.355482 
L 180.411787 -79.355496 
L 179.964838 -81.355511 
L 179.458268 -83.355525 
L 178.894454 -85.35554 
L 178.277114 -87.355554 
L 177.610958 -89.355569 
L 176.901272 -91.355584 
L 176.153468 -93.355598 
L 175.372638 -95.355613 
L 174.563179 -97.355627 
L 173.728531 -99.355642 
L 172.871067 -101.355656 
L 171.992173 -103.355671 
L 171.09251 -105.355685 
L 170.17245 -107.3557 
L 169.23262 -109.355714 
L 168.274498 -111.355729 
L 167.300959 -113.355743 
L 166.316696 -115.355758 
L 165.328434 -117.355773 
L 164.344891 -119.355787 
L 163.376491 -121.355802 
L 162.434852 -123.355816 
L 161.532128 -125.355831 
L 160.680316 -127.355845 
L 159.890621 -129.35586 
L 159.172976 -131.355874 
L 158.53578 -133.355889 
L 157.985866 -135.355903 
L 157.528656 -137.355918 
L 157.168427 -139.355932 
L 156.908599 -141.355947 
L 156.751928 -143.355961 
L 156.700528 -145.355976 
L 156.755691 -147.355991 
L 156.917518 -149.356005 
L 157.184404 -151.35602 
L 157.552511 -153.356034 
L 158.015316 -155.356049 
L 158.563364 -157.356063 
L 159.184308 -159.356078 
L 159.863281 -161.356092 
L 160.583579 -163.356107 
L 161.327627 -165.356121 
L 162.078098 -167.356136 
L 162.819089 -169.35615 
L 163.537213 -171.356165 
L 164.222491 -173.35618 
L 164.868952 -175.356194 
L 165.474868 -177.356209 
L 166.042609 -179.356223 
L 166.578135 -181.356238 
L 167.090178 -183.356252 
L 167.58921 -185.356267 
L 168.086294 -187.356281 
L 168.591959 -189.356296 
L 169.115174 -191.35631 
L 169.662557 -193.356325 
L 170.237833 -195.356339 
L 170.841598 -197.356354 
L 171.471367 -199.356369 
L 172.121865 -201.356383 
L 172.785515 -203.356398 
L 173.453051 -205.356412 
L 174.114208 -207.356427 
L 174.75843 -209.356441 
L 175.375559 -211.356456 
L 175.956482 -213.35647 
L 176.493689 -215.356485 
L 176.981735 -217.356499 
L 177.417567 -219.356514 
L 177.800684 -221.356528 
L 178.133123 -223.356543 
L 178.419247 -225.356558 
L 178.66535 -227.356572 
L 178.879111 -229.356587 
L 179.068942 -231.356601 
L 179.243301 -233.356616 
L 179.410044 -235.35663 
L 179.575864 -237.356645 
L 179.745906 -239.356659 
L 179.923546 -241.356674 
L 180.110366 -243.356688 
L 180.3063 -245.356703 
L 180.509895 -247.356717 
L 180.718666 -249.356732 
L 180.929469 -251.356747 
L 181.13886 -253.356761 
L 184.679196 -253.356761 
L 184.679196 -253.356761 
L 184.888587 -251.356747 
L 185.09939 -249.356732 
L 185.308161 -247.356717 
L 185.511756 -245.356703 
L 185.707689 -243.356688 
L 185.89451 -241.356674 
L 186.072149 -239.356659 
L 186.242191 -237.356645 
L 186.408012 -235.35663 
L 186.574754 -233.356616 
L 186.749114 -231.356601 
L 186.938945 -229.356587 
L 187.152705 -227.356572 
L 187.398809 -225.356558 
L 187.684933 -223.356543 
L 188.017372 -221.356528 
L 188.400489 -219.356514 
L 188.83632 -217.356499 
L 189.324367 -215.356485 
L 189.861574 -213.35647 
L 190.442496 -211.356456 
L 191.059626 -209.356441 
L 191.703847 -207.356427 
L 192.365004 -205.356412 
L 193.03254 -203.356398 
L 193.69619 -201.356383 
L 194.346688 -199.356369 
L 194.976457 -197.356354 
L 195.580222 -195.356339 
L 196.155498 -193.356325 
L 196.702881 -191.35631 
L 197.226097 -189.356296 
L 197.731761 -187.356281 
L 198.228846 -185.356267 
L 198.727877 -183.356252 
L 199.239921 -181.356238 
L 199.775447 -179.356223 
L 200.343188 -177.356209 
L 200.949104 -175.356194 
L 201.595565 -173.35618 
L 202.280843 -171.356165 
L 202.998966 -169.35615 
L 203.739957 -167.356136 
L 204.490428 -165.356121 
L 205.234477 -163.356107 
L 205.954775 -161.356092 
L 206.633747 -159.356078 
L 207.254692 -157.356063 
L 207.80274 -155.356049 
L 208.265545 -153.356034 
L 208.633652 -151.35602 
L 208.900538 -149.356005 
L 209.062364 -147.355991 
L 209.117528 -145.355976 
L 209.066127 -143.355961 
L 208.909456 -141.355947 
L 208.649629 -139.355932 
L 208.2894 -137.355918 
L 207.832189 -135.355903 
L 207.282276 -133.355889 
L 206.64508 -131.355874 
L 205.927434 -129.35586 
L 205.137739 -127.355845 
L 204.285928 -125.355831 
L 203.383204 -123.355816 
L 202.441564 -121.355802 
L 201.473165 -119.355787 
L 200.489622 -117.355773 
L 199.501359 -115.355758 
L 198.517096 -113.355743 
L 197.543557 -111.355729 
L 196.585435 -109.355714 
L 195.645606 -107.3557 
L 194.725546 -105.355685 
L 193.825883 -103.355671 
L 192.946988 -101.355656 
L 192.089524 -99.355642 
L 191.254876 -97.355627 
L 190.445418 -95.355613 
L 189.664588 -93.355598 
L 188.916784 -91.355584 
L 188.207098 -89.355569 
L 187.540942 -87.355554 
L 186.923601 -85.35554 
L 186.359788 -83.355525 
L 185.853217 -81.355511 
L 185.406269 -79.355496 
L 185.019744 -77.355482 
L 184.692743 -75.355467 
L 184.422668 -73.355453 
L 184.205348 -71.355438 
L 184.035267 -69.355424 
L 183.905883 -67.355409 
L 183.810009 -65.355395 
L 183.740225 -63.35538 
L 183.689289 -61.355365 
L 183.650518 -59.355351 
L 183.618108 -57.355336 
L 183.587368 -55.355322 
z
" style="stroke: #2f2f2f; stroke-width: 0.75"/>
    </defs>
    <g clip-path="url(#p367e5a2643)">
     <use xlink:href="#m4e02b7dfec" x="0" y="301.06575" style="fill: #ca4f47; stroke: #2f2f2f; stroke-width: 0.75"/>
    </g>
   </g>
   <g id="FillBetweenPolyCollection_4">
    <defs>
     <path id="m24118121c9" d="M 241.934757 -58.378594 
L 240.365521 -58.378594 
L 240.295505 -60.356003 
L 240.214389 -62.333412 
L 240.116841 -64.310821 
L 239.996861 -66.28823 
L 239.848137 -68.265639 
L 239.664466 -70.243048 
L 239.44018 -72.220457 
L 239.170555 -74.197866 
L 238.852125 -76.175275 
L 238.482895 -78.152684 
L 238.062401 -80.130092 
L 237.591625 -82.107501 
L 237.072757 -84.08491 
L 236.508846 -86.062319 
L 235.903359 -88.039728 
L 235.259707 -90.017137 
L 234.580791 -91.994546 
L 233.868618 -93.971955 
L 233.124043 -95.949364 
L 232.346679 -97.926773 
L 231.535007 -99.904182 
L 230.686689 -101.881591 
L 229.799091 -103.859 
L 228.869972 -105.836408 
L 227.898284 -107.813817 
L 226.884994 -109.791226 
L 225.833836 -111.768635 
L 224.751875 -113.746044 
L 223.649791 -115.723453 
L 222.541793 -117.700862 
L 221.445149 -119.678271 
L 220.379323 -121.65568 
L 219.36482 -123.633089 
L 218.421845 -125.610498 
L 217.568947 -127.587907 
L 216.821815 -129.565316 
L 216.192383 -131.542724 
L 215.688351 -133.520133 
L 215.313159 -135.497542 
L 215.066388 -137.474951 
L 214.944481 -139.45236 
L 214.941639 -141.429769 
L 215.050713 -143.407178 
L 215.263949 -145.384587 
L 215.573453 -147.361996 
L 215.971349 -149.339405 
L 216.449625 -151.316814 
L 216.99978 -153.294223 
L 217.612382 -155.271632 
L 218.276693 -157.249041 
L 218.980496 -159.226449 
L 219.710209 -161.203858 
L 220.451328 -163.181267 
L 221.189174 -165.158676 
L 221.909857 -167.136085 
L 222.601325 -169.113494 
L 223.254359 -171.090903 
L 223.863353 -173.068312 
L 224.426782 -175.045721 
L 224.947263 -177.02313 
L 225.431201 -179.000539 
L 225.888053 -180.977948 
L 226.329301 -182.955357 
L 226.767251 -184.932765 
L 227.213803 -186.910174 
L 227.679324 -188.887583 
L 228.171734 -190.864992 
L 228.695888 -192.842401 
L 229.253276 -194.81981 
L 229.842048 -196.797219 
L 230.457309 -198.774628 
L 231.091629 -200.752037 
L 231.735696 -202.729446 
L 232.379043 -204.706855 
L 233.010793 -206.684264 
L 233.620373 -208.661673 
L 234.19817 -210.639082 
L 234.736097 -212.61649 
L 235.228046 -214.593899 
L 235.670217 -216.571308 
L 236.061285 -218.548717 
L 236.402405 -220.526126 
L 236.697033 -222.503535 
L 236.950584 -224.480944 
L 237.169937 -226.458353 
L 237.362835 -228.435762 
L 237.537244 -230.413171 
L 237.700723 -232.39058 
L 237.859886 -234.367989 
L 238.019987 -236.345398 
L 238.18469 -238.322806 
L 238.35601 -240.300215 
L 238.534427 -242.277624 
L 238.719124 -244.255033 
L 238.90832 -246.232442 
L 239.099619 -248.209851 
L 239.290352 -250.18726 
L 239.477856 -252.164669 
L 239.659683 -254.142078 
L 242.640595 -254.142078 
L 242.640595 -254.142078 
L 242.822422 -252.164669 
L 243.009926 -250.18726 
L 243.200658 -248.209851 
L 243.391958 -246.232442 
L 243.581154 -244.255033 
L 243.765851 -242.277624 
L 243.944268 -240.300215 
L 244.115588 -238.322806 
L 244.280291 -236.345398 
L 244.440392 -234.367989 
L 244.599554 -232.39058 
L 244.763034 -230.413171 
L 244.937443 -228.435762 
L 245.130341 -226.458353 
L 245.349693 -224.480944 
L 245.603245 -222.503535 
L 245.897873 -220.526126 
L 246.238993 -218.548717 
L 246.630061 -216.571308 
L 247.072232 -214.593899 
L 247.564181 -212.61649 
L 248.102107 -210.639082 
L 248.679905 -208.661673 
L 249.289485 -206.684264 
L 249.921235 -204.706855 
L 250.564582 -202.729446 
L 251.208649 -200.752037 
L 251.842969 -198.774628 
L 252.45823 -196.797219 
L 253.047002 -194.81981 
L 253.60439 -192.842401 
L 254.128544 -190.864992 
L 254.620954 -188.887583 
L 255.086475 -186.910174 
L 255.533027 -184.932765 
L 255.970977 -182.955357 
L 256.412225 -180.977948 
L 256.869077 -179.000539 
L 257.353015 -177.02313 
L 257.873496 -175.045721 
L 258.436925 -173.068312 
L 259.045919 -171.090903 
L 259.698952 -169.113494 
L 260.390421 -167.136085 
L 261.111104 -165.158676 
L 261.84895 -163.181267 
L 262.590069 -161.203858 
L 263.319781 -159.226449 
L 264.023585 -157.249041 
L 264.687896 -155.271632 
L 265.300498 -153.294223 
L 265.850652 -151.316814 
L 266.328928 -149.339405 
L 266.726824 -147.361996 
L 267.036329 -145.384587 
L 267.249565 -143.407178 
L 267.358639 -141.429769 
L 267.355796 -139.45236 
L 267.23389 -137.474951 
L 266.987119 -135.497542 
L 266.611927 -133.520133 
L 266.107895 -131.542724 
L 265.478463 -129.565316 
L 264.731331 -127.587907 
L 263.878432 -125.610498 
L 262.935458 -123.633089 
L 261.920955 -121.65568 
L 260.855129 -119.678271 
L 259.758484 -117.700862 
L 258.650487 -115.723453 
L 257.548403 -113.746044 
L 256.466442 -111.768635 
L 255.415284 -109.791226 
L 254.401994 -107.813817 
L 253.430306 -105.836408 
L 252.501187 -103.859 
L 251.613589 -101.881591 
L 250.765271 -99.904182 
L 249.953598 -97.926773 
L 249.176235 -95.949364 
L 248.43166 -93.971955 
L 247.719486 -91.994546 
L 247.04057 -90.017137 
L 246.396919 -88.039728 
L 245.791432 -86.062319 
L 245.227521 -84.08491 
L 244.708653 -82.107501 
L 244.237877 -80.130092 
L 243.817383 -78.152684 
L 243.448153 -76.175275 
L 243.129723 -74.197866 
L 242.860097 -72.220457 
L 242.635812 -70.243048 
L 242.45214 -68.265639 
L 242.303417 -66.28823 
L 242.183437 -64.310821 
L 242.085889 -62.333412 
L 242.004772 -60.356003 
L 241.934757 -58.378594 
z
" style="stroke: #2f2f2f; stroke-width: 0.75"/>
    </defs>
    <g clip-path="url(#p367e5a2643)">
     <use xlink:href="#m24118121c9" x="0" y="301.06575" style="fill: #e7b0ac; stroke: #2f2f2f; stroke-width: 0.75"/>
    </g>
   </g>
   <g id="FillBetweenPolyCollection_5">
    <defs>
     <path id="m29fdddfc4a" d="M 300.053181 -59.836913 
L 298.729319 -59.836913 
L 298.699521 -61.852231 
L 298.66853 -63.867549 
L 298.632117 -65.882867 
L 298.585164 -67.898185 
L 298.521957 -69.913503 
L 298.43655 -71.928821 
L 298.32318 -73.94414 
L 298.176677 -75.959458 
L 297.992827 -77.974776 
L 297.76865 -79.990094 
L 297.502557 -82.005412 
L 297.194359 -84.02073 
L 296.845136 -86.036048 
L 296.456975 -88.051366 
L 296.032617 -90.066684 
L 295.575055 -92.082002 
L 295.087139 -94.09732 
L 294.571253 -96.112638 
L 294.029084 -98.127956 
L 293.46153 -100.143274 
L 292.868726 -102.158593 
L 292.250176 -104.173911 
L 291.604954 -106.189229 
L 290.931906 -108.204547 
L 290.229825 -110.219865 
L 289.497572 -112.235183 
L 288.734119 -114.250501 
L 287.938554 -116.265819 
L 287.110097 -118.281137 
L 286.248164 -120.296455 
L 285.35256 -122.311773 
L 284.423818 -124.327091 
L 283.463694 -126.342409 
L 282.475768 -128.357727 
L 281.466073 -130.373046 
L 280.443633 -132.388364 
L 279.420794 -134.403682 
L 278.413222 -136.419 
L 277.4395 -138.434318 
L 276.520319 -140.449636 
L 275.677283 -142.464954 
L 274.931476 -144.480272 
L 274.301928 -146.49559 
L 273.804167 -148.510908 
L 273.449052 -150.526226 
L 273.242006 -152.541544 
L 273.18275 -154.556862 
L 273.265536 -156.572181 
L 273.479834 -158.587499 
L 273.811346 -160.602817 
L 274.243214 -162.618135 
L 274.757266 -164.633453 
L 275.33516 -166.648771 
L 275.959341 -168.664089 
L 276.613755 -170.679407 
L 277.284323 -172.694725 
L 277.959203 -174.710043 
L 278.628909 -176.725361 
L 279.286323 -178.740679 
L 279.926681 -180.755997 
L 280.547521 -182.771315 
L 281.14862 -184.786634 
L 281.731879 -186.801952 
L 282.30112 -188.81727 
L 282.861767 -190.832588 
L 283.420382 -192.847906 
L 283.984064 -194.863224 
L 284.559741 -196.878542 
L 285.153423 -198.89386 
L 285.769494 -200.909178 
L 286.410124 -202.924496 
L 287.074876 -204.939814 
L 287.760564 -206.955132 
L 288.461371 -208.97045 
L 289.169219 -210.985768 
L 289.874344 -213.001087 
L 290.566017 -215.016405 
L 291.233336 -217.031723 
L 291.866006 -219.047041 
L 292.45507 -221.062359 
L 292.993509 -223.077677 
L 293.476694 -225.092995 
L 293.902651 -227.108313 
L 294.272142 -229.123631 
L 294.588537 -231.138949 
L 294.857506 -233.154267 
L 295.086552 -235.169585 
L 295.284414 -237.184903 
L 295.460389 -239.200221 
L 295.623649 -241.21554 
L 295.782589 -243.230858 
L 295.944286 -245.246176 
L 296.114097 -247.261494 
L 296.295441 -249.276812 
L 296.489761 -251.29213 
L 296.696648 -253.307448 
L 296.914116 -255.322766 
L 297.138966 -257.338084 
L 297.367199 -259.353402 
L 301.415301 -259.353402 
L 301.415301 -259.353402 
L 301.643534 -257.338084 
L 301.868384 -255.322766 
L 302.085852 -253.307448 
L 302.292739 -251.29213 
L 302.487059 -249.276812 
L 302.668403 -247.261494 
L 302.838214 -245.246176 
L 302.999911 -243.230858 
L 303.158851 -241.21554 
L 303.322111 -239.200221 
L 303.498086 -237.184903 
L 303.695948 -235.169585 
L 303.924994 -233.154267 
L 304.193963 -231.138949 
L 304.510358 -229.123631 
L 304.879849 -227.108313 
L 305.305806 -225.092995 
L 305.788991 -223.077677 
L 306.32743 -221.062359 
L 306.916494 -219.047041 
L 307.549164 -217.031723 
L 308.216483 -215.016405 
L 308.908156 -213.001087 
L 309.613281 -210.985768 
L 310.321129 -208.97045 
L 311.021936 -206.955132 
L 311.707624 -204.939814 
L 312.372376 -202.924496 
L 313.013006 -200.909178 
L 313.629077 -198.89386 
L 314.222759 -196.878542 
L 314.798436 -194.863224 
L 315.362118 -192.847906 
L 315.920733 -190.832588 
L 316.48138 -188.81727 
L 317.050621 -186.801952 
L 317.63388 -184.786634 
L 318.234979 -182.771315 
L 318.855819 -180.755997 
L 319.496177 -178.740679 
L 320.153591 -176.725361 
L 320.823297 -174.710043 
L 321.498177 -172.694725 
L 322.168745 -170.679407 
L 322.823159 -168.664089 
L 323.44734 -166.648771 
L 324.025234 -164.633453 
L 324.539286 -162.618135 
L 324.971154 -160.602817 
L 325.302666 -158.587499 
L 325.516964 -156.572181 
L 325.59975 -154.556862 
L 325.540494 -152.541544 
L 325.333448 -150.526226 
L 324.978333 -148.510908 
L 324.480572 -146.49559 
L 323.851024 -144.480272 
L 323.105217 -142.464954 
L 322.262181 -140.449636 
L 321.343 -138.434318 
L 320.369278 -136.419 
L 319.361706 -134.403682 
L 318.338867 -132.388364 
L 317.316427 -130.373046 
L 316.306732 -128.357727 
L 315.318806 -126.342409 
L 314.358682 -124.327091 
L 313.42994 -122.311773 
L 312.534336 -120.296455 
L 311.672403 -118.281137 
L 310.843946 -116.265819 
L 310.048381 -114.250501 
L 309.284928 -112.235183 
L 308.552675 -110.219865 
L 307.850594 -108.204547 
L 307.177546 -106.189229 
L 306.532324 -104.173911 
L 305.913774 -102.158593 
L 305.32097 -100.143274 
L 304.753416 -98.127956 
L 304.211247 -96.112638 
L 303.695361 -94.09732 
L 303.207445 -92.082002 
L 302.749883 -90.066684 
L 302.325525 -88.051366 
L 301.937364 -86.036048 
L 301.588141 -84.02073 
L 301.279943 -82.005412 
L 301.01385 -79.990094 
L 300.789673 -77.974776 
L 300.605823 -75.959458 
L 300.45932 -73.94414 
L 300.34595 -71.928821 
L 300.260543 -69.913503 
L 300.197336 -67.898185 
L 300.150383 -65.882867 
L 300.11397 -63.867549 
L 300.082979 -61.852231 
L 300.053181 -59.836913 
z
" style="stroke: #2f2f2f; stroke-width: 0.75"/>
    </defs>
    <g clip-path="url(#p367e5a2643)">
     <use xlink:href="#m29fdddfc4a" x="0" y="301.06575" style="fill: #c283a6; stroke: #2f2f2f; stroke-width: 0.75"/>
    </g>
   </g>
   <g id="FillBetweenPolyCollection_6">
    <defs>
     <path id="mc450047c44" d="M 358.277333 -58.166084 
L 356.987389 -58.166084 
L 356.960917 -60.173313 
L 356.933925 -62.180542 
L 356.902364 -64.187771 
L 356.86129 -66.195001 
L 356.805118 -68.20223 
L 356.727964 -70.209459 
L 356.624028 -72.216688 
L 356.487984 -74.223917 
L 356.31534 -76.231147 
L 356.102714 -78.238376 
L 355.848014 -80.245605 
L 355.550479 -82.252834 
L 355.210586 -84.260063 
L 354.829835 -86.267292 
L 354.410438 -88.274522 
L 353.954952 -90.281751 
L 353.465916 -92.28898 
L 352.945538 -94.296209 
L 352.39547 -96.303438 
L 351.816707 -98.310668 
L 351.209594 -100.317897 
L 350.573933 -102.325126 
L 349.909157 -104.332355 
L 349.214494 -106.339584 
L 348.489121 -108.346813 
L 347.732245 -110.354043 
L 346.94313 -112.361272 
L 346.121091 -114.368501 
L 345.265504 -116.37573 
L 344.375901 -118.382959 
L 343.452193 -120.390189 
L 342.495074 -122.397418 
L 341.506581 -124.404647 
L 340.490772 -126.411876 
L 339.454421 -128.419105 
L 338.407597 -130.426334 
L 337.363998 -132.433564 
L 336.340907 -134.440793 
L 335.358712 -136.448022 
L 334.439955 -138.455251 
L 333.607995 -140.46248 
L 332.88541 -142.46971 
L 332.29231 -144.476939 
L 331.844791 -146.484168 
L 331.553699 -148.491397 
L 331.423861 -150.498626 
L 331.453859 -152.505855 
L 331.636338 -154.513085 
L 331.958778 -156.520314 
L 332.404592 -158.527543 
L 332.954382 -160.534772 
L 333.587208 -162.542001 
L 334.281735 -164.549231 
L 335.017178 -166.55646 
L 335.774019 -168.563689 
L 336.53452 -170.570918 
L 337.283085 -172.578147 
L 338.006529 -174.585376 
L 338.694329 -176.592606 
L 339.338857 -178.599835 
L 339.935623 -180.607064 
L 340.48347 -182.614293 
L 340.98468 -184.621522 
L 341.444901 -186.628752 
L 341.872858 -188.635981 
L 342.279799 -190.64321 
L 342.678683 -192.650439 
L 343.083157 -194.657668 
L 343.506406 -196.664897 
L 343.959978 -198.672127 
L 344.452726 -200.679356 
L 344.989964 -202.686585 
L 345.57294 -204.693814 
L 346.198683 -206.701043 
L 346.860225 -208.708273 
L 347.54718 -210.715502 
L 348.246604 -212.722731 
L 348.944045 -214.72996 
L 349.624683 -216.737189 
L 350.274453 -218.744418 
L 350.881056 -220.751648 
L 351.434784 -222.758877 
L 351.929111 -224.766106 
L 352.361001 -226.773335 
L 352.730942 -228.780564 
L 353.042707 -230.787794 
L 353.302878 -232.795023 
L 353.520182 -234.802252 
L 353.704699 -236.809481 
L 353.867022 -238.81671 
L 354.017428 -240.823939 
L 354.165149 -242.831169 
L 354.317779 -244.838398 
L 354.480878 -246.845627 
L 354.657781 -248.852856 
L 354.849608 -250.860085 
L 355.055463 -252.867315 
L 355.272771 -254.874544 
L 355.497711 -256.881773 
L 359.767011 -256.881773 
L 359.767011 -256.881773 
L 359.991952 -254.874544 
L 360.209259 -252.867315 
L 360.415114 -250.860085 
L 360.606941 -248.852856 
L 360.783844 -246.845627 
L 360.946943 -244.838398 
L 361.099573 -242.831169 
L 361.247294 -240.823939 
L 361.3977 -238.81671 
L 361.560023 -236.809481 
L 361.744541 -234.802252 
L 361.961844 -232.795023 
L 362.222015 -230.787794 
L 362.53378 -228.780564 
L 362.903721 -226.773335 
L 363.335611 -224.766106 
L 363.829938 -222.758877 
L 364.383666 -220.751648 
L 364.990269 -218.744418 
L 365.640039 -216.737189 
L 366.320677 -214.72996 
L 367.018118 -212.722731 
L 367.717542 -210.715502 
L 368.404497 -208.708273 
L 369.066039 -206.701043 
L 369.691782 -204.693814 
L 370.274759 -202.686585 
L 370.811996 -200.679356 
L 371.304745 -198.672127 
L 371.758317 -196.664897 
L 372.181565 -194.657668 
L 372.586039 -192.650439 
L 372.984923 -190.64321 
L 373.391864 -188.635981 
L 373.819821 -186.628752 
L 374.280042 -184.621522 
L 374.781252 -182.614293 
L 375.3291 -180.607064 
L 375.925865 -178.599835 
L 376.570393 -176.592606 
L 377.258193 -174.585376 
L 377.981638 -172.578147 
L 378.730202 -170.570918 
L 379.490703 -168.563689 
L 380.247544 -166.55646 
L 380.982987 -164.549231 
L 381.677515 -162.542001 
L 382.31034 -160.534772 
L 382.86013 -158.527543 
L 383.305944 -156.520314 
L 383.628385 -154.513085 
L 383.810864 -152.505855 
L 383.840861 -150.498626 
L 383.711023 -148.491397 
L 383.419931 -146.484168 
L 382.972412 -144.476939 
L 382.379312 -142.46971 
L 381.656727 -140.46248 
L 380.824767 -138.455251 
L 379.90601 -136.448022 
L 378.923815 -134.440793 
L 377.900724 -132.433564 
L 376.857125 -130.426334 
L 375.810301 -128.419105 
L 374.77395 -126.411876 
L 373.758141 -124.404647 
L 372.769648 -122.397418 
L 371.812529 -120.390189 
L 370.888821 -118.382959 
L 369.999218 -116.37573 
L 369.143632 -114.368501 
L 368.321592 -112.361272 
L 367.532478 -110.354043 
L 366.775602 -108.346813 
L 366.050229 -106.339584 
L 365.355566 -104.332355 
L 364.690789 -102.325126 
L 364.055129 -100.317897 
L 363.448015 -98.310668 
L 362.869252 -96.303438 
L 362.319184 -94.296209 
L 361.798806 -92.28898 
L 361.30977 -90.281751 
L 360.854284 -88.274522 
L 360.434887 -86.267292 
L 360.054136 -84.260063 
L 359.714243 -82.252834 
L 359.416708 -80.245605 
L 359.162008 -78.238376 
L 358.949382 -76.231147 
L 358.776738 -74.223917 
L 358.640694 -72.216688 
L 358.536758 -70.209459 
L 358.459604 -68.20223 
L 358.403432 -66.195001 
L 358.362358 -64.187771 
L 358.330797 -62.180542 
L 358.303805 -60.173313 
L 358.277333 -58.166084 
z
" style="stroke: #2f2f2f; stroke-width: 0.75"/>
    </defs>
    <g clip-path="url(#p367e5a2643)">
     <use xlink:href="#mc450047c44" x="0" y="301.06575" style="fill: #e3c7d7; stroke: #2f2f2f; stroke-width: 0.75"/>
    </g>
   </g>
   <g id="FillBetweenPolyCollection_7">
    <defs>
     <path id="m7d81592efb" d="M 416.503713 -72.116793 
L 415.243231 -72.116793 
L 415.238098 -74.104532 
L 415.240175 -76.092272 
L 415.246007 -78.080012 
L 415.250853 -80.067751 
L 415.248828 -82.055491 
L 415.233124 -84.043231 
L 415.196288 -86.03097 
L 415.130547 -88.01871 
L 415.028163 -90.00645 
L 414.881805 -91.994189 
L 414.684926 -93.981929 
L 414.432127 -95.969669 
L 414.119493 -97.957409 
L 413.744852 -99.945148 
L 413.307937 -101.932888 
L 412.810401 -103.920628 
L 412.255659 -105.908367 
L 411.648534 -107.896107 
L 410.994718 -109.883847 
L 410.300084 -111.871586 
L 409.569927 -113.859326 
L 408.808227 -115.847066 
L 408.017057 -117.834805 
L 407.196253 -119.822545 
L 406.343447 -121.810285 
L 405.454513 -123.798024 
L 404.524434 -125.785764 
L 403.548513 -127.773504 
L 402.523789 -129.761244 
L 401.45047 -131.748983 
L 400.333163 -133.736723 
L 399.181675 -135.724463 
L 398.011211 -137.712202 
L 396.841871 -139.699942 
L 395.697437 -141.687682 
L 394.603553 -143.675421 
L 393.585525 -145.663161 
L 392.666011 -147.650901 
L 391.862932 -149.63864 
L 391.187919 -151.62638 
L 390.645511 -153.61412 
L 390.233255 -155.601859 
L 389.942684 -157.589599 
L 389.761027 -159.577339 
L 389.673374 -161.565079 
L 389.664972 -163.552818 
L 389.723276 -165.540558 
L 389.83945 -167.528298 
L 390.009106 -169.516037 
L 390.232181 -171.503777 
L 390.512034 -173.491517 
L 390.853939 -175.479256 
L 391.263256 -177.466996 
L 391.743623 -179.454736 
L 392.295453 -181.442475 
L 392.915006 -183.430215 
L 393.594162 -185.417955 
L 394.32091 -187.405695 
L 395.080471 -189.393434 
L 395.856834 -191.381174 
L 396.634467 -193.368914 
L 397.399932 -195.356653 
L 398.143164 -197.344393 
L 398.858246 -199.332133 
L 399.543604 -201.319872 
L 400.201629 -203.307612 
L 400.837826 -205.295352 
L 401.459643 -207.283091 
L 402.075174 -209.270831 
L 402.691897 -211.258571 
L 403.315616 -213.24631 
L 403.949707 -215.23405 
L 404.594708 -217.22179 
L 405.248274 -219.20953 
L 405.905445 -221.197269 
L 406.55918 -223.185009 
L 407.201073 -225.172749 
L 407.822165 -227.160488 
L 408.413801 -229.148228 
L 408.968416 -231.135968 
L 409.480216 -233.123707 
L 409.945667 -235.111447 
L 410.363766 -237.099187 
L 410.736041 -239.086926 
L 411.066319 -241.074666 
L 411.360249 -243.062406 
L 411.624684 -245.050145 
L 411.866962 -247.037885 
L 412.094211 -249.025625 
L 412.312734 -251.013365 
L 412.52756 -253.001104 
L 412.742191 -254.988844 
L 412.958549 -256.976584 
L 413.1771 -258.964323 
L 413.397112 -260.952063 
L 413.61698 -262.939803 
L 413.834565 -264.927542 
L 414.0475 -266.915282 
L 414.253437 -268.903022 
L 417.493507 -268.903022 
L 417.493507 -268.903022 
L 417.699444 -266.915282 
L 417.912379 -264.927542 
L 418.129964 -262.939803 
L 418.349832 -260.952063 
L 418.569845 -258.964323 
L 418.788396 -256.976584 
L 419.004753 -254.988844 
L 419.219384 -253.001104 
L 419.43421 -251.013365 
L 419.652733 -249.025625 
L 419.879982 -247.037885 
L 420.122261 -245.050145 
L 420.386695 -243.062406 
L 420.680626 -241.074666 
L 421.010903 -239.086926 
L 421.383179 -237.099187 
L 421.801277 -235.111447 
L 422.266729 -233.123707 
L 422.778528 -231.135968 
L 423.333143 -229.148228 
L 423.924779 -227.160488 
L 424.545872 -225.172749 
L 425.187764 -223.185009 
L 425.8415 -221.197269 
L 426.498671 -219.20953 
L 427.152236 -217.22179 
L 427.797237 -215.23405 
L 428.431328 -213.24631 
L 429.055048 -211.258571 
L 429.67177 -209.270831 
L 430.287301 -207.283091 
L 430.909119 -205.295352 
L 431.545315 -203.307612 
L 432.20334 -201.319872 
L 432.888698 -199.332133 
L 433.60378 -197.344393 
L 434.347012 -195.356653 
L 435.112477 -193.368914 
L 435.89011 -191.381174 
L 436.666473 -189.393434 
L 437.426034 -187.405695 
L 438.152783 -185.417955 
L 438.831938 -183.430215 
L 439.451492 -181.442475 
L 440.003321 -179.454736 
L 440.483688 -177.466996 
L 440.893006 -175.479256 
L 441.23491 -173.491517 
L 441.514763 -171.503777 
L 441.737838 -169.516037 
L 441.907494 -167.528298 
L 442.023669 -165.540558 
L 442.081972 -163.552818 
L 442.07357 -161.565079 
L 441.985917 -159.577339 
L 441.80426 -157.589599 
L 441.51369 -155.601859 
L 441.101434 -153.61412 
L 440.559025 -151.62638 
L 439.884012 -149.63864 
L 439.080934 -147.650901 
L 438.161419 -145.663161 
L 437.143391 -143.675421 
L 436.049507 -141.687682 
L 434.905073 -139.699942 
L 433.735733 -137.712202 
L 432.565269 -135.724463 
L 431.413781 -133.736723 
L 430.296474 -131.748983 
L 429.223156 -129.761244 
L 428.198432 -127.773504 
L 427.222511 -125.785764 
L 426.292432 -123.798024 
L 425.403498 -121.810285 
L 424.550691 -119.822545 
L 423.729887 -117.834805 
L 422.938717 -115.847066 
L 422.177017 -113.859326 
L 421.446861 -111.871586 
L 420.752227 -109.883847 
L 420.09841 -107.896107 
L 419.491286 -105.908367 
L 418.936544 -103.920628 
L 418.439008 -101.932888 
L 418.002093 -99.945148 
L 417.627452 -97.957409 
L 417.314818 -95.969669 
L 417.062019 -93.981929 
L 416.865139 -91.994189 
L 416.718781 -90.00645 
L 416.616397 -88.01871 
L 416.550657 -86.03097 
L 416.51382 -84.043231 
L 416.498116 -82.055491 
L 416.496091 -80.067751 
L 416.500937 -78.080012 
L 416.50677 -76.092272 
L 416.508847 -74.104532 
L 416.503713 -72.116793 
z
" style="stroke: #2f2f2f; stroke-width: 0.75"/>
    </defs>
    <g clip-path="url(#p367e5a2643)">
     <use xlink:href="#m7d81592efb" x="0" y="301.06575" style="fill: #148a6a; stroke: #2f2f2f; stroke-width: 0.75"/>
    </g>
   </g>
   <g id="FillBetweenPolyCollection_8">
    <defs>
     <path id="maa4bb70edf" d="M 474.723997 -64.115863 
L 473.50517 -64.115863 
L 473.50142 -66.146491 
L 473.505479 -68.177119 
L 473.513965 -70.207747 
L 473.522191 -72.238375 
L 473.524305 -74.269003 
L 473.513512 -76.29963 
L 473.482333 -78.330258 
L 473.422903 -80.360886 
L 473.327276 -82.391514 
L 473.187747 -84.422142 
L 472.99716 -86.45277 
L 472.749222 -88.483398 
L 472.438786 -90.514026 
L 472.062111 -92.544653 
L 471.617048 -94.575281 
L 471.103149 -96.605909 
L 470.521651 -98.636537 
L 469.875323 -100.667165 
L 469.168178 -102.697793 
L 468.405049 -104.728421 
L 467.591089 -106.759049 
L 466.731258 -108.789677 
L 465.829862 -110.820304 
L 464.890262 -112.850932 
L 463.914799 -114.88156 
L 462.905009 -116.912188 
L 461.862112 -118.942816 
L 460.787752 -120.973444 
L 459.684862 -123.004072 
L 458.558546 -125.0347 
L 457.41679 -127.065327 
L 456.270857 -129.095955 
L 455.135255 -131.126583 
L 454.027216 -133.157211 
L 452.96573 -135.187839 
L 451.970231 -137.218467 
L 451.059134 -139.249095 
L 450.248445 -141.279723 
L 449.55064 -143.310351 
L 448.974016 -145.340978 
L 448.522568 -147.371606 
L 448.196406 -149.402234 
L 447.992569 -151.432862 
L 447.906083 -153.46349 
L 447.930998 -155.494118 
L 448.061224 -157.524746 
L 448.291003 -159.555374 
L 448.614949 -161.586002 
L 449.027697 -163.616629 
L 449.523283 -165.647257 
L 450.094441 -167.677885 
L 450.732005 -169.708513 
L 451.424596 -171.739141 
L 452.158709 -173.769769 
L 452.919234 -175.800397 
L 453.690363 -177.831025 
L 454.456765 -179.861652 
L 455.204865 -181.89228 
L 455.924027 -183.922908 
L 456.60747 -185.953536 
L 457.252775 -187.984164 
L 457.861896 -190.014792 
L 458.440673 -192.04542 
L 458.997905 -194.076048 
L 459.544116 -196.106676 
L 460.090172 -198.137303 
L 460.645936 -200.167931 
L 461.219129 -202.198559 
L 461.8145 -204.229187 
L 462.433393 -206.259815 
L 463.0737 -208.290443 
L 463.730171 -210.321071 
L 464.394995 -212.351699 
L 465.058572 -214.382326 
L 465.710379 -216.412954 
L 466.339859 -218.443582 
L 466.937271 -220.47421 
L 467.494444 -222.504838 
L 468.005385 -224.535466 
L 468.466702 -226.566094 
L 468.877796 -228.596722 
L 469.240805 -230.62735 
L 469.560283 -232.657977 
L 469.842649 -234.688605 
L 470.095464 -236.719233 
L 470.326618 -238.749861 
L 470.54354 -240.780489 
L 470.75252 -242.811117 
L 470.958243 -244.841745 
L 471.16357 -246.872373 
L 471.369587 -248.903 
L 471.575866 -250.933628 
L 471.780897 -252.964256 
L 471.982569 -254.994884 
L 472.178644 -257.025512 
L 472.367127 -259.05614 
L 472.546502 -261.086768 
L 472.715817 -263.117396 
L 472.874642 -265.148024 
L 475.354525 -265.148024 
L 475.354525 -265.148024 
L 475.51335 -263.117396 
L 475.682665 -261.086768 
L 475.862039 -259.05614 
L 476.050522 -257.025512 
L 476.246598 -254.994884 
L 476.44827 -252.964256 
L 476.653301 -250.933628 
L 476.85958 -248.903 
L 477.065596 -246.872373 
L 477.270924 -244.841745 
L 477.476646 -242.811117 
L 477.685626 -240.780489 
L 477.902548 -238.749861 
L 478.133703 -236.719233 
L 478.386517 -234.688605 
L 478.668883 -232.657977 
L 478.988361 -230.62735 
L 479.351371 -228.596722 
L 479.762465 -226.566094 
L 480.223781 -224.535466 
L 480.734722 -222.504838 
L 481.291895 -220.47421 
L 481.889308 -218.443582 
L 482.518788 -216.412954 
L 483.170595 -214.382326 
L 483.834172 -212.351699 
L 484.498996 -210.321071 
L 485.155467 -208.290443 
L 485.795773 -206.259815 
L 486.414666 -204.229187 
L 487.010038 -202.198559 
L 487.583231 -200.167931 
L 488.138995 -198.137303 
L 488.68505 -196.106676 
L 489.231261 -194.076048 
L 489.788494 -192.04542 
L 490.367271 -190.014792 
L 490.976392 -187.984164 
L 491.621697 -185.953536 
L 492.30514 -183.922908 
L 493.024301 -181.89228 
L 493.772402 -179.861652 
L 494.538804 -177.831025 
L 495.309932 -175.800397 
L 496.070457 -173.769769 
L 496.804571 -171.739141 
L 497.497162 -169.708513 
L 498.134726 -167.677885 
L 498.705884 -165.647257 
L 499.20147 -163.616629 
L 499.614217 -161.586002 
L 499.938163 -159.555374 
L 500.167943 -157.524746 
L 500.298169 -155.494118 
L 500.323083 -153.46349 
L 500.236597 -151.432862 
L 500.032761 -149.402234 
L 499.706598 -147.371606 
L 499.255151 -145.340978 
L 498.678527 -143.310351 
L 497.980722 -141.279723 
L 497.170032 -139.249095 
L 496.258936 -137.218467 
L 495.263436 -135.187839 
L 494.20195 -133.157211 
L 493.093912 -131.126583 
L 491.95831 -129.095955 
L 490.812376 -127.065327 
L 489.67062 -125.0347 
L 488.544305 -123.004072 
L 487.441415 -120.973444 
L 486.367054 -118.942816 
L 485.324158 -116.912188 
L 484.314368 -114.88156 
L 483.338905 -112.850932 
L 482.399305 -110.820304 
L 481.497909 -108.789677 
L 480.638077 -106.759049 
L 479.824118 -104.728421 
L 479.060989 -102.697793 
L 478.353843 -100.667165 
L 477.707516 -98.636537 
L 477.126017 -96.605909 
L 476.612118 -94.575281 
L 476.167056 -92.544653 
L 475.79038 -90.514026 
L 475.479945 -88.483398 
L 475.232007 -86.45277 
L 475.04142 -84.422142 
L 474.90189 -82.391514 
L 474.806264 -80.360886 
L 474.746834 -78.330258 
L 474.715655 -76.29963 
L 474.704862 -74.269003 
L 474.706976 -72.238375 
L 474.715201 -70.207747 
L 474.723688 -68.177119 
L 474.727747 -66.146491 
L 474.723997 -64.115863 
z
" style="stroke: #2f2f2f; stroke-width: 0.75"/>
    </defs>
    <g clip-path="url(#p367e5a2643)">
     <use xlink:href="#maa4bb70edf" x="0" y="301.06575" style="fill: #95cabc; stroke: #2f2f2f; stroke-width: 0.75"/>
    </g>
   </g>
   <g id="FillBetweenPolyCollection_9">
    <defs>
     <path id="mf5ec947332" d="M 533.131277 -117.965686 
L 531.580112 -117.965686 
L 531.510654 -119.694203 
L 531.427947 -121.42272 
L 531.324994 -123.151237 
L 531.193844 -124.879753 
L 531.026079 -126.60827 
L 530.813401 -128.336787 
L 530.548244 -130.065303 
L 530.224335 -131.79382 
L 529.837134 -133.522337 
L 529.384104 -135.250854 
L 528.864742 -136.97937 
L 528.280416 -138.707887 
L 527.633995 -140.436404 
L 526.929376 -142.16492 
L 526.17097 -143.893437 
L 525.363253 -145.621954 
L 524.510461 -147.35047 
L 523.616485 -149.078987 
L 522.684975 -150.807504 
L 521.719627 -152.536021 
L 520.72458 -154.264537 
L 519.704837 -155.993054 
L 518.666607 -157.721571 
L 517.617484 -159.450087 
L 516.566427 -161.178604 
L 515.52352 -162.907121 
L 514.499542 -164.635638 
L 513.505425 -166.364154 
L 512.55166 -168.092671 
L 511.647749 -169.821188 
L 510.801761 -171.549704 
L 510.020034 -173.278221 
L 509.307073 -175.006738 
L 508.665619 -176.735255 
L 508.096897 -178.463771 
L 507.601008 -180.192288 
L 507.177428 -181.920805 
L 506.825557 -183.649321 
L 506.545254 -185.377838 
L 506.337275 -187.106355 
L 506.203547 -188.834872 
L 506.147194 -190.563388 
L 506.172309 -192.291905 
L 506.283446 -194.020422 
L 506.484913 -195.748938 
L 506.779964 -197.477455 
L 507.170003 -199.205972 
L 507.653951 -200.934489 
L 508.227872 -202.663005 
L 508.884929 -204.391522 
L 509.615664 -206.120039 
L 510.40855 -207.848555 
L 511.250717 -209.577072 
L 512.128736 -211.305589 
L 513.029343 -213.034106 
L 513.940017 -214.762622 
L 514.84939 -216.491139 
L 515.747454 -218.219656 
L 516.625636 -219.948172 
L 517.476769 -221.676689 
L 518.295015 -223.405206 
L 519.075789 -225.133723 
L 519.815698 -226.862239 
L 520.512499 -228.590756 
L 521.165069 -230.319273 
L 521.773357 -232.047789 
L 522.338328 -233.776306 
L 522.861866 -235.504823 
L 523.346653 -237.23334 
L 523.796031 -238.961856 
L 524.21384 -240.690373 
L 524.60426 -242.41889 
L 524.971649 -244.147406 
L 525.320381 -245.875923 
L 525.654684 -247.60444 
L 525.97849 -249.332957 
L 526.295287 -251.061473 
L 526.607992 -252.78999 
L 526.918845 -254.518507 
L 527.229343 -256.247023 
L 527.540201 -257.97554 
L 527.851355 -259.704057 
L 528.161993 -261.432574 
L 528.470625 -263.16109 
L 528.77517 -264.889607 
L 529.073086 -266.618124 
L 529.361515 -268.34664 
L 529.637477 -270.075157 
L 529.898081 -271.803674 
L 530.140756 -273.53219 
L 530.36349 -275.260707 
L 530.565021 -276.989224 
L 530.744989 -278.717741 
L 530.903991 -280.446257 
L 531.043535 -282.174774 
L 531.16589 -283.903291 
L 531.273853 -285.631807 
L 531.37045 -287.360324 
L 531.458624 -289.088841 
L 533.252765 -289.088841 
L 533.252765 -289.088841 
L 533.340939 -287.360324 
L 533.437535 -285.631807 
L 533.545499 -283.903291 
L 533.667854 -282.174774 
L 533.807398 -280.446257 
L 533.9664 -278.717741 
L 534.146368 -276.989224 
L 534.347899 -275.260707 
L 534.570632 -273.53219 
L 534.813308 -271.803674 
L 535.073912 -270.075157 
L 535.349874 -268.34664 
L 535.638303 -266.618124 
L 535.936219 -264.889607 
L 536.240764 -263.16109 
L 536.549396 -261.432574 
L 536.860034 -259.704057 
L 537.171188 -257.97554 
L 537.482046 -256.247023 
L 537.792544 -254.518507 
L 538.103397 -252.78999 
L 538.416102 -251.061473 
L 538.732899 -249.332957 
L 539.056705 -247.60444 
L 539.391008 -245.875923 
L 539.73974 -244.147406 
L 540.107129 -242.41889 
L 540.497549 -240.690373 
L 540.915358 -238.961856 
L 541.364736 -237.23334 
L 541.849523 -235.504823 
L 542.373061 -233.776306 
L 542.938031 -232.047789 
L 543.54632 -230.319273 
L 544.198889 -228.590756 
L 544.895691 -226.862239 
L 545.6356 -225.133723 
L 546.416374 -223.405206 
L 547.23462 -221.676689 
L 548.085753 -219.948172 
L 548.963935 -218.219656 
L 549.861999 -216.491139 
L 550.771371 -214.762622 
L 551.682046 -213.034106 
L 552.582653 -211.305589 
L 553.460672 -209.577072 
L 554.302839 -207.848555 
L 555.095725 -206.120039 
L 555.82646 -204.391522 
L 556.483517 -202.663005 
L 557.057438 -200.934489 
L 557.541386 -199.205972 
L 557.931425 -197.477455 
L 558.226476 -195.748938 
L 558.427943 -194.020422 
L 558.539079 -192.291905 
L 558.564194 -190.563388 
L 558.507842 -188.834872 
L 558.374114 -187.106355 
L 558.166135 -185.377838 
L 557.885832 -183.649321 
L 557.533961 -181.920805 
L 557.110381 -180.192288 
L 556.614492 -178.463771 
L 556.04577 -176.735255 
L 555.404316 -175.006738 
L 554.691355 -173.278221 
L 553.909628 -171.549704 
L 553.063639 -169.821188 
L 552.159729 -168.092671 
L 551.205964 -166.364154 
L 550.211847 -164.635638 
L 549.187869 -162.907121 
L 548.144962 -161.178604 
L 547.093905 -159.450087 
L 546.044782 -157.721571 
L 545.006552 -155.993054 
L 543.986809 -154.264537 
L 542.991762 -152.536021 
L 542.026414 -150.807504 
L 541.094904 -149.078987 
L 540.200928 -147.35047 
L 539.348136 -145.621954 
L 538.540419 -143.893437 
L 537.782013 -142.16492 
L 537.077394 -140.436404 
L 536.430973 -138.707887 
L 535.846647 -136.97937 
L 535.327285 -135.250854 
L 534.874254 -133.522337 
L 534.487054 -131.79382 
L 534.163144 -130.065303 
L 533.897988 -128.336787 
L 533.68531 -126.60827 
L 533.517545 -124.879753 
L 533.386395 -123.151237 
L 533.283442 -121.42272 
L 533.200735 -119.694203 
L 533.131277 -117.965686 
z
" style="stroke: #2f2f2f; stroke-width: 0.75"/>
    </defs>
    <g clip-path="url(#p367e5a2643)">
     <use xlink:href="#mf5ec947332" x="0" y="301.06575" style="fill: #c9941d; stroke: #2f2f2f; stroke-width: 0.75"/>
    </g>
   </g>
   <g id="matplotlib.axis_1">
    <g id="xtick_1">
     <g id="text_1">
      <!-- MVT -->
      <g transform="translate(55.638524 276.590438) scale(0.1 -0.1)">
       <defs>
        <path id="DejaVuSans-4d" d="M 628 4666 
L 1569 4666 
L 2759 1491 
L 3956 4666 
L 4897 4666 
L 4897 0 
L 4281 0 
L 4281 4097 
L 3078 897 
L 2444 897 
L 1241 4097 
L 1241 0 
L 628 0 
L 628 4666 
z
" transform="scale(0.015625)"/>
        <path id="DejaVuSans-56" d="M 1831 0 
L 50 4666 
L 709 4666 
L 2188 738 
L 3669 4666 
L 4325 4666 
L 2547 0 
L 1831 0 
z
" transform="scale(0.015625)"/>
        <path id="DejaVuSans-54" d="M -19 4666 
L 3928 4666 
L 3928 4134 
L 2272 4134 
L 2272 0 
L 1638 0 
L 1638 4134 
L -19 4134 
L -19 4666 
z
" transform="scale(0.015625)"/>
       </defs>
       <use xlink:href="#DejaVuSans-4d"/>
       <use xlink:href="#DejaVuSans-56" transform="translate(86.279297 0)"/>
       <use xlink:href="#DejaVuSans-54" transform="translate(154.6875 0)"/>
      </g>
     </g>
    </g>
    <g id="xtick_2">
     <g id="text_2">
      <!-- MVT -->
      <g transform="translate(113.879635 276.590438) scale(0.1 -0.1)">
       <use xlink:href="#DejaVuSans-4d"/>
       <use xlink:href="#DejaVuSans-56" transform="translate(86.279297 0)"/>
       <use xlink:href="#DejaVuSans-54" transform="translate(154.6875 0)"/>
      </g>
      <!-- (SIMD) -->
      <g transform="translate(107.953073 287.78825) scale(0.1 -0.1)">
       <defs>
        <path id="DejaVuSans-28" d="M 1984 4856 
Q 1566 4138 1362 3434 
Q 1159 2731 1159 2009 
Q 1159 1288 1364 580 
Q 1569 -128 1984 -844 
L 1484 -844 
Q 1016 -109 783 600 
Q 550 1309 550 2009 
Q 550 2706 781 3412 
Q 1013 4119 1484 4856 
L 1984 4856 
z
" transform="scale(0.015625)"/>
        <path id="DejaVuSans-53" d="M 3425 4513 
L 3425 3897 
Q 3066 4069 2747 4153 
Q 2428 4238 2131 4238 
Q 1616 4238 1336 4038 
Q 1056 3838 1056 3469 
Q 1056 3159 1242 3001 
Q 1428 2844 1947 2747 
L 2328 2669 
Q 3034 2534 3370 2195 
Q 3706 1856 3706 1288 
Q 3706 609 3251 259 
Q 2797 -91 1919 -91 
Q 1588 -91 1214 -16 
Q 841 59 441 206 
L 441 856 
Q 825 641 1194 531 
Q 1563 422 1919 422 
Q 2459 422 2753 634 
Q 3047 847 3047 1241 
Q 3047 1584 2836 1778 
Q 2625 1972 2144 2069 
L 1759 2144 
Q 1053 2284 737 2584 
Q 422 2884 422 3419 
Q 422 4038 858 4394 
Q 1294 4750 2059 4750 
Q 2388 4750 2728 4690 
Q 3069 4631 3425 4513 
z
" transform="scale(0.015625)"/>
        <path id="DejaVuSans-49" d="M 628 4666 
L 1259 4666 
L 1259 0 
L 628 0 
L 628 4666 
z
" transform="scale(0.015625)"/>
        <path id="DejaVuSans-44" d="M 1259 4147 
L 1259 519 
L 2022 519 
Q 2988 519 3436 956 
Q 3884 1394 3884 2338 
Q 3884 3275 3436 3711 
Q 2988 4147 2022 4147 
L 1259 4147 
z
M 628 4666 
L 1925 4666 
Q 3281 4666 3915 4102 
Q 4550 3538 4550 2338 
Q 4550 1131 3912 565 
Q 3275 0 1925 0 
L 628 0 
L 628 4666 
z
" transform="scale(0.015625)"/>
        <path id="DejaVuSans-29" d="M 513 4856 
L 1013 4856 
Q 1481 4119 1714 3412 
Q 1947 2706 1947 2009 
Q 1947 1309 1714 600 
Q 1481 -109 1013 -844 
L 513 -844 
Q 928 -128 1133 580 
Q 1338 1288 1338 2009 
Q 1338 2731 1133 3434 
Q 928 4138 513 4856 
z
" transform="scale(0.015625)"/>
       </defs>
       <use xlink:href="#DejaVuSans-28"/>
       <use xlink:href="#DejaVuSans-53" transform="translate(39.013672 0)"/>
       <use xlink:href="#DejaVuSans-49" transform="translate(102.490234 0)"/>
       <use xlink:href="#DejaVuSans-4d" transform="translate(131.982422 0)"/>
       <use xlink:href="#DejaVuSans-44" transform="translate(218.261719 0)"/>
       <use xlink:href="#DejaVuSans-29" transform="translate(295.263672 0)"/>
      </g>
     </g>
    </g>
    <g id="xtick_3">
     <g id="text_3">
      <!-- Mutable -->
      <g transform="translate(162.762153 276.590438) scale(0.1 -0.1)">
       <defs>
        <path id="DejaVuSans-75" d="M 544 1381 
L 544 3500 
L 1119 3500 
L 1119 1403 
Q 1119 906 1312 657 
Q 1506 409 1894 409 
Q 2359 409 2629 706 
Q 2900 1003 2900 1516 
L 2900 3500 
L 3475 3500 
L 3475 0 
L 2900 0 
L 2900 538 
Q 2691 219 2414 64 
Q 2138 -91 1772 -91 
Q 1169 -91 856 284 
Q 544 659 544 1381 
z
M 1991 3584 
L 1991 3584 
z
" transform="scale(0.015625)"/>
        <path id="DejaVuSans-74" d="M 1172 4494 
L 1172 3500 
L 2356 3500 
L 2356 3053 
L 1172 3053 
L 1172 1153 
Q 1172 725 1289 603 
Q 1406 481 1766 481 
L 2356 481 
L 2356 0 
L 1766 0 
Q 1100 0 847 248 
Q 594 497 594 1153 
L 594 3053 
L 172 3053 
L 172 3500 
L 594 3500 
L 594 4494 
L 1172 4494 
z
" transform="scale(0.015625)"/>
        <path id="DejaVuSans-61" d="M 2194 1759 
Q 1497 1759 1228 1600 
Q 959 1441 959 1056 
Q 959 750 1161 570 
Q 1363 391 1709 391 
Q 2188 391 2477 730 
Q 2766 1069 2766 1631 
L 2766 1759 
L 2194 1759 
z
M 3341 1997 
L 3341 0 
L 2766 0 
L 2766 531 
Q 2569 213 2275 61 
Q 1981 -91 1556 -91 
Q 1019 -91 701 211 
Q 384 513 384 1019 
Q 384 1609 779 1909 
Q 1175 2209 1959 2209 
L 2766 2209 
L 2766 2266 
Q 2766 2663 2505 2880 
Q 2244 3097 1772 3097 
Q 1472 3097 1187 3025 
Q 903 2953 641 2809 
L 641 3341 
Q 956 3463 1253 3523 
Q 1550 3584 1831 3584 
Q 2591 3584 2966 3190 
Q 3341 2797 3341 1997 
z
" transform="scale(0.015625)"/>
        <path id="DejaVuSans-62" d="M 3116 1747 
Q 3116 2381 2855 2742 
Q 2594 3103 2138 3103 
Q 1681 3103 1420 2742 
Q 1159 2381 1159 1747 
Q 1159 1113 1420 752 
Q 1681 391 2138 391 
Q 2594 391 2855 752 
Q 3116 1113 3116 1747 
z
M 1159 2969 
Q 1341 3281 1617 3432 
Q 1894 3584 2278 3584 
Q 2916 3584 3314 3078 
Q 3713 2572 3713 1747 
Q 3713 922 3314 415 
Q 2916 -91 2278 -91 
Q 1894 -91 1617 61 
Q 1341 213 1159 525 
L 1159 0 
L 581 0 
L 581 4863 
L 1159 4863 
L 1159 2969 
z
" transform="scale(0.015625)"/>
        <path id="DejaVuSans-6c" d="M 603 4863 
L 1178 4863 
L 1178 0 
L 603 0 
L 603 4863 
z
" transform="scale(0.015625)"/>
        <path id="DejaVuSans-65" d="M 3597 1894 
L 3597 1613 
L 953 1613 
Q 991 1019 1311 708 
Q 1631 397 2203 397 
Q 2534 397 2845 478 
Q 3156 559 3463 722 
L 3463 178 
Q 3153 47 2828 -22 
Q 2503 -91 2169 -91 
Q 1331 -91 842 396 
Q 353 884 353 1716 
Q 353 2575 817 3079 
Q 1281 3584 2069 3584 
Q 2775 3584 3186 3129 
Q 3597 2675 3597 1894 
z
M 3022 2063 
Q 3016 2534 2758 2815 
Q 2500 3097 2075 3097 
Q 1594 3097 1305 2825 
Q 1016 2553 972 2059 
L 3022 2063 
z
" transform="scale(0.015625)"/>
       </defs>
       <use xlink:href="#DejaVuSans-4d"/>
       <use xlink:href="#DejaVuSans-75" transform="translate(86.279297 0)"/>
       <use xlink:href="#DejaVuSans-74" transform="translate(149.658203 0)"/>
       <use xlink:href="#DejaVuSans-61" transform="translate(188.867188 0)"/>
       <use xlink:href="#DejaVuSans-62" transform="translate(250.146484 0)"/>
       <use xlink:href="#DejaVuSans-6c" transform="translate(313.623047 0)"/>
       <use xlink:href="#DejaVuSans-65" transform="translate(341.40625 0)"/>
      </g>
      <!-- MVT -->
      <g transform="translate(172.120747 287.78825) scale(0.1 -0.1)">
       <use xlink:href="#DejaVuSans-4d"/>
       <use xlink:href="#DejaVuSans-56" transform="translate(86.279297 0)"/>
       <use xlink:href="#DejaVuSans-54" transform="translate(154.6875 0)"/>
      </g>
     </g>
    </g>
    <g id="xtick_4">
     <g id="text_4">
      <!-- Mutable -->
      <g transform="translate(221.003264 276.590438) scale(0.1 -0.1)">
       <use xlink:href="#DejaVuSans-4d"/>
       <use xlink:href="#DejaVuSans-75" transform="translate(86.279297 0)"/>
       <use xlink:href="#DejaVuSans-74" transform="translate(149.658203 0)"/>
       <use xlink:href="#DejaVuSans-61" transform="translate(188.867188 0)"/>
       <use xlink:href="#DejaVuSans-62" transform="translate(250.146484 0)"/>
       <use xlink:href="#DejaVuSans-6c" transform="translate(313.623047 0)"/>
       <use xlink:href="#DejaVuSans-65" transform="translate(341.40625 0)"/>
      </g>
      <!-- MVT -->
      <g transform="translate(230.361858 287.78825) scale(0.1 -0.1)">
       <use xlink:href="#DejaVuSans-4d"/>
       <use xlink:href="#DejaVuSans-56" transform="translate(86.279297 0)"/>
       <use xlink:href="#DejaVuSans-54" transform="translate(154.6875 0)"/>
      </g>
      <!-- (SIMD) -->
      <g transform="translate(224.435295 298.986063) scale(0.1 -0.1)">
       <use xlink:href="#DejaVuSans-28"/>
       <use xlink:href="#DejaVuSans-53" transform="translate(39.013672 0)"/>
       <use xlink:href="#DejaVuSans-49" transform="translate(102.490234 0)"/>
       <use xlink:href="#DejaVuSans-4d" transform="translate(131.982422 0)"/>
       <use xlink:href="#DejaVuSans-44" transform="translate(218.261719 0)"/>
       <use xlink:href="#DejaVuSans-29" transform="translate(295.263672 0)"/>
      </g>
     </g>
    </g>
    <g id="xtick_5">
     <g id="text_5">
      <!-- MVT -->
      <g transform="translate(288.602969 276.590438) scale(0.1 -0.1)">
       <use xlink:href="#DejaVuSans-4d"/>
       <use xlink:href="#DejaVuSans-56" transform="translate(86.279297 0)"/>
       <use xlink:href="#DejaVuSans-54" transform="translate(154.6875 0)"/>
      </g>
      <!-- (C++) -->
      <g transform="translate(283.618594 287.78825) scale(0.1 -0.1)">
       <defs>
        <path id="DejaVuSans-43" d="M 4122 4306 
L 4122 3641 
Q 3803 3938 3442 4084 
Q 3081 4231 2675 4231 
Q 1875 4231 1450 3742 
Q 1025 3253 1025 2328 
Q 1025 1406 1450 917 
Q 1875 428 2675 428 
Q 3081 428 3442 575 
Q 3803 722 4122 1019 
L 4122 359 
Q 3791 134 3420 21 
Q 3050 -91 2638 -91 
Q 1578 -91 968 557 
Q 359 1206 359 2328 
Q 359 3453 968 4101 
Q 1578 4750 2638 4750 
Q 3056 4750 3426 4639 
Q 3797 4528 4122 4306 
z
" transform="scale(0.015625)"/>
        <path id="DejaVuSans-2b" d="M 2944 4013 
L 2944 2272 
L 4684 2272 
L 4684 1741 
L 2944 1741 
L 2944 0 
L 2419 0 
L 2419 1741 
L 678 1741 
L 678 2272 
L 2419 2272 
L 2419 4013 
L 2944 4013 
z
" transform="scale(0.015625)"/>
       </defs>
       <use xlink:href="#DejaVuSans-28"/>
       <use xlink:href="#DejaVuSans-43" transform="translate(39.013672 0)"/>
       <use xlink:href="#DejaVuSans-2b" transform="translate(108.837891 0)"/>
       <use xlink:href="#DejaVuSans-2b" transform="translate(192.626953 0)"/>
       <use xlink:href="#DejaVuSans-29" transform="translate(276.416016 0)"/>
      </g>
     </g>
    </g>
    <g id="xtick_6">
     <g id="text_6">
      <!-- MVT -->
      <g transform="translate(346.84408 276.590438) scale(0.1 -0.1)">
       <use xlink:href="#DejaVuSans-4d"/>
       <use xlink:href="#DejaVuSans-56" transform="translate(86.279297 0)"/>
       <use xlink:href="#DejaVuSans-54" transform="translate(154.6875 0)"/>
      </g>
      <!-- (C++, SIMD) -->
      <g transform="translate(325.868299 287.78825) scale(0.1 -0.1)">
       <defs>
        <path id="DejaVuSans-2c" d="M 750 794 
L 1409 794 
L 1409 256 
L 897 -744 
L 494 -744 
L 750 256 
L 750 794 
z
" transform="scale(0.015625)"/>
        <path id="DejaVuSans-20" transform="scale(0.015625)"/>
       </defs>
       <use xlink:href="#DejaVuSans-28"/>
       <use xlink:href="#DejaVuSans-43" transform="translate(39.013672 0)"/>
       <use xlink:href="#DejaVuSans-2b" transform="translate(108.837891 0)"/>
       <use xlink:href="#DejaVuSans-2b" transform="translate(192.626953 0)"/>
       <use xlink:href="#DejaVuSans-2c" transform="translate(276.416016 0)"/>
       <use xlink:href="#DejaVuSans-20" transform="translate(308.203125 0)"/>
       <use xlink:href="#DejaVuSans-53" transform="translate(339.990234 0)"/>
       <use xlink:href="#DejaVuSans-49" transform="translate(403.466797 0)"/>
       <use xlink:href="#DejaVuSans-4d" transform="translate(432.958984 0)"/>
       <use xlink:href="#DejaVuSans-44" transform="translate(519.238281 0)"/>
       <use xlink:href="#DejaVuSans-29" transform="translate(596.240234 0)"/>
      </g>
     </g>
    </g>
    <g id="xtick_7">
     <g id="text_7">
      <!-- CAPT -->
      <g transform="translate(402.893003 276.590438) scale(0.1 -0.1)">
       <defs>
        <path id="DejaVuSans-41" d="M 2188 4044 
L 1331 1722 
L 3047 1722 
L 2188 4044 
z
M 1831 4666 
L 2547 4666 
L 4325 0 
L 3669 0 
L 3244 1197 
L 1141 1197 
L 716 0 
L 50 0 
L 1831 4666 
z
" transform="scale(0.015625)"/>
        <path id="DejaVuSans-50" d="M 1259 4147 
L 1259 2394 
L 2053 2394 
Q 2494 2394 2734 2622 
Q 2975 2850 2975 3272 
Q 2975 3691 2734 3919 
Q 2494 4147 2053 4147 
L 1259 4147 
z
M 628 4666 
L 2053 4666 
Q 2838 4666 3239 4311 
Q 3641 3956 3641 3272 
Q 3641 2581 3239 2228 
Q 2838 1875 2053 1875 
L 1259 1875 
L 1259 0 
L 628 0 
L 628 4666 
z
" transform="scale(0.015625)"/>
       </defs>
       <use xlink:href="#DejaVuSans-43"/>
       <use xlink:href="#DejaVuSans-41" transform="translate(69.824219 0)"/>
       <use xlink:href="#DejaVuSans-50" transform="translate(138.232422 0)"/>
       <use xlink:href="#DejaVuSans-54" transform="translate(198.535156 0)"/>
      </g>
     </g>
    </g>
    <g id="xtick_8">
     <g id="text_8">
      <!-- CAPT -->
      <g transform="translate(461.134115 276.590438) scale(0.1 -0.1)">
       <use xlink:href="#DejaVuSans-43"/>
       <use xlink:href="#DejaVuSans-41" transform="translate(69.824219 0)"/>
       <use xlink:href="#DejaVuSans-50" transform="translate(138.232422 0)"/>
       <use xlink:href="#DejaVuSans-54" transform="translate(198.535156 0)"/>
      </g>
      <!-- (SIMD) -->
      <g transform="translate(457.39974 287.78825) scale(0.1 -0.1)">
       <use xlink:href="#DejaVuSans-28"/>
       <use xlink:href="#DejaVuSans-53" transform="translate(39.013672 0)"/>
       <use xlink:href="#DejaVuSans-49" transform="translate(102.490234 0)"/>
       <use xlink:href="#DejaVuSans-4d" transform="translate(131.982422 0)"/>
       <use xlink:href="#DejaVuSans-44" transform="translate(218.261719 0)"/>
       <use xlink:href="#DejaVuSans-29" transform="translate(295.263672 0)"/>
      </g>
     </g>
    </g>
    <g id="xtick_9">
     <g id="text_9">
      <!-- kiddo -->
      <g transform="translate(518.663507 276.590438) scale(0.1 -0.1)">
       <defs>
        <path id="DejaVuSans-6b" d="M 581 4863 
L 1159 4863 
L 1159 1991 
L 2875 3500 
L 3609 3500 
L 1753 1863 
L 3688 0 
L 2938 0 
L 1159 1709 
L 1159 0 
L 581 0 
L 581 4863 
z
" transform="scale(0.015625)"/>
        <path id="DejaVuSans-69" d="M 603 3500 
L 1178 3500 
L 1178 0 
L 603 0 
L 603 3500 
z
M 603 4863 
L 1178 4863 
L 1178 4134 
L 603 4134 
L 603 4863 
z
" transform="scale(0.015625)"/>
        <path id="DejaVuSans-64" d="M 2906 2969 
L 2906 4863 
L 3481 4863 
L 3481 0 
L 2906 0 
L 2906 525 
Q 2725 213 2448 61 
Q 2172 -91 1784 -91 
Q 1150 -91 751 415 
Q 353 922 353 1747 
Q 353 2572 751 3078 
Q 1150 3584 1784 3584 
Q 2172 3584 2448 3432 
Q 2725 3281 2906 2969 
z
M 947 1747 
Q 947 1113 1208 752 
Q 1469 391 1925 391 
Q 2381 391 2643 752 
Q 2906 1113 2906 1747 
Q 2906 2381 2643 2742 
Q 2381 3103 1925 3103 
Q 1469 3103 1208 2742 
Q 947 2381 947 1747 
z
" transform="scale(0.015625)"/>
        <path id="DejaVuSans-6f" d="M 1959 3097 
Q 1497 3097 1228 2736 
Q 959 2375 959 1747 
Q 959 1119 1226 758 
Q 1494 397 1959 397 
Q 2419 397 2687 759 
Q 2956 1122 2956 1747 
Q 2956 2369 2687 2733 
Q 2419 3097 1959 3097 
z
M 1959 3584 
Q 2709 3584 3137 3096 
Q 3566 2609 3566 1747 
Q 3566 888 3137 398 
Q 2709 -91 1959 -91 
Q 1206 -91 779 398 
Q 353 888 353 1747 
Q 353 2609 779 3096 
Q 1206 3584 1959 3584 
z
" transform="scale(0.015625)"/>
       </defs>
       <use xlink:href="#DejaVuSans-6b"/>
       <use xlink:href="#DejaVuSans-69" transform="translate(57.910156 0)"/>
       <use xlink:href="#DejaVuSans-64" transform="translate(85.693359 0)"/>
       <use xlink:href="#DejaVuSans-64" transform="translate(149.169922 0)"/>
       <use xlink:href="#DejaVuSans-6f" transform="translate(212.646484 0)"/>
      </g>
     </g>
    </g>
   </g>
   <g id="matplotlib.axis_2">
    <g id="ytick_1">
     <g id="line2d_1">
      <defs>
       <path id="m2814eb736a" d="M 0 0 
L -3.5 0 
" style="stroke: #000000; stroke-width: 0.8"/>
      </defs>
      <g>
       <use xlink:href="#m2814eb736a" x="37.30625" y="251.515091" style="stroke: #000000; stroke-width: 0.8"/>
      </g>
     </g>
     <g id="text_10">
      <!-- 0.207 -->
      <g transform="translate(1.678125 255.31431) scale(0.1 -0.1)">
       <defs>
        <path id="DejaVuSans-30" d="M 2034 4250 
Q 1547 4250 1301 3770 
Q 1056 3291 1056 2328 
Q 1056 1369 1301 889 
Q 1547 409 2034 409 
Q 2525 409 2770 889 
Q 3016 1369 3016 2328 
Q 3016 3291 2770 3770 
Q 2525 4250 2034 4250 
z
M 2034 4750 
Q 2819 4750 3233 4129 
Q 3647 3509 3647 2328 
Q 3647 1150 3233 529 
Q 2819 -91 2034 -91 
Q 1250 -91 836 529 
Q 422 1150 422 2328 
Q 422 3509 836 4129 
Q 1250 4750 2034 4750 
z
" transform="scale(0.015625)"/>
        <path id="DejaVuSans-2e" d="M 684 794 
L 1344 794 
L 1344 0 
L 684 0 
L 684 794 
z
" transform="scale(0.015625)"/>
        <path id="DejaVuSans-32" d="M 1228 531 
L 3431 531 
L 3431 0 
L 469 0 
L 469 531 
Q 828 903 1448 1529 
Q 2069 2156 2228 2338 
Q 2531 2678 2651 2914 
Q 2772 3150 2772 3378 
Q 2772 3750 2511 3984 
Q 2250 4219 1831 4219 
Q 1534 4219 1204 4116 
Q 875 4013 500 3803 
L 500 4441 
Q 881 4594 1212 4672 
Q 1544 4750 1819 4750 
Q 2544 4750 2975 4387 
Q 3406 4025 3406 3419 
Q 3406 3131 3298 2873 
Q 3191 2616 2906 2266 
Q 2828 2175 2409 1742 
Q 1991 1309 1228 531 
z
" transform="scale(0.015625)"/>
        <path id="DejaVuSans-37" d="M 525 4666 
L 3525 4666 
L 3525 4397 
L 1831 0 
L 1172 0 
L 2766 4134 
L 525 4134 
L 525 4666 
z
" transform="scale(0.015625)"/>
       </defs>
       <use xlink:href="#DejaVuSans-30"/>
       <use xlink:href="#DejaVuSans-2e" transform="translate(63.623047 0)"/>
       <use xlink:href="#DejaVuSans-32" transform="translate(95.410156 0)"/>
       <use xlink:href="#DejaVuSans-30" transform="translate(159.033203 0)"/>
       <use xlink:href="#DejaVuSans-37" transform="translate(222.65625 0)"/>
      </g>
     </g>
    </g>
    <g id="ytick_2">
     <g id="line2d_2">
      <g>
       <use xlink:href="#m2814eb736a" x="37.30625" y="197.141095" style="stroke: #000000; stroke-width: 0.8"/>
      </g>
     </g>
     <g id="text_11">
      <!-- $\mathdefault{10^{0}}$ -->
      <g transform="translate(12.70625 200.940314) scale(0.1 -0.1)">
       <defs>
        <path id="DejaVuSans-31" d="M 794 531 
L 1825 531 
L 1825 4091 
L 703 3866 
L 703 4441 
L 1819 4666 
L 2450 4666 
L 2450 531 
L 3481 531 
L 3481 0 
L 794 0 
L 794 531 
z
" transform="scale(0.015625)"/>
       </defs>
       <use xlink:href="#DejaVuSans-31" transform="translate(0 0.765625)"/>
       <use xlink:href="#DejaVuSans-30" transform="translate(63.623047 0.765625)"/>
       <use xlink:href="#DejaVuSans-30" transform="translate(128.203125 39.046875) scale(0.7)"/>
      </g>
     </g>
    </g>
    <g id="ytick_3">
     <g id="line2d_3">
      <g>
       <use xlink:href="#m2814eb736a" x="37.30625" y="117.721819" style="stroke: #000000; stroke-width: 0.8"/>
      </g>
     </g>
     <g id="text_12">
      <!-- $\mathdefault{10^{1}}$ -->
      <g transform="translate(12.70625 121.521038) scale(0.1 -0.1)">
       <use xlink:href="#DejaVuSans-31" transform="translate(0 0.684375)"/>
       <use xlink:href="#DejaVuSans-30" transform="translate(63.623047 0.684375)"/>
       <use xlink:href="#DejaVuSans-31" transform="translate(128.203125 38.965625) scale(0.7)"/>
      </g>
     </g>
    </g>
    <g id="ytick_4">
     <g id="line2d_4">
      <g>
       <use xlink:href="#m2814eb736a" x="37.30625" y="38.302544" style="stroke: #000000; stroke-width: 0.8"/>
      </g>
     </g>
     <g id="text_13">
      <!-- $\mathdefault{10^{2}}$ -->
      <g transform="translate(12.70625 42.101762) scale(0.1 -0.1)">
       <use xlink:href="#DejaVuSans-31" transform="translate(0 0.765625)"/>
       <use xlink:href="#DejaVuSans-30" transform="translate(63.623047 0.765625)"/>
       <use xlink:href="#DejaVuSans-32" transform="translate(128.203125 39.046875) scale(0.7)"/>
      </g>
     </g>
    </g>
    <g id="ytick_5">
     <g id="line2d_5">
      <g>
       <use xlink:href="#m2814eb736a" x="37.30625" y="11.976909" style="stroke: #000000; stroke-width: 0.8"/>
      </g>
     </g>
     <g id="text_14">
      <!-- 215 -->
      <g transform="translate(11.21875 15.776128) scale(0.1 -0.1)">
       <defs>
        <path id="DejaVuSans-35" d="M 691 4666 
L 3169 4666 
L 3169 4134 
L 1269 4134 
L 1269 2991 
Q 1406 3038 1543 3061 
Q 1681 3084 1819 3084 
Q 2600 3084 3056 2656 
Q 3513 2228 3513 1497 
Q 3513 744 3044 326 
Q 2575 -91 1722 -91 
Q 1428 -91 1123 -41 
Q 819 9 494 109 
L 494 744 
Q 775 591 1075 516 
Q 1375 441 1709 441 
Q 2250 441 2565 725 
Q 2881 1009 2881 1497 
Q 2881 1984 2565 2268 
Q 2250 2553 1709 2553 
Q 1456 2553 1204 2497 
Q 953 2441 691 2322 
L 691 4666 
z
" transform="scale(0.015625)"/>
       </defs>
       <use xlink:href="#DejaVuSans-32"/>
       <use xlink:href="#DejaVuSans-31" transform="translate(63.623047 0)"/>
       <use xlink:href="#DejaVuSans-35" transform="translate(127.246094 0)"/>
      </g>
     </g>
    </g>
    <g id="ytick_6">
     <g id="line2d_6">
      <defs>
       <path id="m49715f8678" d="M 0 0 
L -2 0 
" style="stroke: #000000; stroke-width: 0.6"/>
      </defs>
      <g>
       <use xlink:href="#m49715f8678" x="37.30625" y="238.667747" style="stroke: #000000; stroke-width: 0.6"/>
      </g>
     </g>
    </g>
    <g id="ytick_7">
     <g id="line2d_7">
      <g>
       <use xlink:href="#m49715f8678" x="37.30625" y="228.745203" style="stroke: #000000; stroke-width: 0.6"/>
      </g>
     </g>
    </g>
    <g id="ytick_8">
     <g id="line2d_8">
      <g>
       <use xlink:href="#m49715f8678" x="37.30625" y="221.04868" style="stroke: #000000; stroke-width: 0.6"/>
      </g>
     </g>
    </g>
    <g id="ytick_9">
     <g id="line2d_9">
      <g>
       <use xlink:href="#m49715f8678" x="37.30625" y="214.760162" style="stroke: #000000; stroke-width: 0.6"/>
      </g>
     </g>
    </g>
    <g id="ytick_10">
     <g id="line2d_10">
      <g>
       <use xlink:href="#m49715f8678" x="37.30625" y="209.443297" style="stroke: #000000; stroke-width: 0.6"/>
      </g>
     </g>
    </g>
    <g id="ytick_11">
     <g id="line2d_11">
      <g>
       <use xlink:href="#m49715f8678" x="37.30625" y="204.837618" style="stroke: #000000; stroke-width: 0.6"/>
      </g>
     </g>
    </g>
    <g id="ytick_12">
     <g id="line2d_12">
      <g>
       <use xlink:href="#m49715f8678" x="37.30625" y="200.775122" style="stroke: #000000; stroke-width: 0.6"/>
      </g>
     </g>
    </g>
    <g id="ytick_13">
     <g id="line2d_13">
      <g>
       <use xlink:href="#m49715f8678" x="37.30625" y="173.233511" style="stroke: #000000; stroke-width: 0.6"/>
      </g>
     </g>
    </g>
    <g id="ytick_14">
     <g id="line2d_14">
      <g>
       <use xlink:href="#m49715f8678" x="37.30625" y="159.248471" style="stroke: #000000; stroke-width: 0.6"/>
      </g>
     </g>
    </g>
    <g id="ytick_15">
     <g id="line2d_15">
      <g>
       <use xlink:href="#m49715f8678" x="37.30625" y="149.325927" style="stroke: #000000; stroke-width: 0.6"/>
      </g>
     </g>
    </g>
    <g id="ytick_16">
     <g id="line2d_16">
      <g>
       <use xlink:href="#m49715f8678" x="37.30625" y="141.629404" style="stroke: #000000; stroke-width: 0.6"/>
      </g>
     </g>
    </g>
    <g id="ytick_17">
     <g id="line2d_17">
      <g>
       <use xlink:href="#m49715f8678" x="37.30625" y="135.340887" style="stroke: #000000; stroke-width: 0.6"/>
      </g>
     </g>
    </g>
    <g id="ytick_18">
     <g id="line2d_18">
      <g>
       <use xlink:href="#m49715f8678" x="37.30625" y="130.024021" style="stroke: #000000; stroke-width: 0.6"/>
      </g>
     </g>
    </g>
    <g id="ytick_19">
     <g id="line2d_19">
      <g>
       <use xlink:href="#m49715f8678" x="37.30625" y="125.418343" style="stroke: #000000; stroke-width: 0.6"/>
      </g>
     </g>
    </g>
    <g id="ytick_20">
     <g id="line2d_20">
      <g>
       <use xlink:href="#m49715f8678" x="37.30625" y="121.355846" style="stroke: #000000; stroke-width: 0.6"/>
      </g>
     </g>
    </g>
    <g id="ytick_21">
     <g id="line2d_21">
      <g>
       <use xlink:href="#m49715f8678" x="37.30625" y="93.814235" style="stroke: #000000; stroke-width: 0.6"/>
      </g>
     </g>
    </g>
    <g id="ytick_22">
     <g id="line2d_22">
      <g>
       <use xlink:href="#m49715f8678" x="37.30625" y="79.829195" style="stroke: #000000; stroke-width: 0.6"/>
      </g>
     </g>
    </g>
    <g id="ytick_23">
     <g id="line2d_23">
      <g>
       <use xlink:href="#m49715f8678" x="37.30625" y="69.906651" style="stroke: #000000; stroke-width: 0.6"/>
      </g>
     </g>
    </g>
    <g id="ytick_24">
     <g id="line2d_24">
      <g>
       <use xlink:href="#m49715f8678" x="37.30625" y="62.210128" style="stroke: #000000; stroke-width: 0.6"/>
      </g>
     </g>
    </g>
    <g id="ytick_25">
     <g id="line2d_25">
      <g>
       <use xlink:href="#m49715f8678" x="37.30625" y="55.921611" style="stroke: #000000; stroke-width: 0.6"/>
      </g>
     </g>
    </g>
    <g id="ytick_26">
     <g id="line2d_26">
      <g>
       <use xlink:href="#m49715f8678" x="37.30625" y="50.604745" style="stroke: #000000; stroke-width: 0.6"/>
      </g>
     </g>
    </g>
    <g id="ytick_27">
     <g id="line2d_27">
      <g>
       <use xlink:href="#m49715f8678" x="37.30625" y="45.999067" style="stroke: #000000; stroke-width: 0.6"/>
      </g>
     </g>
    </g>
    <g id="ytick_28">
     <g id="line2d_28">
      <g>
       <use xlink:href="#m49715f8678" x="37.30625" y="41.93657" style="stroke: #000000; stroke-width: 0.6"/>
      </g>
     </g>
    </g>
    <g id="ytick_29">
     <g id="line2d_29">
      <g>
       <use xlink:href="#m49715f8678" x="37.30625" y="14.394959" style="stroke: #000000; stroke-width: 0.6"/>
      </g>
     </g>
    </g>
    <g id="text_15">
     <!-- Solve Time (Milliseconds) -->
     <g transform="translate(7.598438 195.025688) rotate(-90) scale(0.1 -0.1)">
      <defs>
       <path id="DejaVuSans-76" d="M 191 3500 
L 800 3500 
L 1894 563 
L 2988 3500 
L 3597 3500 
L 2284 0 
L 1503 0 
L 191 3500 
z
" transform="scale(0.015625)"/>
       <path id="DejaVuSans-6d" d="M 3328 2828 
Q 3544 3216 3844 3400 
Q 4144 3584 4550 3584 
Q 5097 3584 5394 3201 
Q 5691 2819 5691 2113 
L 5691 0 
L 5113 0 
L 5113 2094 
Q 5113 2597 4934 2840 
Q 4756 3084 4391 3084 
Q 3944 3084 3684 2787 
Q 3425 2491 3425 1978 
L 3425 0 
L 2847 0 
L 2847 2094 
Q 2847 2600 2669 2842 
Q 2491 3084 2119 3084 
Q 1678 3084 1418 2786 
Q 1159 2488 1159 1978 
L 1159 0 
L 581 0 
L 581 3500 
L 1159 3500 
L 1159 2956 
Q 1356 3278 1631 3431 
Q 1906 3584 2284 3584 
Q 2666 3584 2933 3390 
Q 3200 3197 3328 2828 
z
" transform="scale(0.015625)"/>
       <path id="DejaVuSans-73" d="M 2834 3397 
L 2834 2853 
Q 2591 2978 2328 3040 
Q 2066 3103 1784 3103 
Q 1356 3103 1142 2972 
Q 928 2841 928 2578 
Q 928 2378 1081 2264 
Q 1234 2150 1697 2047 
L 1894 2003 
Q 2506 1872 2764 1633 
Q 3022 1394 3022 966 
Q 3022 478 2636 193 
Q 2250 -91 1575 -91 
Q 1294 -91 989 -36 
Q 684 19 347 128 
L 347 722 
Q 666 556 975 473 
Q 1284 391 1588 391 
Q 1994 391 2212 530 
Q 2431 669 2431 922 
Q 2431 1156 2273 1281 
Q 2116 1406 1581 1522 
L 1381 1569 
Q 847 1681 609 1914 
Q 372 2147 372 2553 
Q 372 3047 722 3315 
Q 1072 3584 1716 3584 
Q 2034 3584 2315 3537 
Q 2597 3491 2834 3397 
z
" transform="scale(0.015625)"/>
       <path id="DejaVuSans-63" d="M 3122 3366 
L 3122 2828 
Q 2878 2963 2633 3030 
Q 2388 3097 2138 3097 
Q 1578 3097 1268 2742 
Q 959 2388 959 1747 
Q 959 1106 1268 751 
Q 1578 397 2138 397 
Q 2388 397 2633 464 
Q 2878 531 3122 666 
L 3122 134 
Q 2881 22 2623 -34 
Q 2366 -91 2075 -91 
Q 1284 -91 818 406 
Q 353 903 353 1747 
Q 353 2603 823 3093 
Q 1294 3584 2113 3584 
Q 2378 3584 2631 3529 
Q 2884 3475 3122 3366 
z
" transform="scale(0.015625)"/>
       <path id="DejaVuSans-6e" d="M 3513 2113 
L 3513 0 
L 2938 0 
L 2938 2094 
Q 2938 2591 2744 2837 
Q 2550 3084 2163 3084 
Q 1697 3084 1428 2787 
Q 1159 2491 1159 1978 
L 1159 0 
L 581 0 
L 581 3500 
L 1159 3500 
L 1159 2956 
Q 1366 3272 1645 3428 
Q 1925 3584 2291 3584 
Q 2894 3584 3203 3211 
Q 3513 2838 3513 2113 
z
" transform="scale(0.015625)"/>
      </defs>
      <use xlink:href="#DejaVuSans-53"/>
      <use xlink:href="#DejaVuSans-6f" transform="translate(63.476562 0)"/>
      <use xlink:href="#DejaVuSans-6c" transform="translate(124.658203 0)"/>
      <use xlink:href="#DejaVuSans-76" transform="translate(152.441406 0)"/>
      <use xlink:href="#DejaVuSans-65" transform="translate(211.621094 0)"/>
      <use xlink:href="#DejaVuSans-20" transform="translate(273.144531 0)"/>
      <use xlink:href="#DejaVuSans-54" transform="translate(304.931641 0)"/>
      <use xlink:href="#DejaVuSans-69" transform="translate(362.890625 0)"/>
      <use xlink:href="#DejaVuSans-6d" transform="translate(390.673828 0)"/>
      <use xlink:href="#DejaVuSans-65" transform="translate(488.085938 0)"/>
      <use xlink:href="#DejaVuSans-20" transform="translate(549.609375 0)"/>
      <use xlink:href="#DejaVuSans-28" transform="translate(581.396484 0)"/>
      <use xlink:href="#DejaVuSans-4d" transform="translate(620.410156 0)"/>
      <use xlink:href="#DejaVuSans-69" transform="translate(706.689453 0)"/>
      <use xlink:href="#DejaVuSans-6c" transform="translate(734.472656 0)"/>
      <use xlink:href="#DejaVuSans-6c" transform="translate(762.255859 0)"/>
      <use xlink:href="#DejaVuSans-69" transform="translate(790.039062 0)"/>
      <use xlink:href="#DejaVuSans-73" transform="translate(817.822266 0)"/>
      <use xlink:href="#DejaVuSans-65" transform="translate(869.921875 0)"/>
      <use xlink:href="#DejaVuSans-63" transform="translate(931.445312 0)"/>
      <use xlink:href="#DejaVuSans-6f" transform="translate(986.425781 0)"/>
      <use xlink:href="#DejaVuSans-6e" transform="translate(1047.607422 0)"/>
      <use xlink:href="#DejaVuSans-64" transform="translate(1110.986328 0)"/>
      <use xlink:href="#DejaVuSans-73" transform="translate(1174.462891 0)"/>
      <use xlink:href="#DejaVuSans-29" transform="translate(1226.5625 0)"/>
     </g>
    </g>
   </g>
   <g id="line2d_30">
    <path d="M 66.426806 216.17817 
L 66.426806 60.098509 
" clip-path="url(#p367e5a2643)" style="fill: none; stroke: #2f2f2f; stroke-width: 1.125; stroke-linecap: square"/>
   </g>
   <g id="line2d_31">
    <path d="M 66.426806 171.966008 
L 66.426806 126.706405 
" clip-path="url(#p367e5a2643)" style="fill: none; stroke: #2f2f2f; stroke-width: 3.375; stroke-linecap: square"/>
   </g>
   <g id="line2d_32">
    <path d="M 66.426806 150.245505 
" clip-path="url(#p367e5a2643)" style="fill: none; stroke: #2f2f2f; stroke-width: 1.5; stroke-linecap: square"/>
    <defs>
     <path id="m148859f014" d="M 1.40625 0 
L -1.40625 -0 
" style="stroke: #ffffff; stroke-width: 0.675"/>
    </defs>
    <g clip-path="url(#p367e5a2643)">
     <use xlink:href="#m148859f014" x="66.426806" y="150.245505" style="fill: #ffffff; stroke: #ffffff; stroke-width: 0.675"/>
    </g>
   </g>
   <g id="line2d_33">
    <path d="M 124.667917 214.55909 
L 124.667917 60.211218 
" clip-path="url(#p367e5a2643)" style="fill: none; stroke: #2f2f2f; stroke-width: 1.125; stroke-linecap: square"/>
   </g>
   <g id="line2d_34">
    <path d="M 124.667917 169.07605 
L 124.667917 124.585636 
" clip-path="url(#p367e5a2643)" style="fill: none; stroke: #2f2f2f; stroke-width: 3.375; stroke-linecap: square"/>
   </g>
   <g id="line2d_35">
    <path d="M 124.667917 147.943329 
" clip-path="url(#p367e5a2643)" style="fill: none; stroke: #2f2f2f; stroke-width: 1.5; stroke-linecap: square"/>
    <g clip-path="url(#p367e5a2643)">
     <use xlink:href="#m148859f014" x="124.667917" y="147.943329" style="fill: #ffffff; stroke: #ffffff; stroke-width: 0.675"/>
    </g>
   </g>
   <g id="line2d_36">
    <path d="M 182.909028 213.531147 
L 182.909028 59.5372 
" clip-path="url(#p367e5a2643)" style="fill: none; stroke: #2f2f2f; stroke-width: 1.125; stroke-linecap: square"/>
   </g>
   <g id="line2d_37">
    <path d="M 182.909028 172.219095 
L 182.909028 124.048543 
" clip-path="url(#p367e5a2643)" style="fill: none; stroke: #2f2f2f; stroke-width: 3.375; stroke-linecap: square"/>
   </g>
   <g id="line2d_38">
    <path d="M 182.909028 149.975481 
" clip-path="url(#p367e5a2643)" style="fill: none; stroke: #2f2f2f; stroke-width: 1.5; stroke-linecap: square"/>
    <g clip-path="url(#p367e5a2643)">
     <use xlink:href="#m148859f014" x="182.909028" y="149.975481" style="fill: #ffffff; stroke: #ffffff; stroke-width: 0.675"/>
    </g>
   </g>
   <g id="line2d_39">
    <path d="M 241.150139 215.366004 
L 241.150139 61.495807 
" clip-path="url(#p367e5a2643)" style="fill: none; stroke: #2f2f2f; stroke-width: 1.125; stroke-linecap: square"/>
   </g>
   <g id="line2d_40">
    <path d="M 241.150139 173.137504 
L 241.150139 127.612123 
" clip-path="url(#p367e5a2643)" style="fill: none; stroke: #2f2f2f; stroke-width: 3.375; stroke-linecap: square"/>
   </g>
   <g id="line2d_41">
    <path d="M 241.150139 151.026503 
" clip-path="url(#p367e5a2643)" style="fill: none; stroke: #2f2f2f; stroke-width: 1.5; stroke-linecap: square"/>
    <g clip-path="url(#p367e5a2643)">
     <use xlink:href="#m148859f014" x="241.150139" y="151.026503" style="fill: #ffffff; stroke: #ffffff; stroke-width: 0.675"/>
    </g>
   </g>
   <g id="line2d_42">
    <path d="M 299.39125 207.473104 
L 299.39125 51.004319 
" clip-path="url(#p367e5a2643)" style="fill: none; stroke: #2f2f2f; stroke-width: 1.125; stroke-linecap: square"/>
   </g>
   <g id="line2d_43">
    <path d="M 299.39125 159.680803 
L 299.39125 115.827975 
" clip-path="url(#p367e5a2643)" style="fill: none; stroke: #2f2f2f; stroke-width: 3.375; stroke-linecap: square"/>
   </g>
   <g id="line2d_44">
    <path d="M 299.39125 140.942416 
" clip-path="url(#p367e5a2643)" style="fill: none; stroke: #2f2f2f; stroke-width: 1.5; stroke-linecap: square"/>
    <g clip-path="url(#p367e5a2643)">
     <use xlink:href="#m148859f014" x="299.39125" y="140.942416" style="fill: #ffffff; stroke: #ffffff; stroke-width: 0.675"/>
    </g>
   </g>
   <g id="line2d_45">
    <path d="M 357.632361 208.087016 
L 357.632361 52.598783 
" clip-path="url(#p367e5a2643)" style="fill: none; stroke: #2f2f2f; stroke-width: 1.125; stroke-linecap: square"/>
   </g>
   <g id="line2d_46">
    <path d="M 357.632361 161.621701 
L 357.632361 116.537209 
" clip-path="url(#p367e5a2643)" style="fill: none; stroke: #2f2f2f; stroke-width: 3.375; stroke-linecap: square"/>
   </g>
   <g id="line2d_47">
    <path d="M 357.632361 144.23363 
" clip-path="url(#p367e5a2643)" style="fill: none; stroke: #2f2f2f; stroke-width: 1.5; stroke-linecap: square"/>
    <g clip-path="url(#p367e5a2643)">
     <use xlink:href="#m148859f014" x="357.632361" y="144.23363" style="fill: #ffffff; stroke: #ffffff; stroke-width: 0.675"/>
    </g>
   </g>
   <g id="line2d_48">
    <path d="M 415.873472 191.023677 
L 415.873472 44.747699 
" clip-path="url(#p367e5a2643)" style="fill: none; stroke: #2f2f2f; stroke-width: 1.125; stroke-linecap: square"/>
   </g>
   <g id="line2d_49">
    <path d="M 415.873472 150.647528 
L 415.873472 107.213849 
" clip-path="url(#p367e5a2643)" style="fill: none; stroke: #2f2f2f; stroke-width: 3.375; stroke-linecap: square"/>
   </g>
   <g id="line2d_50">
    <path d="M 415.873472 128.781405 
" clip-path="url(#p367e5a2643)" style="fill: none; stroke: #2f2f2f; stroke-width: 1.5; stroke-linecap: square"/>
    <g clip-path="url(#p367e5a2643)">
     <use xlink:href="#m148859f014" x="415.873472" y="128.781405" style="fill: #ffffff; stroke: #ffffff; stroke-width: 0.675"/>
    </g>
   </g>
   <g id="line2d_51">
    <path d="M 474.114583 198.973284 
L 474.114583 52.006528 
" clip-path="url(#p367e5a2643)" style="fill: none; stroke: #2f2f2f; stroke-width: 1.125; stroke-linecap: square"/>
   </g>
   <g id="line2d_52">
    <path d="M 474.114583 160.079249 
L 474.114583 116.118862 
" clip-path="url(#p367e5a2643)" style="fill: none; stroke: #2f2f2f; stroke-width: 3.375; stroke-linecap: square"/>
   </g>
   <g id="line2d_53">
    <path d="M 474.114583 138.458305 
" clip-path="url(#p367e5a2643)" style="fill: none; stroke: #2f2f2f; stroke-width: 1.5; stroke-linecap: square"/>
    <g clip-path="url(#p367e5a2643)">
     <use xlink:href="#m148859f014" x="474.114583" y="138.458305" style="fill: #ffffff; stroke: #ffffff; stroke-width: 0.675"/>
    </g>
   </g>
   <g id="line2d_54">
    <path d="M 532.355694 156.257168 
L 532.355694 32.010867 
" clip-path="url(#p367e5a2643)" style="fill: none; stroke: #2f2f2f; stroke-width: 1.125; stroke-linecap: square"/>
   </g>
   <g id="line2d_55">
    <path d="M 532.355694 124.753036 
L 532.355694 86.736887 
" clip-path="url(#p367e5a2643)" style="fill: none; stroke: #2f2f2f; stroke-width: 3.375; stroke-linecap: square"/>
   </g>
   <g id="line2d_56">
    <path d="M 532.355694 106.430894 
" clip-path="url(#p367e5a2643)" style="fill: none; stroke: #2f2f2f; stroke-width: 1.5; stroke-linecap: square"/>
    <g clip-path="url(#p367e5a2643)">
     <use xlink:href="#m148859f014" x="532.355694" y="106.430894" style="fill: #ffffff; stroke: #ffffff; stroke-width: 0.675"/>
    </g>
   </g>
   <g id="patch_3">
    <path d="M 37.30625 251.515091 
L 37.30625 11.976909 
" style="fill: none; stroke: #000000; stroke-width: 0.8; stroke-linejoin: miter; stroke-linecap: square"/>
   </g>
  </g>
 </g>
 <defs>
  <clipPath id="p367e5a2643">
   <rect x="37.30625" y="0" width="524.17" height="263.492"/>
  </clipPath>
 </defs>
</svg>
