<?xml version="1.0" encoding="utf-8" standalone="no"?>
<!DOCTYPE svg PUBLIC "-//W3C//DTD SVG 1.1//EN"
  "http://www.w3.org/Graphics/SVG/1.1/DTD/svg11.dtd">
<svg xmlns:xlink="http://www.w3.org/1999/xlink" width="360pt" height="324pt" viewBox="0 0 360 324" xmlns="http://www.w3.org/2000/svg" version="1.1">
 <metadata>
  <rdf:RDF xmlns:dc="http://purl.org/dc/elements/1.1/" xmlns:cc="http://creativecommons.org/ns#" xmlns:rdf="http://www.w3.org/1999/02/22-rdf-syntax-ns#">
   <cc:Work>
    <dc:type rdf:resource="http://purl.org/dc/dcmitype/StillImage"/>
    <dc:date>2026-07-17T14:38:30.156317</dc:date>
    <dc:format>image/svg+xml</dc:format>
    <dc:creator>
     <cc:Agent>
      <dc:title>Matplotlib v3.10.9, https://matplotlib.org/</dc:title>
     </cc:Agent>
    </dc:creator>
   </cc:Work>
  </rdf:RDF>
 </metadata>
 <defs>
  <style type="text/css">*{stroke-linejoin: round; stroke-linecap: butt}</style>
 </defs>
 <g id="figure_1">
  <g id="patch_1">
   <path d="M 0 324 
L 360 324 
L 360 0 
L 0 0 
L 0 324 
z
" style="fill: none"/>
  </g>
  <g id="axes_1">
   <g id="patch_2">
    <path d="M 42.11 282.04 
L 349.2 282.04 
L 349.2 10.8 
L 42.11 10.8 
L 42.11 282.04 
z
" style="fill: none"/>
   </g>
   <g id="matplotlib.axis_1">
    <g id="xtick_1">
     <g id="line2d_1">
      <defs>
       <path id="ma544d3a8e8" d="M 0 0 
L 0 3.5 
" style="stroke: #000000; stroke-width: 0.8"/>
      </defs>
      <g>
       <use xlink:href="#ma544d3a8e8" x="56.068636" y="282.04" style="stroke: #000000; stroke-width: 0.8"/>
      </g>
     </g>
     <g id="text_1">
      <!-- 4 -->
      <g transform="translate(52.887386 296.638438) scale(0.1 -0.1)">
       <defs>
        <path id="DejaVuSans-34" d="M 2419 4116 
L 825 1625 
L 2419 1625 
L 2419 4116 
z
M 2253 4666 
L 3047 4666 
L 3047 1625 
L 3713 1625 
L 3713 1100 
L 3047 1100 
L 3047 0 
L 2419 0 
L 2419 1100 
L 313 1100 
L 313 1709 
L 2253 4666 
z
" transform="scale(0.015625)"/>
       </defs>
       <use xlink:href="#DejaVuSans-34"/>
      </g>
     </g>
    </g>
    <g id="xtick_2">
     <g id="line2d_2">
      <g>
       <use xlink:href="#ma544d3a8e8" x="92.48247" y="282.04" style="stroke: #000000; stroke-width: 0.8"/>
      </g>
     </g>
     <g id="text_2">
      <!-- 10 -->
      <g transform="translate(86.11997 296.638438) scale(0.1 -0.1)">
       <defs>
        <path id="DejaVuSans-31" d="M 794 531 
L 1825 531 
L 1825 4091 
L 703 3866 
L 703 4441 
L 1819 4666 
L 2450 4666 
L 2450 531 
L 3481 531 
L 3481 0 
L 794 0 
L 794 531 
z
" transform="scale(0.015625)"/>
        <path id="DejaVuSans-30" d="M 2034 4250 
Q 1547 4250 1301 3770 
Q 1056 3291 1056 2328 
Q 1056 1369 1301 889 
Q 1547 409 2034 409 
Q 2525 409 2770 889 
Q 3016 1369 3016 2328 
Q 3016 3291 2770 3770 
Q 2525 4250 2034 4250 
z
M 2034 4750 
Q 2819 4750 3233 4129 
Q 3647 3509 3647 2328 
Q 3647 1150 3233 529 
Q 2819 -91 2034 -91 
Q 1250 -91 836 529 
Q 422 1150 422 2328 
Q 422 3509 836 4129 
Q 1250 4750 2034 4750 
z
" transform="scale(0.015625)"/>
       </defs>
       <use xlink:href="#DejaVuSans-31"/>
       <use xlink:href="#DejaVuSans-30" transform="translate(63.623047 0)"/>
      </g>
     </g>
    </g>
    <g id="xtick_3">
     <g id="line2d_3">
      <g>
       <use xlink:href="#ma544d3a8e8" x="153.172194" y="282.04" style="stroke: #000000; stroke-width: 0.8"/>
      </g>
     </g>
     <g id="text_3">
      <!-- 20 -->
      <g transform="translate(146.809694 296.638438) scale(0.1 -0.1)">
       <defs>
        <path id="DejaVuSans-32" d="M 1228 531 
L 3431 531 
L 3431 0 
L 469 0 
L 469 531 
Q 828 903 1448 1529 
Q 2069 2156 2228 2338 
Q 2531 2678 2651 2914 
Q 2772 3150 2772 3378 
Q 2772 3750 2511 3984 
Q 2250 4219 1831 4219 
Q 1534 4219 1204 4116 
Q 875 4013 500 3803 
L 500 4441 
Q 881 4594 1212 4672 
Q 1544 4750 1819 4750 
Q 2544 4750 2975 4387 
Q 3406 4025 3406 3419 
Q 3406 3131 3298 2873 
Q 3191 2616 2906 2266 
Q 2828 2175 2409 1742 
Q 1991 1309 1228 531 
z
" transform="scale(0.015625)"/>
       </defs>
       <use xlink:href="#DejaVuSans-32"/>
       <use xlink:href="#DejaVuSans-30" transform="translate(63.623047 0)"/>
      </g>
     </g>
    </g>
    <g id="xtick_4">
     <g id="line2d_4">
      <g>
       <use xlink:href="#ma544d3a8e8" x="213.861917" y="282.04" style="stroke: #000000; stroke-width: 0.8"/>
      </g>
     </g>
     <g id="text_4">
      <!-- 30 -->
      <g transform="translate(207.499417 296.638438) scale(0.1 -0.1)">
       <defs>
        <path id="DejaVuSans-33" d="M 2597 2516 
Q 3050 2419 3304 2112 
Q 3559 1806 3559 1356 
Q 3559 666 3084 287 
Q 2609 -91 1734 -91 
Q 1441 -91 1130 -33 
Q 819 25 488 141 
L 488 750 
Q 750 597 1062 519 
Q 1375 441 1716 441 
Q 2309 441 2620 675 
Q 2931 909 2931 1356 
Q 2931 1769 2642 2001 
Q 2353 2234 1838 2234 
L 1294 2234 
L 1294 2753 
L 1863 2753 
Q 2328 2753 2575 2939 
Q 2822 3125 2822 3475 
Q 2822 3834 2567 4026 
Q 2313 4219 1838 4219 
Q 1578 4219 1281 4162 
Q 984 4106 628 3988 
L 628 4550 
Q 988 4650 1302 4700 
Q 1616 4750 1894 4750 
Q 2613 4750 3031 4423 
Q 3450 4097 3450 3541 
Q 3450 3153 3228 2886 
Q 3006 2619 2597 2516 
z
" transform="scale(0.015625)"/>
       </defs>
       <use xlink:href="#DejaVuSans-33"/>
       <use xlink:href="#DejaVuSans-30" transform="translate(63.623047 0)"/>
      </g>
     </g>
    </g>
    <g id="xtick_5">
     <g id="line2d_5">
      <g>
       <use xlink:href="#ma544d3a8e8" x="274.55164" y="282.04" style="stroke: #000000; stroke-width: 0.8"/>
      </g>
     </g>
     <g id="text_5">
      <!-- 40 -->
      <g transform="translate(268.18914 296.638438) scale(0.1 -0.1)">
       <use xlink:href="#DejaVuSans-34"/>
       <use xlink:href="#DejaVuSans-30" transform="translate(63.623047 0)"/>
      </g>
     </g>
    </g>
    <g id="xtick_6">
     <g id="line2d_6">
      <g>
       <use xlink:href="#ma544d3a8e8" x="335.241364" y="282.04" style="stroke: #000000; stroke-width: 0.8"/>
      </g>
     </g>
     <g id="text_6">
      <!-- 50 -->
      <g transform="translate(328.878864 296.638438) scale(0.1 -0.1)">
       <defs>
        <path id="DejaVuSans-35" d="M 691 4666 
L 3169 4666 
L 3169 4134 
L 1269 4134 
L 1269 2991 
Q 1406 3038 1543 3061 
Q 1681 3084 1819 3084 
Q 2600 3084 3056 2656 
Q 3513 2228 3513 1497 
Q 3513 744 3044 326 
Q 2575 -91 1722 -91 
Q 1428 -91 1123 -41 
Q 819 9 494 109 
L 494 744 
Q 775 591 1075 516 
Q 1375 441 1709 441 
Q 2250 441 2565 725 
Q 2881 1009 2881 1497 
Q 2881 1984 2565 2268 
Q 2250 2553 1709 2553 
Q 1456 2553 1204 2497 
Q 953 2441 691 2322 
L 691 4666 
z
" transform="scale(0.015625)"/>
       </defs>
       <use xlink:href="#DejaVuSans-35"/>
       <use xlink:href="#DejaVuSans-30" transform="translate(63.623047 0)"/>
      </g>
     </g>
    </g>
    <g id="text_7">
     <!-- Voxel width (cm) -->
     <g transform="translate(153.969844 310.316563) scale(0.1 -0.1)">
      <defs>
       <path id="DejaVuSans-56" d="M 1831 0 
L 50 4666 
L 709 4666 
L 2188 738 
L 3669 4666 
L 4325 4666 
L 2547 0 
L 1831 0 
z
" transform="scale(0.015625)"/>
       <path id="DejaVuSans-6f" d="M 1959 3097 
Q 1497 3097 1228 2736 
Q 959 2375 959 1747 
Q 959 1119 1226 758 
Q 1494 397 1959 397 
Q 2419 397 2687 759 
Q 2956 1122 2956 1747 
Q 2956 2369 2687 2733 
Q 2419 3097 1959 3097 
z
M 1959 3584 
Q 2709 3584 3137 3096 
Q 3566 2609 3566 1747 
Q 3566 888 3137 398 
Q 2709 -91 1959 -91 
Q 1206 -91 779 398 
Q 353 888 353 1747 
Q 353 2609 779 3096 
Q 1206 3584 1959 3584 
z
" transform="scale(0.015625)"/>
       <path id="DejaVuSans-78" d="M 3513 3500 
L 2247 1797 
L 3578 0 
L 2900 0 
L 1881 1375 
L 863 0 
L 184 0 
L 1544 1831 
L 300 3500 
L 978 3500 
L 1906 2253 
L 2834 3500 
L 3513 3500 
z
" transform="scale(0.015625)"/>
       <path id="DejaVuSans-65" d="M 3597 1894 
L 3597 1613 
L 953 1613 
Q 991 1019 1311 708 
Q 1631 397 2203 397 
Q 2534 397 2845 478 
Q 3156 559 3463 722 
L 3463 178 
Q 3153 47 2828 -22 
Q 2503 -91 2169 -91 
Q 1331 -91 842 396 
Q 353 884 353 1716 
Q 353 2575 817 3079 
Q 1281 3584 2069 3584 
Q 2775 3584 3186 3129 
Q 3597 2675 3597 1894 
z
M 3022 2063 
Q 3016 2534 2758 2815 
Q 2500 3097 2075 3097 
Q 1594 3097 1305 2825 
Q 1016 2553 972 2059 
L 3022 2063 
z
" transform="scale(0.015625)"/>
       <path id="DejaVuSans-6c" d="M 603 4863 
L 1178 4863 
L 1178 0 
L 603 0 
L 603 4863 
z
" transform="scale(0.015625)"/>
       <path id="DejaVuSans-20" transform="scale(0.015625)"/>
       <path id="DejaVuSans-77" d="M 269 3500 
L 844 3500 
L 1563 769 
L 2278 3500 
L 2956 3500 
L 3675 769 
L 4391 3500 
L 4966 3500 
L 4050 0 
L 3372 0 
L 2619 2869 
L 1863 0 
L 1184 0 
L 269 3500 
z
" transform="scale(0.015625)"/>
       <path id="DejaVuSans-69" d="M 603 3500 
L 1178 3500 
L 1178 0 
L 603 0 
L 603 3500 
z
M 603 4863 
L 1178 4863 
L 1178 4134 
L 603 4134 
L 603 4863 
z
" transform="scale(0.015625)"/>
       <path id="DejaVuSans-64" d="M 2906 2969 
L 2906 4863 
L 3481 4863 
L 3481 0 
L 2906 0 
L 2906 525 
Q 2725 213 2448 61 
Q 2172 -91 1784 -91 
Q 1150 -91 751 415 
Q 353 922 353 1747 
Q 353 2572 751 3078 
Q 1150 3584 1784 3584 
Q 2172 3584 2448 3432 
Q 2725 3281 2906 2969 
z
M 947 1747 
Q 947 1113 1208 752 
Q 1469 391 1925 391 
Q 2381 391 2643 752 
Q 2906 1113 2906 1747 
Q 2906 2381 2643 2742 
Q 2381 3103 1925 3103 
Q 1469 3103 1208 2742 
Q 947 2381 947 1747 
z
" transform="scale(0.015625)"/>
       <path id="DejaVuSans-74" d="M 1172 4494 
L 1172 3500 
L 2356 3500 
L 2356 3053 
L 1172 3053 
L 1172 1153 
Q 1172 725 1289 603 
Q 1406 481 1766 481 
L 2356 481 
L 2356 0 
L 1766 0 
Q 1100 0 847 248 
Q 594 497 594 1153 
L 594 3053 
L 172 3053 
L 172 3500 
L 594 3500 
L 594 4494 
L 1172 4494 
z
" transform="scale(0.015625)"/>
       <path id="DejaVuSans-68" d="M 3513 2113 
L 3513 0 
L 2938 0 
L 2938 2094 
Q 2938 2591 2744 2837 
Q 2550 3084 2163 3084 
Q 1697 3084 1428 2787 
Q 1159 2491 1159 1978 
L 1159 0 
L 581 0 
L 581 4863 
L 1159 4863 
L 1159 2956 
Q 1366 3272 1645 3428 
Q 1925 3584 2291 3584 
Q 2894 3584 3203 3211 
Q 3513 2838 3513 2113 
z
" transform="scale(0.015625)"/>
       <path id="DejaVuSans-28" d="M 1984 4856 
Q 1566 4138 1362 3434 
Q 1159 2731 1159 2009 
Q 1159 1288 1364 580 
Q 1569 -128 1984 -844 
L 1484 -844 
Q 1016 -109 783 600 
Q 550 1309 550 2009 
Q 550 2706 781 3412 
Q 1013 4119 1484 4856 
L 1984 4856 
z
" transform="scale(0.015625)"/>
       <path id="DejaVuSans-63" d="M 3122 3366 
L 3122 2828 
Q 2878 2963 2633 3030 
Q 2388 3097 2138 3097 
Q 1578 3097 1268 2742 
Q 959 2388 959 1747 
Q 959 1106 1268 751 
Q 1578 397 2138 397 
Q 2388 397 2633 464 
Q 2878 531 3122 666 
L 3122 134 
Q 2881 22 2623 -34 
Q 2366 -91 2075 -91 
Q 1284 -91 818 406 
Q 353 903 353 1747 
Q 353 2603 823 3093 
Q 1294 3584 2113 3584 
Q 2378 3584 2631 3529 
Q 2884 3475 3122 3366 
z
" transform="scale(0.015625)"/>
       <path id="DejaVuSans-6d" d="M 3328 2828 
Q 3544 3216 3844 3400 
Q 4144 3584 4550 3584 
Q 5097 3584 5394 3201 
Q 5691 2819 5691 2113 
L 5691 0 
L 5113 0 
L 5113 2094 
Q 5113 2597 4934 2840 
Q 4756 3084 4391 3084 
Q 3944 3084 3684 2787 
Q 3425 2491 3425 1978 
L 3425 0 
L 2847 0 
L 2847 2094 
Q 2847 2600 2669 2842 
Q 2491 3084 2119 3084 
Q 1678 3084 1418 2786 
Q 1159 2488 1159 1978 
L 1159 0 
L 581 0 
L 581 3500 
L 1159 3500 
L 1159 2956 
Q 1356 3278 1631 3431 
Q 1906 3584 2284 3584 
Q 2666 3584 2933 3390 
Q 3200 3197 3328 2828 
z
" transform="scale(0.015625)"/>
       <path id="DejaVuSans-29" d="M 513 4856 
L 1013 4856 
Q 1481 4119 1714 3412 
Q 1947 2706 1947 2009 
Q 1947 1309 1714 600 
Q 1481 -109 1013 -844 
L 513 -844 
Q 928 -128 1133 580 
Q 1338 1288 1338 2009 
Q 1338 2731 1133 3434 
Q 928 4138 513 4856 
z
" transform="scale(0.015625)"/>
      </defs>
      <use xlink:href="#DejaVuSans-56"/>
      <use xlink:href="#DejaVuSans-6f" transform="translate(60.658203 0)"/>
      <use xlink:href="#DejaVuSans-78" transform="translate(118.714844 0)"/>
      <use xlink:href="#DejaVuSans-65" transform="translate(174.769531 0)"/>
      <use xlink:href="#DejaVuSans-6c" transform="translate(236.292969 0)"/>
      <use xlink:href="#DejaVuSans-20" transform="translate(264.076172 0)"/>
      <use xlink:href="#DejaVuSans-77" transform="translate(295.863281 0)"/>
      <use xlink:href="#DejaVuSans-69" transform="translate(377.650391 0)"/>
      <use xlink:href="#DejaVuSans-64" transform="translate(405.433594 0)"/>
      <use xlink:href="#DejaVuSans-74" transform="translate(468.910156 0)"/>
      <use xlink:href="#DejaVuSans-68" transform="translate(508.119141 0)"/>
      <use xlink:href="#DejaVuSans-20" transform="translate(571.498047 0)"/>
      <use xlink:href="#DejaVuSans-28" transform="translate(603.285156 0)"/>
      <use xlink:href="#DejaVuSans-63" transform="translate(642.298828 0)"/>
      <use xlink:href="#DejaVuSans-6d" transform="translate(697.279297 0)"/>
      <use xlink:href="#DejaVuSans-29" transform="translate(794.691406 0)"/>
     </g>
    </g>
   </g>
   <g id="matplotlib.axis_2">
    <g id="ytick_1">
     <g id="line2d_7">
      <defs>
       <path id="m702513da18" d="M 0 0 
L -3.5 0 
" style="stroke: #000000; stroke-width: 0.8"/>
      </defs>
      <g>
       <use xlink:href="#m702513da18" x="42.11" y="269.710909" style="stroke: #000000; stroke-width: 0.8"/>
      </g>
     </g>
     <g id="text_8">
      <!-- 8.28 -->
      <g transform="translate(12.844375 273.510128) scale(0.1 -0.1)">
       <defs>
        <path id="DejaVuSans-38" d="M 2034 2216 
Q 1584 2216 1326 1975 
Q 1069 1734 1069 1313 
Q 1069 891 1326 650 
Q 1584 409 2034 409 
Q 2484 409 2743 651 
Q 3003 894 3003 1313 
Q 3003 1734 2745 1975 
Q 2488 2216 2034 2216 
z
M 1403 2484 
Q 997 2584 770 2862 
Q 544 3141 544 3541 
Q 544 4100 942 4425 
Q 1341 4750 2034 4750 
Q 2731 4750 3128 4425 
Q 3525 4100 3525 3541 
Q 3525 3141 3298 2862 
Q 3072 2584 2669 2484 
Q 3125 2378 3379 2068 
Q 3634 1759 3634 1313 
Q 3634 634 3220 271 
Q 2806 -91 2034 -91 
Q 1263 -91 848 271 
Q 434 634 434 1313 
Q 434 1759 690 2068 
Q 947 2378 1403 2484 
z
M 1172 3481 
Q 1172 3119 1398 2916 
Q 1625 2713 2034 2713 
Q 2441 2713 2670 2916 
Q 2900 3119 2900 3481 
Q 2900 3844 2670 4047 
Q 2441 4250 2034 4250 
Q 1625 4250 1398 4047 
Q 1172 3844 1172 3481 
z
" transform="scale(0.015625)"/>
        <path id="DejaVuSans-2e" d="M 684 794 
L 1344 794 
L 1344 0 
L 684 0 
L 684 794 
z
" transform="scale(0.015625)"/>
       </defs>
       <use xlink:href="#DejaVuSans-38"/>
       <use xlink:href="#DejaVuSans-2e" transform="translate(63.623047 0)"/>
       <use xlink:href="#DejaVuSans-32" transform="translate(95.410156 0)"/>
       <use xlink:href="#DejaVuSans-38" transform="translate(159.033203 0)"/>
      </g>
     </g>
    </g>
    <g id="ytick_2">
     <g id="line2d_8">
      <g>
       <use xlink:href="#m702513da18" x="42.11" y="233.141197" style="stroke: #000000; stroke-width: 0.8"/>
      </g>
     </g>
    </g>
    <g id="ytick_3">
     <g id="line2d_9">
      <g>
       <use xlink:href="#m702513da18" x="42.11" y="201.925314" style="stroke: #000000; stroke-width: 0.8"/>
      </g>
     </g>
     <g id="text_9">
      <!-- 30 -->
      <g transform="translate(22.385 205.724533) scale(0.1 -0.1)">
       <use xlink:href="#DejaVuSans-33"/>
       <use xlink:href="#DejaVuSans-30" transform="translate(63.623047 0)"/>
      </g>
     </g>
    </g>
    <g id="ytick_4">
     <g id="line2d_10">
      <g>
       <use xlink:href="#m702513da18" x="42.11" y="170.709432" style="stroke: #000000; stroke-width: 0.8"/>
      </g>
     </g>
    </g>
    <g id="ytick_5">
     <g id="line2d_11">
      <g>
       <use xlink:href="#m702513da18" x="42.11" y="139.49355" style="stroke: #000000; stroke-width: 0.8"/>
      </g>
     </g>
     <g id="text_10">
      <!-- 50 -->
      <g transform="translate(22.385 143.292769) scale(0.1 -0.1)">
       <use xlink:href="#DejaVuSans-35"/>
       <use xlink:href="#DejaVuSans-30" transform="translate(63.623047 0)"/>
      </g>
     </g>
    </g>
    <g id="ytick_6">
     <g id="line2d_12">
      <g>
       <use xlink:href="#m702513da18" x="42.11" y="108.277668" style="stroke: #000000; stroke-width: 0.8"/>
      </g>
     </g>
    </g>
    <g id="ytick_7">
     <g id="line2d_13">
      <g>
       <use xlink:href="#m702513da18" x="42.11" y="77.061785" style="stroke: #000000; stroke-width: 0.8"/>
      </g>
     </g>
     <g id="text_11">
      <!-- 70 -->
      <g transform="translate(22.385 80.861004) scale(0.1 -0.1)">
       <defs>
        <path id="DejaVuSans-37" d="M 525 4666 
L 3525 4666 
L 3525 4397 
L 1831 0 
L 1172 0 
L 2766 4134 
L 525 4134 
L 525 4666 
z
" transform="scale(0.015625)"/>
       </defs>
       <use xlink:href="#DejaVuSans-37"/>
       <use xlink:href="#DejaVuSans-30" transform="translate(63.623047 0)"/>
      </g>
     </g>
    </g>
    <g id="ytick_8">
     <g id="line2d_14">
      <g>
       <use xlink:href="#m702513da18" x="42.11" y="45.845903" style="stroke: #000000; stroke-width: 0.8"/>
      </g>
     </g>
    </g>
    <g id="ytick_9">
     <g id="line2d_15">
      <g>
       <use xlink:href="#m702513da18" x="42.11" y="23.129091" style="stroke: #000000; stroke-width: 0.8"/>
      </g>
     </g>
     <g id="text_12">
      <!-- 87.3 -->
      <g transform="translate(12.844375 26.92831) scale(0.1 -0.1)">
       <use xlink:href="#DejaVuSans-38"/>
       <use xlink:href="#DejaVuSans-37" transform="translate(63.623047 0)"/>
       <use xlink:href="#DejaVuSans-2e" transform="translate(127.246094 0)"/>
       <use xlink:href="#DejaVuSans-33" transform="translate(159.033203 0)"/>
      </g>
     </g>
    </g>
    <g id="text_13">
     <!-- Average query time (ns) -->
     <g transform="translate(18.764688 207.125469) rotate(-90) scale(0.1 -0.1)">
      <defs>
       <path id="DejaVuSans-41" d="M 2188 4044 
L 1331 1722 
L 3047 1722 
L 2188 4044 
z
M 1831 4666 
L 2547 4666 
L 4325 0 
L 3669 0 
L 3244 1197 
L 1141 1197 
L 716 0 
L 50 0 
L 1831 4666 
z
" transform="scale(0.015625)"/>
       <path id="DejaVuSans-76" d="M 191 3500 
L 800 3500 
L 1894 563 
L 2988 3500 
L 3597 3500 
L 2284 0 
L 1503 0 
L 191 3500 
z
" transform="scale(0.015625)"/>
       <path id="DejaVuSans-72" d="M 2631 2963 
Q 2534 3019 2420 3045 
Q 2306 3072 2169 3072 
Q 1681 3072 1420 2755 
Q 1159 2438 1159 1844 
L 1159 0 
L 581 0 
L 581 3500 
L 1159 3500 
L 1159 2956 
Q 1341 3275 1631 3429 
Q 1922 3584 2338 3584 
Q 2397 3584 2469 3576 
Q 2541 3569 2628 3553 
L 2631 2963 
z
" transform="scale(0.015625)"/>
       <path id="DejaVuSans-61" d="M 2194 1759 
Q 1497 1759 1228 1600 
Q 959 1441 959 1056 
Q 959 750 1161 570 
Q 1363 391 1709 391 
Q 2188 391 2477 730 
Q 2766 1069 2766 1631 
L 2766 1759 
L 2194 1759 
z
M 3341 1997 
L 3341 0 
L 2766 0 
L 2766 531 
Q 2569 213 2275 61 
Q 1981 -91 1556 -91 
Q 1019 -91 701 211 
Q 384 513 384 1019 
Q 384 1609 779 1909 
Q 1175 2209 1959 2209 
L 2766 2209 
L 2766 2266 
Q 2766 2663 2505 2880 
Q 2244 3097 1772 3097 
Q 1472 3097 1187 3025 
Q 903 2953 641 2809 
L 641 3341 
Q 956 3463 1253 3523 
Q 1550 3584 1831 3584 
Q 2591 3584 2966 3190 
Q 3341 2797 3341 1997 
z
" transform="scale(0.015625)"/>
       <path id="DejaVuSans-67" d="M 2906 1791 
Q 2906 2416 2648 2759 
Q 2391 3103 1925 3103 
Q 1463 3103 1205 2759 
Q 947 2416 947 1791 
Q 947 1169 1205 825 
Q 1463 481 1925 481 
Q 2391 481 2648 825 
Q 2906 1169 2906 1791 
z
M 3481 434 
Q 3481 -459 3084 -895 
Q 2688 -1331 1869 -1331 
Q 1566 -1331 1297 -1286 
Q 1028 -1241 775 -1147 
L 775 -588 
Q 1028 -725 1275 -790 
Q 1522 -856 1778 -856 
Q 2344 -856 2625 -561 
Q 2906 -266 2906 331 
L 2906 616 
Q 2728 306 2450 153 
Q 2172 0 1784 0 
Q 1141 0 747 490 
Q 353 981 353 1791 
Q 353 2603 747 3093 
Q 1141 3584 1784 3584 
Q 2172 3584 2450 3431 
Q 2728 3278 2906 2969 
L 2906 3500 
L 3481 3500 
L 3481 434 
z
" transform="scale(0.015625)"/>
       <path id="DejaVuSans-71" d="M 947 1747 
Q 947 1113 1208 752 
Q 1469 391 1925 391 
Q 2381 391 2643 752 
Q 2906 1113 2906 1747 
Q 2906 2381 2643 2742 
Q 2381 3103 1925 3103 
Q 1469 3103 1208 2742 
Q 947 2381 947 1747 
z
M 2906 525 
Q 2725 213 2448 61 
Q 2172 -91 1784 -91 
Q 1150 -91 751 415 
Q 353 922 353 1747 
Q 353 2572 751 3078 
Q 1150 3584 1784 3584 
Q 2172 3584 2448 3432 
Q 2725 3281 2906 2969 
L 2906 3500 
L 3481 3500 
L 3481 -1331 
L 2906 -1331 
L 2906 525 
z
" transform="scale(0.015625)"/>
       <path id="DejaVuSans-75" d="M 544 1381 
L 544 3500 
L 1119 3500 
L 1119 1403 
Q 1119 906 1312 657 
Q 1506 409 1894 409 
Q 2359 409 2629 706 
Q 2900 1003 2900 1516 
L 2900 3500 
L 3475 3500 
L 3475 0 
L 2900 0 
L 2900 538 
Q 2691 219 2414 64 
Q 2138 -91 1772 -91 
Q 1169 -91 856 284 
Q 544 659 544 1381 
z
M 1991 3584 
L 1991 3584 
z
" transform="scale(0.015625)"/>
       <path id="DejaVuSans-79" d="M 2059 -325 
Q 1816 -950 1584 -1140 
Q 1353 -1331 966 -1331 
L 506 -1331 
L 506 -850 
L 844 -850 
Q 1081 -850 1212 -737 
Q 1344 -625 1503 -206 
L 1606 56 
L 191 3500 
L 800 3500 
L 1894 763 
L 2988 3500 
L 3597 3500 
L 2059 -325 
z
" transform="scale(0.015625)"/>
       <path id="DejaVuSans-6e" d="M 3513 2113 
L 3513 0 
L 2938 0 
L 2938 2094 
Q 2938 2591 2744 2837 
Q 2550 3084 2163 3084 
Q 1697 3084 1428 2787 
Q 1159 2491 1159 1978 
L 1159 0 
L 581 0 
L 581 3500 
L 1159 3500 
L 1159 2956 
Q 1366 3272 1645 3428 
Q 1925 3584 2291 3584 
Q 2894 3584 3203 3211 
Q 3513 2838 3513 2113 
z
" transform="scale(0.015625)"/>
       <path id="DejaVuSans-73" d="M 2834 3397 
L 2834 2853 
Q 2591 2978 2328 3040 
Q 2066 3103 1784 3103 
Q 1356 3103 1142 2972 
Q 928 2841 928 2578 
Q 928 2378 1081 2264 
Q 1234 2150 1697 2047 
L 1894 2003 
Q 2506 1872 2764 1633 
Q 3022 1394 3022 966 
Q 3022 478 2636 193 
Q 2250 -91 1575 -91 
Q 1294 -91 989 -36 
Q 684 19 347 128 
L 347 722 
Q 666 556 975 473 
Q 1284 391 1588 391 
Q 1994 391 2212 530 
Q 2431 669 2431 922 
Q 2431 1156 2273 1281 
Q 2116 1406 1581 1522 
L 1381 1569 
Q 847 1681 609 1914 
Q 372 2147 372 2553 
Q 372 3047 722 3315 
Q 1072 3584 1716 3584 
Q 2034 3584 2315 3537 
Q 2597 3491 2834 3397 
z
" transform="scale(0.015625)"/>
      </defs>
      <use xlink:href="#DejaVuSans-41"/>
      <use xlink:href="#DejaVuSans-76" transform="translate(62.533203 0)"/>
      <use xlink:href="#DejaVuSans-65" transform="translate(121.712891 0)"/>
      <use xlink:href="#DejaVuSans-72" transform="translate(183.236328 0)"/>
      <use xlink:href="#DejaVuSans-61" transform="translate(224.349609 0)"/>
      <use xlink:href="#DejaVuSans-67" transform="translate(285.628906 0)"/>
      <use xlink:href="#DejaVuSans-65" transform="translate(349.105469 0)"/>
      <use xlink:href="#DejaVuSans-20" transform="translate(410.628906 0)"/>
      <use xlink:href="#DejaVuSans-71" transform="translate(442.416016 0)"/>
      <use xlink:href="#DejaVuSans-75" transform="translate(505.892578 0)"/>
      <use xlink:href="#DejaVuSans-65" transform="translate(569.271484 0)"/>
      <use xlink:href="#DejaVuSans-72" transform="translate(630.794922 0)"/>
      <use xlink:href="#DejaVuSans-79" transform="translate(671.908203 0)"/>
      <use xlink:href="#DejaVuSans-20" transform="translate(731.087891 0)"/>
      <use xlink:href="#DejaVuSans-74" transform="translate(762.875 0)"/>
      <use xlink:href="#DejaVuSans-69" transform="translate(802.083984 0)"/>
      <use xlink:href="#DejaVuSans-6d" transform="translate(829.867188 0)"/>
      <use xlink:href="#DejaVuSans-65" transform="translate(927.279297 0)"/>
      <use xlink:href="#DejaVuSans-20" transform="translate(988.802734 0)"/>
      <use xlink:href="#DejaVuSans-28" transform="translate(1020.589844 0)"/>
      <use xlink:href="#DejaVuSans-6e" transform="translate(1059.603516 0)"/>
      <use xlink:href="#DejaVuSans-73" transform="translate(1122.982422 0)"/>
      <use xlink:href="#DejaVuSans-29" transform="translate(1175.082031 0)"/>
     </g>
    </g>
   </g>
   <g id="line2d_16">
    <path d="M 56.068636 227.788271 
L 62.137609 235.83674 
L 68.206582 244.772313 
L 74.275553 239.482313 
L 80.344526 240.862731 
L 86.413498 245.408206 
L 92.482467 245.688004 
L 98.551443 242.818276 
L 104.620418 244.690917 
L 110.689387 244.210062 
L 116.75836 248.217583 
L 122.827332 235.12507 
L 128.896304 234.566644 
L 134.965271 245.05877 
L 141.034249 244.238781 
L 147.103221 242.335028 
L 153.172206 242.060043 
L 159.241172 238.860181 
L 165.310138 237.808752 
L 171.379105 237.610323 
L 177.448089 233.21086 
L 183.517055 233.801647 
L 189.58604 227.922786 
L 195.655 223.387664 
L 201.723972 222.442708 
L 207.792945 222.445959 
L 213.861905 222.065672 
L 219.930871 222.669595 
L 225.999862 222.217797 
L 232.068834 205.525676 
L 238.137806 206.113471 
L 244.206779 172.129339 
L 250.275751 171.6335 
L 256.344723 171.46673 
L 262.413696 172.036523 
L 268.482668 172.35927 
L 274.55164 172.169503 
L 280.620613 137.307762 
L 286.689585 136.948155 
L 292.758545 77.499952 
L 298.82753 57.309624 
L 304.896514 64.785593 
L 310.965474 45.432293 
L 317.034447 48.387708 
L 323.103431 57.97101 
L 329.172391 49.147659 
L 335.241364 39.387701 
" clip-path="url(#pfe5311b21c)" style="fill: none; stroke: #cc79a7; stroke-width: 2; stroke-linecap: square"/>
   </g>
   <g id="line2d_17">
    <path d="M 56.068636 69.935902 
L 62.137609 160.024648 
L 68.206582 195.253499 
L 74.275553 213.032371 
L 80.344526 222.836801 
L 86.413498 229.723069 
L 92.482467 236.911808 
L 98.551443 240.004432 
L 104.620418 242.622408 
L 110.689387 243.230906 
L 116.75836 247.578754 
L 122.827332 246.354735 
L 128.896304 247.147897 
L 134.965271 248.372708 
L 141.034249 248.862808 
L 147.103221 248.202526 
L 153.172206 248.454939 
L 159.241172 247.249025 
L 165.310138 247.004025 
L 171.379105 243.50041 
L 177.448089 245.67347 
L 183.517055 245.557626 
L 189.58604 243.749078 
L 195.655 242.758754 
L 201.723972 240.859257 
L 207.792945 239.202117 
L 213.861905 233.866665 
L 219.930871 230.5334 
L 225.999862 228.116276 
L 232.068834 224.704324 
L 238.137806 223.353914 
L 244.206779 223.444685 
L 250.275751 218.187496 
L 256.344723 212.058692 
L 262.413696 211.249398 
L 268.482668 204.219481 
L 274.55164 199.164069 
L 280.620613 187.831979 
L 286.689585 171.272611 
L 292.758545 147.538251 
L 298.82753 131.241899 
L 304.896514 119.976957 
L 310.965474 104.599679 
L 317.034447 92.172157 
L 323.103431 84.25068 
L 329.172391 74.955895 
L 335.241364 73.310194 
" clip-path="url(#pfe5311b21c)" style="fill: none; stroke: #d55e00; stroke-width: 2; stroke-linecap: square"/>
   </g>
   <g id="line2d_18">
    <path d="M 56.068636 130.900401 
L 62.137609 172.267575 
L 68.206582 213.183338 
L 74.275553 224.345616 
L 80.344526 230.508059 
L 86.413498 233.59715 
L 92.482467 239.023763 
L 98.551443 242.14204 
L 104.620418 241.970147 
L 110.689387 241.33955 
L 116.75836 245.570398 
L 122.827332 243.990597 
L 128.896304 243.977968 
L 134.965271 245.296114 
L 141.034249 245.883286 
L 147.103221 244.153932 
L 153.172206 243.92793 
L 159.241172 242.680617 
L 165.310138 241.782482 
L 171.379105 240.761294 
L 177.448089 238.138369 
L 183.517055 236.754938 
L 189.58604 235.219839 
L 195.655 233.455785 
L 201.723972 229.62894 
L 207.792945 226.552411 
L 213.861905 219.224944 
L 219.930871 215.510747 
L 225.999862 211.867239 
L 232.068834 204.131294 
L 238.137806 199.675976 
L 244.206779 192.172499 
L 250.275751 190.838166 
L 256.344723 178.753254 
L 262.413696 162.178961 
L 268.482668 154.930896 
L 274.55164 134.42428 
L 280.620613 116.682636 
L 286.689585 99.989408 
L 292.758545 78.952695 
L 298.82753 75.119283 
L 304.896514 64.437558 
L 310.965474 61.660784 
L 317.034447 57.046674 
L 323.103431 45.244883 
L 329.172391 31.735507 
L 335.241364 23.129091 
" clip-path="url(#pfe5311b21c)" style="fill: none; stroke: #0072b2; stroke-width: 2; stroke-linecap: square"/>
   </g>
   <g id="line2d_19">
    <path d="M 56.068636 192.875959 
L 62.137609 228.406645 
L 68.206582 247.022939 
L 74.275553 255.171688 
L 80.344526 260.063283 
L 86.413498 261.909457 
L 92.482467 264.16001 
L 98.551443 265.734672 
L 104.620418 266.00615 
L 110.689387 266.247396 
L 116.75836 268.582297 
L 122.827332 268.476493 
L 128.896304 268.991546 
L 134.965271 268.987807 
L 141.034249 268.681957 
L 147.103221 268.552323 
L 153.172206 269.605485 
L 159.241172 269.518116 
L 165.310138 269.471588 
L 171.379105 269.20293 
L 177.448089 269.710909 
L 183.517055 268.317725 
L 189.58604 267.703449 
L 195.655 266.904461 
L 201.723972 265.931685 
L 207.792945 264.641406 
L 213.861905 264.037249 
L 219.930871 261.677411 
L 225.999862 260.511001 
L 232.068834 259.600903 
L 238.137806 259.616786 
L 244.206779 258.683699 
L 250.275751 258.399103 
L 256.344723 254.505602 
L 262.413696 252.153531 
L 268.482668 249.459715 
L 274.55164 244.024973 
L 280.620613 237.049797 
L 286.689585 233.357126 
L 292.758545 229.296473 
L 298.82753 226.553398 
L 304.896514 225.589184 
L 310.965474 219.294589 
L 317.034447 214.733412 
L 323.103431 212.713394 
L 329.172391 211.447247 
L 335.241364 208.713417 
" clip-path="url(#pfe5311b21c)" style="fill: none; stroke: #009e73; stroke-width: 2; stroke-linecap: square"/>
   </g>
   <g id="patch_3">
    <path d="M 42.11 269.710909 
L 42.11 23.129091 
" style="fill: none; stroke: #000000; stroke-width: 0.8; stroke-linejoin: miter; stroke-linecap: square"/>
   </g>
   <g id="patch_4">
    <path d="M 56.068636 282.04 
L 335.241364 282.04 
" style="fill: none; stroke: #000000; stroke-width: 0.8; stroke-linejoin: miter; stroke-linecap: square"/>
   </g>
   <g id="PathCollection_1">
    <defs>
     <path id="mf232cb98c4" d="M 0 3.162278 
C 0.838646 3.162278 1.643056 2.82908 2.236068 2.236068 
C 2.82908 1.643056 3.162278 0.838646 3.162278 0 
C 3.162278 -0.838646 2.82908 -1.643056 2.236068 -2.236068 
C 1.643056 -2.82908 0.838646 -3.162278 0 -3.162278 
C -0.838646 -3.162278 -1.643056 -2.82908 -2.236068 -2.236068 
C -2.82908 -1.643056 -3.162278 -0.838646 -3.162278 0 
C -3.162278 0.838646 -2.82908 1.643056 -2.236068 2.236068 
C -1.643056 2.82908 -0.838646 3.162278 0 3.162278 
z
" style="stroke: #ffffff"/>
    </defs>
    <g clip-path="url(#pfe5311b21c)">
     <use xlink:href="#mf232cb98c4" x="92.48247" y="242.392128" style="fill: #cc79a7; stroke: #ffffff"/>
    </g>
   </g>
   <g id="PathCollection_2">
    <defs>
     <path id="m97d4c121ba" d="M 0 3.162278 
C 0.838646 3.162278 1.643056 2.82908 2.236068 2.236068 
C 2.82908 1.643056 3.162278 0.838646 3.162278 0 
C 3.162278 -0.838646 2.82908 -1.643056 2.236068 -2.236068 
C 1.643056 -2.82908 0.838646 -3.162278 0 -3.162278 
C -0.838646 -3.162278 -1.643056 -2.82908 -2.236068 -2.236068 
C -2.82908 -1.643056 -3.162278 -0.838646 -3.162278 0 
C -3.162278 0.838646 -2.82908 1.643056 -2.236068 2.236068 
C -1.643056 2.82908 -0.838646 3.162278 0 3.162278 
z
" style="stroke: #ffffff"/>
    </defs>
    <g clip-path="url(#pfe5311b21c)">
     <use xlink:href="#m97d4c121ba" x="122.827332" y="234.532411" style="fill: #d55e00; stroke: #ffffff"/>
    </g>
   </g>
   <g id="PathCollection_3">
    <defs>
     <path id="md0db867d76" d="M 0 3.162278 
C 0.838646 3.162278 1.643056 2.82908 2.236068 2.236068 
C 2.82908 1.643056 3.162278 0.838646 3.162278 0 
C 3.162278 -0.838646 2.82908 -1.643056 2.236068 -2.236068 
C 1.643056 -2.82908 0.838646 -3.162278 0 -3.162278 
C -0.838646 -3.162278 -1.643056 -2.82908 -2.236068 -2.236068 
C -2.82908 -1.643056 -3.162278 -0.838646 -3.162278 0 
C -3.162278 0.838646 -2.82908 1.643056 -2.236068 2.236068 
C -1.643056 2.82908 -0.838646 3.162278 0 3.162278 
z
" style="stroke: #ffffff"/>
    </defs>
    <g clip-path="url(#pfe5311b21c)">
     <use xlink:href="#md0db867d76" x="68.206581" y="213.432205" style="fill: #0072b2; stroke: #ffffff"/>
    </g>
   </g>
   <g id="PathCollection_4">
    <defs>
     <path id="m1f93fac301" d="M 0 3.162278 
C 0.838646 3.162278 1.643056 2.82908 2.236068 2.236068 
C 2.82908 1.643056 3.162278 0.838646 3.162278 0 
C 3.162278 -0.838646 2.82908 -1.643056 2.236068 -2.236068 
C 1.643056 -2.82908 0.838646 -3.162278 0 -3.162278 
C -0.838646 -3.162278 -1.643056 -2.82908 -2.236068 -2.236068 
C -2.82908 -1.643056 -3.162278 -0.838646 -3.162278 0 
C -3.162278 0.838646 -2.82908 1.643056 -2.236068 2.236068 
C -1.643056 2.82908 -0.838646 3.162278 0 3.162278 
z
" style="stroke: #ffffff"/>
    </defs>
    <g clip-path="url(#pfe5311b21c)">
     <use xlink:href="#m1f93fac301" x="80.344526" y="260.098719" style="fill: #009e73; stroke: #ffffff"/>
    </g>
   </g>
   <g id="legend_1">
    <g id="line2d_20">
     <path d="M 165.108906 23.898438 
L 175.108906 23.898438 
L 185.108906 23.898438 
" style="fill: none; stroke: #cc79a7; stroke-width: 2; stroke-linecap: square"/>
    </g>
    <g id="text_14">
     <!-- Baxter -->
     <g transform="translate(193.108906 27.398438) scale(0.1 -0.1)">
      <defs>
       <path id="DejaVuSans-42" d="M 1259 2228 
L 1259 519 
L 2272 519 
Q 2781 519 3026 730 
Q 3272 941 3272 1375 
Q 3272 1813 3026 2020 
Q 2781 2228 2272 2228 
L 1259 2228 
z
M 1259 4147 
L 1259 2741 
L 2194 2741 
Q 2656 2741 2882 2914 
Q 3109 3088 3109 3444 
Q 3109 3797 2882 3972 
Q 2656 4147 2194 4147 
L 1259 4147 
z
M 628 4666 
L 2241 4666 
Q 2963 4666 3353 4366 
Q 3744 4066 3744 3513 
Q 3744 3084 3544 2831 
Q 3344 2578 2956 2516 
Q 3422 2416 3680 2098 
Q 3938 1781 3938 1306 
Q 3938 681 3513 340 
Q 3088 0 2303 0 
L 628 0 
L 628 4666 
z
" transform="scale(0.015625)"/>
      </defs>
      <use xlink:href="#DejaVuSans-42"/>
      <use xlink:href="#DejaVuSans-61" transform="translate(68.603516 0)"/>
      <use xlink:href="#DejaVuSans-78" transform="translate(129.882812 0)"/>
      <use xlink:href="#DejaVuSans-74" transform="translate(189.0625 0)"/>
      <use xlink:href="#DejaVuSans-65" transform="translate(228.271484 0)"/>
      <use xlink:href="#DejaVuSans-72" transform="translate(289.794922 0)"/>
     </g>
    </g>
    <g id="line2d_21">
     <path d="M 165.108906 38.576563 
L 175.108906 38.576563 
L 185.108906 38.576563 
" style="fill: none; stroke: #d55e00; stroke-width: 2; stroke-linecap: square"/>
    </g>
    <g id="text_15">
     <!-- Fetch -->
     <g transform="translate(193.108906 42.076563) scale(0.1 -0.1)">
      <defs>
       <path id="DejaVuSans-46" d="M 628 4666 
L 3309 4666 
L 3309 4134 
L 1259 4134 
L 1259 2759 
L 3109 2759 
L 3109 2228 
L 1259 2228 
L 1259 0 
L 628 0 
L 628 4666 
z
" transform="scale(0.015625)"/>
      </defs>
      <use xlink:href="#DejaVuSans-46"/>
      <use xlink:href="#DejaVuSans-65" transform="translate(52.019531 0)"/>
      <use xlink:href="#DejaVuSans-74" transform="translate(113.542969 0)"/>
      <use xlink:href="#DejaVuSans-63" transform="translate(152.751953 0)"/>
      <use xlink:href="#DejaVuSans-68" transform="translate(207.732422 0)"/>
     </g>
    </g>
    <g id="line2d_22">
     <path d="M 165.108906 53.254687 
L 175.108906 53.254687 
L 185.108906 53.254687 
" style="fill: none; stroke: #0072b2; stroke-width: 2; stroke-linecap: square"/>
    </g>
    <g id="text_16">
     <!-- Panda -->
     <g transform="translate(193.108906 56.754687) scale(0.1 -0.1)">
      <defs>
       <path id="DejaVuSans-50" d="M 1259 4147 
L 1259 2394 
L 2053 2394 
Q 2494 2394 2734 2622 
Q 2975 2850 2975 3272 
Q 2975 3691 2734 3919 
Q 2494 4147 2053 4147 
L 1259 4147 
z
M 628 4666 
L 2053 4666 
Q 2838 4666 3239 4311 
Q 3641 3956 3641 3272 
Q 3641 2581 3239 2228 
Q 2838 1875 2053 1875 
L 1259 1875 
L 1259 0 
L 628 0 
L 628 4666 
z
" transform="scale(0.015625)"/>
      </defs>
      <use xlink:href="#DejaVuSans-50"/>
      <use xlink:href="#DejaVuSans-61" transform="translate(55.802734 0)"/>
      <use xlink:href="#DejaVuSans-6e" transform="translate(117.082031 0)"/>
      <use xlink:href="#DejaVuSans-64" transform="translate(180.460938 0)"/>
      <use xlink:href="#DejaVuSans-61" transform="translate(243.9375 0)"/>
     </g>
    </g>
    <g id="line2d_23">
     <path d="M 165.108906 67.932813 
L 175.108906 67.932813 
L 185.108906 67.932813 
" style="fill: none; stroke: #009e73; stroke-width: 2; stroke-linecap: square"/>
    </g>
    <g id="text_17">
     <!-- UR5 -->
     <g transform="translate(193.108906 71.432813) scale(0.1 -0.1)">
      <defs>
       <path id="DejaVuSans-55" d="M 556 4666 
L 1191 4666 
L 1191 1831 
Q 1191 1081 1462 751 
Q 1734 422 2344 422 
Q 2950 422 3222 751 
Q 3494 1081 3494 1831 
L 3494 4666 
L 4128 4666 
L 4128 1753 
Q 4128 841 3676 375 
Q 3225 -91 2344 -91 
Q 1459 -91 1007 375 
Q 556 841 556 1753 
L 556 4666 
z
" transform="scale(0.015625)"/>
       <path id="DejaVuSans-52" d="M 2841 2188 
Q 3044 2119 3236 1894 
Q 3428 1669 3622 1275 
L 4263 0 
L 3584 0 
L 2988 1197 
Q 2756 1666 2539 1819 
Q 2322 1972 1947 1972 
L 1259 1972 
L 1259 0 
L 628 0 
L 628 4666 
L 2053 4666 
Q 2853 4666 3247 4331 
Q 3641 3997 3641 3322 
Q 3641 2881 3436 2590 
Q 3231 2300 2841 2188 
z
M 1259 4147 
L 1259 2491 
L 2053 2491 
Q 2509 2491 2742 2702 
Q 2975 2913 2975 3322 
Q 2975 3731 2742 3939 
Q 2509 4147 2053 4147 
L 1259 4147 
z
" transform="scale(0.015625)"/>
      </defs>
      <use xlink:href="#DejaVuSans-55"/>
      <use xlink:href="#DejaVuSans-52" transform="translate(73.193359 0)"/>
      <use xlink:href="#DejaVuSans-35" transform="translate(142.675781 0)"/>
     </g>
    </g>
    <g id="PathCollection_5">
     <g>
      <use xlink:href="#mf232cb98c4" x="175.108906" y="83.485938" style="fill: #cc79a7; stroke: #ffffff"/>
     </g>
    </g>
    <g id="text_18">
     <!-- $r_\text{max}$ -->
     <g transform="translate(193.108906 86.110938) scale(0.1 -0.1)">
      <defs>
       <path id="DejaVuSans-Oblique-72" d="M 2853 2969 
Q 2766 3016 2653 3041 
Q 2541 3066 2413 3066 
Q 1953 3066 1609 2717 
Q 1266 2369 1153 1784 
L 800 0 
L 225 0 
L 909 3500 
L 1484 3500 
L 1375 2956 
Q 1603 3259 1920 3421 
Q 2238 3584 2597 3584 
Q 2691 3584 2781 3573 
Q 2872 3563 2963 3538 
L 2853 2969 
z
" transform="scale(0.015625)"/>
      </defs>
      <use xlink:href="#DejaVuSans-Oblique-72"/>
      <use xlink:href="#DejaVuSans-6d" transform="translate(41.113281 -16.40625) scale(0.7)"/>
      <use xlink:href="#DejaVuSans-61" transform="translate(109.301758 -16.40625) scale(0.7)"/>
      <use xlink:href="#DejaVuSans-78" transform="translate(152.197266 -16.40625) scale(0.7)"/>
     </g>
    </g>
   </g>
  </g>
 </g>
 <defs>
  <clipPath id="pfe5311b21c">
   <rect x="42.11" y="10.8" width="307.09" height="271.24"/>
  </clipPath>
 </defs>
</svg>
